<svg width="90" height="84" viewBox="0 0 90 84" fill="none" xmlns="http://www.w3.org/2000/svg">
<path d="M18.5043 14.56V15.8768C19.374 15.9662 20.1178 16.145 20.7355 16.4133C21.3614 16.6815 21.906 17.0879 22.3693 17.6325C22.7351 18.047 23.0155 18.4738 23.2106 18.9127C23.4138 19.3516 23.5154 19.754 23.5154 20.1197C23.5154 20.5261 23.365 20.8797 23.0642 21.1805C22.7716 21.4731 22.414 21.6194 21.9913 21.6194C21.1948 21.6194 20.6786 21.1886 20.4429 20.327C20.1747 19.311 19.5285 18.6363 18.5043 18.3031V23.3751C19.5122 23.6514 20.3128 23.9034 20.9062 24.131C21.5077 24.3586 22.0442 24.6878 22.5156 25.1186C23.0195 25.5656 23.4056 26.1021 23.6739 26.728C23.9502 27.3457 24.0884 28.0244 24.0884 28.7641C24.0884 29.6907 23.8689 30.5604 23.43 31.3733C22.9992 32.178 22.3612 32.8363 21.5158 33.3484C20.6705 33.8605 19.6667 34.1653 18.5043 34.2628V37.2987C18.5043 37.7783 18.4555 38.1278 18.358 38.3473C18.2686 38.5667 18.0654 38.6765 17.7484 38.6765C17.4558 38.6765 17.2485 38.5871 17.1266 38.4082C17.0128 38.2294 16.9559 37.9531 16.9559 37.5792V34.2872C16.0049 34.1816 15.1717 33.958 14.4565 33.6167C13.7493 33.2753 13.1559 32.8526 12.6764 32.3486C12.2049 31.8366 11.8554 31.3082 11.6278 30.7636C11.4002 30.2109 11.2865 29.6704 11.2865 29.1421C11.2865 28.7519 11.4368 28.4024 11.7376 28.0935C12.0464 27.7765 12.4285 27.618 12.8836 27.618C13.2494 27.618 13.5583 27.7034 13.8103 27.8741C14.0622 28.0448 14.237 28.2845 14.3345 28.5934C14.554 29.2599 14.745 29.772 14.9076 30.1296C15.0701 30.4792 15.314 30.8002 15.6391 31.0928C15.9724 31.3855 16.4113 31.609 16.9559 31.7634V26.094C15.8667 25.7932 14.9563 25.46 14.2248 25.0942C13.4933 24.7203 12.8999 24.192 12.4447 23.5092C11.9895 22.8264 11.762 21.9486 11.762 20.8757C11.762 19.4776 12.2049 18.3315 13.0909 17.4374C13.985 16.5433 15.2733 16.0231 16.9559 15.8768V14.5844C16.9559 13.9016 17.2119 13.5603 17.724 13.5603C18.2442 13.5603 18.5043 13.8935 18.5043 14.56ZM16.9559 22.924V18.2543C16.2731 18.4575 15.7407 18.7257 15.3587 19.059C14.9767 19.3923 14.7857 19.8962 14.7857 20.5709C14.7857 21.213 14.9645 21.7007 15.3221 22.0339C15.6798 22.3591 16.2243 22.6557 16.9559 22.924ZM18.5043 26.5451V31.8853C19.3253 31.7228 19.9593 31.3936 20.4063 30.8978C20.8534 30.4019 21.0769 29.8248 21.0769 29.1664C21.0769 28.4593 20.8574 27.9147 20.4185 27.5327C19.9877 27.1425 19.3497 26.8133 18.5043 26.5451Z" fill="#D4D4D6"/>
<path d="M18.5043 15.8768H17.0626V17.1779L18.3569 17.3109L18.5043 15.8768ZM20.7355 16.4133L20.1613 17.7357L20.1676 17.7384L20.7355 16.4133ZM22.3693 17.6325L21.2712 18.5667L21.2796 18.5766L21.2883 18.5863L22.3693 17.6325ZM23.2106 18.9127L21.8931 19.4982L21.8976 19.5083L21.9023 19.5184L23.2106 18.9127ZM20.4429 20.327L19.0489 20.695L19.0523 20.7074L20.4429 20.327ZM18.5043 18.3031L18.9504 16.9321L17.0626 16.3179V18.3031H18.5043ZM18.5043 23.3751H17.0626V24.4747L18.1231 24.7655L18.5043 23.3751ZM20.9062 24.131L20.3899 25.4771L20.396 25.4794L20.9062 24.131ZM22.5156 25.1186L21.5431 26.1829L21.5509 26.19L21.5589 26.1971L22.5156 25.1186ZM23.6739 26.728L22.3488 27.2959L22.3532 27.3063L22.3579 27.3167L23.6739 26.728ZM23.43 31.3733L22.1615 30.6882L22.159 30.6928L23.43 31.3733ZM18.5043 34.2628L18.3838 32.8262L17.0626 32.9371V34.2628H18.5043ZM18.358 38.3473L17.0406 37.7618L17.0314 37.7824L17.0229 37.8033L18.358 38.3473ZM17.1266 38.4082L15.9103 39.1822L15.9226 39.2015L15.9354 39.2204L17.1266 38.4082ZM16.9559 34.2872H18.3976V32.9969L17.1151 32.8544L16.9559 34.2872ZM14.4565 33.6167L13.8297 34.915L13.8355 34.9177L14.4565 33.6167ZM12.6764 32.3486L11.6157 33.3251L11.6238 33.3339L11.632 33.3425L12.6764 32.3486ZM11.6278 30.7636L10.2947 31.3126L10.2976 31.3195L11.6278 30.7636ZM11.7376 28.0935L10.705 27.0874L10.7046 27.0878L11.7376 28.0935ZM14.3345 28.5934L12.9598 29.0275L12.9624 29.0359L12.9652 29.0443L14.3345 28.5934ZM14.9076 30.1296L13.5951 30.7262L13.6004 30.7376L14.9076 30.1296ZM15.6391 31.0928L14.6747 32.1644L14.6813 32.1703L14.6879 32.1762L15.6391 31.0928ZM16.9559 31.7634L16.5626 33.1504L18.3976 33.6708V31.7634H16.9559ZM16.9559 26.094H18.3976V24.9964L17.3396 24.7043L16.9559 26.094ZM14.2248 25.0942L13.5687 26.378L13.5801 26.3837L14.2248 25.0942ZM13.0909 17.4374L12.0715 16.418L12.0669 16.4227L13.0909 17.4374ZM16.9559 15.8768L17.0808 17.3131L18.3976 17.1986V15.8768H16.9559ZM16.9559 22.924L16.4596 24.2775L18.3976 24.9881V22.924H16.9559ZM16.9559 18.2543H18.3976V16.3211L16.5446 16.8725L16.9559 18.2543ZM15.3221 22.0339L14.3393 23.0887L14.3458 23.0947L14.3523 23.1007L15.3221 22.0339ZM18.5043 26.5451L18.9403 25.1709L17.0626 24.5751V26.5451H18.5043ZM18.5043 31.8853H17.0626V33.6405L18.7844 33.2996L18.5043 31.8853ZM20.4185 27.5327L19.4507 28.6013L19.4613 28.6108L19.472 28.6201L20.4185 27.5327ZM17.0626 14.56V15.8768H19.946V14.56H17.0626ZM18.3569 17.3109C19.1208 17.3895 19.7128 17.5409 20.1613 17.7357L21.3097 15.0909C20.5228 14.7492 19.6272 14.543 18.6517 14.4427L18.3569 17.3109ZM20.1676 17.7384C20.5787 17.9146 20.9447 18.1828 21.2712 18.5667L23.4674 16.6983C22.8673 15.993 22.1441 15.4484 21.3034 15.0882L20.1676 17.7384ZM21.2883 18.5863C21.5713 18.9071 21.7659 19.2119 21.8931 19.4982L24.528 18.3272C24.2651 17.7357 23.8988 17.187 23.4503 16.6787L21.2883 18.5863ZM21.9023 19.5184C22.0446 19.8258 22.0737 20.0191 22.0737 20.1197H24.957C24.957 19.4888 24.7829 18.8774 24.5188 18.307L21.9023 19.5184ZM22.0737 20.1197C22.0737 20.132 22.0726 20.1364 22.0729 20.1348C22.0733 20.133 22.0743 20.1294 22.0759 20.1255C22.0775 20.1217 22.0779 20.122 22.0747 20.1267C22.0712 20.1317 22.0625 20.1434 22.0448 20.161L24.0837 22.1999C24.6408 21.6428 24.957 20.9279 24.957 20.1197H22.0737ZM22.0448 20.161C22.0333 20.1726 22.0268 20.177 22.026 20.1776C22.0254 20.178 22.0273 20.1767 22.0307 20.1753C22.0341 20.1739 22.0347 20.1742 22.0304 20.175C22.026 20.1758 22.0136 20.1777 21.9913 20.1777V23.0611C22.7872 23.0611 23.5143 22.7693 24.0837 22.1999L22.0448 20.161ZM21.9913 20.1777C21.922 20.1777 21.8947 20.1684 21.896 20.1688C21.9004 20.1702 21.9157 20.1771 21.9306 20.1895C21.9623 20.2159 21.8988 20.1853 21.8335 19.9466L19.0523 20.7074C19.2227 21.3303 19.5352 21.9459 20.083 22.4031C20.6464 22.8733 21.3207 23.0611 21.9913 23.0611V20.1777ZM21.8368 19.959C21.4398 18.4552 20.4263 17.4124 18.9504 16.9321L18.0582 19.674C18.6306 19.8603 18.9095 20.1667 19.049 20.695L21.8368 19.959ZM17.0626 18.3031V23.3751H19.946V18.3031H17.0626ZM18.1231 24.7655C19.1103 25.0361 19.8598 25.2737 20.3899 25.4771L21.4225 22.785C20.7659 22.5331 19.9141 22.2668 18.8855 21.9847L18.1231 24.7655ZM20.396 25.4794C20.828 25.6429 21.2073 25.8761 21.5431 26.1829L23.4881 24.0543C22.881 23.4995 22.1874 23.0743 21.4164 22.7826L20.396 25.4794ZM21.5589 26.1971C21.9021 26.5016 22.1633 26.8631 22.3488 27.2959L24.999 26.1601C24.648 25.3411 24.1369 24.6297 23.4723 24.0401L21.5589 26.1971ZM22.3579 27.3167C22.5439 27.7326 22.6467 28.2083 22.6467 28.7641H25.5301C25.5301 27.8406 25.3565 26.9588 24.9899 26.1392L22.3579 27.3167ZM22.6467 28.7641C22.6467 29.4523 22.4864 30.0865 22.1615 30.6882L24.6986 32.0583C25.2515 31.0343 25.5301 29.9291 25.5301 28.7641H22.6467ZM22.159 30.6928C21.8602 31.2509 21.4121 31.7257 20.7689 32.1153L22.2628 34.5815C23.3103 33.947 24.1382 33.105 24.701 32.0537L22.159 30.6928ZM20.7689 32.1153C20.1452 32.4931 19.3641 32.7439 18.3838 32.8262L18.6249 35.6995C19.9692 35.5867 21.1958 35.2279 22.2628 34.5815L20.7689 32.1153ZM17.0626 34.2628V37.2987H19.946V34.2628H17.0626ZM17.0626 37.2987C17.0626 37.4938 17.0525 37.6312 17.0399 37.7213C17.0262 37.8191 17.0156 37.8179 17.0406 37.7618L19.6754 38.9328C19.9018 38.4236 19.946 37.8187 19.946 37.2987H17.0626ZM17.0229 37.8033C17.1007 37.6123 17.2527 37.4341 17.4535 37.3256C17.5411 37.2783 17.617 37.2559 17.6672 37.2453C17.7166 37.2348 17.7461 37.2348 17.7484 37.2348V40.1182C18.0612 40.1182 18.4477 40.0657 18.8236 39.8627C19.2276 39.6445 19.5259 39.3018 19.6931 38.8912L17.0229 37.8033ZM17.7484 37.2348C17.7484 37.2348 17.7528 37.2348 17.761 37.2355C17.7693 37.2362 17.7821 37.2376 17.7988 37.2405C17.832 37.2465 17.8829 37.2591 17.9445 37.2856C18.0806 37.3443 18.2179 37.4496 18.3177 37.5961L15.9354 39.2204C16.4153 39.9241 17.1633 40.1182 17.7484 40.1182V37.2348ZM18.3429 37.6342C18.3753 37.6852 18.393 37.7262 18.4018 37.7496C18.4105 37.7729 18.4121 37.7833 18.4106 37.7761C18.4092 37.7692 18.4057 37.7498 18.4027 37.7156C18.3998 37.6816 18.3976 37.6366 18.3976 37.5792H15.5142C15.5142 38.0444 15.575 38.6553 15.9103 39.1822L18.3429 37.6342ZM18.3976 37.5792V34.2872H15.5142V37.5792H18.3976ZM17.1151 32.8544C16.2921 32.7629 15.6207 32.5748 15.0774 32.3156L13.8355 34.9177C14.7228 35.3412 15.7176 35.6002 16.7967 35.7201L17.1151 32.8544ZM15.0832 32.3183C14.5125 32.0428 14.0662 31.7178 13.7208 31.3548L11.632 33.3425C12.2457 33.9874 12.9861 34.5077 13.8297 34.915L15.0832 32.3183ZM13.737 31.3722C13.3593 30.9619 13.1105 30.5725 12.958 30.2077L10.2976 31.3195C10.6004 32.0439 11.0506 32.7112 11.6157 33.3251L13.737 31.3722ZM12.9609 30.2147C12.7957 29.8134 12.7281 29.4589 12.7281 29.1421H9.84477C9.84477 29.8819 10.0048 30.6085 10.2947 31.3126L12.9609 30.2147ZM12.7281 29.1421C12.7281 29.1377 12.7285 29.1391 12.7274 29.1443C12.7263 29.1496 12.7247 29.1543 12.7235 29.1571C12.7224 29.1597 12.7234 29.1566 12.7295 29.1477C12.7358 29.1385 12.7482 29.1221 12.7705 29.0993L10.7046 27.0878C10.1719 27.635 9.84477 28.3352 9.84477 29.1421H12.7281ZM12.7701 29.0996C12.7853 29.084 12.7956 29.0763 12.8003 29.0731C12.8048 29.07 12.8071 29.069 12.8082 29.0685C12.8094 29.068 12.814 29.0662 12.8242 29.0643C12.8346 29.0623 12.8537 29.0597 12.8836 29.0597V26.1763C12.052 26.1763 11.2938 26.4831 10.705 27.0874L12.7701 29.0996ZM12.8836 29.0597C12.9547 29.0597 12.9925 29.068 13.0057 29.0716C13.0169 29.0747 13.0124 29.0749 13.0017 29.0677L14.6188 26.6805C14.0835 26.3179 13.4786 26.1763 12.8836 26.1763V29.0597ZM13.0017 29.0677C12.9987 29.0656 12.9927 29.0612 12.9853 29.0541C12.9779 29.0469 12.971 29.039 12.9652 29.031C12.9527 29.0138 12.9537 29.0083 12.9598 29.0275L15.7093 28.1593C15.5207 27.562 15.1577 27.0455 14.6188 26.6805L13.0017 29.0677ZM12.9652 29.0443C13.1904 29.7284 13.4005 30.298 13.5951 30.7262L16.22 29.5331C16.0895 29.246 15.9176 28.7915 15.7039 28.1425L12.9652 29.0443ZM13.6004 30.7376C13.8551 31.2854 14.2246 31.7594 14.6747 32.1644L16.6035 30.0212C16.4033 29.8411 16.2851 29.6729 16.2148 29.5216L13.6004 30.7376ZM14.6879 32.1762C15.2204 32.6437 15.8669 32.9531 16.5626 33.1504L17.3492 30.3764C16.9557 30.2648 16.7244 30.1272 16.5903 30.0095L14.6879 32.1762ZM18.3976 31.7634V26.094H15.5142V31.7634H18.3976ZM17.3396 24.7043C16.3091 24.4198 15.4927 24.1163 14.8695 23.8047L13.5801 26.3837C14.42 26.8036 15.4243 27.1667 16.5722 27.4837L17.3396 24.7043ZM14.8809 23.8105C14.3687 23.5487 13.9625 23.1869 13.6443 22.7095L11.2452 24.3089C11.8373 25.1971 12.6179 25.892 13.5687 26.3779L14.8809 23.8105ZM13.6443 22.7095C13.3889 22.3264 13.2036 21.7503 13.2036 20.8757H10.3203C10.3203 22.1468 10.5902 23.3264 11.2452 24.3089L13.6443 22.7095ZM13.2036 20.8757C13.2036 19.8117 13.5273 19.0453 14.115 18.4522L12.0669 16.4227C10.8826 17.6178 10.3203 19.1436 10.3203 20.8757H13.2036ZM14.1103 18.4568C14.6944 17.8728 15.622 17.4399 17.0808 17.3131L16.831 14.4405C14.9247 14.6063 13.2757 15.2138 12.0715 16.418L14.1103 18.4568ZM18.3976 15.8768V14.5844H15.5142V15.8768H18.3976ZM18.3976 14.5844C18.3976 14.4991 18.406 14.472 18.4025 14.486C18.3986 14.5016 18.3764 14.5812 18.3013 14.6813C18.2201 14.7896 18.1058 14.8829 17.9735 14.9417C17.8495 14.9968 17.7546 15.0019 17.724 15.0019V12.1186C17.1162 12.1186 16.4508 12.343 15.9946 12.9513C15.5969 13.4815 15.5142 14.1044 15.5142 14.5844H18.3976ZM17.724 15.0019C17.7023 15.0019 17.6162 14.9986 17.4992 14.9486C17.3734 14.8949 17.2582 14.8067 17.1727 14.6972C17.0197 14.5012 17.0626 14.3747 17.0626 14.56H19.946C19.946 14.0788 19.8588 13.4525 19.4457 12.9232C18.9796 12.3259 18.3148 12.1186 17.724 12.1186V15.0019ZM18.3976 22.924V18.2543H15.5142V22.924H18.3976ZM16.5446 16.8725C15.7388 17.1124 14.9983 17.4603 14.411 17.9726L16.3064 20.1454C16.4832 19.9912 16.8075 19.8027 17.3671 19.6361L16.5446 16.8725ZM14.411 17.9726C13.6199 18.6627 13.344 19.6253 13.344 20.5709H16.2273C16.2273 20.3659 16.2568 20.2513 16.277 20.1979C16.2939 20.1533 16.3054 20.1463 16.3064 20.1454L14.411 17.9726ZM13.344 20.5709C13.344 21.4813 13.6048 22.4043 14.3393 23.0887L16.3049 20.9792C16.3022 20.9766 16.2898 20.9667 16.2733 20.9219C16.2541 20.8696 16.2273 20.7611 16.2273 20.5709H13.344ZM14.3523 23.1007C14.9064 23.6044 15.6472 23.9797 16.4596 24.2775L17.4522 21.5704C16.8015 21.3318 16.4531 21.1137 16.2919 20.9672L14.3523 23.1007ZM17.0626 26.5451V31.8853H19.946V26.5451H17.0626ZM18.7844 33.2996C19.832 33.0921 20.7739 32.643 21.477 31.8632L19.3356 29.9324C19.1446 30.1442 18.8186 30.3534 18.2243 30.4711L18.7844 33.2996ZM21.477 31.8632C22.1592 31.1066 22.5186 30.1869 22.5186 29.1664H19.6352C19.6352 29.4627 19.5476 29.6973 19.3356 29.9324L21.477 31.8632ZM22.5186 29.1664C22.5186 28.1401 22.1855 27.1594 21.365 26.4452L19.472 28.6201C19.5293 28.67 19.6352 28.7784 19.6352 29.1664H22.5186ZM21.3863 26.4641C20.7431 25.8816 19.8891 25.472 18.9403 25.1709L18.0683 27.9193C18.8102 28.1547 19.2324 28.4035 19.4507 28.6013L21.3863 26.4641Z" fill="#D4D4D6"/>
<path d="M51.2064 81.9922H2.43433V2.00781H65.8971V67.7629L51.2064 81.9922Z" stroke="#D4D4D6" stroke-width="2.88336" stroke-linecap="round" stroke-linejoin="round"/>
<path d="M51.2065 81.9911V67.7617H65.8973" stroke="#D4D4D6" stroke-width="2.88336" stroke-linecap="round" stroke-linejoin="round"/>
<path d="M31.3538 16.0352H53.5412" stroke="#D4D4D6" stroke-width="2.88336" stroke-linecap="round" stroke-linejoin="round" stroke-dasharray="1.44 4.33"/>
<path d="M31.3538 21.1836H53.9449" stroke="#D4D4D6" stroke-width="2.88336" stroke-linecap="round" stroke-linejoin="round" stroke-dasharray="1.44 4.33"/>
<path d="M31.3538 26.5898H54.2188" stroke="#D4D4D6" stroke-width="2.88336" stroke-linecap="round" stroke-linejoin="round" stroke-dasharray="1.44 4.33"/>
<path d="M31.3538 31.9512H54.2188" stroke="#D4D4D6" stroke-width="2.88336" stroke-linecap="round" stroke-linejoin="round" stroke-dasharray="1.44 4.33"/>
<path d="M31.3538 37.5039H54.2188" stroke="#D4D4D6" stroke-width="2.88336" stroke-linecap="round" stroke-linejoin="round" stroke-dasharray="1.44 4.33"/>
<path d="M35.0161 68.4856C40.7828 67.3179 61.7016 46.4567 61.7016 46.4567C61.7016 46.4567 85.8642 22.6113 85.8642 20.2181C85.6518 18.9406 85.0684 17.7538 84.1866 16.8054C83.3047 15.8569 82.1635 15.1887 80.9048 14.8839C77.0988 14.7686 70.2508 23.6493 54.7527 39.4934C39.7881 54.7896 32.7095 66.1645 32.7095 66.1645L35.0161 68.4856Z" fill="white" stroke="#D4D4D6" stroke-width="2.88336" stroke-linecap="round" stroke-linejoin="round"/>
<path d="M54.7388 39.4922L61.7021 46.4555" stroke="#D4D4D6" stroke-width="2.88336" stroke-linecap="round" stroke-linejoin="round"/>
<path d="M31.2681 70.0263L33.6756 67.5898" stroke="#D4D4D6" stroke-width="2.88336" stroke-linecap="round" stroke-linejoin="round"/>
<path d="M57.4912 30.9151L72.2973 16.1523L82.9225 25.9125" stroke="#D4D4D6" stroke-width="2.88336" stroke-linecap="round" stroke-linejoin="round"/>
<path d="M81.8423 15.1003L83.6876 12.8945L87.5658 16.5852L85.9078 18.618" stroke="#D4D4D6" stroke-width="2.88336" stroke-linecap="round" stroke-linejoin="round"/>
</svg>
