<svg width="178" height="167" viewBox="0 0 178 167" fill="none" xmlns="http://www.w3.org/2000/svg">
<path d="M36.0096 27.6201V30.2536C37.749 30.4324 39.2365 30.7901 40.472 31.3265C41.7237 31.863 42.8129 32.6758 43.7395 33.765C44.4711 34.5941 45.0319 35.4475 45.4221 36.3254C45.8285 37.2032 46.0317 38.0079 46.0317 38.7395C46.0317 39.5523 45.731 40.2594 45.1295 40.8609C44.5442 41.4462 43.829 41.7388 42.9836 41.7388C41.3905 41.7388 40.3582 40.8772 39.8868 39.154C39.3503 37.122 38.0579 35.7727 36.0096 35.1062V45.2502C38.0254 45.8029 39.6267 46.3068 40.8134 46.762C42.0164 47.2172 43.0893 47.8756 44.0322 48.7372C45.0401 49.6313 45.8122 50.7042 46.3487 51.956C46.9014 53.1915 47.1778 54.5489 47.1778 56.0282C47.1778 57.8814 46.7389 59.6209 45.861 61.2465C44.9994 62.8559 43.7233 64.1727 42.0326 65.1968C40.342 66.221 38.3343 66.8306 36.0096 67.0257V73.0975C36.0096 74.0566 35.9121 74.7556 35.717 75.1946C35.5382 75.6335 35.1318 75.8529 34.4978 75.8529C33.9125 75.8529 33.498 75.6741 33.2541 75.3165C33.0265 74.9588 32.9128 74.4061 32.9128 73.6583V67.0745C31.0107 66.8631 29.3445 66.4161 27.9139 65.7333C26.4996 65.0505 25.3129 64.2052 24.3537 63.1973C23.4109 62.1731 22.7118 61.1165 22.2567 60.0273C21.8015 58.9219 21.5739 57.8408 21.5739 56.7841C21.5739 56.0038 21.8746 55.3048 22.4761 54.687C23.0939 54.053 23.8579 53.736 24.7683 53.736C25.4998 53.736 26.1176 53.9067 26.6215 54.2481C27.1255 54.5895 27.475 55.0691 27.67 55.6868C28.109 57.0198 28.491 58.044 28.8161 58.7593C29.1413 59.4583 29.629 60.1004 30.2792 60.6857C30.9457 61.2709 31.8236 61.718 32.9128 62.0268V50.688C30.7344 50.0865 28.9137 49.42 27.4506 48.6884C25.9875 47.9406 24.8008 46.884 23.8904 45.5184C22.9801 44.1529 22.5249 42.3972 22.5249 40.2513C22.5249 37.4552 23.4109 35.1631 25.1828 33.3748C26.971 31.5866 29.5477 30.5462 32.9128 30.2536V27.6688C32.9128 26.3033 33.4248 25.6205 34.449 25.6205C35.4894 25.6205 36.0096 26.287 36.0096 27.6201ZM32.9128 44.3479V35.0086C31.5472 35.415 30.4824 35.9515 29.7184 36.618C28.9543 37.2845 28.5723 38.2924 28.5723 39.6417C28.5723 40.926 28.9299 41.9013 29.6452 42.5679C30.3605 43.2181 31.4497 43.8115 32.9128 44.3479ZM36.0096 51.5902V62.2707C37.6515 61.9456 38.9195 61.2872 39.8136 60.2955C40.7077 59.3039 41.1548 58.1497 41.1548 56.8329C41.1548 55.4186 40.7158 54.3294 39.838 53.5654C38.9764 52.785 37.7003 52.1267 36.0096 51.5902Z" fill="#221F20"/>
<path d="M101.413 163.484H3.86914V3.51562H130.795V135.026L101.413 163.484Z" stroke="#221F20" stroke-width="5.76672" stroke-linecap="round" stroke-linejoin="round"/>
<path d="M101.413 163.484V135.025H130.795" stroke="#221F20" stroke-width="5.76672" stroke-linecap="round" stroke-linejoin="round"/>
<path d="M61.708 31.5723H106.083" stroke="#221F20" stroke-width="5.76672" stroke-linecap="round" stroke-linejoin="round" stroke-dasharray="2.88 8.65"/>
<path d="M61.708 41.8672H106.89" stroke="#221F20" stroke-width="5.76672" stroke-linecap="round" stroke-linejoin="round" stroke-dasharray="2.88 8.65"/>
<path d="M61.708 52.6797H107.438" stroke="#221F20" stroke-width="5.76672" stroke-linecap="round" stroke-linejoin="round" stroke-dasharray="2.88 8.65"/>
<path d="M61.708 63.4023H107.438" stroke="#221F20" stroke-width="5.76672" stroke-linecap="round" stroke-linejoin="round" stroke-dasharray="2.88 8.65"/>
<path d="M61.708 74.5078H107.438" stroke="#221F20" stroke-width="5.76672" stroke-linecap="round" stroke-linejoin="round" stroke-dasharray="2.88 8.65"/>
<path d="M69.0323 136.469C80.5657 134.134 122.403 92.4115 122.403 92.4115C122.403 92.4115 170.728 44.7207 170.728 39.9343C170.304 37.3793 169.137 35.0057 167.373 33.1088C165.609 31.2119 163.327 29.8755 160.81 29.2659C153.198 29.0352 139.502 46.7967 108.505 78.4848C78.5762 109.077 64.4189 131.827 64.4189 131.827L69.0323 136.469Z" fill="white" stroke="#221F20" stroke-width="5.76672" stroke-linecap="round" stroke-linejoin="round"/>
<path d="M108.478 78.4824L122.404 92.4091" stroke="#221F20" stroke-width="5.76672" stroke-linecap="round" stroke-linejoin="round"/>
<path d="M61.5361 139.555L66.3513 134.682" stroke="#221F20" stroke-width="5.76672" stroke-linecap="round" stroke-linejoin="round"/>
<path d="M113.983 61.3283L143.596 31.8027L164.846 51.3231" stroke="#221F20" stroke-width="5.76672" stroke-linecap="round" stroke-linejoin="round"/>
<path d="M162.685 29.6986L166.375 25.2871L174.132 32.6685L170.816 36.7341" stroke="#221F20" stroke-width="5.76672" stroke-linecap="round" stroke-linejoin="round"/>
</svg>
