<svg width="148" height="169" viewBox="0 0 148 169" fill="none" xmlns="http://www.w3.org/2000/svg">
<path d="M134.326 17.2244H13.6736C8.08831 17.2244 3.56055 21.7521 3.56055 27.3374V154.554C3.56055 160.139 8.08831 164.667 13.6736 164.667H134.326C139.912 164.667 144.439 160.139 144.439 154.554V27.3374C144.439 21.7521 139.912 17.2244 134.326 17.2244Z" stroke="#221F20" stroke-width="6.69736" stroke-miterlimit="10"/>
<path d="M40.0621 4.33325H38.6221C36.1994 4.33325 34.2354 6.29727 34.2354 8.72001V25.9322C34.2354 28.355 36.1994 30.319 38.6221 30.319H40.0621C42.4848 30.319 44.4488 28.355 44.4488 25.9322V8.72001C44.4488 6.29727 42.4848 4.33325 40.0621 4.33325Z" fill="white" stroke="#221F20" stroke-width="6.69736" stroke-miterlimit="10"/>
<path d="M74.7515 4.33325H73.3116C70.8888 4.33325 68.9248 6.29727 68.9248 8.72001V25.9322C68.9248 28.355 70.8888 30.319 73.3116 30.319H74.7515C77.1743 30.319 79.1383 28.355 79.1383 25.9322V8.72001C79.1383 6.29727 77.1743 4.33325 74.7515 4.33325Z" fill="white" stroke="#221F20" stroke-width="6.69736" stroke-miterlimit="10"/>
<path d="M109.413 4.33325H107.973C105.55 4.33325 103.586 6.29727 103.586 8.72001V25.9322C103.586 28.355 105.55 30.319 107.973 30.319H109.413C111.835 30.319 113.799 28.355 113.799 25.9322V8.72001C113.799 6.29727 111.835 4.33325 109.413 4.33325Z" fill="white" stroke="#221F20" stroke-width="6.69736" stroke-miterlimit="10"/>
<path d="M34.4031 57.343H16.2197V75.5263H34.4031V57.343Z" fill="#221F20"/>
<path d="M66.7488 57.343H48.5654V75.5263H66.7488V57.343Z" fill="#221F20"/>
<path d="M99.4665 57.343H81.2832V75.5263H99.4665V57.343Z" fill="#221F20"/>
<path d="M131.815 57.343H113.632V75.5263H131.815V57.343Z" fill="#221F20"/>
<path d="M34.4031 88.5537H16.2197V106.737H34.4031V88.5537Z" fill="#221F20"/>
<path d="M66.7488 88.5537H48.5654V106.737H66.7488V88.5537Z" fill="#221F20"/>
<path d="M99.4665 88.5537H81.2832V106.737H99.4665V88.5537Z" fill="#221F20"/>
<path d="M131.815 88.5537H113.632V106.737H131.815V88.5537Z" fill="#221F20"/>
<path d="M34.4031 119.797H16.2197V137.981H34.4031V119.797Z" fill="#221F20"/>
<path d="M66.7488 119.797H48.5654V137.981H66.7488V119.797Z" fill="#221F20"/>
<path d="M99.4665 119.797H81.2832V137.981H99.4665V119.797Z" fill="#221F20"/>
<path d="M131.815 119.797H113.632V137.981H131.815V119.797Z" fill="#221F20"/>
</svg>
