<svg width="134" height="167" viewBox="0 0 134 167" fill="none" xmlns="http://www.w3.org/2000/svg">
<path d="M101.073 3.62501H3.59277V163.489H130.407V32.0652L130.09 3.50977L101.073 3.62501Z" stroke="#221F20" stroke-width="5.76295" stroke-linecap="round" stroke-linejoin="round"/>
<path d="M107.613 35.9869C107.613 45.5823 94.5313 56.3302 94.5313 56.3302C94.5313 56.3302 81.4207 45.2365 81.4207 35.9869C81.3375 34.2154 81.6147 32.4455 82.2353 30.7841C82.856 29.1228 83.8072 27.6047 85.0315 26.3216C86.2558 25.0385 87.7277 24.0172 89.3581 23.3194C90.9885 22.6215 92.7435 22.2617 94.517 22.2617C96.2904 22.2617 98.0455 22.6215 99.6758 23.3194C101.306 24.0172 102.778 25.0385 104.002 26.3216C105.227 27.6047 106.178 29.1228 106.799 30.7841C107.419 32.4455 107.696 34.2154 107.613 35.9869Z" stroke="#221F20" stroke-width="2.39163" stroke-linecap="round" stroke-linejoin="round"/>
<path d="M103.348 35.9854C103.275 37.7184 102.694 39.3915 101.677 40.7968C100.66 42.202 99.2524 43.2773 97.6293 43.8888C96.0061 44.5004 94.239 44.6213 92.5477 44.2365C90.8564 43.8517 89.3155 42.9782 88.1167 41.7246C86.918 40.4709 86.1142 38.8925 85.8054 37.1857C85.4966 35.4789 85.6964 33.719 86.3799 32.1248C87.0635 30.5306 88.2006 29.1725 89.6498 28.2195C91.0991 27.2665 92.7965 26.7606 94.5311 26.7647C96.9208 26.8251 99.1894 27.8288 100.842 29.5565C102.494 31.2842 103.395 33.5954 103.348 35.9854V35.9854Z" stroke="#221F20" stroke-width="2.39163" stroke-linecap="round" stroke-linejoin="round"/>
<path d="M61.943 28.5762H27.3652" stroke="#221F20" stroke-width="3.45777" stroke-linecap="round" stroke-linejoin="round"/>
<path d="M61.943 39.4434H27.3652" stroke="#221F20" stroke-width="3.45777" stroke-linecap="round" stroke-linejoin="round"/>
<path d="M61.9434 50.334H41.2832" stroke="#221F20" stroke-width="3.45777" stroke-linecap="round" stroke-linejoin="round"/>
<path d="M22.4375 84.8271H111.562" stroke="#221F20" stroke-width="3.45777" stroke-linecap="round" stroke-linejoin="round"/>
<path d="M22.4375 96.8086H111.562" stroke="#221F20" stroke-width="3.45777" stroke-linecap="round" stroke-linejoin="round"/>
<path d="M22.4375 108.796H111.562" stroke="#221F20" stroke-width="3.45777" stroke-linecap="round" stroke-linejoin="round"/>
<path d="M22.4375 120.783H111.562" stroke="#221F20" stroke-width="3.45777" stroke-linecap="round" stroke-linejoin="round"/>
<path d="M22.4375 132.743H111.562" stroke="#221F20" stroke-width="3.45777" stroke-linecap="round" stroke-linejoin="round"/>
<path d="M22.4375 144.73H111.562" stroke="#221F20" stroke-width="3.45777" stroke-linecap="round" stroke-linejoin="round"/>
</svg>
