<svg width="180" height="173" viewBox="0 0 180 173" fill="none" xmlns="http://www.w3.org/2000/svg">
<path d="M97.8293 51.3325C97.8293 51.3325 118.096 55.6486 123.413 64.4684C128.73 73.2881 126.54 104.001 126.54 104.001H53.6052C53.6052 104.001 51.3221 73.3194 56.7328 64.4684C62.1435 55.6173 82.3165 51.3325 82.3165 51.3325" fill="white"/>
<path d="M97.8293 51.3325C97.8293 51.3325 118.096 55.6486 123.413 64.4684C128.73 73.2881 126.54 104.001 126.54 104.001H53.6052C53.6052 104.001 51.3221 73.3194 56.7328 64.4684C62.1435 55.6173 82.3165 51.3325 82.3165 51.3325" stroke="#221F20" stroke-width="6.25517" stroke-linecap="round" stroke-linejoin="round"/>
<path d="M108.089 80.3848V102.903" stroke="#221F20" stroke-width="6.25517" stroke-linecap="round" stroke-linejoin="round"/>
<path d="M91.1056 31.3452H88.9163C84.1834 31.3452 80.3467 35.1819 80.3467 39.9148V50.3922C80.3467 55.125 84.1834 58.9618 88.9163 58.9618H91.1056C95.8384 58.9618 99.6752 55.125 99.6752 50.3922V39.9148C99.6752 35.1819 95.8384 31.3452 91.1056 31.3452Z" fill="white" stroke="#221F20" stroke-width="6.25517" stroke-miterlimit="10"/>
<path d="M90.0108 46.8892C101.169 46.8892 110.215 37.2273 110.215 25.3088C110.215 13.3904 101.169 3.72852 90.0108 3.72852C78.8523 3.72852 69.8066 13.3904 69.8066 25.3088C69.8066 37.2273 78.8523 46.8892 90.0108 46.8892Z" fill="white" stroke="#221F20" stroke-width="6.25517" stroke-miterlimit="10"/>
<path d="M48.4766 96.8047C48.4766 96.8047 68.7433 101.121 74.0602 109.941C79.3771 118.76 77.1878 149.504 77.1878 149.504H4.25261C4.25261 149.504 1.9382 118.792 7.38019 109.941C12.8222 101.089 32.9638 96.8047 32.9638 96.8047" fill="white"/>
<path d="M48.4766 96.8047C48.4766 96.8047 68.7433 101.121 74.0602 109.941C79.3771 118.76 77.1878 149.504 77.1878 149.504H4.25261C4.25261 149.504 1.9382 118.792 7.38019 109.941C12.8222 101.089 32.9638 96.8047 32.9638 96.8047" stroke="#221F20" stroke-width="6.25517" stroke-linecap="round" stroke-linejoin="round"/>
<path d="M22.3311 125.863V148.382" stroke="#221F20" stroke-width="6.25517" stroke-linecap="round" stroke-linejoin="round"/>
<path d="M41.7511 76.8237H39.5618C34.8289 76.8237 30.9922 80.6605 30.9922 85.3933V95.8707C30.9922 100.604 34.8289 104.44 39.5618 104.44H41.7511C46.4839 104.44 50.3207 100.604 50.3207 95.8707V85.3933C50.3207 80.6605 46.4839 76.8237 41.7511 76.8237Z" fill="white" stroke="#221F20" stroke-width="6.25517" stroke-miterlimit="10"/>
<path d="M40.6563 92.3613C51.8148 92.3613 60.8605 82.6995 60.8605 70.781C60.8605 58.8625 51.8148 49.2007 40.6563 49.2007C29.4978 49.2007 20.4521 58.8625 20.4521 70.781C20.4521 82.6995 29.4978 92.3613 40.6563 92.3613Z" fill="white" stroke="#221F20" stroke-width="6.25517" stroke-miterlimit="10"/>
<path d="M147.09 96.8047C147.09 96.8047 167.388 101.121 172.673 109.941C177.959 118.76 175.801 149.504 175.801 149.504H102.96C102.96 149.504 100.677 118.792 106.087 109.941C111.498 101.089 131.671 96.8047 131.671 96.8047" fill="white"/>
<path d="M147.09 96.8047C147.09 96.8047 167.388 101.121 172.673 109.941C177.959 118.76 175.801 149.504 175.801 149.504H102.96C102.96 149.504 100.677 118.792 106.087 109.941C111.498 101.089 131.671 96.8047 131.671 96.8047" stroke="#221F20" stroke-width="6.25517" stroke-linecap="round" stroke-linejoin="round"/>
<path d="M157.442 125.863V148.382" stroke="#221F20" stroke-width="6.25517" stroke-linecap="round" stroke-linejoin="round"/>
<path d="M140.46 76.8237H138.271C133.538 76.8237 129.701 80.6605 129.701 85.3933V95.8707C129.701 100.604 133.538 104.44 138.271 104.44H140.46C145.193 104.44 149.03 100.604 149.03 95.8707V85.3933C149.03 80.6605 145.193 76.8237 140.46 76.8237Z" fill="white" stroke="#221F20" stroke-width="6.25517" stroke-miterlimit="10"/>
<path d="M139.364 92.3613C150.523 92.3613 159.569 82.6995 159.569 70.781C159.569 58.8625 150.523 49.2007 139.364 49.2007C128.206 49.2007 119.16 58.8625 119.16 70.781C119.16 82.6995 128.206 92.3613 139.364 92.3613Z" fill="white" stroke="#221F20" stroke-width="6.25517" stroke-miterlimit="10"/>
<path d="M97.8293 116.603C97.8293 116.603 118.096 120.919 123.413 129.738C128.73 138.558 126.54 169.271 126.54 169.271H53.6052C53.6052 169.271 51.3221 138.589 56.7328 129.738C62.1435 120.887 82.3165 116.603 82.3165 116.603" fill="white"/>
<path d="M97.8293 116.603C97.8293 116.603 118.096 120.919 123.413 129.738C128.73 138.558 126.54 169.271 126.54 169.271H53.6052C53.6052 169.271 51.3221 138.589 56.7328 129.738C62.1435 120.887 82.3165 116.603 82.3165 116.603" stroke="#221F20" stroke-width="6.25517" stroke-linecap="round" stroke-linejoin="round"/>
<path d="M71.6846 145.63V168.18" stroke="#221F20" stroke-width="6.25517" stroke-linecap="round" stroke-linejoin="round"/>
<path d="M108.089 145.63V168.18" stroke="#221F20" stroke-width="6.25517" stroke-linecap="round" stroke-linejoin="round"/>
<path d="M91.1056 96.5908H88.9163C84.1834 96.5908 80.3467 100.428 80.3467 105.16V115.638C80.3467 120.371 84.1834 124.207 88.9163 124.207H91.1056C95.8384 124.207 99.6752 120.371 99.6752 115.638V105.16C99.6752 100.428 95.8384 96.5908 91.1056 96.5908Z" fill="white" stroke="#221F20" stroke-width="6.25517" stroke-miterlimit="10"/>
<path d="M90.0108 112.165C101.169 112.165 110.215 102.503 110.215 90.5847C110.215 78.6662 101.169 69.0044 90.0108 69.0044C78.8523 69.0044 69.8066 78.6662 69.8066 90.5847C69.8066 102.503 78.8523 112.165 90.0108 112.165Z" fill="white" stroke="#221F20" stroke-width="6.25517" stroke-miterlimit="10"/>
</svg>
