<svg width="88" height="84" viewBox="0 0 88 84" fill="none" xmlns="http://www.w3.org/2000/svg">
<path d="M47.8182 24.8481C47.8182 24.8481 57.7027 26.9532 60.2958 31.2547C62.889 35.5563 61.8212 50.5355 61.8212 50.5355H26.2494C26.2494 50.5355 25.1358 35.5715 27.7747 31.2547C30.4136 26.9379 40.2524 24.8481 40.2524 24.8481" fill="white"/>
<path d="M47.8182 24.8481C47.8182 24.8481 57.7027 26.9532 60.2958 31.2547C62.889 35.5563 61.8212 50.5355 61.8212 50.5355H26.2494C26.2494 50.5355 25.1358 35.5715 27.7747 31.2547C30.4136 26.9379 40.2524 24.8481 40.2524 24.8481" stroke="#D4D4D6" stroke-width="3.05076" stroke-linecap="round" stroke-linejoin="round"/>
<path d="M52.8223 39.0176V50.0003" stroke="#D4D4D6" stroke-width="3.05076" stroke-linecap="round" stroke-linejoin="round"/>
<path d="M44.5393 15.1001H43.4715C41.1632 15.1001 39.292 16.9713 39.292 19.2796V24.3896C39.292 26.6979 41.1632 28.5692 43.4715 28.5692H44.5393C46.8476 28.5692 48.7188 26.6979 48.7188 24.3896V19.2796C48.7188 16.9713 46.8476 15.1001 44.5393 15.1001Z" fill="white" stroke="#D4D4D6" stroke-width="3.05076" stroke-miterlimit="10"/>
<path d="M44.0048 22.6811C49.447 22.6811 53.8588 17.9688 53.8588 12.156C53.8588 6.34311 49.447 1.63086 44.0048 1.63086C38.5626 1.63086 34.1509 6.34311 34.1509 12.156C34.1509 17.9688 38.5626 22.6811 44.0048 22.6811Z" fill="white" stroke="#D4D4D6" stroke-width="3.05076" stroke-miterlimit="10"/>
<path d="M23.7482 47.0259C23.7482 47.0259 33.6327 49.1309 36.2258 53.4325C38.8189 57.734 37.7512 72.7285 37.7512 72.7285H2.17938C2.17938 72.7285 1.0506 57.7493 3.70476 53.4325C6.35892 49.1156 16.1824 47.0259 16.1824 47.0259" fill="white"/>
<path d="M23.7482 47.0259C23.7482 47.0259 33.6327 49.1309 36.2258 53.4325C38.8189 57.734 37.7512 72.7285 37.7512 72.7285H2.17938C2.17938 72.7285 1.0506 57.7493 3.70476 53.4325C6.35892 49.1156 16.1824 47.0259 16.1824 47.0259" stroke="#D4D4D6" stroke-width="3.05076" stroke-linecap="round" stroke-linejoin="round"/>
<path d="M10.9966 61.1982V72.181" stroke="#D4D4D6" stroke-width="3.05076" stroke-linecap="round" stroke-linejoin="round"/>
<path d="M20.468 37.2808H19.4002C17.092 37.2808 15.2207 39.152 15.2207 41.4603V46.5703C15.2207 48.8786 17.092 50.7499 19.4002 50.7499H20.468C22.7763 50.7499 24.6476 48.8786 24.6476 46.5703V41.4603C24.6476 39.152 22.7763 37.2808 20.468 37.2808Z" fill="white" stroke="#D4D4D6" stroke-width="3.05076" stroke-miterlimit="10"/>
<path d="M19.934 44.8588C25.3762 44.8588 29.788 40.1466 29.788 34.3337C29.788 28.5208 25.3762 23.8086 19.934 23.8086C14.4918 23.8086 10.0801 28.5208 10.0801 34.3337C10.0801 40.1466 14.4918 44.8588 19.934 44.8588Z" fill="white" stroke="#D4D4D6" stroke-width="3.05076" stroke-miterlimit="10"/>
<path d="M71.8432 47.0259C71.8432 47.0259 81.7429 49.1309 84.3208 53.4325C86.8987 57.734 85.8462 72.7285 85.8462 72.7285H50.3202C50.3202 72.7285 49.2066 57.7493 51.8455 53.4325C54.4844 49.1156 64.3231 47.0259 64.3231 47.0259" fill="white"/>
<path d="M71.8432 47.0259C71.8432 47.0259 81.7429 49.1309 84.3208 53.4325C86.8987 57.734 85.8462 72.7285 85.8462 72.7285H50.3202C50.3202 72.7285 49.2066 57.7493 51.8455 53.4325C54.4844 49.1156 64.3231 47.0259 64.3231 47.0259" stroke="#D4D4D6" stroke-width="3.05076" stroke-linecap="round" stroke-linejoin="round"/>
<path d="M76.8931 61.1982V72.181" stroke="#D4D4D6" stroke-width="3.05076" stroke-linecap="round" stroke-linejoin="round"/>
<path d="M68.6101 37.2808H67.5423C65.234 37.2808 63.3628 39.152 63.3628 41.4603V46.5703C63.3628 48.8786 65.234 50.7499 67.5423 50.7499H68.6101C70.9184 50.7499 72.7896 48.8786 72.7896 46.5703V41.4603C72.7896 39.152 70.9184 37.2808 68.6101 37.2808Z" fill="white" stroke="#D4D4D6" stroke-width="3.05076" stroke-miterlimit="10"/>
<path d="M68.0761 44.8588C73.5183 44.8588 77.93 40.1466 77.93 34.3337C77.93 28.5208 73.5183 23.8086 68.0761 23.8086C62.6339 23.8086 58.2222 28.5208 58.2222 34.3337C58.2222 40.1466 62.6339 44.8588 68.0761 44.8588Z" fill="white" stroke="#D4D4D6" stroke-width="3.05076" stroke-miterlimit="10"/>
<path d="M47.8182 56.6816C47.8182 56.6816 57.7027 58.7867 60.2958 63.0882C62.889 67.3898 61.8212 82.369 61.8212 82.369H26.2494C26.2494 82.369 25.1358 67.405 27.7747 63.0882C30.4136 58.7714 40.2524 56.6816 40.2524 56.6816" fill="white"/>
<path d="M47.8182 56.6816C47.8182 56.6816 57.7027 58.7867 60.2958 63.0882C62.889 67.3898 61.8212 82.369 61.8212 82.369H26.2494C26.2494 82.369 25.1358 67.405 27.7747 63.0882C30.4136 58.7714 40.2524 56.6816 40.2524 56.6816" stroke="#D4D4D6" stroke-width="3.05076" stroke-linecap="round" stroke-linejoin="round"/>
<path d="M35.0674 70.8389V81.8368" stroke="#D4D4D6" stroke-width="3.05076" stroke-linecap="round" stroke-linejoin="round"/>
<path d="M52.8223 70.8389V81.8368" stroke="#D4D4D6" stroke-width="3.05076" stroke-linecap="round" stroke-linejoin="round"/>
<path d="M44.5393 46.9214H43.4715C41.1632 46.9214 39.292 48.7926 39.292 51.1009V56.2109C39.292 58.5192 41.1632 60.3905 43.4715 60.3905H44.5393C46.8476 60.3905 48.7188 58.5192 48.7188 56.2109V51.1009C48.7188 48.7926 46.8476 46.9214 44.5393 46.9214Z" fill="white" stroke="#D4D4D6" stroke-width="3.05076" stroke-miterlimit="10"/>
<path d="M44.0048 54.5175C49.447 54.5175 53.8588 49.8053 53.8588 43.9924C53.8588 38.1795 49.447 33.4673 44.0048 33.4673C38.5626 33.4673 34.1509 38.1795 34.1509 43.9924C34.1509 49.8053 38.5626 54.5175 44.0048 54.5175Z" fill="white" stroke="#D4D4D6" stroke-width="3.05076" stroke-miterlimit="10"/>
</svg>
