<svg width="64" height="83" viewBox="0 0 64 83" fill="none" xmlns="http://www.w3.org/2000/svg">
<path d="M2.16211 51.6462H25.5917V36.6266H2.16211V51.6462ZM2.16211 51.6462L15.0141 51.6459V66.7484H2.16211V51.6462ZM29.4062 25.184L25.6395 36.6264L37.0582 33.8073C37.0582 33.8073 37.1056 26.0014 29.4062 25.184ZM29.4062 25.184L53.7594 1.26906C53.7594 1.26906 61.7431 0.925561 61.8378 9.3119L36.9631 33.8076M48.8323 6.11387C48.8323 6.11387 56.1171 6.11387 56.6738 14.4055M33.1965 26.4525L52.741 7.27525M35.9681 29.2359L55.5244 10.0468M26.7176 33.2744C27.2755 33.4357 27.7611 33.7837 28.0932 34.2602C28.4252 34.7367 28.5836 35.3128 28.5417 35.8921M15.0263 51.6343H38.456V66.7368H15.0263V51.6343ZM38.373 51.5394H61.8026V66.7367H38.373V51.5394ZM48.9388 81.6381H25.5091V66.5355H48.9388V81.6381ZM25.5921 81.7329H2.16243V66.5356H25.5921V81.7329ZM61.8018 81.6381H48.9499V66.5355H61.8018V81.6381Z" stroke="#221F20" stroke-width="2.36902" stroke-linecap="round" stroke-linejoin="round"/>
</svg>
