<svg width="60" height="76" viewBox="0 0 60 76" fill="none" xmlns="http://www.w3.org/2000/svg">
<path d="M17.4965 35.4128V45.2909L17.4705 45.9668C17.2456 45.986 17.0195 45.986 16.7946 45.9668C15.7695 45.8074 14.8139 45.35 14.0467 44.6517C13.2795 43.9534 12.7345 43.0449 12.4796 42.0392C12.2248 41.0336 12.2712 39.9752 12.6132 38.9957C12.9552 38.0163 13.5777 37.159 14.4031 36.5306V37.3624C13.8002 37.951 13.371 38.6943 13.1626 39.5107C12.9542 40.3271 12.9746 41.1851 13.2216 41.9907C13.4687 42.7963 13.9328 43.5182 14.563 44.0775C15.1933 44.6367 15.9654 45.0115 16.7946 45.1609V35.4128H17.4965Z" fill="#221F20"/>
<path d="M18.6143 35.5038C18.3823 35.4599 18.1479 35.4295 17.9124 35.4128V41.6516L21.1228 43.6662C20.4743 44.4325 19.5936 44.9664 18.6143 45.1869C18.3834 45.2372 18.1485 45.2676 17.9124 45.2779V45.9928C18.1479 45.9761 18.3823 45.9457 18.6143 45.9018C19.8409 45.671 20.9435 45.0067 21.7207 44.0301C21.8738 43.8535 22.0088 43.6619 22.1236 43.4583L18.6143 41.2747V36.2187C19.6097 36.4407 20.5027 36.988 21.1524 37.7741C21.802 38.5603 22.1712 39.5404 22.2016 40.5598V40.7028C22.2149 40.9192 22.2149 41.1362 22.2016 41.3527L22.8385 41.7556C22.8887 41.5071 22.9192 41.255 22.9295 41.0017C22.936 40.9022 22.936 40.8023 22.9295 40.7028C22.9305 39.4727 22.5029 38.2807 21.72 37.3318C20.9372 36.3829 19.8482 35.7365 18.6403 35.5038H18.6143Z" fill="#221F20"/>
<path fill-rule="evenodd" clip-rule="evenodd" d="M17.6395 34.1004C16.3336 34.1004 15.057 34.4876 13.9712 35.2131C12.8854 35.9387 12.0391 36.9699 11.5394 38.1763C11.0397 39.3828 10.9089 40.7104 11.1637 41.9912C11.4184 43.272 12.0473 44.4485 12.9707 45.3719C13.8941 46.2953 15.0706 46.9242 16.3514 47.179C17.6322 47.4337 18.9598 47.303 20.1663 46.8032C21.3728 46.3035 22.404 45.4572 23.1295 44.3714C23.855 43.2856 24.2422 42.009 24.2422 40.7031C24.2388 38.953 23.542 37.2756 22.3045 36.0381C21.067 34.8006 19.3896 34.1038 17.6395 34.1004ZM17.6395 46.6299C16.4673 46.6299 15.3214 46.2824 14.3467 45.6311C13.3721 44.9798 12.6124 44.0542 12.1638 42.9712C11.7152 41.8882 11.5978 40.6965 11.8265 39.5468C12.0552 38.3971 12.6197 37.3411 13.4486 36.5122C14.2775 35.6833 15.3335 35.1188 16.4832 34.8901C17.6329 34.6614 18.8246 34.7788 19.9076 35.2274C20.9906 35.676 21.9163 36.4356 22.5675 37.4103C23.2188 38.385 23.5664 39.5309 23.5664 40.7031C23.5629 42.2739 22.9374 43.7795 21.8266 44.8902C20.7159 46.001 19.2104 46.6265 17.6395 46.6299Z" fill="#221F20"/>
<path fill-rule="evenodd" clip-rule="evenodd" d="M7.60568 27.8885C6.88785 27.8885 6.30593 28.4704 6.30593 29.1882V56.9249C6.30593 57.6427 6.88785 58.2246 7.60568 58.2246H27.6088C28.3266 58.2246 28.9085 57.6427 28.9085 56.9249V29.1882C28.9085 28.4704 28.3266 27.8885 27.6088 27.8885H7.60568ZM8.90543 44.9017V30.488H26.309V44.1352C26.1521 44.176 26.0076 44.2294 25.8787 44.2863C25.5193 44.4447 25.1864 44.6709 24.8927 44.9058C24.306 45.375 23.7179 46.0077 23.1884 46.6338C22.6513 47.269 22.1332 47.9474 21.6919 48.5337C21.5987 48.6576 21.51 48.7759 21.4258 48.8881C21.0969 49.3266 20.8369 49.6733 20.643 49.907L20.6271 49.9265C19.9745 50.7444 18.8407 51.1922 17.5404 51.1178C16.2466 51.0436 14.9537 50.4539 14.1106 49.4212C14.0978 49.4054 14.0845 49.39 14.071 49.3749C12.5431 47.6731 10.8076 46.1703 8.90543 44.9017ZM8.90543 48.1032V55.6251H26.309V47.1116C25.9678 47.4159 25.5823 47.8287 25.1734 48.3123C24.6869 48.8876 24.2059 49.5162 23.769 50.0968C23.6884 50.2039 23.6082 50.3109 23.5292 50.4163C23.1994 50.8563 22.8892 51.27 22.6511 51.5578C21.3537 53.1759 19.3205 53.8235 17.3917 53.713C15.4623 53.6025 13.4707 52.7318 12.1176 51.0903C11.1367 50.0003 10.0616 49.0008 8.90543 48.1032Z" fill="#221F20"/>
<path fill-rule="evenodd" clip-rule="evenodd" d="M6.30593 9.33914C6.30593 8.62131 6.88785 8.03939 7.60568 8.03939H52.239C52.9569 8.03939 53.5388 8.62131 53.5388 9.33914V22.9475C53.5388 23.6653 52.9569 24.2473 52.239 24.2473H7.60568C6.88785 24.2473 6.30593 23.6653 6.30593 22.9475V9.33914ZM8.90543 10.6389V21.6478H50.9393V10.6389H8.90543Z" fill="#221F20"/>
<path d="M6.83776 63.8397C6.83776 63.1219 7.41968 62.54 8.13751 62.54H8.78994C9.50777 62.54 10.0897 63.1219 10.0897 63.8397C10.0897 64.5576 9.50777 65.1395 8.78994 65.1395H8.13751C7.41968 65.1395 6.83776 64.5576 6.83776 63.8397Z" fill="#221F20"/>
<path d="M11.4047 63.8397C11.4047 63.1219 11.9867 62.54 12.7045 62.54H14.0094C14.7272 62.54 15.3091 63.1219 15.3091 63.8397C15.3091 64.5576 14.7272 65.1395 14.0094 65.1395H12.7045C11.9867 65.1395 11.4047 64.5576 11.4047 63.8397Z" fill="#221F20"/>
<path d="M16.6242 63.8397C16.6242 63.1219 17.2061 62.54 17.9239 62.54H19.2288C19.9466 62.54 20.5285 63.1219 20.5285 63.8397C20.5285 64.5576 19.9466 65.1395 19.2288 65.1395H17.9239C17.2061 65.1395 16.6242 64.5576 16.6242 63.8397Z" fill="#221F20"/>
<path d="M21.8436 63.8397C21.8436 63.1219 22.4255 62.54 23.1433 62.54H24.4482C25.166 62.54 25.7479 63.1219 25.7479 63.8397C25.7479 64.5576 25.166 65.1395 24.4482 65.1395H23.1433C22.4255 65.1395 21.8436 64.5576 21.8436 63.8397Z" fill="#221F20"/>
<path d="M27.063 63.8397C27.063 63.1219 27.6449 62.54 28.3627 62.54H29.6676C30.3854 62.54 30.9674 63.1219 30.9674 63.8397C30.9674 64.5576 30.3854 65.1395 29.6676 65.1395H28.3627C27.6449 65.1395 27.063 64.5576 27.063 63.8397Z" fill="#221F20"/>
<path d="M32.2824 63.8397C32.2824 63.1219 32.8643 62.54 33.5822 62.54H34.887C35.6048 62.54 36.1868 63.1219 36.1868 63.8397C36.1868 64.5576 35.6048 65.1395 34.887 65.1395H33.5822C32.8643 65.1395 32.2824 64.5576 32.2824 63.8397Z" fill="#221F20"/>
<path d="M37.5018 63.8397C37.5018 63.1219 38.0837 62.54 38.8016 62.54H40.1064C40.8243 62.54 41.4062 63.1219 41.4062 63.8397C41.4062 64.5576 40.8243 65.1395 40.1064 65.1395H38.8016C38.0837 65.1395 37.5018 64.5576 37.5018 63.8397Z" fill="#221F20"/>
<path d="M34.1198 28.7846C33.402 28.7846 32.82 29.3665 32.82 30.0843C32.82 30.8022 33.402 31.3841 34.1198 31.3841H34.7449C35.4627 31.3841 36.0446 30.8022 36.0446 30.0843C36.0446 29.3665 35.4627 28.7846 34.7449 28.7846H34.1198Z" fill="#221F20"/>
<path d="M38.4955 28.7846C37.7776 28.7846 37.1957 29.3665 37.1957 30.0843C37.1957 30.8022 37.7776 31.3841 38.4955 31.3841H39.7457C40.4635 31.3841 41.0454 30.8022 41.0454 30.0843C41.0454 29.3665 40.4635 28.7846 39.7457 28.7846H38.4955Z" fill="#221F20"/>
<path d="M43.4963 28.7846C42.7784 28.7846 42.1965 29.3665 42.1965 30.0843C42.1965 30.8022 42.7784 31.3841 43.4963 31.3841H44.7464C45.4643 31.3841 46.0462 30.8022 46.0462 30.0843C46.0462 29.3665 45.4643 28.7846 44.7464 28.7846H43.4963Z" fill="#221F20"/>
<path d="M48.497 28.7846C47.7792 28.7846 47.1973 29.3665 47.1973 30.0843C47.1973 30.8022 47.7792 31.3841 48.497 31.3841H49.7472C50.4651 31.3841 51.047 30.8022 51.047 30.0843C51.047 29.3665 50.4651 28.7846 49.7472 28.7846H48.497Z" fill="#221F20"/>
<path d="M53.4978 28.7846C52.78 28.7846 52.1981 29.3665 52.1981 30.0843C52.1981 30.8022 52.78 31.3841 53.4978 31.3841H54.1229C54.8407 31.3841 55.4227 30.8022 55.4227 30.0843C55.4227 29.3665 54.8407 28.7846 54.1229 28.7846H53.4978Z" fill="#221F20"/>
<path d="M32.82 34.7249C32.82 34.007 33.402 33.4251 34.1198 33.4251H34.7567C35.4745 33.4251 36.0564 34.007 36.0564 34.7249C36.0564 35.4427 35.4745 36.0246 34.7567 36.0246H34.1198C33.402 36.0246 32.82 35.4427 32.82 34.7249Z" fill="#221F20"/>
<path d="M37.2782 34.7249C37.2782 34.007 37.8601 33.4251 38.5779 33.4251H39.8517C40.5695 33.4251 41.1514 34.007 41.1514 34.7249C41.1514 35.4427 40.5695 36.0246 39.8517 36.0246H38.5779C37.8601 36.0246 37.2782 35.4427 37.2782 34.7249Z" fill="#221F20"/>
<path d="M42.3732 34.7249C42.3732 34.007 42.9551 33.4251 43.6729 33.4251H44.9467C45.6645 33.4251 46.2464 34.007 46.2464 34.7249C46.2464 35.4427 45.6645 36.0246 44.9467 36.0246H43.6729C42.9551 36.0246 42.3732 35.4427 42.3732 34.7249Z" fill="#221F20"/>
<path d="M47.4682 34.7249C47.4682 34.007 48.0501 33.4251 48.768 33.4251H50.0417C50.7595 33.4251 51.3415 34.007 51.3415 34.7249C51.3415 35.4427 50.7595 36.0246 50.0417 36.0246H48.768C48.0501 36.0246 47.4682 35.4427 47.4682 34.7249Z" fill="#221F20"/>
<path d="M52.5632 34.7249C52.5632 34.007 53.1451 33.4251 53.863 33.4251H54.4998C55.2177 33.4251 55.7996 34.007 55.7996 34.7249C55.7996 35.4427 55.2177 36.0246 54.4998 36.0246H53.863C53.1451 36.0246 52.5632 35.4427 52.5632 34.7249Z" fill="#221F20"/>
<path d="M34.1198 38.2992C33.402 38.2992 32.82 38.8811 32.82 39.5989C32.82 40.3167 33.402 40.8987 34.1198 40.8987H34.764C35.4818 40.8987 36.0637 40.3167 36.0637 39.5989C36.0637 38.8811 35.4818 38.2992 34.764 38.2992H34.1198Z" fill="#221F20"/>
<path d="M38.6291 38.2992C37.9113 38.2992 37.3294 38.8811 37.3294 39.5989C37.3294 40.3167 37.9113 40.8987 38.6291 40.8987H39.9175C40.6353 40.8987 41.2172 40.3167 41.2172 39.5989C41.2172 38.8811 40.6353 38.2992 39.9175 38.2992H38.6291Z" fill="#221F20"/>
<path d="M43.7826 38.2992C43.0648 38.2992 42.4829 38.8811 42.4829 39.5989C42.4829 40.3167 43.0648 40.8987 43.7826 40.8987H45.071C45.7888 40.8987 46.3707 40.3167 46.3707 39.5989C46.3707 38.8811 45.7888 38.2992 45.071 38.2992H43.7826Z" fill="#221F20"/>
<path d="M48.9361 38.2992C48.2183 38.2992 47.6364 38.8811 47.6364 39.5989C47.6364 40.3167 48.2183 40.8987 48.9361 40.8987H50.2245C50.9423 40.8987 51.5242 40.3167 51.5242 39.5989C51.5242 38.8811 50.9423 38.2992 50.2245 38.2992H48.9361Z" fill="#221F20"/>
<path d="M54.0896 38.2992C53.3718 38.2992 52.7899 38.8811 52.7899 39.5989C52.7899 40.3167 53.3718 40.8987 54.0896 40.8987H54.7338C55.4516 40.8987 56.0335 40.3167 56.0335 39.5989C56.0335 38.8811 55.4516 38.2992 54.7338 38.2992H54.0896Z" fill="#221F20"/>
<path fill-rule="evenodd" clip-rule="evenodd" d="M31.7288 45.2777C31.7288 44.5599 32.3107 43.978 33.0285 43.978H52.2388C52.9566 43.978 53.5385 44.5599 53.5385 45.2777V57.4824C53.5385 58.2002 52.9566 58.7821 52.2388 58.7821H33.0285C32.3107 58.7821 31.7288 58.2002 31.7288 57.4824V45.2777ZM34.3283 46.5774V56.1826H50.939V46.5774H34.3283Z" fill="#221F20"/>
<path fill-rule="evenodd" clip-rule="evenodd" d="M1.39252 0.644531C0.674691 0.644531 0.0927734 1.22645 0.0927734 1.94428V74.0543C0.0927734 74.7722 0.674691 75.3541 1.39252 75.3541H45.3146C45.3349 75.355 45.3553 75.3555 45.3758 75.3555C45.7445 75.3555 46.0773 75.202 46.3138 74.9555L59.4764 62.2067C59.715 61.9919 59.8737 61.69 59.9023 61.3511C59.9056 61.3139 59.9072 61.2764 59.9072 61.2388V1.94428C59.9072 1.22645 59.3253 0.644531 58.6074 0.644531H1.39252ZM57.3077 59.9405V3.24403H2.69227V72.7546H44.0761V65.1395H44.021C43.3032 65.1395 42.7212 64.5576 42.7212 63.8397C42.7212 63.1219 43.3032 62.54 44.021 62.54H44.0761V61.2402C44.0761 60.5224 44.658 59.9405 45.3758 59.9405H57.3077ZM46.6756 70.9862L55.3959 62.54H46.6756V70.9862Z" fill="#221F20"/>
</svg>
