<svg width="600" height="56" viewBox="0 0 600 56" fill="none" xmlns="http://www.w3.org/2000/svg">
<g clip-path="url(#clip0_2275_65474)">
<path d="M19.324 41.0615H19.5507L27.575 1.0647H38.9088L26.4416 55.1606H12.4671L0 1.0647H11.6738L19.324 41.0615Z" fill="black"/>
<path d="M73.114 9.99568H53.8466V22.7348H71.9806V31.7338H53.8466V46.2183H73.8734V55.1606H42.8869V1.0647H73.114V9.99568Z" fill="black"/>
<path d="M99.4876 1.0647C104.021 1.0647 107.557 2.19807 110.096 4.46482C112.635 6.73157 113.897 10.2299 113.881 14.9599C114.013 18.0747 113.25 21.1621 111.683 23.8568C110.913 25.0216 109.912 26.0158 108.742 26.7781C107.573 27.5404 106.259 28.0544 104.882 28.2883V28.447C107.125 28.6195 109.242 29.5556 110.878 31.0991C112.132 32.4592 112.914 34.6541 113.224 37.684C113.326 38.704 113.394 39.7921 113.451 40.9821C113.507 42.1722 113.553 43.4982 113.598 44.9603C113.7 47.839 113.859 50.0378 114.051 51.5565C114.127 52.1886 114.344 52.7956 114.685 53.333C115.026 53.8704 115.484 54.3245 116.024 54.662V55.1153H104.18C103.63 54.3545 103.272 53.4717 103.137 52.5425C102.976 51.5293 102.873 50.5076 102.831 49.4824L102.525 39.1007C102.532 37.3063 101.977 35.5547 100.938 34.0912C99.975 32.8785 98.3656 32.2778 96.0875 32.2778H90.2393V55.1606H79.3362V1.0647H99.4876ZM94.7841 24.6955C96.9707 24.8464 99.1366 24.189 100.87 22.8481C102.287 21.6014 102.99 19.5274 102.99 16.5919C102.975 11.5749 100.443 9.06632 95.3961 9.06632H90.2393V24.6955H94.7841Z" fill="black"/>
<path d="M130.247 39.8601C130.241 41.0006 130.344 42.1391 130.553 43.2602C130.718 44.2072 131.106 45.101 131.687 45.867C132.285 46.6095 133.066 47.1837 133.954 47.533C135.075 47.9748 136.274 48.1831 137.478 48.145C139.135 48.1572 140.743 47.5786 142.012 46.513C142.69 45.8822 143.216 45.1055 143.55 44.2415C143.883 43.3776 144.016 42.449 143.939 41.5261C143.964 40.4553 143.798 39.3886 143.451 38.3754C143.104 37.4637 142.544 36.6478 141.819 35.9953C140.93 35.1955 139.92 34.5413 138.827 34.0572C137.333 33.3745 135.801 32.7803 134.237 32.2778C132.07 31.5813 129.968 30.6938 127.958 29.6257C126.3 28.7439 124.799 27.5952 123.515 26.2256C122.33 24.9196 121.441 23.3733 120.908 21.6921C120.348 19.8026 120.088 17.8368 120.138 15.8666C120.138 10.517 121.634 6.51623 124.671 3.89813C127.709 1.28004 131.641 -0.000672537 136.844 -0.000672537C139.101 -0.0228763 141.352 0.243741 143.542 0.792689C145.476 1.27352 147.284 2.16231 148.846 3.39945C150.359 4.60584 151.557 6.16154 152.337 7.93294C153.217 10.0298 153.642 12.2898 153.584 14.5632V16.0706H143.134C143.26 14 142.784 11.9372 141.762 10.1317C141.255 9.41822 140.569 8.85022 139.774 8.48432C138.978 8.11842 138.101 7.96739 137.229 8.04628C136.195 8.01218 135.166 8.18959 134.203 8.56763C133.457 8.88086 132.794 9.36179 132.265 9.97302C131.786 10.5567 131.448 11.2433 131.279 11.9791C131.105 12.7529 131.018 13.5435 131.018 14.3365C130.967 15.8108 131.337 17.2692 132.083 18.5413C132.786 19.6747 134.297 20.7212 136.617 21.6808L145.072 25.3076C146.866 26.0619 148.569 27.0162 150.149 28.1523C151.361 29.0333 152.421 30.105 153.289 31.3258C154.058 32.4812 154.597 33.7742 154.876 35.1339C155.192 36.624 155.344 38.1442 155.329 39.6674C155.329 45.3796 153.674 49.5353 150.365 52.1345C147.055 54.7337 142.446 56.0371 136.538 56.0447C130.372 56.0447 125.963 54.7035 123.311 52.0212C120.659 49.3389 119.333 45.4854 119.333 40.4608V38.262H130.247V39.8601Z" fill="black"/>
<path d="M184.808 1.0647L199.123 55.1606H187.789L185.295 43.7249H170.856L168.363 55.1606H157.029L171.321 1.0647H184.808ZM183.369 34.7826L178.132 10.4604H177.94L172.715 34.7826H183.369Z" fill="black"/>
<path d="M230.415 9.99568H218.594V55.1606H207.691V9.99568H195.87V1.0647H230.415V9.99568Z" fill="black"/>
<path d="M235.651 1.0647H246.554V55.1606H235.651V1.0647Z" fill="black"/>
<path d="M254.669 1.0647H265.572V46.2183H284.896V55.1606H254.669V1.0647Z" fill="black"/>
<path d="M319.974 9.99568H300.707V22.7348H318.841V31.7338H300.707V46.2183H320.745V55.1606H289.747V1.0647H319.974V9.99568Z" fill="black"/>
<path d="M353.16 39.8601C353.153 41.0006 353.256 42.1391 353.466 43.2602C353.63 44.2072 354.018 45.101 354.599 45.867C355.197 46.6095 355.978 47.1837 356.866 47.533C357.987 47.9736 359.186 48.1818 360.39 48.145C362.048 48.1572 363.655 47.5786 364.924 46.513C365.623 45.885 366.167 45.1042 366.515 44.2314C366.863 43.3586 367.005 42.4174 366.93 41.4808C366.955 40.41 366.79 39.3433 366.443 38.33C366.095 37.4183 365.536 36.6025 364.811 35.9499C363.922 35.1501 362.912 34.496 361.818 34.0119C360.343 33.3325 358.829 32.7384 357.285 32.2325C355.114 31.5359 353.009 30.6484 350.995 29.5804C349.34 28.6991 347.843 27.5502 346.563 26.1803C345.371 24.8777 344.477 23.3305 343.945 21.6468C343.357 19.7465 343.074 17.7649 343.107 15.7759C343.107 10.4264 344.603 6.42556 347.583 3.80746C350.564 1.18937 354.554 -0.000672537 359.756 -0.000672537C362.017 -0.0221104 364.272 0.244488 366.465 0.792689C368.389 1.28138 370.189 2.16956 371.747 3.39945C373.257 4.60652 374.451 6.16229 375.226 7.93294C376.112 10.0281 376.538 12.2893 376.473 14.5632V16.0706H366.08C366.206 14 365.73 11.9372 364.709 10.1317C364.201 9.41822 363.515 8.85022 362.72 8.48432C361.925 8.11842 361.047 7.96739 360.175 8.04628C359.141 8.01218 358.112 8.18959 357.149 8.56763C356.405 8.88402 355.743 9.36445 355.211 9.97302C354.732 10.5567 354.395 11.2433 354.225 11.9791C354.051 12.7529 353.964 13.5435 353.964 14.3365C353.913 15.8108 354.283 17.2692 355.03 18.5413C355.732 19.6747 357.243 20.7212 359.563 21.6808L367.973 25.3189C369.768 26.0707 371.472 27.0252 373.05 28.1637C374.262 29.0446 375.322 30.1164 376.19 31.3371C376.962 32.4882 377.504 33.7773 377.788 35.1339C378.104 36.624 378.256 38.1442 378.241 39.6674C378.241 45.3796 376.586 49.5353 373.277 52.1345C369.967 54.7337 365.358 56.0371 359.45 56.0447C353.284 56.0447 348.879 54.7035 346.235 52.0212C343.59 49.3389 342.272 45.4854 342.279 40.4608V38.262H353.182L353.16 39.8601Z" fill="black"/>
<path d="M415.37 9.99568H403.549V55.1606H392.635V9.99568H380.814V1.0647H415.37V9.99568Z" fill="black"/>
<path d="M430.297 38.7947C430.291 40.0499 430.378 41.3038 430.558 42.5462C430.707 43.5833 431.041 44.5853 431.544 45.5043C432.017 46.32 432.697 46.9963 433.516 47.465C434.483 47.9823 435.571 48.2326 436.667 48.1904C437.771 48.2412 438.868 47.9905 439.84 47.465C440.646 46.9916 441.314 46.3157 441.778 45.5043C442.281 44.5853 442.615 43.5833 442.764 42.5462C442.944 41.3038 443.031 40.0499 443.025 38.7947V1.0647H453.939V38.7947C454.029 41.703 453.54 44.6002 452.5 47.3177C451.669 49.387 450.341 51.2202 448.635 52.6559C447.041 53.9594 445.161 54.8681 443.149 55.308C441.035 55.7697 438.876 56.0015 436.712 55.9993C434.547 56.0055 432.388 55.8005 430.263 55.3873C428.253 55.008 426.36 54.166 424.732 52.9279C423.006 51.5386 421.674 49.7216 420.867 47.6577C419.787 44.8309 419.271 41.8199 419.349 38.7947V1.0647H430.263L430.297 38.7947Z" fill="black"/>
<path d="M479.247 1.0647C482.408 0.92957 485.555 1.56351 488.416 2.9121C490.697 4.11896 492.579 5.96145 493.834 8.21629C495.206 10.7976 496.09 13.6102 496.441 16.5126C496.917 20.1043 497.144 23.7246 497.121 27.3476C497.167 31.4933 496.879 35.636 496.259 39.7354C495.832 42.7969 494.811 45.7457 493.256 48.4171C491.912 50.6342 489.94 52.4016 487.589 53.4946C484.742 54.6975 481.668 55.266 478.579 55.1606H461.363V1.0647H479.247ZM477.151 47.125C478.747 47.1975 480.336 46.8579 481.764 46.139C483.018 45.3886 483.99 44.2453 484.529 42.8862C485.305 40.9783 485.769 38.9576 485.9 36.902C486.127 34.4312 486.24 31.3484 486.24 27.6537C486.24 24.5709 486.138 21.8697 485.934 19.55C485.804 17.5653 485.384 15.6103 484.688 13.7472C484.143 12.319 483.159 11.1007 481.877 10.2677C480.362 9.42996 478.641 9.03709 476.913 9.13432H472.277V47.125H477.151Z" fill="black"/>
<path d="M504.85 1.0647H515.765V55.1606H504.85V1.0647Z" fill="black"/>
<path d="M523.302 16.7846C523.588 13.7056 524.437 10.7052 525.806 7.93294C527.051 5.49712 528.987 3.48257 531.371 2.1414C534.447 0.766263 537.778 0.0554725 541.147 0.0554725C544.516 0.0554725 547.847 0.766263 550.922 2.1414C553.306 3.48257 555.242 5.49712 556.487 7.93294C557.869 10.7208 558.718 13.7419 558.992 16.8413C559.384 20.6063 559.573 24.3897 559.558 28.175C559.573 31.9604 559.384 35.7437 558.992 39.5087C558.713 42.5818 557.863 45.576 556.487 48.3377C555.256 50.7522 553.314 52.7303 550.922 54.0046C547.827 55.306 544.504 55.9763 541.147 55.9763C537.789 55.9763 534.466 55.306 531.371 54.0046C528.98 52.7303 527.037 50.7522 525.806 48.3377C524.431 45.5635 523.582 42.5584 523.302 39.4747C522.909 35.7097 522.72 31.9263 522.735 28.141C522.72 24.3481 522.909 20.5571 523.302 16.7846ZM533.91 37.4007C534.01 39.5067 534.368 41.5925 534.975 43.6116C535.348 44.9835 536.14 46.2043 537.242 47.1023C538.418 47.8216 539.769 48.2022 541.147 48.2022C542.525 48.2022 543.876 47.8216 545.051 47.1023C546.153 46.2043 546.946 44.9835 547.318 43.6116C547.925 41.5925 548.283 39.5067 548.383 37.4007C548.565 34.8506 548.644 31.7338 548.644 28.1183C548.644 24.5029 548.565 21.4088 548.383 18.8813C548.279 16.7757 547.921 14.6904 547.318 12.6704C546.952 11.2862 546.159 10.0527 545.051 9.14565C543.876 8.4264 542.525 8.04579 541.147 8.04579C539.769 8.04579 538.418 8.4264 537.242 9.14565C536.134 10.0527 535.341 11.2862 534.975 12.6704C534.372 14.6904 534.014 16.7757 533.91 18.8813C533.729 21.4088 533.649 24.4802 533.649 28.1183C533.649 31.7565 533.729 34.8392 533.91 37.4007Z" fill="black"/>
<path d="M574.791 39.8601C574.785 41.0006 574.887 42.1391 575.097 43.2602C575.256 44.2087 575.645 45.1038 576.23 45.867C576.829 46.6095 577.61 47.1837 578.497 47.533C579.618 47.9757 580.817 48.184 582.022 48.1451C583.679 48.1572 585.286 47.5786 586.555 46.513C587.254 45.885 587.799 45.1042 588.147 44.2314C588.495 43.3587 588.637 42.4174 588.561 41.4808C588.583 40.4093 588.414 39.3426 588.063 38.33C587.719 37.4191 587.164 36.6031 586.442 35.9499C585.553 35.1501 584.543 34.496 583.45 34.0119C581.955 33.3311 580.423 32.737 578.86 32.2325C576.689 31.5359 574.584 30.6484 572.57 29.5804C570.917 28.6956 569.42 27.5472 568.138 26.1803C566.949 24.8773 566.059 23.33 565.531 21.6468C564.938 19.7477 564.654 17.7652 564.693 15.7759C564.693 10.4264 566.177 6.42556 569.158 3.80746C572.139 1.18937 576.174 -0.000672537 581.421 -0.000672537C583.682 -0.0228509 585.937 0.243758 588.131 0.792689C590.048 1.27953 591.841 2.16804 593.39 3.39945C594.903 4.60584 596.101 6.16154 596.88 7.93294C597.761 10.0298 598.186 12.2898 598.127 14.5632V16.0706H587.666C587.79 14.0016 587.318 11.9405 586.306 10.1317C585.798 9.41822 585.113 8.85022 584.317 8.48432C583.522 8.11842 582.644 7.96739 581.773 8.04628C580.735 8.01317 579.702 8.19052 578.735 8.56763C577.993 8.88094 577.333 9.36198 576.808 9.97302C576.329 10.5567 575.992 11.2433 575.822 11.9791C575.643 12.7519 575.555 13.5432 575.562 14.3365C575.516 15.8088 575.881 17.2647 576.616 18.5413C577.787 20.0092 579.363 21.1008 581.149 21.6808L589.57 25.3189C591.361 26.0731 593.06 27.0274 594.636 28.1637C595.851 29.0444 596.915 30.1161 597.787 31.3371C598.571 32.4856 599.125 33.7749 599.419 35.1339C599.73 36.6248 599.882 38.1445 599.872 39.6674C599.872 45.3796 598.218 49.5353 594.908 52.1345C591.599 54.7337 586.99 56.0371 581.081 56.0447C574.916 56.0447 570.507 54.7035 567.855 52.0212C565.203 49.3389 563.877 45.4854 563.877 40.4608V38.262H574.791V39.8601Z" fill="black"/>
</g>
<defs>
<clipPath id="clip0_2275_65474">
<rect width="599.872" height="56" fill="white"/>
</clipPath>
</defs>
</svg>
