<svg width="568" height="628" viewBox="0 0 568 628" fill="none" xmlns="http://www.w3.org/2000/svg">
<path d="M223.186 180.6C227.036 189.51 234.216 196.561 243.194 200.25C252.171 203.938 262.235 203.97 271.236 200.34C292.616 191.83 330.736 178.99 365.836 190.34C438.106 213.6 438.656 284.2 432.016 308.34C426.776 327.34 413.016 350.16 401.016 368.14C387.846 387.95 381.916 411.85 385.536 435.36C388.166 452.42 395.536 470.84 412.346 486.1C457.196 526.8 504.546 481.95 525.346 511.85C538.719 531.451 550.653 551.994 561.056 573.32V29.96H28.5664C28.5664 29.96 61.8264 120.5 140.736 118.01C186.036 116.58 210.566 151.01 223.186 180.6Z" fill="#F1E8FE"/>
<path d="M365.896 89.89C368.194 95.2046 372.48 99.4097 377.837 101.607C383.194 103.805 389.198 103.82 394.566 101.65C407.316 96.58 430.046 88.92 450.976 95.65C494.076 109.52 494.406 151.65 490.436 165.98C487.316 177.31 479.096 190.92 471.966 201.65C463.997 213.391 460.705 227.686 462.736 241.73C464.358 253.38 470.021 264.09 478.736 271.99C505.486 296.26 533.736 269.51 546.106 287.34C554.082 299.03 561.2 311.282 567.406 324V0H249.866C249.866 0 269.676 54 316.736 52.5C343.746 51.71 358.356 72.24 365.896 89.89Z" fill="#F9F6FF"/>
<path d="M383.346 230.2C365.796 213.245 342.232 203.952 317.833 204.362C293.434 204.773 270.196 214.854 253.226 232.39C167.046 321.52 101.336 406.97 65.1264 472.1L161.776 368.34C166.526 363.42 174.966 363.82 180.546 369.27C186.126 374.72 186.846 383.07 182.126 387.99C182.126 387.99 52.5964 539.99 0.596439 604.42C0.181376 604.886 -0.0317872 605.497 0.00384475 606.119C0.0394767 606.742 0.320984 607.325 0.786439 607.74C1.25189 608.155 1.86317 608.368 2.48579 608.333C3.10841 608.297 3.69138 608.016 4.10644 607.55L183.336 425.49C184.176 424.585 185.188 423.857 186.312 423.348C187.437 422.839 188.652 422.56 189.886 422.527C191.12 422.494 192.349 422.708 193.499 423.157C194.649 423.605 195.698 424.278 196.585 425.137C197.471 425.997 198.177 427.024 198.661 428.16C199.145 429.295 199.397 430.516 199.403 431.751C199.409 432.985 199.168 434.208 198.694 435.348C198.221 436.489 197.525 437.523 196.646 438.39L25.9764 623.6C25.5827 624.051 25.3748 624.634 25.3949 625.232C25.415 625.83 25.6616 626.399 26.0848 626.822C26.508 627.245 27.0761 627.491 27.6742 627.512C28.2724 627.532 28.8558 627.324 29.3064 626.93C93.1964 568.05 228.646 438.34 228.646 438.34C233.466 433.34 241.946 433.79 247.646 439.29C253.346 444.79 253.996 453.23 249.186 458.16L173.386 541.44C236.126 500.22 312.456 435.94 385.566 360.34C393.97 351.652 400.579 341.392 405.016 330.148C409.453 318.904 411.631 306.896 411.424 294.81C411.218 282.724 408.632 270.797 403.815 259.711C398.997 248.625 392.042 238.597 383.346 230.2Z" fill="#F1E8FE"/>
<path d="M259.087 234.78C225.567 269.48 186.847 365.74 221.567 399.34C256.287 432.94 351.187 390.96 384.687 356.28C400.799 339.625 409.634 317.251 409.25 294.081C408.865 270.91 399.292 248.842 382.637 232.73C374.39 224.752 364.652 218.477 353.98 214.262C343.308 210.048 331.91 207.977 320.437 208.167C297.267 208.552 275.199 218.125 259.087 234.78Z" fill="url(#paint0_linear_930_15987)"/>
<path d="M271.866 233.72C264.866 239.33 260.476 247.84 257.656 256.45C252.976 270.74 245.136 284.54 247.656 299.36C250.706 317.66 254.926 338.6 270.906 351.42C278.426 357.42 293.606 362.84 303.026 360.83C311.026 359.11 315.556 356.58 323.726 355.68C329.806 355.02 335.926 356.53 342.046 356.38C353.446 356.11 356.326 356.63 366.156 350.86C371.156 347.91 376.286 344.91 380.396 340.77C384.506 336.63 387.566 331.15 387.566 325.34C387.447 313.735 386.736 302.143 385.436 290.61C384.766 284.5 386.976 278.4 386.766 272.25C386.386 261.25 378.506 252.15 370.446 244.71C361.376 236.34 351.186 228.71 339.306 225.31C327.026 221.83 313.966 223.22 301.306 224.64C291.676 225.72 281.606 226.96 273.616 232.44C273.026 232.83 272.436 233.26 271.866 233.72Z" fill="white"/>
<path d="M328.706 345.51C330.981 345.51 332.826 343.665 332.826 341.39C332.826 339.115 330.981 337.27 328.706 337.27C326.431 337.27 324.586 339.115 324.586 341.39C324.586 343.665 326.431 345.51 328.706 345.51Z" fill="white"/>
<path d="M328.696 340.27C328.782 340.26 328.87 340.26 328.956 340.27C329.234 340.322 329.482 340.478 329.65 340.705C329.819 340.933 329.895 341.215 329.863 341.496C329.831 341.777 329.694 342.036 329.48 342.221C329.265 342.405 328.989 342.501 328.706 342.49C328.62 342.5 328.532 342.5 328.446 342.49C328.168 342.438 327.92 342.283 327.752 342.055C327.584 341.828 327.508 341.545 327.539 341.264C327.571 340.983 327.708 340.724 327.922 340.54C328.137 340.355 328.413 340.259 328.696 340.27ZM328.696 337.27C327.68 337.263 326.696 337.632 325.935 338.306C325.175 338.981 324.69 339.912 324.574 340.922C324.459 341.932 324.721 342.949 325.31 343.778C325.899 344.606 326.774 345.188 327.766 345.41C328.075 345.481 328.39 345.518 328.706 345.52C329.723 345.527 330.706 345.158 331.467 344.484C332.228 343.81 332.712 342.878 332.828 341.868C332.943 340.858 332.681 339.841 332.092 339.012C331.503 338.184 330.628 337.603 329.636 337.38C329.328 337.309 329.012 337.272 328.696 337.27Z" fill="url(#paint1_linear_930_15987)"/>
<path d="M278.416 282.79C281.376 282.79 283.776 280.39 283.776 277.43C283.776 274.47 281.376 272.07 278.416 272.07C275.456 272.07 273.056 274.47 273.056 277.43C273.056 280.39 275.456 282.79 278.416 282.79Z" fill="white"/>
<path d="M278.416 275.07C278.598 275.07 278.779 275.09 278.956 275.13C279.515 275.268 280.004 275.605 280.332 276.078C280.66 276.55 280.806 277.126 280.741 277.698C280.676 278.269 280.405 278.798 279.979 279.185C279.554 279.571 279.002 279.79 278.426 279.8C278.245 279.8 278.064 279.78 277.886 279.74C277.328 279.601 276.839 279.265 276.511 278.792C276.182 278.32 276.037 277.744 276.102 277.172C276.167 276.601 276.437 276.072 276.863 275.685C277.289 275.298 277.841 275.08 278.416 275.07ZM278.416 272.07C277.094 272.061 275.814 272.541 274.824 273.418C273.835 274.295 273.204 275.507 273.054 276.821C272.904 278.135 273.245 279.459 274.011 280.536C274.778 281.614 275.916 282.371 277.206 282.66C277.607 282.75 278.016 282.797 278.426 282.8C279.749 282.809 281.028 282.329 282.018 281.452C283.008 280.575 283.639 279.363 283.789 278.049C283.939 276.734 283.598 275.411 282.831 274.333C282.065 273.256 280.927 272.499 279.636 272.21C279.237 272.115 278.827 272.068 278.416 272.07Z" fill="url(#paint2_linear_930_15987)"/>
<path d="M299.646 295.36C302.606 295.36 305.006 292.96 305.006 290C305.006 287.04 302.606 284.64 299.646 284.64C296.686 284.64 294.286 287.04 294.286 290C294.286 292.96 296.686 295.36 299.646 295.36Z" fill="url(#paint3_linear_930_15987)"/>
<path d="M312.346 245.16C313.827 245.16 315.026 243.96 315.026 242.48C315.026 241 313.827 239.8 312.346 239.8C310.866 239.8 309.667 241 309.667 242.48C309.667 243.96 310.866 245.16 312.346 245.16Z" fill="url(#paint4_linear_930_15987)"/>
<path d="M333.106 272.14C337.778 272.14 341.566 268.353 341.566 263.68C341.566 259.008 337.778 255.22 333.106 255.22C328.434 255.22 324.646 259.008 324.646 263.68C324.646 268.353 328.434 272.14 333.106 272.14Z" fill="white"/>
<path d="M333.096 258.21C333.514 258.211 333.93 258.261 334.336 258.36C335.643 258.662 336.793 259.434 337.567 260.529C338.341 261.625 338.685 262.967 338.533 264.299C338.38 265.632 337.743 266.862 336.743 267.754C335.742 268.647 334.447 269.14 333.106 269.14C332.688 269.14 332.272 269.089 331.866 268.99C330.559 268.688 329.409 267.916 328.636 266.821C327.862 265.725 327.518 264.384 327.67 263.051C327.822 261.719 328.459 260.489 329.46 259.596C330.461 258.703 331.755 258.21 333.096 258.21ZM333.096 255.21C330.926 255.199 328.833 256.018 327.247 257.5C325.662 258.982 324.703 261.015 324.568 263.181C324.433 265.348 325.132 267.484 326.522 269.151C327.911 270.819 329.886 271.891 332.041 272.15C334.196 272.408 336.368 271.832 338.112 270.54C339.856 269.247 341.04 267.337 341.42 265.2C341.801 263.063 341.349 260.862 340.159 259.047C338.968 257.232 337.128 255.942 335.016 255.44C334.387 255.29 333.743 255.213 333.096 255.21Z" fill="url(#paint5_linear_930_15987)"/>
<path d="M357.246 313.14C361.918 313.14 365.706 309.352 365.706 304.68C365.706 300.008 361.918 296.22 357.246 296.22C352.574 296.22 348.786 300.008 348.786 304.68C348.786 309.352 352.574 313.14 357.246 313.14Z" fill="url(#paint6_linear_930_15987)"/>
<path d="M283.046 327.01C287.719 327.01 291.506 323.222 291.506 318.55C291.506 313.878 287.719 310.09 283.046 310.09C278.374 310.09 274.586 313.878 274.586 318.55C274.586 323.222 278.374 327.01 283.046 327.01Z" fill="white"/>
<path d="M283.037 313.09C283.457 313.092 283.876 313.139 284.287 313.23C285.593 313.532 286.743 314.304 287.517 315.399C288.291 316.495 288.635 317.837 288.483 319.169C288.331 320.502 287.694 321.732 286.693 322.624C285.692 323.517 284.398 324.01 283.057 324.01C282.636 324.009 282.217 323.962 281.807 323.87C280.5 323.568 279.35 322.796 278.576 321.701C277.802 320.606 277.458 319.264 277.61 317.931C277.762 316.599 278.4 315.369 279.4 314.476C280.401 313.583 281.696 313.09 283.037 313.09ZM283.037 310.09C280.877 310.093 278.801 310.923 277.233 312.407C275.665 313.892 274.724 315.921 274.603 318.077C274.482 320.233 275.191 322.354 276.583 324.004C277.975 325.655 279.946 326.711 282.092 326.956C284.237 327.2 286.395 326.615 288.123 325.32C289.851 324.025 291.019 322.118 291.386 319.99C291.754 317.862 291.294 315.674 290.1 313.874C288.907 312.075 287.07 310.799 284.967 310.31C284.334 310.163 283.686 310.089 283.037 310.09Z" fill="url(#paint7_linear_930_15987)"/>
<path d="M263.636 507.54C263.634 509.474 262.863 511.329 261.495 512.695C260.126 514.062 258.271 514.83 256.336 514.83C254.404 514.827 252.551 514.058 251.184 512.692C249.818 511.325 249.049 509.473 249.046 507.54C249.046 505.606 249.814 503.75 251.181 502.382C252.548 501.013 254.402 500.243 256.336 500.24C258.272 500.24 260.129 501.009 261.498 502.378C262.867 503.747 263.636 505.604 263.636 507.54Z" fill="#F9F6FF"/>
<path d="M475.246 320.55C475.246 322.486 474.477 324.343 473.108 325.712C471.739 327.081 469.882 327.85 467.946 327.85C466.988 327.85 466.039 327.661 465.154 327.294C464.269 326.927 463.465 326.389 462.788 325.711C462.111 325.033 461.574 324.228 461.208 323.343C460.843 322.457 460.655 321.508 460.656 320.55C460.656 318.617 461.424 316.762 462.791 315.395C464.159 314.028 466.013 313.26 467.946 313.26C468.904 313.259 469.853 313.446 470.739 313.812C471.625 314.178 472.43 314.715 473.108 315.392C473.786 316.069 474.323 316.873 474.69 317.758C475.057 318.643 475.246 319.592 475.246 320.55Z" fill="#F1E8FE"/>
<path d="M146.376 397.43H131.786V412.02H146.376V397.43Z" fill="#E0D2FC"/>
<path d="M69.2663 495.72H54.6763V510.31H69.2663V495.72Z" fill="#F9F6FF"/>
<path d="M126.816 489.14C126.816 490.097 126.628 491.045 126.261 491.93C125.895 492.814 125.358 493.618 124.681 494.295C124.004 494.972 123.2 495.509 122.316 495.875C121.431 496.242 120.483 496.43 119.526 496.43C118.568 496.431 117.619 496.244 116.733 495.878C115.848 495.512 115.043 494.976 114.365 494.298C113.687 493.621 113.149 492.817 112.782 491.932C112.415 491.047 112.226 490.098 112.226 489.14C112.226 488.182 112.415 487.233 112.782 486.348C113.149 485.463 113.687 484.659 114.365 483.982C115.043 483.305 115.848 482.768 116.733 482.402C117.619 482.036 118.568 481.849 119.526 481.85C121.459 481.85 123.314 482.618 124.681 483.985C126.048 485.352 126.816 487.207 126.816 489.14Z" fill="#E0D2FC"/>
<path d="M11.3377 529.127L1.021 539.444L11.3377 549.761L21.6544 539.444L11.3377 529.127Z" fill="#F9F6FF"/>
<path opacity="0.5" d="M208.959 565.896L198.643 576.213L208.959 586.53L219.276 576.213L208.959 565.896Z" fill="#844BF1"/>
<path d="M105.391 565.394L95.0742 575.71L105.391 586.027L115.708 575.71L105.391 565.394Z" fill="#E0D2FC"/>
<path d="M200.496 402.34C200.496 404.276 199.727 406.133 198.358 407.502C196.989 408.871 195.132 409.64 193.196 409.64C192.238 409.64 191.289 409.451 190.404 409.084C189.519 408.717 188.715 408.179 188.038 407.501C187.361 406.823 186.824 406.019 186.458 405.133C186.093 404.247 185.905 403.298 185.906 402.34C185.906 400.407 186.674 398.552 188.041 397.185C189.409 395.818 191.263 395.05 193.196 395.05C194.154 395.049 195.103 395.236 195.989 395.602C196.875 395.968 197.68 396.505 198.358 397.182C199.036 397.859 199.573 398.663 199.94 399.548C200.307 400.433 200.496 401.382 200.496 402.34Z" fill="#F9F6FF"/>
<path d="M57.5559 387.425L47.2393 397.741L57.556 408.058L67.8727 397.741L57.5559 387.425Z" fill="#F1E8FE"/>
<defs>
<linearGradient id="paint0_linear_930_15987" x1="286.512" y1="420.199" x2="335.659" y2="209.002" gradientUnits="userSpaceOnUse">
<stop stop-color="#5F1AED"/>
<stop offset="1" stop-color="#CA53FA"/>
</linearGradient>
<linearGradient id="paint1_linear_930_15987" x1="327.766" y1="345.41" x2="329.636" y2="337.38" gradientUnits="userSpaceOnUse">
<stop stop-color="#5F1AED"/>
<stop offset="1" stop-color="#CA53FA"/>
</linearGradient>
<linearGradient id="paint2_linear_930_15987" x1="277.206" y1="282.66" x2="279.636" y2="272.21" gradientUnits="userSpaceOnUse">
<stop stop-color="#5F1AED"/>
<stop offset="1" stop-color="#CA53FA"/>
</linearGradient>
<linearGradient id="paint3_linear_930_15987" x1="298.429" y1="295.217" x2="300.861" y2="284.766" gradientUnits="userSpaceOnUse">
<stop stop-color="#5F1AED"/>
<stop offset="1" stop-color="#CA53FA"/>
</linearGradient>
<linearGradient id="paint4_linear_930_15987" x1="311.73" y1="245.077" x2="312.944" y2="239.856" gradientUnits="userSpaceOnUse">
<stop stop-color="#5F1AED"/>
<stop offset="1" stop-color="#CA53FA"/>
</linearGradient>
<linearGradient id="paint5_linear_930_15987" x1="331.186" y1="271.92" x2="335.016" y2="255.44" gradientUnits="userSpaceOnUse">
<stop stop-color="#5F1AED"/>
<stop offset="1" stop-color="#CA53FA"/>
</linearGradient>
<linearGradient id="paint6_linear_930_15987" x1="355.321" y1="312.902" x2="359.156" y2="296.422" gradientUnits="userSpaceOnUse">
<stop stop-color="#5F1AED"/>
<stop offset="1" stop-color="#CA53FA"/>
</linearGradient>
<linearGradient id="paint7_linear_930_15987" x1="281.127" y1="326.79" x2="284.967" y2="310.31" gradientUnits="userSpaceOnUse">
<stop stop-color="#5F1AED"/>
<stop offset="1" stop-color="#CA53FA"/>
</linearGradient>
</defs>
</svg>
