<svg width="540" height="569" viewBox="0 0 540 569" fill="none" xmlns="http://www.w3.org/2000/svg">
<path d="M224 341.89C172.86 350.56 118 337.16 69.89 356.56C55.34 362.42 41.18 372.1 35.48 386.72C28.22 405.34 37.17 427.4 52.54 440.18C67.91 452.96 88.27 458 108.15 460C166.94 465.95 228.41 449.11 284.33 468.16C308.01 476.22 329.33 490.39 353.33 497.5C382.99 506.28 414.66 503.73 445.47 501.11C466.21 499.34 489.61 496.11 501.78 479.24C511.46 465.8 510.83 447.47 506.78 431.41C501.65 410.83 491.41 391.25 475.9 376.79C446.64 349.5 403.34 343.79 363.35 345.16C323.36 346.53 282.94 353.37 243.64 345.81" fill="#F1E8FE"/>
<path d="M248.69 398.54C240.15 400.54 218.12 412.38 212.41 417.31C206.7 422.24 206.12 430.8 213.62 434.46C217.19 436.21 222.15 436.71 224.49 439.31C227.19 442.31 224.56 446.48 220.37 448.31C216.18 450.14 211 450.31 206.08 450.58C187.976 451.572 170.08 454.934 152.85 460.58C140.85 464.58 128.78 470.42 125.18 479.51C121.66 488.39 127.48 498.15 136.54 504.87C149 514.1 167 518.71 184.7 520.42C202.4 522.13 220.38 521.23 238.25 521.17C279.64 521.03 321.13 525.35 362.36 523.1C378.23 522.24 395.05 520.03 406.36 512.1C421.36 501.69 421.94 483.64 411.86 470.35C401.78 457.06 383.15 448.01 363.67 442.15C350.99 438.33 335.67 434.15 332.55 424.6C330.81 419.36 333.48 413.9 332.55 408.6C327 377.73 268.43 393.92 248.69 398.54Z" fill="#F9F6FF"/>
<path d="M203.48 95.9199C203.48 98.0417 202.637 100.076 201.137 101.577C199.637 103.077 197.602 103.92 195.48 103.92C193.358 103.92 191.323 103.077 189.823 101.577C188.323 100.076 187.48 98.0417 187.48 95.9199C187.48 93.7982 188.323 91.7634 189.823 90.2631C191.323 88.7628 193.358 87.9199 195.48 87.9199C197.602 87.9199 199.637 88.7628 201.137 90.2631C202.637 91.7634 203.48 93.7982 203.48 95.9199Z" fill="#F9F6FF"/>
<path d="M494.55 233.79C494.55 235.912 493.707 237.946 492.207 239.447C490.706 240.947 488.672 241.79 486.55 241.79C484.428 241.79 482.393 240.947 480.893 239.447C479.393 237.946 478.55 235.912 478.55 233.79C478.55 231.668 479.393 229.633 480.893 228.133C482.393 226.633 484.428 225.79 486.55 225.79C488.672 225.79 490.706 226.633 492.207 228.133C493.707 229.633 494.55 231.668 494.55 233.79Z" fill="#F1E8FE"/>
<path d="M383.48 178.64C383.48 180.762 382.637 182.796 381.137 184.297C379.637 185.797 377.602 186.64 375.48 186.64C373.358 186.64 371.323 185.797 369.823 184.297C368.323 182.796 367.48 180.762 367.48 178.64C367.48 176.518 368.323 174.483 369.823 172.983C371.323 171.483 373.358 170.64 375.48 170.64C377.602 170.64 379.637 171.483 381.137 172.983C382.637 174.483 383.48 176.518 383.48 178.64Z" fill="#F1E8FE"/>
<path d="M67.7408 417.382L60.04 431.407L74.065 439.107L81.7657 425.083L67.7408 417.382Z" fill="#E0D2FC"/>
<path opacity="0.5" d="M467.22 161.45H451.22V177.45H467.22V161.45Z" fill="#844BF1"/>
<path d="M527.48 176.69H511.48V192.69H527.48V176.69Z" fill="#F1E8FE"/>
<path d="M191.36 504.47C191.36 506.592 190.517 508.627 189.017 510.127C187.516 511.627 185.482 512.47 183.36 512.47C181.238 512.47 179.203 511.627 177.703 510.127C176.203 508.627 175.36 506.592 175.36 504.47C175.36 502.348 176.203 500.313 177.703 498.813C179.203 497.313 181.238 496.47 183.36 496.47C185.482 496.47 187.516 497.313 189.017 498.813C190.517 500.313 191.36 502.348 191.36 504.47Z" fill="#E0D2FC"/>
<path d="M416.759 290.487L405.445 301.801L416.759 313.114L428.072 301.801L416.759 290.487Z" fill="#E0D2FC"/>
<path d="M428.074 74.3941L416.761 85.7078L428.074 97.0215L439.388 85.7078L428.074 74.3941Z" fill="#E0D2FC"/>
<path d="M365.43 242.89H174.77V401.33H365.43V242.89Z" fill="white"/>
<path d="M362.43 245.89V398.33H177.77V245.89H362.43ZM365.43 242.89H174.77V401.33H365.43V242.89Z" fill="url(#paint0_linear_930_16074)"/>
<path d="M187.69 255.11H163.52V400.56H187.69V255.11Z" fill="white"/>
<path d="M184.69 258.11V397.56H166.52V258.11H184.69ZM187.69 255.11H163.52V400.56H187.69V255.11Z" fill="url(#paint1_linear_930_16074)"/>
<path d="M185.54 248.26H165.78C163.063 248.26 160.86 250.463 160.86 253.18C160.86 255.897 163.063 258.1 165.78 258.1H185.54C188.257 258.1 190.46 255.897 190.46 253.18C190.46 250.463 188.257 248.26 185.54 248.26Z" fill="white"/>
<path d="M185.54 251.26C186.049 251.26 186.537 251.463 186.898 251.823C187.258 252.183 187.46 252.671 187.46 253.18C187.46 253.689 187.258 254.178 186.898 254.538C186.537 254.898 186.049 255.1 185.54 255.1H165.78C165.271 255.1 164.782 254.898 164.422 254.538C164.062 254.178 163.86 253.689 163.86 253.18C163.86 252.671 164.062 252.183 164.422 251.823C164.782 251.463 165.271 251.26 165.78 251.26H185.54ZM185.54 248.26H165.78C164.475 248.26 163.224 248.779 162.301 249.701C161.378 250.624 160.86 251.875 160.86 253.18C160.86 254.485 161.378 255.737 162.301 256.659C163.224 257.582 164.475 258.1 165.78 258.1H185.54C186.845 258.1 188.096 257.582 189.019 256.659C189.942 255.737 190.46 254.485 190.46 253.18C190.46 251.875 189.942 250.624 189.019 249.701C188.096 248.779 186.845 248.26 185.54 248.26Z" fill="url(#paint2_linear_930_16074)"/>
<path d="M375.61 255.11H351.44V400.56H375.61V255.11Z" fill="white"/>
<path d="M372.61 258.11V397.56H354.44V258.11H372.61ZM375.61 255.11H351.44V400.56H375.61V255.11Z" fill="url(#paint3_linear_930_16074)"/>
<path d="M373.45 248.26H353.69C350.973 248.26 348.77 250.463 348.77 253.18C348.77 255.897 350.973 258.1 353.69 258.1H373.45C376.167 258.1 378.37 255.897 378.37 253.18C378.37 250.463 376.167 248.26 373.45 248.26Z" fill="white"/>
<path d="M373.45 251.26C373.959 251.26 374.448 251.463 374.808 251.823C375.168 252.183 375.37 252.671 375.37 253.18C375.37 253.689 375.168 254.178 374.808 254.538C374.448 254.898 373.959 255.1 373.45 255.1H353.7C353.191 255.1 352.702 254.898 352.342 254.538C351.982 254.178 351.78 253.689 351.78 253.18C351.78 252.671 351.982 252.183 352.342 251.823C352.702 251.463 353.191 251.26 353.7 251.26H373.45ZM373.45 248.26H353.7C352.394 248.26 351.142 248.778 350.218 249.701C349.293 250.623 348.773 251.874 348.77 253.18C348.773 254.486 349.293 255.737 350.218 256.66C351.142 257.582 352.394 258.1 353.7 258.1H373.45C374.755 258.1 376.006 257.582 376.929 256.659C377.852 255.737 378.37 254.485 378.37 253.18C378.37 251.875 377.852 250.624 376.929 249.701C376.006 248.779 374.755 248.26 373.45 248.26Z" fill="url(#paint4_linear_930_16074)"/>
<path d="M312.97 255.11H288.8V400.56H312.97V255.11Z" fill="white"/>
<path d="M310 258.11V397.56H291.8V258.11H310ZM313 255.11H288.8V400.56H313V255.11Z" fill="url(#paint5_linear_930_16074)"/>
<path d="M310.82 248.26H291.06C288.342 248.26 286.14 250.463 286.14 253.18C286.14 255.897 288.342 258.1 291.06 258.1H310.82C313.537 258.1 315.74 255.897 315.74 253.18C315.74 250.463 313.537 248.26 310.82 248.26Z" fill="white"/>
<path d="M310.82 251.26C311.329 251.26 311.817 251.463 312.177 251.823C312.537 252.183 312.74 252.671 312.74 253.18C312.74 253.689 312.537 254.178 312.177 254.538C311.817 254.898 311.329 255.1 310.82 255.1H291.06C290.55 255.1 290.062 254.898 289.702 254.538C289.342 254.178 289.14 253.689 289.14 253.18C289.14 252.671 289.342 252.183 289.702 251.823C290.062 251.463 290.55 251.26 291.06 251.26H310.82ZM310.82 248.26H291.06C289.755 248.26 288.503 248.779 287.581 249.701C286.658 250.624 286.14 251.875 286.14 253.18C286.14 254.485 286.658 255.737 287.581 256.659C288.503 257.582 289.755 258.1 291.06 258.1H310.82C312.125 258.1 313.376 257.582 314.299 256.659C315.221 255.737 315.74 254.485 315.74 253.18C315.737 251.876 315.218 250.626 314.296 249.704C313.374 248.782 312.124 248.263 310.82 248.26Z" fill="url(#paint6_linear_930_16074)"/>
<path d="M250.33 255.11H226.16V400.56H250.33V255.11Z" fill="white"/>
<path d="M247.33 258.11V397.56H229.16V258.11H247.33ZM250.33 255.11H226.16V400.56H250.33V255.11Z" fill="url(#paint7_linear_930_16074)"/>
<path d="M248.18 248.26H228.42C225.703 248.26 223.5 250.463 223.5 253.18C223.5 255.897 225.703 258.1 228.42 258.1H248.18C250.897 258.1 253.1 255.897 253.1 253.18C253.1 250.463 250.897 248.26 248.18 248.26Z" fill="white"/>
<path d="M248.18 251.26C248.689 251.26 249.178 251.463 249.538 251.823C249.898 252.183 250.1 252.671 250.1 253.18C250.1 253.689 249.898 254.178 249.538 254.538C249.178 254.898 248.689 255.1 248.18 255.1H228.42C227.911 255.1 227.422 254.898 227.062 254.538C226.702 254.178 226.5 253.689 226.5 253.18C226.5 252.671 226.702 252.183 227.062 251.823C227.422 251.463 227.911 251.26 228.42 251.26H248.18ZM248.18 248.26H228.42C227.115 248.26 225.864 248.779 224.941 249.701C224.018 250.624 223.5 251.875 223.5 253.18C223.5 254.485 224.018 255.737 224.941 256.659C225.864 257.582 227.115 258.1 228.42 258.1H248.18C249.485 258.1 250.736 257.582 251.659 256.659C252.582 255.737 253.1 254.485 253.1 253.18C253.097 251.876 252.578 250.626 251.656 249.704C250.734 248.782 249.484 248.263 248.18 248.26Z" fill="url(#paint8_linear_930_16074)"/>
<path d="M375.01 384.96H164.21C157.571 384.96 152.19 390.34 152.19 396.975C152.19 403.611 157.571 408.99 164.21 408.99H375.01C381.648 408.99 387.03 403.611 387.03 396.975C387.03 390.34 381.648 384.96 375.01 384.96Z" fill="white"/>
<path d="M375 387.73C376.24 387.689 377.475 387.898 378.632 388.345C379.789 388.791 380.845 389.465 381.736 390.328C382.628 391.19 383.336 392.223 383.821 393.365C384.305 394.507 384.554 395.735 384.554 396.975C384.554 398.216 384.305 399.443 383.821 400.585C383.336 401.727 382.628 402.76 381.736 403.623C380.845 404.485 379.789 405.16 378.632 405.606C377.475 406.052 376.24 406.261 375 406.22H164.21C162.97 406.261 161.735 406.052 160.578 405.606C159.421 405.16 158.365 404.485 157.474 403.623C156.582 402.76 155.873 401.727 155.389 400.585C154.905 399.443 154.656 398.216 154.656 396.975C154.656 395.735 154.905 394.507 155.389 393.365C155.873 392.223 156.582 391.19 157.474 390.328C158.365 389.465 159.421 388.791 160.578 388.345C161.735 387.898 162.97 387.689 164.21 387.73H375ZM375 384.96H164.21C161.027 384.96 157.975 386.225 155.725 388.475C153.474 390.725 152.21 393.778 152.21 396.96C152.21 400.143 153.474 403.195 155.725 405.445C157.975 407.696 161.027 408.96 164.21 408.96H375C378.183 408.96 381.235 407.696 383.485 405.445C385.736 403.195 387 400.143 387 396.96C387 393.778 385.736 390.725 383.485 388.475C381.235 386.225 378.183 384.96 375 384.96Z" fill="url(#paint9_linear_930_16074)"/>
<path d="M261.19 176.69L147 235C139.72 238.72 142.37 249.71 150.54 249.71H388.66C396.82 249.71 399.48 238.71 392.22 235.01L279 176.72C276.247 175.303 273.195 174.561 270.099 174.555C267.002 174.55 263.948 175.282 261.19 176.69Z" fill="white" stroke="url(#paint10_linear_930_16074)" stroke-width="3" stroke-miterlimit="10"/>
<path d="M259.63 191.52L193.63 225.27C192.66 225.743 191.88 226.532 191.42 227.508C190.96 228.484 190.846 229.588 191.098 230.637C191.349 231.686 191.952 232.618 192.805 233.279C193.658 233.939 194.711 234.289 195.79 234.27H340.79C341.87 234.291 342.924 233.943 343.779 233.284C344.634 232.624 345.238 231.692 345.491 230.642C345.744 229.592 345.631 228.487 345.171 227.51C344.711 226.534 343.931 225.743 342.96 225.27L277.51 191.55C274.747 190.121 271.684 189.373 268.573 189.367C265.463 189.362 262.397 190.1 259.63 191.52Z" fill="url(#paint11_linear_930_16074)"/>
<path d="M269.62 166.04C284.537 166.04 296.63 153.947 296.63 139.03C296.63 124.113 284.537 112.02 269.62 112.02C254.703 112.02 242.61 124.113 242.61 139.03C242.61 153.947 254.703 166.04 269.62 166.04Z" fill="url(#paint12_linear_930_16074)"/>
<path opacity="0.13" d="M242.61 139V139.1C242.651 140.061 242.969 140.99 243.525 141.775C244.082 142.56 244.852 143.168 245.746 143.526C246.639 143.884 247.616 143.977 248.561 143.793C249.505 143.609 250.376 143.157 251.07 142.49L257.41 136.15C258.344 135.213 258.869 133.943 258.869 132.62C258.869 131.297 258.344 130.027 257.41 129.09L253.65 125.29C253.102 124.735 252.432 124.315 251.692 124.065C250.953 123.815 250.166 123.742 249.393 123.851C248.621 123.959 247.884 124.248 247.243 124.692C246.602 125.136 246.073 125.725 245.7 126.41C243.656 130.291 242.595 134.614 242.61 139Z" fill="white"/>
<path opacity="0.13" d="M247.89 155.05V155.11C248.179 155.486 248.545 155.795 248.963 156.018C249.382 156.241 249.842 156.373 250.315 156.404C250.788 156.435 251.262 156.365 251.706 156.199C252.15 156.033 252.554 155.774 252.89 155.44L265.89 142.44C266.515 141.814 266.866 140.965 266.866 140.08C266.866 139.195 266.515 138.346 265.89 137.72C265.579 137.406 265.209 137.157 264.802 136.986C264.394 136.816 263.957 136.729 263.515 136.729C263.073 136.729 262.636 136.816 262.228 136.986C261.82 137.157 261.451 137.406 261.14 137.72L248.14 150.72C247.597 151.298 247.274 152.048 247.229 152.84C247.183 153.631 247.417 154.414 247.89 155.05Z" fill="white"/>
<path d="M269.45 151C269.24 150.898 269.068 150.731 268.96 150.524C268.852 150.317 268.813 150.081 268.85 149.85C268.85 149.46 268.85 149.07 268.85 148.68C268.85 148.52 268.85 148.45 268.66 148.44C267.861 148.383 267.077 148.194 266.34 147.88C265.42 147.483 264.584 146.913 263.88 146.2C263.669 145.965 263.546 145.664 263.532 145.349C263.517 145.034 263.612 144.723 263.8 144.47C263.876 144.349 263.977 144.246 264.097 144.168C264.216 144.09 264.351 144.038 264.492 144.016C264.634 143.994 264.778 144.003 264.915 144.042C265.053 144.08 265.181 144.148 265.29 144.24C265.76 144.659 266.273 145.028 266.82 145.34C267.391 145.634 268 145.849 268.63 145.98C268.78 145.98 268.82 145.98 268.82 145.8V140.2C268.82 140.03 268.73 140 268.62 139.96C267.839 139.738 267.079 139.447 266.35 139.09C265.678 138.755 265.088 138.277 264.62 137.69C264.172 137.077 263.896 136.355 263.82 135.6C263.639 134.36 263.92 133.096 264.61 132.05C265.077 131.407 265.675 130.871 266.364 130.476C267.054 130.081 267.819 129.837 268.61 129.76C268.76 129.76 268.81 129.67 268.81 129.51C268.81 129.05 268.81 128.58 268.81 128.11C268.81 127.37 269.39 126.92 269.99 127.11C270.174 127.199 270.327 127.343 270.427 127.522C270.527 127.701 270.57 127.906 270.55 128.11C270.55 128.58 270.55 129.04 270.55 129.51C270.55 129.67 270.55 129.74 270.75 129.76C272.226 129.915 273.607 130.563 274.67 131.6C274.808 131.753 274.909 131.937 274.965 132.136C275.02 132.335 275.028 132.545 274.988 132.748C274.948 132.95 274.862 133.141 274.735 133.305C274.609 133.468 274.446 133.6 274.26 133.69C274.076 133.769 273.874 133.791 273.678 133.753C273.482 133.716 273.301 133.621 273.16 133.48C272.478 132.903 271.669 132.495 270.8 132.29C270.56 132.23 270.56 132.24 270.56 132.52C270.56 134.08 270.56 135.65 270.56 137.21C270.56 137.44 270.63 137.52 270.81 137.57C271.522 137.781 272.214 138.052 272.88 138.38C273.679 138.764 274.368 139.346 274.88 140.07C275.348 140.771 275.614 141.588 275.65 142.43C275.742 143.474 275.563 144.525 275.13 145.48C274.669 146.504 273.852 147.325 272.83 147.79C272.179 148.087 271.482 148.27 270.77 148.33C270.59 148.33 270.56 148.43 270.56 148.61C270.56 149.03 270.56 149.45 270.56 149.87C270.61 150.094 270.582 150.329 270.48 150.534C270.378 150.74 270.209 150.905 270 151H269.45ZM270.58 143.32V145.81C270.58 145.92 270.58 146.04 270.72 146.01C271.116 145.962 271.497 145.834 271.841 145.633C272.185 145.431 272.484 145.162 272.72 144.84C273.101 144.322 273.267 143.677 273.183 143.039C273.099 142.402 272.772 141.822 272.27 141.42C271.802 141.106 271.294 140.857 270.76 140.68C270.6 140.68 270.57 140.68 270.57 140.84L270.58 143.32ZM268.86 134.65V132.43C268.86 132.26 268.81 132.19 268.66 132.21C267.985 132.288 267.359 132.599 266.89 133.09C266.497 133.513 266.288 134.074 266.306 134.65C266.325 135.227 266.571 135.773 266.99 136.17C267.524 136.543 268.115 136.827 268.74 137.01C268.9 137.01 268.86 136.9 268.86 136.82V134.65Z" fill="white"/>
<path d="M269.62 163.97C283.394 163.97 294.56 152.804 294.56 139.03C294.56 125.256 283.394 114.09 269.62 114.09C255.846 114.09 244.68 125.256 244.68 139.03C244.68 152.804 255.846 163.97 269.62 163.97Z" stroke="white" stroke-width="3" stroke-miterlimit="10"/>
<path opacity="0.13" d="M258.74 122.88L267.98 132.12C268.374 132.514 268.842 132.827 269.356 133.041C269.871 133.254 270.423 133.364 270.98 133.364C271.537 133.364 272.089 133.254 272.604 133.041C273.119 132.827 273.586 132.514 273.98 132.12L282.45 123.65C282.907 123.195 283.254 122.641 283.465 122.032C283.676 121.422 283.745 120.772 283.667 120.132C283.589 119.492 283.366 118.878 283.015 118.337C282.663 117.796 282.193 117.342 281.64 117.01C278.396 115.02 274.701 113.884 270.899 113.71C267.097 113.535 263.313 114.326 259.9 116.01C259.28 116.301 258.74 116.738 258.326 117.284C257.912 117.829 257.637 118.466 257.523 119.142C257.409 119.817 257.46 120.509 257.672 121.16C257.884 121.811 258.25 122.402 258.74 122.88Z" fill="white"/>
<defs>
<linearGradient id="paint0_linear_930_16074" x1="174.77" y1="322.11" x2="365.43" y2="322.11" gradientUnits="userSpaceOnUse">
<stop stop-color="#5F1AED"/>
<stop offset="1" stop-color="#CA53FA"/>
</linearGradient>
<linearGradient id="paint1_linear_930_16074" x1="163.52" y1="327.84" x2="187.69" y2="327.84" gradientUnits="userSpaceOnUse">
<stop stop-color="#5F1AED"/>
<stop offset="1" stop-color="#CA53FA"/>
</linearGradient>
<linearGradient id="paint2_linear_930_16074" x1="160.86" y1="253.18" x2="190.46" y2="253.18" gradientUnits="userSpaceOnUse">
<stop stop-color="#5F1AED"/>
<stop offset="1" stop-color="#CA53FA"/>
</linearGradient>
<linearGradient id="paint3_linear_930_16074" x1="351.44" y1="327.84" x2="375.61" y2="327.84" gradientUnits="userSpaceOnUse">
<stop stop-color="#5F1AED"/>
<stop offset="1" stop-color="#CA53FA"/>
</linearGradient>
<linearGradient id="paint4_linear_930_16074" x1="348.77" y1="253.18" x2="378.37" y2="253.18" gradientUnits="userSpaceOnUse">
<stop stop-color="#5F1AED"/>
<stop offset="1" stop-color="#CA53FA"/>
</linearGradient>
<linearGradient id="paint5_linear_930_16074" x1="288.8" y1="327.84" x2="312.97" y2="327.84" gradientUnits="userSpaceOnUse">
<stop stop-color="#5F1AED"/>
<stop offset="1" stop-color="#CA53FA"/>
</linearGradient>
<linearGradient id="paint6_linear_930_16074" x1="286.14" y1="253.18" x2="315.74" y2="253.18" gradientUnits="userSpaceOnUse">
<stop stop-color="#5F1AED"/>
<stop offset="1" stop-color="#CA53FA"/>
</linearGradient>
<linearGradient id="paint7_linear_930_16074" x1="226.16" y1="327.84" x2="250.33" y2="327.84" gradientUnits="userSpaceOnUse">
<stop stop-color="#5F1AED"/>
<stop offset="1" stop-color="#CA53FA"/>
</linearGradient>
<linearGradient id="paint8_linear_930_16074" x1="223.5" y1="253.18" x2="253.1" y2="253.18" gradientUnits="userSpaceOnUse">
<stop stop-color="#5F1AED"/>
<stop offset="1" stop-color="#CA53FA"/>
</linearGradient>
<linearGradient id="paint9_linear_930_16074" x1="152.19" y1="396.97" x2="387.04" y2="396.97" gradientUnits="userSpaceOnUse">
<stop stop-color="#5F1AED"/>
<stop offset="1" stop-color="#CA53FA"/>
</linearGradient>
<linearGradient id="paint10_linear_930_16074" x1="141.28" y1="212.14" x2="397.95" y2="212.14" gradientUnits="userSpaceOnUse">
<stop stop-color="#5F1AED"/>
<stop offset="1" stop-color="#CA53FA"/>
</linearGradient>
<linearGradient id="paint11_linear_930_16074" x1="191" y1="211.8" x2="345.51" y2="211.8" gradientUnits="userSpaceOnUse">
<stop stop-color="#5F1AED"/>
<stop offset="1" stop-color="#CA53FA"/>
</linearGradient>
<linearGradient id="paint12_linear_930_16074" x1="242.61" y1="139.03" x2="296.63" y2="139.03" gradientUnits="userSpaceOnUse">
<stop stop-color="#5F1AED"/>
<stop offset="1" stop-color="#CA53FA"/>
</linearGradient>
</defs>
</svg>
