<svg width="48" height="50" viewBox="0 0 48 50" fill="none" xmlns="http://www.w3.org/2000/svg">
<g clip-path="url(#clip0_655_6762)">
<path d="M47.977 25.186C47.977 23.1734 47.8137 21.7047 47.4603 20.1816H24.478V29.2656H37.9681C37.6962 31.5231 36.2275 34.9229 32.9637 37.2074L32.918 37.5115L40.1845 43.1408L40.688 43.1911C45.3115 38.921 47.977 32.6382 47.977 25.186Z" fill="#4285F4"/>
<path d="M24.478 49.1203C31.087 49.1203 36.6353 46.9443 40.688 43.1911L32.9637 37.2075C30.8967 38.649 28.1225 39.6553 24.478 39.6553C18.005 39.6553 12.511 35.3853 10.5526 29.4834L10.2655 29.5078L2.70965 35.3553L2.61084 35.63C6.63609 43.6261 14.9043 49.1203 24.478 49.1203Z" fill="#34A853"/>
<path d="M10.5527 29.4835C10.0359 27.9605 9.73687 26.3285 9.73687 24.6423C9.73687 22.9559 10.0359 21.3241 10.5255 19.801L10.5118 19.4767L2.86125 13.5352L2.61094 13.6542C0.951938 16.9724 0 20.6986 0 24.6423C0 28.586 0.951938 32.312 2.61094 35.6302L10.5527 29.4835Z" fill="#FBBC05"/>
<path d="M24.478 9.62888C29.0744 9.62888 32.1749 11.6143 33.9428 13.2735L40.8511 6.52838C36.6083 2.58469 31.087 0.164062 24.478 0.164062C14.9043 0.164062 6.63609 5.658 2.61084 13.6541L10.5254 19.8009C12.511 13.899 18.005 9.62888 24.478 9.62888Z" fill="#EB4335"/>
</g>
<defs>
<clipPath id="clip0_655_6762">
<rect width="48" height="49.125" fill="white" transform="translate(0 0.164062)"/>
</clipPath>
</defs>
</svg>
