<svg width="908" height="516" viewBox="0 0 908 516" fill="none" xmlns="http://www.w3.org/2000/svg">
<g clip-path="url(#clip0_657_4355)">
<rect width="908" height="515.164" rx="12.6111" fill="white"/>
<mask id="path-2-inside-1_657_4355" fill="white">
<path d="M0 48.5528H143.767V515.553H0V48.5528Z"/>
</mask>
<path d="M0 48.5528H143.767V515.553H0V48.5528Z" fill="white"/>
<path d="M143.136 48.5528V515.553H144.397V48.5528H143.136Z" fill="#F0EFF3" mask="url(#path-2-inside-1_657_4355)"/>
<path d="M10.0889 75.0361C10.0889 71.5537 12.912 68.7306 16.3944 68.7306H127.372C130.855 68.7306 133.678 71.5537 133.678 75.0361V92.6917C133.678 96.1741 130.855 98.9972 127.372 98.9972H16.3944C12.912 98.9972 10.0889 96.1741 10.0889 92.6917V75.0361Z" fill="white"/>
<path d="M15.1338 76.9278C15.1338 75.1866 16.5453 73.775 18.2866 73.775H31.5282C33.2695 73.775 34.681 75.1866 34.681 76.9278V90.1695C34.681 91.9107 33.2695 93.3222 31.5282 93.3222H18.2866C16.5453 93.3222 15.1338 91.9107 15.1338 90.1695V76.9278Z" fill="#EEE6F8"/>
<g clip-path="url(#clip1_657_4355)">
<path d="M25.2229 78.1211C25.7374 78.1211 26.1952 78.4843 26.1952 78.9317C26.1952 79.3795 25.7597 79.7427 25.2229 79.7427C25.1614 79.7427 25.081 79.7323 24.9822 79.7125C24.9054 79.6969 24.8256 79.7097 24.7575 79.7484L21.2721 81.7323C21.2473 81.7466 21.2267 81.7672 21.2124 81.792C21.198 81.8168 21.1905 81.845 21.1906 81.8736C21.1906 81.9023 21.1982 81.9304 21.2126 81.9551C21.227 81.9799 21.2477 82.0004 21.2726 82.0146L25.0512 84.138C25.0996 84.165 25.154 84.1791 25.2094 84.1791C25.2648 84.1791 25.3192 84.165 25.3676 84.138L29.167 82.025C29.1922 82.0111 29.2132 81.9906 29.2278 81.9658C29.2425 81.9411 29.2503 81.9128 29.2505 81.884C29.2506 81.8553 29.2431 81.8269 29.2287 81.802C29.2143 81.7771 29.1935 81.7565 29.1684 81.7422L27.9828 81.0688C27.9346 81.0414 27.8801 81.0268 27.8246 81.0266C27.7691 81.0263 27.7145 81.0404 27.666 81.0674L26.4142 81.7616C26.3986 81.7703 26.3854 81.7825 26.3756 81.7973C26.3658 81.8121 26.3598 81.8291 26.3579 81.8467L26.3574 81.8586C26.3574 82.3059 25.9219 82.6691 25.3851 82.6691C24.8483 82.6691 24.4128 82.3059 24.4128 81.8586C24.4128 81.4107 24.8483 81.0475 25.3851 81.0475C25.405 81.0475 25.4277 81.0485 25.4537 81.0508L25.4948 81.0546L25.5402 81.0608C25.6095 81.0702 25.6801 81.0569 25.7412 81.0229L27.5917 79.9953C27.7336 79.9168 27.9048 79.9144 28.0481 79.9872L28.067 79.9981L30.6515 81.466C30.7251 81.5079 30.7865 81.5682 30.8297 81.641C30.8729 81.7138 30.8963 81.7966 30.8978 81.8812C30.8992 81.9659 30.8785 82.0494 30.8379 82.1237C30.7972 82.1979 30.7378 82.2602 30.6657 82.3045L30.6482 82.3145L28.9192 83.2759C28.8936 83.2901 28.8723 83.3109 28.8575 83.3363C28.8428 83.3616 28.8352 83.3904 28.8355 83.4197C28.8359 83.449 28.8442 83.4777 28.8595 83.5026C28.8748 83.5276 28.8966 83.548 28.9225 83.5615L30.6345 84.4629C30.975 84.6417 30.9825 85.126 30.6487 85.3161L25.4489 88.2822C25.3755 88.324 25.2925 88.346 25.208 88.346C25.1235 88.346 25.0405 88.324 24.967 88.2822L19.7966 85.3284C19.7209 85.2849 19.6582 85.222 19.6151 85.146C19.572 85.07 19.5502 84.9839 19.5518 84.8966C19.5535 84.8092 19.5785 84.724 19.6244 84.6497C19.6703 84.5754 19.7354 84.5148 19.8127 84.4743L21.5436 83.5705C21.5695 83.557 21.5913 83.5368 21.6067 83.5119C21.622 83.4871 21.6304 83.4586 21.6309 83.4294C21.6313 83.4001 21.6239 83.3713 21.6094 83.346C21.5949 83.3207 21.5738 83.2997 21.5483 83.2854L19.7957 82.3012C19.7222 82.2597 19.6607 82.1999 19.6172 82.1275C19.5738 82.0551 19.5499 81.9726 19.548 81.8882C19.546 81.8038 19.566 81.7203 19.6061 81.646C19.6461 81.5716 19.7048 81.509 19.7763 81.4642L19.7933 81.4542L24.0964 79.0055C24.1644 78.9667 24.2161 78.9047 24.2421 78.831L24.2473 78.8139C24.3986 78.3637 24.7419 78.1206 25.2229 78.1206V78.1211ZM27.6234 84.094L25.4991 85.317L25.4797 85.3274C25.4083 85.3643 25.3289 85.3828 25.2485 85.3813C25.1682 85.3798 25.0895 85.3584 25.0195 85.3189L22.9018 84.1238C22.855 84.0975 22.8024 84.0833 22.7487 84.0825C22.695 84.0817 22.642 84.0943 22.5944 84.1191L21.3734 84.758C21.3475 84.7715 21.3258 84.7916 21.3104 84.8164C21.295 84.8411 21.2866 84.8696 21.286 84.8987C21.2855 84.9278 21.2927 84.9566 21.3071 84.9819C21.3215 85.0072 21.3424 85.0283 21.3677 85.0427L25.0976 87.1779C25.1463 87.2059 25.2015 87.2206 25.2577 87.2206C25.3138 87.2206 25.369 87.2059 25.4177 87.1779L29.1803 85.0276C29.2056 85.0132 29.2266 84.9923 29.241 84.967C29.2555 84.9417 29.2628 84.913 29.2624 84.8838C29.2619 84.8547 29.2536 84.8263 29.2383 84.8015C29.223 84.7767 29.2013 84.7564 29.1755 84.7429L27.9351 84.0884C27.8869 84.0629 27.833 84.0501 27.7785 84.0511C27.724 84.0521 27.6707 84.0669 27.6234 84.094V84.094Z" fill="#68686D"/>
</g>
<path d="M41.2131 87.45V83.0979L43.2699 87.45H43.6893L45.7417 83.0979V87.4456H46.6157V81.094H45.7726L43.4818 85.8743L41.1778 81.094H40.3435V87.45H41.2131ZM50.099 87.5824C51.5203 87.5824 52.4383 86.554 52.4383 85.0621C52.4383 83.5879 51.5291 82.5506 50.099 82.5506C48.6954 82.5506 47.764 83.5702 47.764 85.0621C47.764 86.5408 48.6689 87.5824 50.099 87.5824ZM50.099 86.7129C49.2074 86.7129 48.7439 86.0685 48.7439 85.0621C48.7439 84.091 49.1721 83.4201 50.099 83.4201C50.9994 83.4201 51.4585 84.0646 51.4585 85.0621C51.4585 86.0376 51.0082 86.7129 50.099 86.7129ZM55.4652 81.8841V81.0013H54.5824V81.8841H55.4652ZM53.6864 81.8841V81.0013H52.8036V81.8841H53.6864ZM54.5956 87.45V82.683H53.6731V87.45H54.5956ZM58.9596 87.45V83.5525H61.1356V87.45H62.0581V82.683H58.0371V87.45H58.9596ZM64.3907 89.5687V87.1146C64.7261 87.4103 65.1631 87.5824 65.706 87.5824C67.0346 87.5824 67.8644 86.4922 67.8644 85.0621C67.8644 83.6232 67.0302 82.5506 65.6884 82.5506C65.0969 82.5506 64.6246 82.758 64.2847 83.1112V82.683H63.4638V89.5687H64.3907ZM65.578 86.7482C64.6687 86.7482 64.2847 86.0508 64.2847 85.0621C64.2847 84.0734 64.6776 83.3848 65.5471 83.3848C66.4652 83.3848 66.8845 84.1264 66.8845 85.0621C66.8845 86.0067 66.4652 86.7482 65.578 86.7482ZM71.0856 87.5824C72.5069 87.5824 73.425 86.554 73.425 85.0621C73.425 83.5879 72.5157 82.5506 71.0856 82.5506C69.682 82.5506 68.7507 83.5702 68.7507 85.0621C68.7507 86.5408 69.6555 87.5824 71.0856 87.5824ZM71.0856 86.7129C70.194 86.7129 69.7306 86.0685 69.7306 85.0621C69.7306 84.091 70.1587 83.4201 71.0856 83.4201C71.9861 83.4201 72.4451 84.0646 72.4451 85.0621C72.4451 86.0376 71.9949 86.7129 71.0856 86.7129ZM75.5073 87.45V85.1548L77.5023 87.45H78.7559L76.5754 85.0665L78.5528 82.683H77.3787L75.5073 84.9782V82.683H74.5715L74.5671 87.45H75.5073ZM81.3305 87.5824C82.3545 87.5824 83.096 87.0748 83.4094 86.1391L82.4737 85.9184C82.2795 86.4304 81.922 86.7129 81.3305 86.7129C80.4565 86.7129 80.0107 86.0508 80.0063 85.0665C80.0107 84.1131 80.4256 83.4201 81.3305 83.4201C81.8646 83.4201 82.3104 83.7335 82.4913 84.2676L83.4094 84.0028C83.1711 83.1067 82.3854 82.5506 81.3437 82.5506C79.9004 82.5506 79.0353 83.5923 79.0264 85.0665C79.0353 86.5187 79.8695 87.5824 81.3305 87.5824ZM85.3666 81.9018V81.0057H84.4441V81.9018H85.3666ZM85.3666 87.45V82.683H84.4441V87.45H85.3666Z" fill="#68686D"/>
<path d="M10.0889 112.869C10.0889 109.387 12.912 106.564 16.3944 106.564H127.372C130.855 106.564 133.678 109.387 133.678 112.869V130.525C133.678 134.007 130.855 136.831 127.372 136.831H16.3944C12.912 136.831 10.0889 134.007 10.0889 130.525V112.869Z" fill="white"/>
<path d="M41.266 125.283V119.797H44.4749V125.283H45.3974V118.927H40.3435V125.283H41.266ZM47.7358 127.402V124.948C48.0713 125.244 48.5083 125.416 49.0512 125.416C50.3797 125.416 51.2096 124.326 51.2096 122.895C51.2096 121.456 50.3753 120.384 49.0335 120.384C48.4421 120.384 47.9698 120.591 47.6299 120.944V120.516H46.8089V127.402H47.7358ZM48.9232 124.582C48.0139 124.582 47.6299 123.884 47.6299 122.895C47.6299 121.907 48.0227 121.218 48.8923 121.218C49.8104 121.218 50.2297 121.96 50.2297 122.895C50.2297 123.84 49.8104 124.582 48.9232 124.582ZM55.6314 120.516L53.2435 123.765V120.516H52.3563V125.283H53.1066L55.4901 121.968V125.283H56.3773V120.516H55.6314ZM58.3126 126.343V125.283H61.5171V126.343H62.391V124.542H61.9232V120.516H58.5068C58.4494 121.73 58.3921 122.617 58.2685 123.385C58.1316 124.228 57.9551 124.542 57.4342 124.542V126.343H58.3126ZM58.754 124.542C58.9747 124.321 59.0497 124.025 59.1204 123.557C59.2219 122.957 59.2837 122.03 59.3278 121.258H60.9963V124.542H58.754ZM65.4066 125.42C66.7881 125.433 67.715 124.493 67.715 123.081C67.715 121.779 66.9382 120.794 65.6626 120.794C65.0534 120.794 64.4487 121.024 64.0868 121.576C64.1309 120.971 64.3605 120.415 64.8019 120.141C65.4198 119.753 66.6204 119.77 67.2736 119.62L67.1854 118.795C66.2055 118.985 65.0755 118.967 64.3207 119.492C63.9632 119.735 63.6542 120.106 63.4865 120.525C63.2526 121.103 63.1511 122.207 63.1952 122.957C63.2835 124.511 64.0515 125.411 65.4066 125.42ZM65.4551 124.551C64.6297 124.551 64.1751 124.017 64.1751 123.112C64.1751 122.22 64.6253 121.673 65.4551 121.673C66.2717 121.673 66.7396 122.22 66.7396 123.112C66.7396 123.981 66.2982 124.551 65.4551 124.551ZM70.2111 125.416C70.9835 125.416 71.5352 125.151 71.9281 124.59V125.283H72.7446V122.348C72.7446 121.951 72.727 121.607 72.5769 121.293C72.2812 120.666 71.6191 120.384 70.7672 120.384C69.6638 120.384 69.0017 120.905 68.7721 121.721L69.6329 121.986C69.7962 121.456 70.2552 121.236 70.7584 121.236C71.5043 121.236 71.8045 121.545 71.8354 122.202C71.063 122.308 70.2773 122.41 69.7255 122.573C68.9884 122.807 68.6 123.266 68.6 123.986C68.6 124.762 69.1562 125.416 70.2111 125.416ZM70.3744 124.661C69.7829 124.661 69.5137 124.348 69.5137 123.977C69.5137 123.602 69.7918 123.399 70.1714 123.271C70.573 123.151 71.1071 123.076 71.8266 122.97C71.8221 123.196 71.8045 123.496 71.7295 123.716C71.6235 124.18 71.1601 124.661 70.3744 124.661ZM76.2213 125.283V121.346H77.8501V120.516H73.6701V121.346H75.2988V125.283H76.2213ZM82.1354 120.516L79.7475 123.765V120.516H78.8603V125.283H79.6107L81.9942 121.968V125.283H82.8814V120.516H82.1354ZM87.1533 125.283V121.386H89.3294V125.283H90.2519V120.516H86.2308V125.283H87.1533ZM92.5844 127.402V124.948C92.9198 125.244 93.3568 125.416 93.8997 125.416C95.2283 125.416 96.0581 124.326 96.0581 122.895C96.0581 121.456 95.2239 120.384 93.8821 120.384C93.2906 120.384 92.8183 120.591 92.4785 120.944V120.516H91.6575V127.402H92.5844ZM93.7717 124.582C92.8625 124.582 92.4785 123.884 92.4785 122.895C92.4785 121.907 92.8713 121.218 93.7408 121.218C94.6589 121.218 95.0782 121.96 95.0782 122.895C95.0782 123.84 94.6589 124.582 93.7717 124.582ZM99.2794 125.416C100.701 125.416 101.619 124.387 101.619 122.895C101.619 121.421 100.709 120.384 99.2794 120.384C97.8757 120.384 96.9444 121.404 96.9444 122.895C96.9444 124.374 97.8493 125.416 99.2794 125.416ZM99.2794 124.546C98.3878 124.546 97.9243 123.902 97.9243 122.895C97.9243 121.924 98.3524 121.253 99.2794 121.253C100.18 121.253 100.639 121.898 100.639 122.895C100.639 123.871 100.189 124.546 99.2794 124.546ZM103.701 125.283V122.988L105.696 125.283H106.95L104.769 122.9L106.747 120.516H105.572L103.701 122.812V120.516H102.765L102.761 125.283H103.701ZM109.524 125.416C110.548 125.416 111.29 124.908 111.603 123.972L110.667 123.752C110.473 124.264 110.116 124.546 109.524 124.546C108.65 124.546 108.204 123.884 108.2 122.9C108.204 121.946 108.619 121.253 109.524 121.253C110.058 121.253 110.504 121.567 110.685 122.101L111.603 121.836C111.365 120.94 110.579 120.384 109.537 120.384C108.094 120.384 107.229 121.426 107.22 122.9C107.229 124.352 108.063 125.416 109.524 125.416ZM113.56 119.735V118.839H112.638V119.735H113.56ZM113.56 125.283V120.516H112.638V125.283H113.56Z" fill="#68686D"/>
<path d="M15.1338 114.761C15.1338 113.02 16.5453 111.608 18.2866 111.608H31.5282C33.2695 111.608 34.681 113.02 34.681 114.761V128.003C34.681 129.744 33.2695 131.156 31.5282 131.156H18.2866C16.5453 131.156 15.1338 129.744 15.1338 128.003V114.761Z" fill="#D7E7F6"/>
<g clip-path="url(#clip2_657_4355)">
<path d="M29.5057 119.994C29.0091 119.723 28.3485 119.533 27.617 119.44V119.116C27.617 118.579 27.1914 118.092 26.4199 117.746C25.7194 117.427 24.7884 117.254 23.8041 117.254C22.8198 117.254 21.8888 117.427 21.1883 117.746C20.4168 118.092 19.9912 118.579 19.9912 119.116V120.889C19.9912 121.426 20.4168 121.913 21.1883 122.259C21.7108 122.484 22.2636 122.63 22.8287 122.694V123.017C22.8287 123.554 23.2543 124.042 24.0258 124.387C24.7263 124.707 25.6573 124.88 26.6416 124.88C27.6259 124.88 28.5569 124.707 29.2574 124.387C30.0289 124.042 30.4545 123.554 30.4545 123.017V121.244C30.4545 120.77 30.1175 120.326 29.5057 119.994V119.994ZM29.2486 120.459C29.683 120.699 29.9225 120.974 29.9225 121.244C29.9225 121.874 28.5746 122.574 26.6416 122.574C26.3274 122.573 26.0136 122.554 25.7017 122.516C25.9479 122.451 26.1881 122.365 26.4199 122.259C27.1914 121.913 27.617 121.426 27.617 120.889V119.976C28.2554 120.065 28.8274 120.233 29.2486 120.459V120.459ZM23.1258 122.188H23.1125C22.9529 122.175 22.7977 122.153 22.6514 122.131V120.894C23.0331 120.949 23.4183 120.978 23.8041 120.978C24.1899 120.978 24.5751 120.949 24.9568 120.894V122.131C24.5756 122.191 24.1901 122.221 23.8041 122.219C23.5776 122.221 23.3512 122.21 23.1258 122.188V122.188ZM27.085 120.087V120.889C27.085 121.311 26.4776 121.767 25.4889 122.02V120.792C25.8091 120.723 26.1211 120.62 26.4199 120.486C26.6592 120.385 26.883 120.25 27.085 120.087ZM23.8041 117.786C25.7371 117.786 27.085 118.486 27.085 119.116C27.085 119.745 25.7371 120.446 23.8041 120.446C21.8711 120.446 20.5232 119.745 20.5232 119.116C20.5232 118.486 21.8711 117.786 23.8041 117.786ZM20.5232 120.889V120.087C20.7252 120.25 20.949 120.385 21.1883 120.486C21.4871 120.62 21.7991 120.723 22.1193 120.792V122.02C21.1306 121.767 20.5232 121.311 20.5232 120.889ZM23.3607 123.017V122.738C23.5071 122.747 23.6534 122.751 23.8041 122.751C23.9548 122.751 24.1499 122.747 24.3228 122.734C24.529 122.812 24.741 122.874 24.9568 122.92V124.148C23.9681 123.895 23.3607 123.439 23.3607 123.017V123.017ZM25.4889 124.259V123.022C25.8706 123.077 26.2558 123.106 26.6416 123.106C27.0274 123.106 27.4126 123.078 27.7943 123.022V124.259C27.0304 124.377 26.2528 124.377 25.4889 124.259V124.259ZM28.3264 124.148V122.92C28.6466 122.851 28.9586 122.748 29.2574 122.614C29.4967 122.513 29.7205 122.378 29.9225 122.215V123.017C29.9225 123.439 29.3151 123.895 28.3264 124.148Z" fill="#68686D"/>
</g>
<path d="M10.0889 150.703C10.0889 147.22 12.912 144.397 16.3944 144.397H127.372C130.855 144.397 133.678 147.22 133.678 150.703V168.358C133.678 171.841 130.855 174.664 127.372 174.664H16.3944C12.912 174.664 10.0889 171.841 10.0889 168.358V150.703Z" fill="white"/>
<path d="M41.266 163.117V160.371H44.444V163.117H45.371V156.761H44.444V159.502H41.266V156.761H40.3435V163.117H41.266ZM48.1337 163.249C48.9061 163.249 49.4579 162.984 49.8507 162.424V163.117H50.6673V160.181C50.6673 159.784 50.6496 159.44 50.4995 159.127C50.2038 158.5 49.5417 158.217 48.6898 158.217C47.5864 158.217 46.9243 158.738 46.6948 159.555L47.5555 159.819C47.7188 159.29 48.1778 159.069 48.681 159.069C49.427 159.069 49.7271 159.378 49.758 160.036C48.9856 160.142 48.1999 160.243 47.6482 160.407C46.9111 160.64 46.5226 161.1 46.5226 161.819C46.5226 162.596 47.0788 163.249 48.1337 163.249ZM48.297 162.494C47.7056 162.494 47.4363 162.181 47.4363 161.81C47.4363 161.435 47.7144 161.232 48.094 161.104C48.4956 160.985 49.0297 160.91 49.7492 160.804C49.7448 161.029 49.7271 161.329 49.6521 161.55C49.5461 162.013 49.0827 162.494 48.297 162.494ZM51.5486 163.117C52.5726 163.337 52.9257 162.98 53.1067 162.026C53.2347 161.386 53.3451 160.155 53.4157 159.219H55.0841V163.117H56.011V158.35H52.5859C52.5108 159.669 52.4226 160.83 52.2769 161.638C52.1798 162.185 52.0739 162.433 51.5486 162.335V163.117ZM58.7715 163.249C59.5439 163.249 60.0957 162.984 60.4885 162.424V163.117H61.3051V160.181C61.3051 159.784 61.2874 159.44 61.1374 159.127C60.8416 158.5 60.1795 158.217 59.3277 158.217C58.2242 158.217 57.5621 158.738 57.3326 159.555L58.1933 159.819C58.3566 159.29 58.8157 159.069 59.3188 159.069C60.0648 159.069 60.3649 159.378 60.3958 160.036C59.6234 160.142 58.8377 160.243 58.286 160.407C57.5489 160.64 57.1604 161.1 57.1604 161.819C57.1604 162.596 57.7166 163.249 58.7715 163.249ZM58.9348 162.494C58.3434 162.494 58.0741 162.181 58.0741 161.81C58.0741 161.435 58.3522 161.232 58.7318 161.104C59.1335 160.985 59.6675 160.91 60.387 160.804C60.3826 161.029 60.3649 161.329 60.2899 161.55C60.184 162.013 59.7205 162.494 58.9348 162.494ZM68.2732 163.117V158.35H67.386V162.287H65.8941V158.35H65.0069V162.287H63.5106V158.35H62.6234V163.117H68.2732ZM71.8378 163.117V159.179H73.4665V158.35H69.2866V159.179H70.9153V163.117H71.8378ZM75.8833 165.235L78.5139 158.35H77.5782L76.232 161.934L74.8239 158.35H73.8617L75.7906 163.095L75.0049 165.235H75.8833ZM81.6772 163.117C81.9508 163.117 82.2466 163.099 82.4717 163.033C83.0411 162.874 83.3677 162.428 83.3677 161.784C83.3677 161.25 83.1382 160.941 82.8116 160.773C82.71 160.72 82.5909 160.676 82.4893 160.658C82.5909 160.623 82.7012 160.561 82.7983 160.473C83.0014 160.287 83.1294 160.031 83.1294 159.652C83.1294 158.985 82.7365 158.579 82.2554 158.442C82.0435 158.381 81.7522 158.35 81.4741 158.35H79.3775V163.117H81.6772ZM80.3133 159.091H81.302C81.3594 159.091 81.6286 159.091 81.8052 159.149C82.0524 159.232 82.176 159.462 82.176 159.731C82.176 159.978 82.0612 160.208 81.8361 160.296C81.7081 160.349 81.5139 160.367 81.3461 160.367H80.3133V159.091ZM80.3133 161.108H81.5713C81.6684 161.108 81.8228 161.108 81.9464 161.148C82.2157 161.21 82.4143 161.417 82.4143 161.748C82.4143 161.996 82.304 162.243 82.0435 162.322C81.9199 162.362 81.7434 162.388 81.6198 162.388H80.3133V161.108ZM85.7756 163.249C86.548 163.249 87.0997 162.984 87.4926 162.424V163.117H88.3091V160.181C88.3091 159.784 88.2915 159.44 88.1414 159.127C87.8457 158.5 87.1836 158.217 86.3317 158.217C85.2282 158.217 84.5661 158.738 84.3366 159.555L85.1973 159.819C85.3606 159.29 85.8197 159.069 86.3229 159.069C87.0688 159.069 87.369 159.378 87.3999 160.036C86.6274 160.142 85.8418 160.243 85.29 160.407C84.5529 160.64 84.1645 161.1 84.1645 161.819C84.1645 162.596 84.7206 163.249 85.7756 163.249ZM85.9389 162.494C85.3474 162.494 85.0782 162.181 85.0782 161.81C85.0782 161.435 85.3562 161.232 85.7358 161.104C86.1375 160.985 86.6716 160.91 87.391 160.804C87.3866 161.029 87.369 161.329 87.2939 161.55C87.188 162.013 86.7245 162.494 85.9389 162.494ZM90.5499 163.117V161.166H92.8761V163.117H93.7986V158.35H92.8761V160.296H90.5499V158.35H89.6274V163.117H90.5499ZM96.1318 163.117V161.166H98.4579V163.117H99.3804V158.35H98.4579V160.296H96.1318V158.35H95.2093V163.117H96.1318ZM101.515 163.117L102.566 161.457C102.632 161.461 102.694 161.461 102.751 161.461H103.695V163.117H104.622L104.618 158.35H102.724C102.504 158.35 102.164 158.35 101.864 158.416C101.166 158.566 100.668 159.082 100.668 159.917C100.668 160.68 101.082 161.148 101.669 161.338L100.531 163.117H101.515ZM102.671 160.72C102.543 160.72 102.362 160.711 102.195 160.667C101.877 160.583 101.612 160.314 101.612 159.908C101.612 159.497 101.886 159.228 102.159 159.149C102.336 159.096 102.543 159.091 102.671 159.091H103.695V160.72H102.671Z" fill="#68686D"/>
<path d="M15.1338 152.594C15.1338 150.853 16.5453 149.442 18.2866 149.442H31.5282C33.2695 149.442 34.681 150.853 34.681 152.594V165.836C34.681 167.577 33.2695 168.989 31.5282 168.989H18.2866C16.5453 168.989 15.1338 167.577 15.1338 165.836V152.594Z" fill="#E4F9F1"/>
<g clip-path="url(#clip3_657_4355)">
<path d="M30.1881 156.693H28.7339C28.5565 155.877 27.8471 155.274 26.9959 155.274C26.1446 155.274 25.4353 155.877 25.2579 156.693H20.2568V157.402H25.2579C25.4353 158.218 26.1446 158.821 26.9959 158.821C27.8471 158.821 28.5565 158.218 28.7339 157.402H30.1881V156.693ZM26.9959 158.112C26.3929 158.112 25.9318 157.651 25.9318 157.048C25.9318 156.445 26.3929 155.984 26.9959 155.984C27.5989 155.984 28.06 156.445 28.06 157.048C28.06 157.651 27.5989 158.112 26.9959 158.112ZM20.2568 162.368H21.7111C21.8884 163.184 22.5978 163.787 23.449 163.787C24.3003 163.787 25.0096 163.184 25.187 162.368H30.1881V161.659H25.187C25.0096 160.843 24.3003 160.24 23.449 160.24C22.5978 160.24 21.8884 160.843 21.7111 161.659H20.2568V162.368ZM23.449 160.949C24.052 160.949 24.5131 161.41 24.5131 162.013C24.5131 162.616 24.052 163.077 23.449 163.077C22.8461 163.077 22.385 162.616 22.385 162.013C22.385 161.41 22.8461 160.949 23.449 160.949Z" fill="#68686D"/>
</g>
<path d="M10.0889 460.936C10.0889 457.454 12.912 454.631 16.3944 454.631H127.372C130.855 454.631 133.678 457.454 133.678 460.936V478.592C133.678 482.074 130.855 484.897 127.372 484.897H16.3944C12.912 484.897 10.0889 482.074 10.0889 478.592V460.936Z" fill="white"/>
<path d="M43.0801 473.35C44.2895 473.35 44.9825 472.617 44.9825 471.496C44.9825 470.821 44.6382 470.26 44.0071 469.991C44.4264 469.748 44.6824 469.285 44.6824 468.702C44.6824 467.837 44.0556 466.994 42.8418 466.994H40.3435V473.35H43.0801ZM41.2793 467.864H42.8285C43.3803 467.864 43.7378 468.217 43.7378 468.711C43.7378 469.267 43.3406 469.589 42.8285 469.589H41.2793V467.864ZM41.2793 470.459H42.9963C43.6319 470.459 44.038 470.9 44.038 471.479C44.038 472.096 43.5701 472.472 42.9389 472.472H41.2793V470.459ZM49.3081 468.583L46.9202 471.832V468.583H46.033V473.35H46.7834L49.1669 470.035V473.35H50.0541V468.583H49.3081ZM52.0335 473.35L53.2562 471.66L54.47 473.35H55.569L53.7814 470.94L55.5249 468.583H54.4303L53.2562 470.221L52.0688 468.583H50.9742L52.7177 470.94L50.9345 473.35H52.0335ZM57.4619 467.802V466.906H56.5394V467.802H57.4619ZM57.4619 473.35V468.583H56.5394V473.35H57.4619ZM59.4892 474.409V473.35H62.6937V474.409H63.5676V472.609H63.0997V468.583H59.6834C59.626 469.797 59.5686 470.684 59.445 471.452C59.3082 472.295 59.1317 472.609 58.6108 472.609V474.409H59.4892ZM59.9306 472.609C60.1513 472.388 60.2263 472.092 60.2969 471.624C60.3984 471.024 60.4602 470.097 60.5044 469.325H62.1728V472.609H59.9306Z" fill="#68686D"/>
<path d="M15.1338 462.828C15.1338 461.087 16.5453 459.675 18.2866 459.675H31.5282C33.2695 459.675 34.681 461.087 34.681 462.828V476.069C34.681 477.811 33.2695 479.222 31.5282 479.222H18.2866C16.5453 479.222 15.1338 477.811 15.1338 476.069V462.828Z" fill="#E8D7F7"/>
<g clip-path="url(#clip4_657_4355)">
<path fill-rule="evenodd" clip-rule="evenodd" d="M21.3611 466.336C21.5648 466.132 21.8411 466.018 22.1292 466.018H26.3854C26.6735 466.018 26.9498 466.132 27.1535 466.336C27.3572 466.539 27.4717 466.816 27.4717 467.104V467.991C27.4717 468.101 27.3824 468.19 27.2722 468.19C27.162 468.19 27.0727 468.101 27.0727 467.991V467.104C27.0727 466.922 27.0003 466.747 26.8714 466.618C26.7425 466.489 26.5677 466.417 26.3854 466.417H22.1292C21.9469 466.417 21.7721 466.489 21.6433 466.618C21.5144 466.747 21.442 466.922 21.442 467.104V472.424C21.442 472.606 21.5144 472.781 21.6433 472.91C21.7721 473.039 21.9469 473.111 22.1292 473.111H26.3854C26.5677 473.111 26.7425 473.039 26.8714 472.91C27.0003 472.781 27.0727 472.606 27.0727 472.424V471.537C27.0727 471.427 27.162 471.338 27.2722 471.338C27.3824 471.338 27.4717 471.427 27.4717 471.537V472.424C27.4717 472.712 27.3572 472.988 27.1535 473.192C26.9498 473.396 26.6735 473.51 26.3854 473.51H22.1292C21.8411 473.51 21.5648 473.396 21.3611 473.192C21.1574 472.988 21.043 472.712 21.043 472.424V467.104C21.043 466.816 21.1574 466.539 21.3611 466.336ZM28.5498 467.849C28.6278 467.772 28.7541 467.772 28.832 467.849L30.6054 469.623C30.6238 469.641 30.6387 469.663 30.6488 469.688C30.6573 469.708 30.6624 469.73 30.6636 469.754C30.6638 469.757 30.6639 469.761 30.6639 469.764C30.6639 469.765 30.6639 469.765 30.6639 469.766C30.6636 469.792 30.6582 469.817 30.6488 469.84C30.639 469.864 30.6246 469.886 30.6054 469.905L28.832 471.678C28.7541 471.756 28.6278 471.756 28.5498 471.678C28.4719 471.601 28.4719 471.474 28.5498 471.396L29.9827 469.963H24.4125C24.3023 469.963 24.213 469.874 24.213 469.764C24.213 469.654 24.3023 469.564 24.4125 469.564H29.9827L28.5498 468.132C28.4719 468.054 28.4719 467.927 28.5498 467.849Z" fill="#68686D" stroke="#68686D" stroke-width="0.315278" stroke-linecap="round" stroke-linejoin="round"/>
</g>
<path d="M170.102 71.4988V82.7306H167.56V73.8043H162.949V82.7306H160.407V71.4988H170.102ZM173.268 71.4988H175.81V82.7306H173.268V71.4988ZM189.824 80.4251V85.0951H187.341V82.7306H180.336V85.0951H177.853V80.4251H179.095C179.252 79.4793 179.331 78.1689 179.331 76.494V71.4988H188.464V80.4251H189.824ZM185.952 80.4842V73.7451H181.814V76.494C181.814 77.8142 181.725 79.1443 181.548 80.4842H185.952ZM200.586 71.4988V73.8043H196.803V82.7306H194.261V73.8043H190.478V71.4988H200.586ZM207.329 71.4988C208.669 71.4988 209.713 71.8239 210.462 72.4742C211.23 73.1047 211.615 73.9816 211.615 75.1048C211.615 76.2477 211.23 77.1344 210.462 77.7649C209.713 78.3955 208.669 78.7108 207.329 78.7108H205.053V82.7306H202.541V71.4988H207.329ZM207.033 76.7009C207.684 76.7009 208.176 76.5728 208.511 76.3166C208.866 76.0408 209.043 75.6565 209.043 75.1639C209.043 74.1392 208.373 73.6269 207.033 73.6269H205.053V76.7009H207.033ZM221.195 71.4988H223.648V82.7306H221.165V75.4004L216.2 82.7306H213.776V71.4988H216.259V78.7994L221.195 71.4988ZM240.174 71.4988V82.7306H237.691V74.8092L234.795 82.7306H232.194L229.297 74.8092V82.7306H226.814V71.4988H230.539L233.524 79.627L236.48 71.4988H240.174ZM250.7 82.7306L247.36 77.7058L245.882 79.1837V82.7306H243.34V71.4988H245.882V76.2575L250.375 71.4988H253.538L249.163 75.9028L253.715 82.7306H250.7ZM263.384 82.7306L262.586 80.5138H257.679L256.881 82.7306H254.221L258.595 71.4988H261.729L266.103 82.7306H263.384ZM258.477 78.3265H261.788L260.132 73.7156L258.477 78.3265Z" fill="#1B1B1C"/>
<rect x="158.9" y="136.831" width="348.067" height="113.5" rx="12.6111" fill="#F0EFF3"/>
<path d="M241.691 156.476H243.386V163.964H241.691V160.89H238.617V163.964H236.922V156.476H238.617V159.353H241.691V156.476ZM250.699 163.964L250.166 162.486H246.895L246.363 163.964H244.59L247.506 156.476H249.595L252.511 163.964H250.699ZM247.428 161.028H249.634L248.531 157.954L247.428 161.028ZM260.179 156.476V163.964H258.484V158.013H255.41V163.964H253.716V156.476H260.179ZM267.236 156.476H268.871V163.964H267.216V159.077L263.905 163.964H262.29V156.476H263.945V161.343L267.236 156.476ZM279.179 156.476H280.874V163.964H270.982V156.476H272.677V162.427H275.081V156.476H276.775V162.427H279.179V156.476ZM282.985 156.476H284.679V163.964H282.985V156.476ZM292.721 156.476V158.013H290.199V163.964H288.504V158.013H285.982V156.476H292.721ZM297.236 159.156C298.129 159.156 298.825 159.366 299.325 159.786C299.837 160.207 300.093 160.798 300.093 161.56C300.093 162.309 299.837 162.9 299.325 163.333C298.825 163.754 298.129 163.964 297.236 163.964H294.024V156.476H295.719V159.156H297.236ZM297.118 162.545C297.958 162.545 298.379 162.204 298.379 161.52C298.379 160.837 297.958 160.496 297.118 160.496H295.719V162.545H297.118ZM309.596 156.476H311.29V163.964H309.596V160.89H306.522V163.964H304.827V156.476H306.522V159.353H309.596V156.476ZM318.603 163.964L318.071 162.486H314.8L314.268 163.964H312.495L315.411 156.476H317.5L320.416 163.964H318.603ZM315.332 161.028H317.539L316.435 157.954L315.332 161.028ZM330.527 156.476V163.964H328.872V158.683L326.941 163.964H325.207L323.275 158.683V163.964H321.62V156.476H324.103L326.093 161.895L328.064 156.476H330.527ZM340.877 160.141C341.231 160.312 341.501 160.548 341.685 160.851C341.882 161.153 341.98 161.507 341.98 161.915C341.98 162.558 341.75 163.064 341.29 163.432C340.844 163.787 340.22 163.964 339.418 163.964H335.891V156.476H339.399C340.161 156.476 340.758 156.653 341.192 157.008C341.625 157.363 341.842 157.849 341.842 158.466C341.842 159.228 341.52 159.786 340.877 160.141ZM337.507 157.836V159.491H339.123C339.832 159.491 340.187 159.215 340.187 158.663C340.187 158.112 339.832 157.836 339.123 157.836H337.507ZM339.143 162.604C339.918 162.604 340.305 162.302 340.305 161.698C340.305 161.094 339.918 160.791 339.143 160.791H337.507V162.604H339.143ZM348.761 163.964L348.229 162.486H344.958L344.426 163.964H342.652L345.569 156.476H347.657L350.574 163.964H348.761ZM345.49 161.028H347.697L346.593 157.954L345.49 161.028ZM359.975 156.476H361.67V163.964H351.778V156.476H353.473V162.427H355.877V156.476H357.571V162.427H359.975V156.476ZM365.436 162.486H369.298V163.964H363.781V156.476H369.2V157.954H365.436V159.412H368.313V160.831H365.436V162.486ZM380.515 156.476V163.964H378.82V158.013H375.746V163.964H374.052V156.476H380.515ZM387.572 156.476H389.207V163.964H387.552V159.077L384.242 163.964H382.626V156.476H384.281V161.343L387.572 156.476ZM397.249 156.476V158.013H394.727V163.964H393.032V158.013H390.51V156.476H397.249ZM402.966 163.964L402.434 162.486H399.163L398.631 163.964H396.857L399.774 156.476H401.862L404.779 163.964H402.966ZM399.695 161.028H401.902L400.798 157.954L399.695 161.028ZM410.752 156.476H412.446V163.964H410.752V160.89H407.678V163.964H405.983V156.476H407.678V159.353H410.752V156.476ZM419.326 156.476H421.02V163.964H419.326V160.89H416.252V163.964H414.557V156.476H416.252V159.353H419.326V156.476ZM428.944 163.964H427.249V161.284H425.811L424.254 163.964H422.422L424.195 161.028C423.748 160.844 423.407 160.568 423.17 160.2C422.934 159.832 422.816 159.386 422.816 158.86C422.816 158.112 423.065 157.527 423.565 157.107C424.077 156.686 424.78 156.476 425.673 156.476H428.944V163.964ZM427.249 159.924V157.895H425.791C425.384 157.895 425.069 157.98 424.845 158.151C424.635 158.322 424.53 158.571 424.53 158.9C424.53 159.583 424.95 159.924 425.791 159.924H427.249Z" fill="#1B1B1C"/>
<path d="M224.806 181.403V177.051L226.863 181.403H227.282L229.335 177.051V181.398H230.209V175.047H229.366L227.075 179.827L224.771 175.047H223.937V181.403H224.806ZM234.716 176.636L232.328 179.884V176.636H231.441V181.403H232.191L234.575 178.088V181.403H235.462V176.636H234.716ZM240.758 181.403C241.032 181.403 241.327 181.385 241.553 181.319C242.122 181.16 242.449 180.714 242.449 180.07C242.449 179.536 242.219 179.227 241.892 179.059C241.791 179.006 241.672 178.962 241.57 178.944C241.672 178.909 241.782 178.847 241.879 178.759C242.082 178.573 242.21 178.317 242.21 177.938C242.21 177.271 241.817 176.865 241.336 176.728C241.124 176.667 240.833 176.636 240.555 176.636H238.458V181.403H240.758ZM239.394 177.377H240.383C240.44 177.377 240.71 177.377 240.886 177.435C241.133 177.519 241.257 177.748 241.257 178.017C241.257 178.265 241.142 178.494 240.917 178.582C240.789 178.635 240.595 178.653 240.427 178.653H239.394V177.377ZM239.394 179.394H240.652C240.749 179.394 240.904 179.394 241.027 179.434C241.297 179.496 241.495 179.703 241.495 180.034C241.495 180.282 241.385 180.529 241.124 180.608C241.001 180.648 240.824 180.675 240.701 180.675H239.394V179.394ZM244.344 175.855V174.959H243.422V175.855H244.344ZM244.344 181.403V176.636H243.422V181.403H244.344ZM246.195 182.462V181.403H249.4V182.462H250.274V180.661H249.806V176.636H246.389C246.332 177.85 246.275 178.737 246.151 179.505C246.014 180.348 245.838 180.661 245.317 180.661V182.462H246.195ZM246.637 180.661C246.857 180.441 246.932 180.145 247.003 179.677C247.104 179.077 247.166 178.15 247.21 177.377H248.879V180.661H246.637ZM252.071 181.403V177.505H254.247V181.403H255.169V176.636H251.148V181.403H252.071ZM258.473 181.535C259.894 181.535 260.812 180.507 260.812 179.015C260.812 177.541 259.903 176.503 258.473 176.503C257.069 176.503 256.138 177.523 256.138 179.015C256.138 180.494 257.043 181.535 258.473 181.535ZM258.473 180.666C257.581 180.666 257.118 180.021 257.118 179.015C257.118 178.044 257.546 177.373 258.473 177.373C259.373 177.373 259.833 178.017 259.833 179.015C259.833 179.99 259.382 180.666 258.473 180.666ZM264.078 181.403C264.351 181.403 264.647 181.385 264.872 181.319C265.441 181.16 265.768 180.714 265.768 180.07C265.768 179.536 265.539 179.227 265.212 179.059C265.11 179.006 264.991 178.962 264.89 178.944C264.991 178.909 265.102 178.847 265.199 178.759C265.402 178.573 265.53 178.317 265.53 177.938C265.53 177.271 265.137 176.865 264.656 176.728C264.444 176.667 264.153 176.636 263.875 176.636H261.778V181.403H264.078ZM262.714 177.377H263.702C263.76 177.377 264.029 177.377 264.206 177.435C264.453 177.519 264.576 177.748 264.576 178.017C264.576 178.265 264.462 178.494 264.236 178.582C264.108 178.635 263.914 178.653 263.747 178.653H262.714V177.377ZM262.714 179.394H263.972C264.069 179.394 264.223 179.394 264.347 179.434C264.616 179.496 264.815 179.703 264.815 180.034C264.815 180.282 264.704 180.529 264.444 180.608C264.32 180.648 264.144 180.675 264.02 180.675H262.714V179.394ZM267.664 175.855V174.959H266.741V175.855H267.664ZM267.664 181.403V176.636H266.741V181.403H267.664ZM269.515 182.462V181.403H272.719V182.462H273.593V180.661H273.125V176.636H269.709C269.651 177.85 269.594 178.737 269.471 179.505C269.334 180.348 269.157 180.661 268.636 180.661V182.462H269.515ZM269.956 180.661C270.177 180.441 270.252 180.145 270.322 179.677C270.424 179.077 270.486 178.15 270.53 177.377H272.198V180.661H269.956ZM275.819 181.535C276.591 181.535 277.143 181.27 277.536 180.71V181.403H278.352V178.468C278.352 178.07 278.334 177.726 278.184 177.413C277.889 176.786 277.227 176.503 276.375 176.503C275.271 176.503 274.609 177.024 274.38 177.841L275.24 178.106C275.404 177.576 275.863 177.355 276.366 177.355C277.112 177.355 277.412 177.664 277.443 178.322C276.67 178.428 275.885 178.529 275.333 178.693C274.596 178.927 274.207 179.386 274.207 180.105C274.207 180.882 274.764 181.535 275.819 181.535ZM275.982 180.78C275.39 180.78 275.121 180.467 275.121 180.096C275.121 179.721 275.399 179.518 275.779 179.39C276.18 179.271 276.715 179.196 277.434 179.09C277.43 179.315 277.412 179.615 277.337 179.836C277.231 180.299 276.767 180.78 275.982 180.78ZM281.533 181.535C282.561 181.535 283.303 181.028 283.616 180.092L282.681 179.871C282.486 180.383 282.129 180.666 281.537 180.666C280.774 180.666 280.346 180.167 280.244 179.386H282.014V178.644H280.244C280.337 177.907 280.752 177.373 281.515 177.373C282.072 177.373 282.513 177.673 282.698 178.22L283.616 177.956C283.378 177.06 282.592 176.503 281.537 176.503C280.112 176.503 279.233 177.545 279.233 179.024C279.233 180.489 280.09 181.535 281.533 181.535ZM285.407 181.403V178.525L286.842 181.403H287.261L288.695 178.525V181.403H289.587V176.636H288.81L287.053 180.132L285.292 176.636H284.52V181.403H285.407ZM292.896 181.535C294.317 181.535 295.236 180.507 295.236 179.015C295.236 177.541 294.326 176.503 292.896 176.503C291.493 176.503 290.561 177.523 290.561 179.015C290.561 180.494 291.466 181.535 292.896 181.535ZM292.896 180.666C292.005 180.666 291.541 180.021 291.541 179.015C291.541 178.044 291.969 177.373 292.896 177.373C293.797 177.373 294.256 178.017 294.256 179.015C294.256 179.99 293.805 180.666 292.896 180.666ZM300.043 181.535C301.464 181.535 302.382 180.507 302.382 179.015C302.382 177.541 301.473 176.503 300.043 176.503C298.639 176.503 297.708 177.523 297.708 179.015C297.708 180.494 298.613 181.535 300.043 181.535ZM300.043 180.666C299.151 180.666 298.688 180.021 298.688 179.015C298.688 178.044 299.116 177.373 300.043 177.373C300.943 177.373 301.402 178.017 301.402 179.015C301.402 179.99 300.952 180.666 300.043 180.666ZM304.275 183.521V181.067C304.61 181.363 305.047 181.535 305.59 181.535C306.919 181.535 307.748 180.445 307.748 179.015C307.748 177.576 306.914 176.503 305.572 176.503C304.981 176.503 304.509 176.711 304.169 177.064V176.636H303.348V183.521H304.275ZM305.462 180.701C304.553 180.701 304.169 180.004 304.169 179.015C304.169 178.026 304.562 177.338 305.431 177.338C306.349 177.338 306.769 178.079 306.769 179.015C306.769 179.959 306.349 180.701 305.462 180.701ZM309.734 175.855V174.959H308.811V175.855H309.734ZM309.734 181.403V176.636H308.811V181.403H309.734ZM313.094 181.535C314.123 181.535 314.864 181.028 315.177 180.092L314.242 179.871C314.047 180.383 313.69 180.666 313.098 180.666C312.335 180.666 311.907 180.167 311.805 179.386H313.575V178.644H311.805C311.898 177.907 312.313 177.373 313.076 177.373C313.633 177.373 314.074 177.673 314.259 178.22L315.177 177.956C314.939 177.06 314.153 176.503 313.098 176.503C311.673 176.503 310.794 177.545 310.794 179.024C310.794 180.489 311.651 181.535 313.094 181.535ZM317.003 181.403V179.452H319.329V181.403H320.252V176.636H319.329V178.582H317.003V176.636H316.081V181.403H317.003ZM323.645 181.403V177.466H325.273V176.636H321.093V177.466H322.722V181.403H323.645ZM328.095 181.535C329.516 181.535 330.435 180.507 330.435 179.015C330.435 177.541 329.525 176.503 328.095 176.503C326.692 176.503 325.76 177.523 325.76 179.015C325.76 180.494 326.665 181.535 328.095 181.535ZM328.095 180.666C327.204 180.666 326.74 180.021 326.74 179.015C326.74 178.044 327.168 177.373 328.095 177.373C328.996 177.373 329.455 178.017 329.455 179.015C329.455 179.99 329.004 180.666 328.095 180.666ZM333.7 181.403C333.973 181.403 334.269 181.385 334.494 181.319C335.064 181.16 335.39 180.714 335.39 180.07C335.39 179.536 335.161 179.227 334.834 179.059C334.733 179.006 334.613 178.962 334.512 178.944C334.613 178.909 334.724 178.847 334.821 178.759C335.024 178.573 335.152 178.317 335.152 177.938C335.152 177.271 334.759 176.865 334.278 176.728C334.066 176.667 333.775 176.636 333.497 176.636H331.4V181.403H333.7ZM332.336 177.377H333.325C333.382 177.377 333.651 177.377 333.828 177.435C334.075 177.519 334.199 177.748 334.199 178.017C334.199 178.265 334.084 178.494 333.859 178.582C333.731 178.635 333.536 178.653 333.369 178.653H332.336V177.377ZM332.336 179.394H333.594C333.691 179.394 333.845 179.394 333.969 179.434C334.238 179.496 334.437 179.703 334.437 180.034C334.437 180.282 334.327 180.529 334.066 180.608C333.943 180.648 333.766 180.675 333.642 180.675H332.336V179.394ZM337.193 181.403V179.452H339.52V181.403H340.442V176.636H339.52V178.582H337.193V176.636H336.271V181.403H337.193ZM343.751 181.535C345.172 181.535 346.09 180.507 346.09 179.015C346.09 177.541 345.181 176.503 343.751 176.503C342.347 176.503 341.416 177.523 341.416 179.015C341.416 180.494 342.321 181.535 343.751 181.535ZM343.751 180.666C342.859 180.666 342.396 180.021 342.396 179.015C342.396 178.044 342.824 177.373 343.751 177.373C344.651 177.373 345.11 178.017 345.11 179.015C345.11 179.99 344.66 180.666 343.751 180.666ZM349.745 181.403V177.505H351.921V181.403H352.844V176.636H348.823V181.403H349.745ZM355 183.521V181.067C355.335 181.363 355.772 181.535 356.315 181.535C357.644 181.535 358.474 180.445 358.474 179.015C358.474 177.576 357.639 176.503 356.298 176.503C355.706 176.503 355.234 176.711 354.894 177.064V176.636H354.073V183.521H355ZM356.187 180.701C355.278 180.701 354.894 180.004 354.894 179.015C354.894 178.026 355.287 177.338 356.156 177.338C357.074 177.338 357.494 178.079 357.494 179.015C357.494 179.959 357.074 180.701 356.187 180.701ZM361.518 181.535C362.94 181.535 363.858 180.507 363.858 179.015C363.858 177.541 362.948 176.503 361.518 176.503C360.115 176.503 359.183 177.523 359.183 179.015C359.183 180.494 360.088 181.535 361.518 181.535ZM361.518 180.666C360.627 180.666 360.163 180.021 360.163 179.015C360.163 178.044 360.591 177.373 361.518 177.373C362.419 177.373 362.878 178.017 362.878 179.015C362.878 179.99 362.428 180.666 361.518 180.666ZM366.878 181.403V177.466H368.507V176.636H364.327V177.466H365.956V181.403H366.878ZM369.935 181.403L370.986 179.743C371.052 179.748 371.114 179.748 371.171 179.748H372.116V181.403H373.043L373.038 176.636H371.145C370.924 176.636 370.584 176.636 370.284 176.702C369.586 176.852 369.088 177.369 369.088 178.203C369.088 178.966 369.503 179.434 370.09 179.624L368.951 181.403H369.935ZM371.092 179.006C370.964 179.006 370.783 178.997 370.615 178.953C370.297 178.869 370.032 178.6 370.032 178.194C370.032 177.783 370.306 177.514 370.58 177.435C370.756 177.382 370.964 177.377 371.092 177.377H372.116V179.006H371.092ZM375.199 181.403V177.505H377.631V176.636H374.276V181.403H375.199ZM380.45 181.535C381.871 181.535 382.789 180.507 382.789 179.015C382.789 177.541 381.88 176.503 380.45 176.503C379.046 176.503 378.115 177.523 378.115 179.015C378.115 180.494 379.02 181.535 380.45 181.535ZM380.45 180.666C379.558 180.666 379.095 180.021 379.095 179.015C379.095 178.044 379.523 177.373 380.45 177.373C381.35 177.373 381.809 178.017 381.809 179.015C381.809 179.99 381.359 180.666 380.45 180.666ZM384.642 181.403V178.525L386.076 181.403H386.496L387.93 178.525V181.403H388.822V176.636H388.045L386.288 180.132L384.527 176.636H383.755V181.403H384.642ZM393.713 181.535C394.9 181.535 395.92 180.586 395.92 179.403C395.92 178.212 395.046 177.32 393.859 177.32C393.483 177.32 393.086 177.439 392.773 177.664L392.879 175.916H395.483V175.047H392.053L391.859 178.388L392.662 178.671C392.861 178.406 393.219 178.159 393.739 178.159C394.419 178.159 394.989 178.706 394.989 179.403C394.989 180.083 394.437 180.644 393.739 180.644C393.21 180.644 392.685 180.286 392.539 179.721L391.652 179.959C391.912 180.886 392.733 181.535 393.713 181.535ZM399.535 178.988V178.247H396.887V178.988H399.535ZM402.836 181.403V177.466H404.465V176.636H400.285V177.466H401.913V181.403H402.836ZM408.573 176.636L406.185 179.884V176.636H405.298V181.403H406.049L408.432 178.088V181.403H409.319V176.636H408.573ZM412.889 181.403L414.112 179.712L415.326 181.403H416.425L414.637 178.993L416.381 176.636H415.286L414.112 178.273L412.925 176.636H411.83L413.574 178.993L411.79 181.403H412.889ZM419.426 181.403C419.699 181.403 419.995 181.385 420.22 181.319C420.79 181.16 421.116 180.714 421.116 180.07C421.116 179.536 420.887 179.227 420.56 179.059C420.459 179.006 420.339 178.962 420.238 178.944C420.339 178.909 420.45 178.847 420.547 178.759C420.75 178.573 420.878 178.317 420.878 177.938C420.878 177.271 420.485 176.865 420.004 176.728C419.792 176.667 419.501 176.636 419.223 176.636H417.126V181.403H419.426ZM418.062 177.377H419.051C419.108 177.377 419.377 177.377 419.554 177.435C419.801 177.519 419.925 177.748 419.925 178.017C419.925 178.265 419.81 178.494 419.585 178.582C419.457 178.635 419.262 178.653 419.095 178.653H418.062V177.377ZM418.062 179.394H419.32C419.417 179.394 419.571 179.394 419.695 179.434C419.964 179.496 420.163 179.703 420.163 180.034C420.163 180.282 420.053 180.529 419.792 180.608C419.669 180.648 419.492 180.675 419.368 180.675H418.062V179.394ZM425.272 176.636L422.884 179.884V176.636H421.997V181.403H422.747L425.131 178.088V181.403H426.018V176.636H425.272ZM426.81 181.403C427.834 181.623 428.187 181.266 428.368 180.313C428.496 179.673 428.607 178.441 428.677 177.505H430.346V181.403H431.273V176.636H427.847C427.772 177.956 427.684 179.116 427.538 179.924C427.441 180.471 427.335 180.719 426.81 180.622V181.403ZM435.781 176.636L433.393 179.884V176.636H432.506V181.403H433.256L435.64 178.088V181.403H436.527V176.636H435.781ZM438.678 181.403V179.452H441.005V181.403H441.927V176.636H441.005V178.582H438.678V176.636H437.756V181.403H438.678Z" fill="#A9A9AC"/>
<rect x="269.878" y="208.714" width="126.111" height="26.4833" rx="13.2417" fill="#6639C1"/>
<path d="M299.137 220.123H295.098V224.803H296.157V221.084H298.078V224.803H299.137V220.123ZM302.389 224.864C303.78 224.864 304.716 223.904 304.716 222.463C304.716 221.01 303.793 220.061 302.389 220.061C300.997 220.061 300.061 221.022 300.061 222.463C300.061 223.916 300.985 224.864 302.389 224.864ZM302.389 223.953C301.637 223.953 301.145 223.362 301.145 222.463C301.145 221.564 301.637 220.973 302.389 220.973C303.14 220.973 303.632 221.564 303.632 222.463C303.632 223.362 303.14 223.953 302.389 223.953ZM307.598 224.864C308.608 224.864 309.359 224.359 309.618 223.497L308.62 223.153C308.448 223.694 308.091 223.978 307.573 223.978C306.835 223.978 306.391 223.399 306.391 222.463C306.391 221.527 306.847 220.948 307.573 220.948C308.091 220.948 308.448 221.231 308.62 221.773L309.618 221.428C309.347 220.566 308.608 220.061 307.598 220.061C306.231 220.061 305.307 221.022 305.307 222.463C305.307 223.916 306.219 224.864 307.598 224.864ZM314.076 220.123H309.864V221.084H311.441V224.803H312.5V221.084H314.076V220.123ZM317.586 224.803H318.719L316.896 220.123H315.591L313.768 224.803H314.877L315.209 223.879H317.253L317.586 224.803ZM315.542 222.968L316.231 221.047L316.921 222.968H315.542ZM322.525 222.414C322.906 222.204 323.128 221.847 323.128 221.367C323.128 220.591 322.561 220.123 321.601 220.123H319.409V224.803H321.613C322.623 224.803 323.214 224.322 323.214 223.522C323.214 223.005 322.968 222.623 322.525 222.414ZM321.428 220.973C321.872 220.973 322.093 221.145 322.093 221.49C322.093 221.835 321.872 222.007 321.428 222.007H320.419V220.973H321.428ZM321.441 223.953H320.419V222.82H321.441C321.921 222.82 322.167 223.005 322.167 223.387C322.167 223.768 321.921 223.953 321.441 223.953ZM327.229 220.123L325.172 223.165V220.123H324.138V224.803H325.148L327.217 221.749V224.803H328.251V220.123H327.229ZM333.214 220.123H329.002V221.084H330.579V224.803H331.638V221.084H333.214V220.123ZM337.057 220.123L335 223.165V220.123H333.966V224.803H334.976L337.045 221.749V224.803H338.079V220.123H337.057ZM344.027 222.401C344.434 222.204 344.668 221.872 344.668 221.404C344.668 220.591 343.966 220.061 342.894 220.061C341.971 220.061 341.195 220.554 340.887 221.317L341.774 221.687C341.983 221.219 342.353 220.96 342.857 220.96C343.35 220.96 343.633 221.182 343.633 221.527C343.633 221.835 343.375 222.007 343.005 222.007H342.377V222.82H343.018C343.486 222.82 343.769 223.017 343.769 223.35C343.769 223.744 343.449 223.953 342.87 223.953C342.328 223.953 341.909 223.682 341.712 223.226L340.85 223.682C341.17 224.396 341.946 224.864 342.882 224.864C344.04 224.864 344.816 224.298 344.816 223.46C344.816 222.931 344.532 222.574 344.027 222.401ZM348.929 224.803H350.062L348.239 220.123H346.934L345.111 224.803H346.22L346.552 223.879H348.597L348.929 224.803ZM346.885 222.968L347.574 221.047L348.264 222.968H346.885ZM354.791 220.123H350.752V224.803H351.811V221.084H353.732V224.803H354.791V220.123ZM359.139 220.123L357.082 223.165V220.123H356.047V224.803H357.057L359.126 221.749V224.803H360.161V220.123H359.139ZM365.124 220.123H360.912V221.084H362.488V224.803H363.548V221.084H365.124V220.123ZM368.634 224.803H369.767L367.944 220.123H366.639L364.816 224.803H365.924L366.257 223.879H368.301L368.634 224.803ZM366.59 222.968L367.279 221.047L367.969 222.968H366.59ZM373.437 220.123V221.921H371.516V220.123H370.457V224.803H371.516V222.882H373.437V224.803H374.496V220.123H373.437ZM378.733 220.123V221.921H376.811V220.123H375.752V224.803H376.811V222.882H378.733V224.803H379.792V220.123H378.733ZM384.681 220.123H382.637C381.516 220.123 380.851 220.677 380.851 221.613C380.851 222.266 381.159 222.734 381.713 222.968L380.605 224.803H381.75L382.723 223.128H383.622V224.803H384.681V220.123ZM382.711 222.278C382.193 222.278 381.922 222.056 381.922 221.638C381.922 221.231 382.193 221.01 382.711 221.01H383.622V222.278H382.711Z" fill="white"/>
<g clip-path="url(#clip5_657_4355)">
<path d="M289.237 217.806L280.298 221.271C279.939 221.432 279.817 221.755 280.211 221.931L282.504 222.663L288.049 219.219C288.352 219.003 288.661 219.06 288.395 219.298L283.633 223.632L283.483 225.466C283.622 225.749 283.876 225.751 284.037 225.61L285.355 224.357L287.611 226.055C288.135 226.367 288.42 226.166 288.533 225.594L290.013 218.55C290.167 217.847 289.905 217.537 289.237 217.806V217.806Z" fill="white"/>
</g>
<path d="M62.7381 16.7068L59.9685 25.2971C58.9098 29.9827 56.8668 31.5278 52.2277 31.5278C48.7113 31.5278 45.4158 30.1238 46.5351 25.02H46.176L44.4566 23.307H47.088L47.5853 21.7837H42.9277L41.2083 20.0707H48.1449L48.6827 18.4215H39.5529L37.8335 16.7085H52.2867L51.1944 20.0724L50.6398 21.7854L50.1459 23.3087L49.5896 25.0217L49.5694 25.0821C48.8192 28.3788 50.6145 29.2236 52.6542 29.2236C55.0867 29.2236 56.2683 28.3335 56.9797 25.1376L59.7105 16.7085H62.7381V16.7068Z" fill="#6639C1"/>
<path d="M70.475 28.0211H66.458C66.3113 28.5065 66.1613 28.9986 66.0079 29.4973C65.8528 29.9961 65.696 30.4882 65.5325 30.9736H61.8071L66.7007 16.5003H70.207L75.1006 30.9736H71.3027L70.475 28.0211ZM67.7239 23.2583L67.2368 25.3374H69.6709L69.209 23.2784L68.528 20.3881H68.4067L67.7239 23.2583Z" fill="#6639C1"/>
<path d="M87.4941 26.6893C87.4941 28.0765 86.9952 29.153 85.9972 29.9222C84.9993 30.6914 83.5833 31.076 81.7493 31.076C81.0345 31.076 80.3889 31.0139 79.8141 30.8896C79.2376 30.7653 78.7184 30.5957 78.2565 30.3807C77.7929 30.1657 77.3766 29.9088 77.0023 29.6115C76.6281 29.3143 76.296 28.9851 76.0044 28.624L78.7791 26.7112C79.2173 27.2385 79.6759 27.6264 80.1546 27.875C80.6333 28.1252 81.1812 28.2495 81.7982 28.2495C82.5449 28.2495 83.0607 28.1118 83.3439 27.833C83.6271 27.5559 83.7704 27.2167 83.7704 26.8136C83.7704 26.5365 83.6929 26.298 83.5395 26.0965C83.3844 25.895 83.1737 25.7186 82.9057 25.5658C82.6376 25.413 82.3258 25.282 81.9684 25.1711C81.611 25.0603 81.2216 24.9562 80.8002 24.8588C80.0214 24.6505 79.3556 24.4154 78.8043 24.1517C78.2531 23.888 77.8014 23.5908 77.4524 23.2583C77.1035 22.9257 76.8472 22.5445 76.6854 22.1146C76.5236 21.6846 76.4427 21.1993 76.4427 20.6585C76.4427 20.0354 76.5725 19.4628 76.8321 18.9421C77.0917 18.4215 77.4575 17.9714 77.9278 17.5902C78.3981 17.209 78.9628 16.9151 79.6202 16.7068C80.2776 16.4986 81.0042 16.3944 81.7998 16.3944C83.0827 16.3944 84.1328 16.5641 84.9521 16.9033C85.7713 17.2426 86.4659 17.7447 87.0339 18.4114L84.502 20.4486C83.6895 19.6307 82.7893 19.2209 81.7998 19.2209C81.2806 19.2209 80.8542 19.3385 80.5221 19.5736C80.19 19.8087 80.0231 20.1211 80.0231 20.509C80.0231 20.7173 80.104 20.9037 80.2658 21.07C80.4277 21.2362 80.6468 21.3891 80.9233 21.5268C81.1997 21.6662 81.5234 21.7972 81.8976 21.9214C82.2701 22.0457 82.668 22.165 83.0911 22.2741C83.9339 22.4958 84.6402 22.7494 85.21 23.0332C85.7781 23.317 86.2332 23.6428 86.5737 24.0106C86.9143 24.3784 87.1536 24.7832 87.2919 25.2265C87.425 25.6783 87.4941 26.1637 87.4941 26.6893Z" fill="#1B1B1C"/>
<path d="M100.057 26.4191C100.057 27.1396 99.9241 27.7879 99.6561 28.3639C99.3881 28.94 99.0155 29.432 98.5368 29.8401C98.0581 30.2499 97.49 30.5606 96.8326 30.7756C96.1751 30.9905 95.4486 31.098 94.6529 31.098C93.6786 31.098 92.8476 30.967 92.1581 30.7034C91.4687 30.4397 90.9039 30.0836 90.4657 29.6319C90.0274 29.1818 89.7071 28.6578 89.5031 28.0616C89.2992 27.4654 89.1997 26.8424 89.1997 26.1907V21.0332C89.1997 20.4924 89.2975 19.9483 89.4913 19.4008C89.6869 18.8533 90.0021 18.3579 90.4404 17.9145C90.8787 17.4712 91.4417 17.1067 92.1328 16.8229C92.8223 16.5391 93.6634 16.3963 94.6529 16.3963C95.5784 16.3963 96.3808 16.5307 97.0635 16.8011C97.7445 17.0714 98.3059 17.4241 98.7441 17.8608C99.1824 18.2974 99.5111 18.7929 99.7303 19.3471C99.9494 19.9013 100.059 20.4639 100.059 21.0315V26.4191H100.057ZM96.5022 20.9089C96.5022 20.7712 96.4735 20.6117 96.4179 20.4303C96.3606 20.2506 96.2594 20.0776 96.1128 19.9097C95.9661 19.7417 95.7756 19.6007 95.5413 19.4831C95.3053 19.3655 95.0103 19.3068 94.6529 19.3068C94.2956 19.3068 93.9955 19.3588 93.7528 19.4629C93.51 19.5671 93.3094 19.6981 93.156 19.8576C93.001 20.0172 92.888 20.1901 92.8155 20.3782C92.743 20.5647 92.706 20.7427 92.706 20.9089V26.2747C92.706 26.8289 92.856 27.2874 93.156 27.6468C93.4561 28.0079 93.9551 28.1876 94.6529 28.1876C95.1553 28.1876 95.5902 28.0499 95.956 27.7711C96.3218 27.494 96.5039 27.1127 96.5039 26.6274V20.9089H96.5022Z" fill="#1B1B1C"/>
<path d="M112.985 27.5003C112.742 28.6238 112.14 29.5039 111.183 30.142C110.225 30.7802 109.056 31.0993 107.677 31.0993C106.702 31.0993 105.871 30.9683 105.182 30.7047C104.492 30.441 103.931 30.0849 103.501 29.6332C103.071 29.1831 102.754 28.6591 102.552 28.0629C102.348 27.4667 102.247 26.8436 102.247 26.192V21.0345C102.247 20.4937 102.345 19.9496 102.539 19.4021C102.734 18.8546 103.046 18.3592 103.476 17.9158C103.906 17.4724 104.465 17.108 105.157 16.8242C105.846 16.5404 106.687 16.3976 107.677 16.3976C108.456 16.3976 109.153 16.4984 109.77 16.6999C110.387 16.9014 110.915 17.1685 111.353 17.501C111.792 17.8335 112.149 18.2181 112.424 18.6548C112.7 19.0914 112.894 19.5465 113.009 20.0168L109.673 20.8699C109.641 20.7322 109.587 20.5676 109.514 20.3812C109.442 20.1948 109.324 20.0252 109.162 19.8723C109 19.7195 108.796 19.5885 108.553 19.4777C108.311 19.3668 108.017 19.3114 107.677 19.3114C107.319 19.3114 107.019 19.3635 106.777 19.4676C106.534 19.5717 106.338 19.7027 106.192 19.8623C106.045 20.0218 105.94 20.1948 105.875 20.3829C105.809 20.5693 105.777 20.7473 105.777 20.9136V26.2794C105.777 26.8336 105.919 27.2921 106.203 27.6515C106.487 28.0125 106.979 28.1922 107.677 28.1922C108.164 28.1922 108.594 28.0579 108.968 27.7875C109.341 27.5171 109.56 27.1459 109.625 26.6757L112.985 27.5003Z" fill="#1B1B1C"/>
<path d="M118.779 21.866C118.926 21.6863 119.071 21.4881 119.217 21.2732C119.364 21.0582 119.575 20.7609 119.849 20.3797C120.126 19.9985 120.495 19.503 120.957 18.8934C121.419 18.2838 122.041 17.4861 122.82 16.5019H127.007L122.283 22.4286C123.128 23.8561 123.971 25.2803 124.815 26.7028C125.658 28.1235 126.511 29.5477 127.373 30.9769H123.379C122.811 30.0196 122.263 29.064 121.736 28.1068C121.208 27.1495 120.66 26.1872 120.092 25.2165L118.656 27.1092V30.9769H115.126V16.5002H118.656V21.866H118.779Z" fill="#1B1B1C"/>
<path d="M139.353 26.6893C139.353 28.0765 138.854 29.153 137.856 29.9222C136.858 30.6914 135.442 31.076 133.608 31.076C132.893 31.076 132.247 31.0139 131.672 30.8896C131.096 30.7653 130.577 30.5957 130.115 30.3807C129.651 30.1657 129.235 29.9088 128.861 29.6115C128.486 29.3143 128.154 28.9851 127.863 28.624L130.637 26.7112C131.076 27.2385 131.534 27.6264 132.013 27.875C132.492 28.1252 133.04 28.2495 133.657 28.2495C134.403 28.2495 134.919 28.1118 135.202 27.833C135.486 27.5559 135.629 27.2167 135.629 26.8136C135.629 26.5365 135.551 26.298 135.398 26.0965C135.243 25.895 135.032 25.7186 134.764 25.5658C134.496 25.413 134.184 25.282 133.827 25.1711C133.469 25.0603 133.08 24.9562 132.659 24.8588C131.88 24.6505 131.214 24.4154 130.663 24.1517C130.112 23.888 129.66 23.5908 129.311 23.2583C128.962 22.9257 128.706 22.5445 128.544 22.1146C128.382 21.6846 128.301 21.1993 128.301 20.6585C128.301 20.0354 128.431 19.4628 128.69 18.9421C128.95 18.4215 129.316 17.9714 129.786 17.5902C130.256 17.209 130.821 16.9151 131.479 16.7068C132.136 16.4986 132.863 16.3944 133.658 16.3944C134.941 16.3944 135.991 16.5641 136.811 16.9033C137.63 17.2426 138.324 17.7447 138.892 18.4114L136.36 20.4486C135.548 19.6307 134.648 19.2209 133.658 19.2209C133.139 19.2209 132.713 19.3385 132.38 19.5736C132.048 19.8087 131.882 20.1211 131.882 20.509C131.882 20.7173 131.962 20.9037 132.124 21.07C132.286 21.2362 132.505 21.3891 132.782 21.5268C133.058 21.6662 133.382 21.7972 133.756 21.9214C134.129 22.0457 134.526 22.165 134.949 22.2741C135.792 22.4958 136.499 22.7494 137.068 23.0332C137.636 23.317 138.092 23.6428 138.432 24.0106C138.773 24.3784 139.012 24.7832 139.15 25.2265C139.283 25.6783 139.353 26.1637 139.353 26.6893Z" fill="#1B1B1C"/>
<path d="M289.585 19.9733V27.4611H288.067V21.3526H284.717V27.4611H283.2V19.9733H289.585ZM292.481 24.9586C292.547 25.4052 292.724 25.7534 293.013 26.0029C293.302 26.2525 293.677 26.3773 294.136 26.3773C294.846 26.3773 295.404 26.1409 295.811 25.668L296.698 26.5153C296.094 27.2115 295.24 27.5596 294.136 27.5596C293.151 27.5596 292.389 27.2772 291.851 26.7123C291.325 26.1474 291.062 25.4118 291.062 24.5054C291.062 23.599 291.332 22.8633 291.87 22.2984C292.422 21.7336 293.145 21.4511 294.038 21.4511C294.918 21.4511 295.621 21.7336 296.146 22.2984C296.672 22.8502 296.934 23.5858 296.934 24.5054C296.934 24.6762 296.915 24.8272 296.875 24.9586H292.481ZM294.038 22.594C293.631 22.594 293.289 22.7122 293.013 22.9487C292.75 23.172 292.58 23.4939 292.501 23.9142H295.496C295.417 23.4939 295.246 23.172 294.984 22.9487C294.734 22.7122 294.419 22.594 294.038 22.594ZM301.506 21.4511C302.281 21.4511 302.898 21.7336 303.358 22.2984C303.818 22.8502 304.048 23.5858 304.048 24.5054C304.048 25.4118 303.811 26.1474 303.339 26.7123C302.866 27.2772 302.255 27.5596 301.506 27.5596C300.705 27.5596 300.074 27.2772 299.614 26.7123V29.4316H298.196V21.5496H299.457L299.536 22.4364C299.759 22.1211 300.041 21.8781 300.383 21.7073C300.724 21.5365 301.099 21.4511 301.506 21.4511ZM301.073 26.3773C301.545 26.3773 301.92 26.2131 302.196 25.8847C302.472 25.5432 302.609 25.0834 302.609 24.5054C302.609 23.9274 302.472 23.4742 302.196 23.1457C301.92 22.8042 301.545 22.6334 301.073 22.6334C300.6 22.6334 300.225 22.8042 299.949 23.1457C299.687 23.4742 299.555 23.9274 299.555 24.5054C299.555 25.0834 299.687 25.5432 299.949 25.8847C300.225 26.2131 300.6 26.3773 301.073 26.3773ZM306.334 24.9586C306.399 25.4052 306.577 25.7534 306.866 26.0029C307.155 26.2525 307.529 26.3773 307.989 26.3773C308.698 26.3773 309.257 26.1409 309.664 25.668L310.551 26.5153C309.946 27.2115 309.092 27.5596 307.989 27.5596C307.004 27.5596 306.242 27.2772 305.703 26.7123C305.178 26.1474 304.915 25.4118 304.915 24.5054C304.915 23.599 305.184 22.8633 305.723 22.2984C306.275 21.7336 306.997 21.4511 307.89 21.4511C308.771 21.4511 309.473 21.7336 309.999 22.2984C310.524 22.8502 310.787 23.5858 310.787 24.5054C310.787 24.6762 310.767 24.8272 310.728 24.9586H306.334ZM307.89 22.594C307.483 22.594 307.142 22.7122 306.866 22.9487C306.603 23.172 306.432 23.4939 306.353 23.9142H309.349C309.27 23.4939 309.099 23.172 308.836 22.9487C308.587 22.7122 308.271 22.594 307.89 22.594ZM316.107 24.4266C316.436 24.5316 316.685 24.709 316.856 24.9586C317.027 25.195 317.112 25.4906 317.112 25.8453C317.112 26.3576 316.922 26.7583 316.541 27.0473C316.16 27.3232 315.634 27.4611 314.964 27.4611H312.048V21.5496H314.748C315.457 21.5496 316.002 21.681 316.383 21.9437C316.764 22.1933 316.955 22.5809 316.955 23.1063C316.955 23.4216 316.876 23.6975 316.718 23.9339C316.574 24.1573 316.37 24.3215 316.107 24.4266ZM313.388 23.9339H314.748C315.037 23.9339 315.247 23.8814 315.378 23.7763C315.51 23.6712 315.575 23.5004 315.575 23.264C315.575 23.0538 315.503 22.8961 315.359 22.7911C315.227 22.6728 315.037 22.6137 314.787 22.6137H313.388V23.9339ZM314.826 26.3773C315.102 26.3773 315.313 26.3182 315.457 26.2C315.615 26.0686 315.694 25.8913 315.694 25.668C315.694 25.4446 315.615 25.2673 315.457 25.1359C315.299 25.0046 315.076 24.9389 314.787 24.9389H313.388V26.3773H314.826ZM323.595 26.2394V27.4611C323.464 27.4874 323.293 27.5005 323.083 27.5005C322.715 27.5005 322.433 27.4283 322.236 27.2838C322.052 27.1393 321.933 26.9094 321.881 26.5941C321.658 26.8962 321.362 27.1327 320.994 27.3035C320.639 27.4742 320.245 27.5596 319.812 27.5596C319.234 27.5596 318.767 27.402 318.413 27.0867C318.058 26.7714 317.881 26.3511 317.881 25.8256C317.881 25.1556 318.117 24.6893 318.59 24.4266C319.063 24.1638 319.674 23.9865 320.423 23.8945C320.869 23.842 321.191 23.7763 321.388 23.6975C321.585 23.6187 321.684 23.4873 321.684 23.3034C321.684 23.0932 321.579 22.929 321.369 22.8108C321.171 22.6794 320.896 22.6137 320.541 22.6137C319.91 22.6137 319.352 22.8567 318.866 23.3428L318.019 22.4561C318.728 21.7861 319.595 21.4511 320.62 21.4511C321.369 21.4511 321.953 21.6285 322.373 21.9832C322.794 22.3247 323.004 22.8042 323.004 23.4216V25.8847C323.004 26.1212 323.122 26.2394 323.359 26.2394H323.595ZM320.107 26.4365C320.528 26.4365 320.889 26.3117 321.191 26.0621C321.493 25.8125 321.644 25.5169 321.644 25.1753V24.5645C321.474 24.6564 321.119 24.7484 320.58 24.8404C320.134 24.9192 319.799 25.0111 319.575 25.1162C319.365 25.2213 319.26 25.4184 319.26 25.7074C319.26 25.9307 319.332 26.108 319.477 26.2394C319.634 26.3708 319.845 26.4365 320.107 26.4365ZM329.231 21.5496V22.8699H326.236V27.4611H324.817V21.5496H329.231ZM334.275 21.5496H335.694V27.4611H334.315V23.5595L331.694 27.4611H330.275V21.5496H331.674V25.4512L334.275 21.5496Z" fill="#1B1B1D"/>
<path d="M369.227 19.9733V21.3526H366.645V27.4611H365.128V21.3526H362.547V19.9733H369.227ZM374.527 26.2394V27.4611C374.396 27.4874 374.225 27.5005 374.015 27.5005C373.647 27.5005 373.365 27.4283 373.168 27.2838C372.984 27.1393 372.866 26.9094 372.813 26.5941C372.59 26.8962 372.294 27.1327 371.926 27.3035C371.572 27.4742 371.178 27.5596 370.744 27.5596C370.166 27.5596 369.7 27.402 369.345 27.0867C368.99 26.7714 368.813 26.3511 368.813 25.8256C368.813 25.1556 369.049 24.6893 369.522 24.4266C369.995 24.1638 370.606 23.9865 371.355 23.8945C371.802 23.842 372.123 23.7763 372.32 23.6975C372.518 23.6187 372.616 23.4873 372.616 23.3034C372.616 23.0932 372.511 22.929 372.301 22.8108C372.104 22.6794 371.828 22.6137 371.473 22.6137C370.843 22.6137 370.284 22.8567 369.798 23.3428L368.951 22.4561C369.66 21.7861 370.527 21.4511 371.552 21.4511C372.301 21.4511 372.885 21.6285 373.306 21.9832C373.726 22.3247 373.936 22.8042 373.936 23.4216V25.8847C373.936 26.1212 374.055 26.2394 374.291 26.2394H374.527ZM371.04 26.4365C371.46 26.4365 371.821 26.3117 372.123 26.0621C372.426 25.8125 372.577 25.5169 372.577 25.1753V24.5645C372.406 24.6564 372.051 24.7484 371.513 24.8404C371.066 24.9192 370.731 25.0111 370.508 25.1162C370.297 25.2213 370.192 25.4184 370.192 25.7074C370.192 25.9307 370.265 26.108 370.409 26.2394C370.567 26.3708 370.777 26.4365 371.04 26.4365ZM379.06 21.4511C379.835 21.4511 380.452 21.7336 380.912 22.2984C381.372 22.8502 381.601 23.5858 381.601 24.5054C381.601 25.4118 381.365 26.1474 380.892 26.7123C380.419 27.2772 379.808 27.5596 379.06 27.5596C378.258 27.5596 377.628 27.2772 377.168 26.7123V29.4316H375.749V21.5496H377.01L377.089 22.4364C377.312 22.1211 377.595 21.8781 377.936 21.7073C378.278 21.5365 378.652 21.4511 379.06 21.4511ZM378.626 26.3773C379.099 26.3773 379.473 26.2131 379.749 25.8847C380.025 25.5432 380.163 25.0834 380.163 24.5054C380.163 23.9274 380.025 23.4742 379.749 23.1457C379.473 22.8042 379.099 22.6334 378.626 22.6334C378.153 22.6334 377.779 22.8042 377.503 23.1457C377.24 23.4742 377.109 23.9274 377.109 24.5054C377.109 25.0834 377.24 25.5432 377.503 25.8847C377.779 26.2131 378.153 26.3773 378.626 26.3773ZM386.882 21.5496H388.301V27.4611H386.922V23.5595L384.301 27.4611H382.882V21.5496H384.281V25.4512L386.882 21.5496ZM396.597 21.4708C397.319 21.4708 397.891 21.7467 398.311 22.2984C398.745 22.8502 398.961 23.5858 398.961 24.5054C398.961 25.4118 398.745 26.1474 398.311 26.7123C397.878 27.2641 397.306 27.5399 396.597 27.5399C395.927 27.5399 395.395 27.3035 395.001 26.8305V29.4316H393.582V26.7911C393.188 27.2903 392.649 27.5399 391.966 27.5399C391.244 27.5399 390.666 27.2641 390.232 26.7123C389.812 26.1606 389.602 25.4249 389.602 24.5054C389.602 23.599 389.818 22.8699 390.252 22.3181C390.685 21.7533 391.257 21.4708 391.966 21.4708C392.649 21.4708 393.188 21.7073 393.582 22.1802V19.5792H395.001V22.1999C395.395 21.7139 395.927 21.4708 396.597 21.4708ZM392.341 26.3773C392.748 26.3773 393.063 26.2131 393.286 25.8847C393.523 25.5432 393.641 25.0834 393.641 24.5054C393.641 23.9274 393.523 23.4742 393.286 23.1457C393.063 22.8042 392.748 22.6334 392.341 22.6334C391.947 22.6334 391.631 22.8042 391.395 23.1457C391.158 23.4873 391.04 23.9405 391.04 24.5054C391.04 25.0702 391.158 25.5235 391.395 25.865C391.631 26.2066 391.947 26.3773 392.341 26.3773ZM396.242 26.3773C396.636 26.3773 396.945 26.2131 397.168 25.8847C397.405 25.5432 397.523 25.0834 397.523 24.5054C397.523 23.9274 397.405 23.4742 397.168 23.1457C396.945 22.8042 396.636 22.6334 396.242 22.6334C395.835 22.6334 395.513 22.8042 395.277 23.1457C395.04 23.4742 394.922 23.9274 394.922 24.5054C394.922 25.0834 395.04 25.5432 395.277 25.8847C395.513 26.2131 395.835 26.3773 396.242 26.3773ZM404.242 21.5496H405.661V27.4611H404.282V23.5595L401.661 27.4611H400.242V21.5496H401.641V25.4512L404.242 21.5496Z" fill="#1B1B1D"/>
<path d="M438.718 19.9733V27.4611H437.201V21.3526H433.851V27.4611H432.334V19.9733H438.718ZM440.709 21.5496H442.127V27.4611H440.709V21.5496ZM440.649 19.5003H442.186V20.7615H440.649V19.5003ZM450.088 26.1803V28.8404H448.728V27.4611H444.768V28.8404H443.408V26.1803H444.117C444.209 25.7599 444.255 25.0374 444.255 24.0128V21.5496H449.3V26.1803H450.088ZM447.901 26.2197V22.7911H445.635V24.0719C445.635 24.9652 445.589 25.6811 445.497 26.2197H447.901ZM456.039 21.5496V22.8305H453.97V27.4611H452.551V22.8305H450.462V21.5496H456.039ZM460.394 21.4511C461.169 21.4511 461.786 21.7336 462.246 22.2984C462.706 22.8502 462.936 23.5858 462.936 24.5054C462.936 25.4118 462.699 26.1474 462.226 26.7123C461.753 27.2772 461.142 27.5596 460.394 27.5596C459.592 27.5596 458.962 27.2772 458.502 26.7123V29.4316H457.083V21.5496H458.344L458.423 22.4364C458.647 22.1211 458.929 21.8781 459.271 21.7073C459.612 21.5365 459.986 21.4511 460.394 21.4511ZM459.96 26.3773C460.433 26.3773 460.807 26.2131 461.083 25.8847C461.359 25.5432 461.497 25.0834 461.497 24.5054C461.497 23.9274 461.359 23.4742 461.083 23.1457C460.807 22.8042 460.433 22.6334 459.96 22.6334C459.487 22.6334 459.113 22.8042 458.837 23.1457C458.574 23.4742 458.443 23.9274 458.443 24.5054C458.443 25.0834 458.574 25.5432 458.837 25.8847C459.113 26.2131 459.487 26.3773 459.96 26.3773ZM468.217 21.5496H469.635V27.4611H468.256V23.5595L465.635 27.4611H464.216V21.5496H465.615V25.4512L468.217 21.5496ZM478.66 21.5496V27.4611H477.3V23.126L475.724 27.4611H474.305L472.729 23.126V27.4611H471.35V21.5496H473.478L475.034 25.8453L476.571 21.5496H478.66ZM484.394 27.4611L482.601 24.8601L481.793 25.6286V27.4611H480.374V21.5496H481.793V24.0325L484.217 21.5496H485.99L483.586 23.8748L486.089 27.4611H484.394ZM492.197 26.2394V27.4611C492.066 27.4874 491.895 27.5005 491.685 27.5005C491.317 27.5005 491.035 27.4283 490.838 27.2838C490.654 27.1393 490.536 26.9094 490.483 26.5941C490.26 26.8962 489.964 27.1327 489.596 27.3035C489.242 27.4742 488.848 27.5596 488.414 27.5596C487.836 27.5596 487.37 27.402 487.015 27.0867C486.66 26.7714 486.483 26.3511 486.483 25.8256C486.483 25.1556 486.719 24.6893 487.192 24.4266C487.665 24.1638 488.276 23.9865 489.025 23.8945C489.471 23.842 489.793 23.7763 489.99 23.6975C490.187 23.6187 490.286 23.4873 490.286 23.3034C490.286 23.0932 490.181 22.929 489.971 22.8108C489.774 22.6794 489.498 22.6137 489.143 22.6137C488.513 22.6137 487.954 22.8567 487.468 23.3428L486.621 22.4561C487.33 21.7861 488.197 21.4511 489.222 21.4511C489.971 21.4511 490.555 21.6285 490.976 21.9832C491.396 22.3247 491.606 22.8042 491.606 23.4216V25.8847C491.606 26.1212 491.724 26.2394 491.961 26.2394H492.197ZM488.71 26.4365C489.13 26.4365 489.491 26.3117 489.793 26.0621C490.095 25.8125 490.247 25.5169 490.247 25.1753V24.5645C490.076 24.6564 489.721 24.7484 489.182 24.8404C488.736 24.9192 488.401 25.0111 488.178 25.1162C487.967 25.2213 487.862 25.4184 487.862 25.7074C487.862 25.9307 487.935 26.108 488.079 26.2394C488.237 26.3708 488.447 26.4365 488.71 26.4365Z" fill="#1B1B1D"/>
<path d="M525.306 19.9733V21.3526H522.725V27.4611H521.208V21.3526H518.626V19.9733H525.306ZM526.37 24.9586C526.436 25.4052 526.613 25.7534 526.902 26.0029C527.191 26.2525 527.566 26.3773 528.026 26.3773C528.735 26.3773 529.293 26.1409 529.701 25.668L530.587 26.5153C529.983 27.2115 529.129 27.5596 528.026 27.5596C527.04 27.5596 526.278 27.2772 525.74 26.7123C525.214 26.1474 524.952 25.4118 524.952 24.5054C524.952 23.599 525.221 22.8633 525.76 22.2984C526.311 21.7336 527.034 21.4511 527.927 21.4511C528.807 21.4511 529.51 21.7336 530.036 22.2984C530.561 22.8502 530.824 23.5858 530.824 24.5054C530.824 24.6762 530.804 24.8272 530.765 24.9586H526.37ZM527.927 22.594C527.52 22.594 527.178 22.7122 526.902 22.9487C526.64 23.172 526.469 23.4939 526.39 23.9142H529.385C529.306 23.4939 529.136 23.172 528.873 22.9487C528.623 22.7122 528.308 22.594 527.927 22.594ZM537.267 27.4611H535.592L534.154 25.4118L532.715 27.4611H531.06L533.247 24.466L531.159 21.5496H532.794L534.174 23.5004L535.592 21.5496H537.169L535.08 24.466L537.267 27.4611ZM542.312 21.5496H543.73V27.4611H542.312V25.0965H539.75V27.4611H538.331V21.5496H539.75V23.796H542.312V21.5496ZM548.065 27.5596C547.146 27.5596 546.404 27.2838 545.839 26.732C545.287 26.1672 545.011 25.4249 545.011 24.5054C545.011 23.5858 545.294 22.8502 545.859 22.2984C546.423 21.7336 547.159 21.4511 548.065 21.4511C548.998 21.4511 549.74 21.727 550.292 22.2787C550.844 22.8305 551.12 23.5727 551.12 24.5054C551.12 25.4249 550.837 26.1672 550.272 26.732C549.708 27.2838 548.972 27.5596 548.065 27.5596ZM548.065 26.3773C548.565 26.3773 548.952 26.2131 549.228 25.8847C549.517 25.5432 549.662 25.0834 549.662 24.5054C549.662 23.9274 549.517 23.4742 549.228 23.1457C548.952 22.8042 548.565 22.6334 548.065 22.6334C547.566 22.6334 547.172 22.8042 546.883 23.1457C546.607 23.4742 546.469 23.9274 546.469 24.5054C546.469 25.0834 546.607 25.5432 546.883 25.8847C547.172 26.2131 547.566 26.3773 548.065 26.3773ZM557.504 27.4611H556.085V22.8305H553.957V24.7221C553.957 25.7599 553.826 26.4824 553.563 26.8897C553.314 27.2969 552.867 27.5005 552.223 27.5005C552.026 27.5005 551.823 27.4874 551.612 27.4611V26.1803H551.947C552.118 26.1803 552.243 26.1474 552.322 26.0818C552.414 26.0029 552.473 25.8519 552.499 25.6286C552.538 25.4052 552.558 25.0505 552.558 24.5645V21.5496H557.504V27.4611ZM561.859 27.5596C560.939 27.5596 560.197 27.2838 559.632 26.732C559.081 26.1672 558.805 25.4249 558.805 24.5054C558.805 23.5858 559.087 22.8502 559.652 22.2984C560.217 21.7336 560.952 21.4511 561.859 21.4511C562.792 21.4511 563.534 21.727 564.086 22.2787C564.637 22.8305 564.913 23.5727 564.913 24.5054C564.913 25.4249 564.631 26.1672 564.066 26.732C563.501 27.2838 562.765 27.5596 561.859 27.5596ZM561.859 26.3773C562.358 26.3773 562.746 26.2131 563.021 25.8847C563.31 25.5432 563.455 25.0834 563.455 24.5054C563.455 23.9274 563.31 23.4742 563.021 23.1457C562.746 22.8042 562.358 22.6334 561.859 22.6334C561.36 22.6334 560.966 22.8042 560.677 23.1457C560.401 23.4742 560.263 23.9274 560.263 24.5054C560.263 25.0834 560.401 25.5432 560.677 25.8847C560.966 26.2131 561.36 26.3773 561.859 26.3773ZM570.608 21.5496V22.8699H567.613V27.4611H566.194V21.5496H570.608ZM571.751 21.5496H573.169V27.4611H571.751V21.5496ZM571.692 19.5003H573.229V20.7615H571.692V19.5003ZM575.081 21.5496H576.5V27.4611H575.081V21.5496ZM573.958 19.5003H575.436V20.7615H573.958V19.5003ZM576.145 19.5003H577.623V20.7615H576.145V19.5003Z" fill="#1B1B1D"/>
<path d="M610.223 21.3132H606.42V23.0866H609.336V24.3674H606.42V27.4611H604.902V19.9733H610.223V21.3132ZM616.134 27.4611L615.543 25.8847H612.154L611.563 27.4611H609.986L612.942 19.9733H614.794L617.75 27.4611H616.134ZM612.646 24.5645H615.05L613.848 21.3132L612.646 24.5645ZM625.533 23.7172C625.533 24.7156 625.264 25.5563 624.725 26.2394C624.2 26.9225 623.491 27.3429 622.597 27.5005V27.7961C622.597 28.1376 622.788 28.3084 623.169 28.3084C623.589 28.3084 623.898 28.3018 624.095 28.2887V29.4316C623.674 29.4579 623.333 29.471 623.07 29.471C622.453 29.471 621.993 29.3331 621.691 29.0572C621.389 28.7945 621.238 28.3544 621.238 27.737V27.5202C620.305 27.3889 619.563 26.9882 619.011 26.3182C618.459 25.6351 618.183 24.7681 618.183 23.7172C618.183 22.9684 618.334 22.305 618.637 21.727C618.952 21.1358 619.385 20.6826 619.937 20.3674C620.489 20.0389 621.126 19.8747 621.848 19.8747C622.965 19.8747 623.858 20.2294 624.528 20.9388C625.198 21.635 625.533 22.5612 625.533 23.7172ZM619.72 23.7172C619.72 24.4791 619.911 25.09 620.292 25.5497C620.686 26.0095 621.205 26.2394 621.848 26.2394C622.492 26.2394 623.004 26.0095 623.385 25.5497C623.78 25.09 623.977 24.4791 623.977 23.7172C623.977 22.9553 623.78 22.3444 623.385 21.8846C623.004 21.4248 622.492 21.195 621.848 21.195C621.205 21.195 620.686 21.4248 620.292 21.8846C619.911 22.3444 619.72 22.9553 619.72 23.7172Z" fill="#1B1B1D"/>
<path d="M769.715 19.9733V27.4611H768.237V21.8846L766.168 27.4611H764.592L762.503 21.8255V27.4611H761.025V19.9733H763.291L765.38 25.6483L767.488 19.9733H769.715ZM771.725 21.5496H773.143V27.4611H771.725V21.5496ZM771.666 19.5003H773.203V20.7615H771.666V19.5003ZM778.956 21.5496H780.375V27.4611H778.996V23.5595L776.375 27.4611H774.956V21.5496H776.355V25.4512L778.956 21.5496ZM777.676 20.9979C777.124 20.9979 776.677 20.8731 776.336 20.6235C776.007 20.3608 775.817 20.0061 775.764 19.5595L776.848 19.4018C776.887 19.6251 776.979 19.7959 777.124 19.9141C777.268 20.0324 777.452 20.0915 777.676 20.0915C777.899 20.0915 778.083 20.0324 778.227 19.9141C778.372 19.7959 778.464 19.6251 778.503 19.4018L779.587 19.5595C779.534 20.0061 779.337 20.3608 778.996 20.6235C778.667 20.8731 778.227 20.9979 777.676 20.9979ZM789.262 27.4611L787.469 24.8601L786.661 25.6286V27.4611H785.242V21.5496H786.661V24.0325L789.085 21.5496H790.858L788.454 23.8748L790.957 27.4611H789.262ZM797.065 26.2394V27.4611C796.934 27.4874 796.763 27.5005 796.553 27.5005C796.185 27.5005 795.903 27.4283 795.706 27.2838C795.522 27.1393 795.403 26.9094 795.351 26.5941C795.128 26.8962 794.832 27.1327 794.464 27.3035C794.109 27.4742 793.715 27.5596 793.282 27.5596C792.704 27.5596 792.238 27.402 791.883 27.0867C791.528 26.7714 791.351 26.3511 791.351 25.8256C791.351 25.1556 791.587 24.6893 792.06 24.4266C792.533 24.1638 793.144 23.9865 793.893 23.8945C794.339 23.842 794.661 23.7763 794.858 23.6975C795.055 23.6187 795.154 23.4873 795.154 23.3034C795.154 23.0932 795.049 22.929 794.839 22.8108C794.642 22.6794 794.366 22.6137 794.011 22.6137C793.38 22.6137 792.822 22.8567 792.336 23.3428L791.489 22.4561C792.198 21.7861 793.065 21.4511 794.09 21.4511C794.839 21.4511 795.423 21.6285 795.844 21.9832C796.264 22.3247 796.474 22.8042 796.474 23.4216V25.8847C796.474 26.1212 796.592 26.2394 796.829 26.2394H797.065ZM793.577 26.4365C793.998 26.4365 794.359 26.3117 794.661 26.0621C794.963 25.8125 795.114 25.5169 795.114 25.1753V24.5645C794.944 24.6564 794.589 24.7484 794.05 24.8404C793.604 24.9192 793.269 25.0111 793.045 25.1162C792.835 25.2213 792.73 25.4184 792.73 25.7074C792.73 25.9307 792.802 26.108 792.947 26.2394C793.105 26.3708 793.315 26.4365 793.577 26.4365ZM801.262 22.2196C802.024 22.2196 802.642 22.4626 803.115 22.9487C803.601 23.4347 803.844 24.0587 803.844 24.8207C803.844 25.6351 803.568 26.2985 803.016 26.8108C802.477 27.31 801.775 27.5596 800.908 27.5596C799.988 27.5596 799.259 27.2575 798.72 26.6532C798.195 26.0358 797.932 25.195 797.932 24.131C797.932 23.0144 798.149 22.1474 798.582 21.5299C799.016 20.8994 799.686 20.4856 800.592 20.2885L801.991 19.9733C802.202 19.9338 802.326 19.8091 802.366 19.5989L802.425 19.3821L803.765 19.6186L803.745 19.8353C803.693 20.2163 803.561 20.5184 803.351 20.7417C803.141 20.9519 802.839 21.1096 802.445 21.2147L800.691 21.5694C800.165 21.6744 799.778 21.8584 799.528 22.1211C799.292 22.3707 799.16 22.7319 799.134 23.2049C799.344 22.8896 799.627 22.6466 799.982 22.4758C800.349 22.305 800.776 22.2196 801.262 22.2196ZM800.908 26.3773C801.354 26.3773 801.709 26.2394 801.972 25.9635C802.234 25.6745 802.366 25.2936 802.366 24.8207C802.366 24.3346 802.234 23.9536 801.972 23.6778C801.722 23.3888 801.367 23.2443 800.908 23.2443C800.448 23.2443 800.08 23.3822 799.804 23.6581C799.541 23.9339 799.41 24.3149 799.41 24.8009C799.41 25.2739 799.548 25.6548 799.824 25.9438C800.1 26.2328 800.461 26.3773 800.908 26.3773ZM805.124 21.5496H806.543V27.4611H805.124V21.5496ZM805.065 19.5003H806.602V20.7615H805.065V19.5003ZM812.336 21.5496H813.755V27.4611H812.336V25.0965H809.775V27.4611H808.356V21.5496H809.775V23.796H812.336V21.5496ZM816.455 24.9586C816.52 25.4052 816.698 25.7534 816.987 26.0029C817.276 26.2525 817.65 26.3773 818.11 26.3773C818.819 26.3773 819.378 26.1409 819.785 25.668L820.672 26.5153C820.067 27.2115 819.213 27.5596 818.11 27.5596C817.125 27.5596 816.363 27.2772 815.824 26.7123C815.299 26.1474 815.036 25.4118 815.036 24.5054C815.036 23.599 815.305 22.8633 815.844 22.2984C816.396 21.7336 817.118 21.4511 818.011 21.4511C818.892 21.4511 819.594 21.7336 820.12 22.2984C820.645 22.8502 820.908 23.5858 820.908 24.5054C820.908 24.6762 820.888 24.8272 820.849 24.9586H816.455ZM818.011 22.594C817.604 22.594 817.263 22.7122 816.987 22.9487C816.724 23.172 816.553 23.4939 816.474 23.9142H819.47C819.391 23.4939 819.22 23.172 818.957 22.9487C818.708 22.7122 818.392 22.594 818.011 22.594ZM826.8 21.5496V22.8305H824.731V27.4611H823.312V22.8305H821.223V21.5496H826.8Z" fill="#651EEE"/>
<path d="M843.972 17.6561C840.426 17.6082 837.531 20.5031 837.579 24.049C837.626 27.4497 840.395 30.2188 843.796 30.2661C847.343 30.3146 850.237 27.4197 850.189 23.8738C850.142 20.4725 847.373 17.7034 843.972 17.6561ZM847.804 27.5758C847.792 27.5889 847.777 27.5991 847.761 27.6058C847.744 27.6125 847.727 27.6155 847.709 27.6146C847.691 27.6137 847.674 27.6089 847.658 27.6005C847.642 27.5921 847.629 27.5804 847.618 27.5661C847.347 27.2114 847.015 26.9077 846.637 26.6692C845.866 26.1739 844.888 25.9011 843.884 25.9011C842.88 25.9011 841.902 26.1739 841.131 26.6692C840.753 26.9076 840.421 27.2112 840.15 27.5658C840.139 27.5801 840.126 27.5918 840.11 27.6002C840.094 27.6086 840.077 27.6134 840.059 27.6143C840.041 27.6152 840.024 27.6122 840.007 27.6055C839.991 27.5988 839.976 27.5886 839.964 27.5755C839.074 26.6154 838.57 25.3607 838.549 24.052C838.499 21.1023 840.92 18.6334 843.871 18.6261C846.822 18.6189 849.219 21.015 849.219 23.9611C849.22 25.3013 848.715 26.5925 847.804 27.5758V27.5758Z" fill="#651EEE"/>
<path d="M843.884 20.5663C843.286 20.5663 842.746 20.7903 842.362 21.1974C841.978 21.6045 841.786 22.1674 841.829 22.7715C841.917 23.9612 842.839 24.9312 843.884 24.9312C844.929 24.9312 845.849 23.9612 845.939 22.7718C845.984 22.1734 845.794 21.6157 845.403 21.201C845.018 20.7918 844.478 20.5663 843.884 20.5663Z" fill="#651EEE"/>
<rect x="738.996" y="9.14305" width="131.686" height="29.6361" rx="14.8181" stroke="#651EEE" stroke-width="0.630556"/>
<path d="M159.683 22.1924H160.821V27.8083H159.683V22.1924ZM164.682 22.1924C165.569 22.1924 166.258 22.4437 166.751 22.9462C167.244 23.4486 167.49 24.1334 167.49 25.0004C167.49 25.8378 167.239 26.5177 166.736 27.0398C166.234 27.5522 165.549 27.8083 164.682 27.8083H162.539V22.1924H164.682ZM164.652 26.8477C165.184 26.8477 165.593 26.6852 165.879 26.36C166.175 26.025 166.322 25.5718 166.322 25.0004C166.322 24.429 166.175 23.9807 165.879 23.6555C165.593 23.3206 165.184 23.1531 164.652 23.1531H163.677V26.8477H164.652ZM168.617 26.5078H169.917V27.8083H168.617V26.5078ZM168.617 23.3747H169.917V24.6753H168.617V23.3747ZM175.91 24.3501C176.382 24.3797 176.762 24.5521 177.047 24.8674C177.343 25.1728 177.491 25.562 177.491 26.0349C177.491 26.5669 177.289 27.0103 176.885 27.365C176.491 27.7098 175.988 27.8822 175.378 27.8822C174.875 27.8822 174.437 27.7739 174.062 27.5571C173.688 27.3305 173.417 27.0152 173.249 26.6113L174.047 26.1383C174.323 26.7196 174.752 27.0103 175.333 27.0103C175.678 27.0103 175.949 26.9216 176.146 26.7443C176.353 26.5669 176.456 26.3206 176.456 26.0053C176.456 25.7295 176.368 25.5078 176.19 25.3403C176.013 25.163 175.781 25.0743 175.496 25.0743C175.299 25.0743 175.111 25.1235 174.934 25.2221L174.446 24.6605L175.998 23.1235H173.501V22.1924H177.284V22.9757L175.91 24.3501ZM182.859 25.562V26.4783H182.002V27.8083H181.012V26.4783H178.248V25.6063L180.716 22.1924H182.002V25.562H182.859ZM179.312 25.562H181.012V23.227L179.312 25.562ZM186.838 24.9265C187.143 25.0644 187.38 25.2516 187.547 25.4881C187.715 25.7147 187.799 25.9807 187.799 26.2861C187.799 26.7689 187.607 27.1581 187.222 27.4536C186.838 27.7394 186.321 27.8822 185.671 27.8822C185.02 27.8822 184.503 27.7394 184.119 27.4536C183.735 27.1581 183.542 26.7689 183.542 26.2861C183.542 25.9807 183.626 25.7147 183.794 25.4881C183.961 25.2516 184.198 25.0644 184.503 24.9265C184.247 24.7984 184.05 24.6309 183.912 24.424C183.774 24.2073 183.705 23.9659 183.705 23.6999C183.705 23.2171 183.882 22.8329 184.237 22.5471C184.592 22.2614 185.07 22.1186 185.671 22.1186C186.272 22.1186 186.749 22.2614 187.104 22.5471C187.459 22.8329 187.636 23.2171 187.636 23.6999C187.636 23.9659 187.567 24.2073 187.429 24.424C187.291 24.6309 187.094 24.7984 186.838 24.9265ZM185.671 22.9314C185.365 22.9314 185.124 23.0053 184.946 23.1531C184.769 23.3008 184.68 23.5028 184.68 23.759C184.68 24.0053 184.769 24.2023 184.946 24.3501C185.124 24.4979 185.365 24.5718 185.671 24.5718C185.976 24.5718 186.217 24.4979 186.395 24.3501C186.572 24.2023 186.661 24.0053 186.661 23.759C186.661 23.5028 186.572 23.3008 186.395 23.1531C186.217 23.0053 185.976 22.9314 185.671 22.9314ZM185.671 27.0694C186.006 27.0694 186.267 26.9906 186.454 26.8329C186.651 26.6753 186.749 26.4635 186.749 26.1975C186.749 25.9314 186.651 25.7245 186.454 25.5768C186.267 25.429 186.006 25.3551 185.671 25.3551C185.336 25.3551 185.07 25.429 184.872 25.5768C184.685 25.7245 184.592 25.9314 184.592 26.1975C184.592 26.4635 184.685 26.6753 184.872 26.8329C185.07 26.9906 185.336 27.0694 185.671 27.0694ZM191.068 24.3501C191.541 24.3797 191.921 24.5521 192.206 24.8674C192.502 25.1728 192.65 25.562 192.65 26.0349C192.65 26.5669 192.448 27.0103 192.044 27.365C191.65 27.7098 191.147 27.8822 190.536 27.8822C190.034 27.8822 189.595 27.7739 189.221 27.5571C188.847 27.3305 188.576 27.0152 188.408 26.6113L189.206 26.1383C189.482 26.7196 189.911 27.0103 190.492 27.0103C190.837 27.0103 191.108 26.9216 191.305 26.7443C191.512 26.5669 191.615 26.3206 191.615 26.0053C191.615 25.7295 191.526 25.5078 191.349 25.3403C191.172 25.163 190.94 25.0743 190.654 25.0743C190.457 25.0743 190.27 25.1235 190.093 25.2221L189.605 24.6605L191.157 23.1235H188.659V22.1924H192.443V22.9757L191.068 24.3501ZM193.451 24.025V23.1531H193.702C194.185 23.1531 194.51 23.089 194.678 22.9609C194.855 22.823 194.964 22.5668 195.003 22.1924H195.801V27.8083H194.737V24.025H193.451ZM201.302 26.8921V27.8083H197.179V27.1137L199.159 25.3846C199.514 25.0792 199.76 24.8083 199.898 24.5718C200.046 24.3354 200.12 24.094 200.12 23.8477C200.12 23.5915 200.036 23.3895 199.869 23.2417C199.711 23.0841 199.499 23.0053 199.233 23.0053C198.918 23.0053 198.667 23.1038 198.479 23.3008C198.302 23.4979 198.209 23.7885 198.199 24.1728L197.194 23.9954C197.243 23.4142 197.45 22.956 197.814 22.621C198.189 22.286 198.677 22.1186 199.278 22.1186C199.849 22.1186 200.312 22.2713 200.667 22.5767C201.021 22.8821 201.199 23.2762 201.199 23.759C201.199 24.1629 201.076 24.5373 200.829 24.8822C200.593 25.2171 200.169 25.6408 199.558 26.1531L198.686 26.8921H201.302ZM204.276 24.0841C204.818 24.0841 205.266 24.2615 205.621 24.6161C205.986 24.9708 206.168 25.4191 206.168 25.961C206.168 26.5324 205.966 26.9955 205.562 27.3502C205.168 27.7049 204.651 27.8822 204.01 27.8822C203.567 27.8822 203.168 27.7886 202.813 27.6014C202.468 27.4142 202.207 27.163 202.03 26.8477L202.71 26.2861C202.838 26.5029 203.015 26.6753 203.242 26.8034C203.468 26.9315 203.715 26.9955 203.981 26.9955C204.316 26.9955 204.587 26.897 204.794 26.6999C205.01 26.5029 205.119 26.2467 205.119 25.9314C205.119 25.6162 205.02 25.3649 204.823 25.1777C204.626 24.9807 204.365 24.8822 204.04 24.8822C203.606 24.8822 203.276 25.0497 203.05 25.3846L202.281 25.1038L202.532 22.1924H205.769V23.1531H203.345L203.242 24.3797C203.518 24.1826 203.862 24.0841 204.276 24.0841ZM209.009 22.1186C209.748 22.1186 210.309 22.3846 210.694 22.9166C211.088 23.4388 211.285 24.1137 211.285 24.9413C211.285 25.8083 211.078 26.5177 210.664 27.0694C210.26 27.6113 209.674 27.8822 208.906 27.8822C208.541 27.8822 208.201 27.8182 207.886 27.6901C207.58 27.5522 207.324 27.3551 207.117 27.099L207.841 26.4487C207.95 26.626 208.098 26.764 208.285 26.8625C208.472 26.9512 208.679 26.9955 208.906 26.9955C209.378 26.9955 209.733 26.8182 209.97 26.4635C210.206 26.1088 210.329 25.6605 210.339 25.1186C210.004 25.5817 209.507 25.8132 208.846 25.8132C208.285 25.8132 207.827 25.6507 207.472 25.3255C207.127 25.0004 206.955 24.562 206.955 24.0102C206.955 23.4585 207.152 23.0053 207.546 22.6506C207.94 22.2959 208.428 22.1186 209.009 22.1186ZM209.009 25.0004C209.324 25.0004 209.585 24.9117 209.792 24.7344C209.999 24.5472 210.103 24.3009 210.103 23.9954C210.103 23.69 210.004 23.4437 209.807 23.2565C209.61 23.0693 209.354 22.9757 209.039 22.9757C208.733 22.9757 208.477 23.0693 208.27 23.2565C208.073 23.4437 207.974 23.69 207.974 23.9954C207.974 24.3009 208.068 24.5472 208.255 24.7344C208.452 24.9117 208.704 25.0004 209.009 25.0004Z" fill="#242426"/>
</g>
<defs>
<clipPath id="clip0_657_4355">
<rect width="908" height="515.164" rx="12.6111" fill="white"/>
</clipPath>
<clipPath id="clip1_657_4355">
<rect width="11.35" height="11.35" fill="white" transform="translate(19.5479 77.5583)"/>
</clipPath>
<clipPath id="clip2_657_4355">
<rect width="11.35" height="11.35" fill="white" transform="translate(19.5479 115.392)"/>
</clipPath>
<clipPath id="clip3_657_4355">
<rect width="11.35" height="11.35" fill="white" transform="translate(19.5479 153.856)"/>
</clipPath>
<clipPath id="clip4_657_4355">
<rect width="11.35" height="11.35" fill="white" transform="translate(19.5479 464.089)"/>
</clipPath>
<clipPath id="clip5_657_4355">
<rect width="10.0889" height="10.0889" fill="white" transform="translate(279.967 216.911)"/>
</clipPath>
</defs>
</svg>
