<svg width="12" height="12" viewBox="0 0 12 12" fill="none" xmlns="http://www.w3.org/2000/svg">
<path fill-rule="evenodd" clip-rule="evenodd" d="M3.51196 1.875C3.51196 1.392 3.90396 1 4.38696 1H10.125C10.608 1 11 1.392 11 1.875V7.624C11 7.85606 10.9078 8.07862 10.7437 8.24272C10.5796 8.40681 10.357 8.499 10.125 8.499H4.38696C4.1549 8.499 3.93234 8.40681 3.76824 8.24272C3.60415 8.07862 3.51196 7.85606 3.51196 7.624V1.875ZM4.38696 1.75C4.35381 1.75 4.32202 1.76317 4.29857 1.78661C4.27513 1.81005 4.26196 1.84185 4.26196 1.875V7.624C4.26196 7.6935 4.31796 7.749 4.38696 7.749H10.125C10.1581 7.749 10.1899 7.73583 10.2134 7.71239C10.2368 7.68895 10.25 7.65715 10.25 7.624V1.875C10.25 1.84185 10.2368 1.81005 10.2134 1.78661C10.1899 1.76317 10.1581 1.75 10.125 1.75H4.38696Z" fill="#651EEE"/>
<path d="M0.997559 5.37452C0.997493 5.25957 1.02008 5.14574 1.06402 5.03952C1.10796 4.9333 1.17241 4.83679 1.25366 4.75548C1.33492 4.67418 1.4314 4.60968 1.5376 4.56568C1.64379 4.52167 1.75761 4.49902 1.87256 4.49902H2.62506C2.72451 4.49902 2.8199 4.53853 2.89022 4.60886C2.96055 4.67918 3.00006 4.77457 3.00006 4.87402C3.00006 4.97348 2.96055 5.06886 2.89022 5.13919C2.8199 5.20951 2.72451 5.24902 2.62506 5.24902H1.87256C1.83941 5.24902 1.80761 5.26219 1.78417 5.28564C1.76073 5.30908 1.74756 5.34087 1.74756 5.37402L1.75006 10.125C1.75006 10.194 1.80556 10.25 1.87506 10.25H6.62506C6.65821 10.25 6.69 10.2369 6.71345 10.2134C6.73689 10.19 6.75006 10.1582 6.75006 10.125V9.37002C6.75006 9.27057 6.78957 9.17518 6.85989 9.10486C6.93022 9.03453 7.0256 8.99502 7.12506 8.99502C7.22451 8.99502 7.3199 9.03453 7.39022 9.10486C7.46055 9.17518 7.50006 9.27057 7.50006 9.37002V10.125C7.50006 10.3571 7.40787 10.5796 7.24378 10.7437C7.07968 10.9078 6.85712 11 6.62506 11H1.87506C1.64299 11 1.42043 10.9078 1.25634 10.7437C1.09225 10.5796 1.00006 10.3571 1.00006 10.125L0.997559 5.37452Z" fill="#651EEE"/>
</svg>
