<svg width="192" height="115" viewBox="0 0 192 115" fill="none" xmlns="http://www.w3.org/2000/svg">
<path d="M48.3438 28.622V20.1145H53.3196V28.622H54.7501V18.7662H46.9133V28.622H48.3438ZM58.513 20.0187V18.6293H57.0825V20.0187H58.513ZM58.513 28.622V21.2301H57.0825V28.622H58.513ZM61.6566 30.2647V28.622H66.6256V30.2647H67.9807V27.4722H67.2552V21.2301H61.9577C61.8687 23.1123 61.7798 24.4881 61.5881 25.679C61.3759 26.9862 61.1022 27.4722 60.2945 27.4722V30.2647H61.6566ZM62.341 27.4722C62.6832 27.13 62.7996 26.6714 62.9091 25.9459C63.0665 25.0151 63.1623 23.5778 63.2308 22.38H65.8179V27.4722H62.341ZM72.9579 28.622V22.5169H75.4834V21.2301H69.0018V22.5169H71.5274V28.622H72.9579ZM78.4872 31.9073V28.1019C79.0074 28.5604 79.685 28.8274 80.5269 28.8274C82.587 28.8274 83.8738 27.1368 83.8738 24.9192C83.8738 22.688 82.5802 21.0248 80.4995 21.0248C79.5823 21.0248 78.85 21.3465 78.323 21.894V21.2301H77.0499V31.9073H78.4872ZM80.3284 27.5338C78.9184 27.5338 78.323 26.4524 78.323 24.9192C78.323 23.3861 78.9321 22.3184 80.2805 22.3184C81.7041 22.3184 82.3543 23.4682 82.3543 24.9192C82.3543 26.3839 81.7041 27.5338 80.3284 27.5338ZM90.7304 21.2301L87.0276 26.2676V21.2301H85.6519V28.622H86.8154L90.5114 23.4819V28.622H91.8871V21.2301H90.7304ZM95.4424 28.622V24.1595L97.6668 28.622H98.317L100.541 24.1595V28.622H101.924V21.2301H100.719L97.9954 26.6509L95.2645 21.2301H94.0667V28.622H95.4424ZM105.57 28.622V25.063L108.664 28.622H110.608L107.227 24.9261L110.293 21.2301H108.472L105.57 24.7892V21.2301H104.119L104.112 28.622H105.57ZM113.659 28.8274C114.857 28.8274 115.712 28.4167 116.322 27.5475V28.622H117.588V24.0705C117.588 23.4546 117.56 22.9207 117.328 22.4347C116.869 21.4628 115.842 21.0248 114.521 21.0248C112.81 21.0248 111.784 21.8324 111.428 23.0986L112.762 23.5093C113.016 22.688 113.728 22.3458 114.508 22.3458C115.664 22.3458 116.13 22.8249 116.178 23.8447C114.98 24.0089 113.762 24.1664 112.906 24.4196C111.763 24.7824 111.161 25.4942 111.161 26.6098C111.161 27.8144 112.023 28.8274 113.659 28.8274ZM113.912 27.657C112.995 27.657 112.578 27.171 112.578 26.5961C112.578 26.0143 113.009 25.6995 113.597 25.501C114.22 25.3162 115.048 25.1999 116.164 25.0356C116.157 25.3847 116.13 25.8501 116.014 26.1923C115.849 26.911 115.131 27.657 113.912 27.657Z" fill="#1B1B1C"/>
<path d="M7.82227 12.711C7.82227 10.0109 10.0111 7.82214 12.7111 7.82214H33.2442C35.9442 7.82214 38.133 10.0109 38.133 12.711V33.244C38.133 35.9441 35.9442 38.1328 33.2441 38.1328H12.7111C10.0111 38.1328 7.82227 35.944 7.82227 33.244V12.711Z" fill="#FFE6A7"/>
<path d="M23.4671 29.8219L23.2838 27.6219H23.1004C21.3649 27.6219 19.8921 27.0169 18.6822 25.8069C17.4722 24.5969 16.8672 23.1242 16.8672 21.3886C16.8672 19.6531 17.4722 18.1804 18.6822 16.9704C19.8921 15.7604 21.3649 15.1554 23.1004 15.1554C23.9682 15.1554 24.7778 15.3172 25.5292 15.6409C26.2811 15.965 26.9413 16.4111 27.5099 16.9792C28.078 17.5477 28.5239 18.2077 28.8475 18.9591C29.1716 19.711 29.3337 20.5209 29.3337 21.3886C29.3337 22.3053 29.1841 23.1853 28.8849 24.0286C28.5852 24.8719 28.1758 25.6541 27.6566 26.3752C27.1369 27.0963 26.5197 27.7502 25.8049 28.3369C25.0897 28.9235 24.3104 29.4185 23.4671 29.8219ZM24.9337 27.1452C25.8015 26.4119 26.5072 25.5534 27.0509 24.5698C27.595 23.5857 27.867 22.5253 27.867 21.3886C27.867 20.0564 27.4058 18.9288 26.4833 18.0058C25.5602 17.0833 24.4326 16.622 23.1004 16.622C21.7682 16.622 20.6409 17.0833 19.7183 18.0058C18.7953 18.9288 18.3338 20.0564 18.3338 21.3886C18.3338 22.7209 18.7953 23.8485 19.7183 24.7715C20.6409 25.694 21.7682 26.1552 23.1004 26.1552H24.9337V27.1452ZM23.0821 25.4036C23.2899 25.4036 23.4671 25.3303 23.6138 25.1836C23.7604 25.0369 23.8338 24.8597 23.8338 24.6519C23.8338 24.4442 23.7604 24.2669 23.6138 24.1203C23.4671 23.9736 23.2899 23.9003 23.0821 23.9003C22.8743 23.9003 22.6971 23.9736 22.5504 24.1203C22.4038 24.2669 22.3304 24.4442 22.3304 24.6519C22.3304 24.8597 22.4038 25.0369 22.5504 25.1836C22.6971 25.3303 22.8743 25.4036 23.0821 25.4036ZM22.5504 23.0753H23.6504C23.6504 22.7086 23.6871 22.452 23.7604 22.3053C23.8338 22.1586 24.066 21.8898 24.4571 21.4986C24.6771 21.2786 24.8604 21.0403 25.0071 20.7837C25.1537 20.527 25.2271 20.252 25.2271 19.9587C25.2271 19.3353 25.0164 18.8677 24.595 18.5558C24.173 18.2444 23.6749 18.0887 23.1004 18.0887C22.5627 18.0887 22.1105 18.2383 21.7438 18.5375C21.3771 18.8372 21.1205 19.2009 20.9738 19.6287L22.0005 20.032C22.0616 19.8242 22.1777 19.6194 22.3488 19.4175C22.5199 19.2161 22.7704 19.1153 23.1004 19.1153C23.4304 19.1153 23.6781 19.207 23.8433 19.3903C24.008 19.5737 24.0904 19.7753 24.0904 19.9953C24.0904 20.2031 24.0293 20.3894 23.9071 20.5541C23.7849 20.7194 23.6382 20.8875 23.4671 21.0587C23.0393 21.4253 22.7797 21.7155 22.6883 21.9291C22.5964 22.1432 22.5504 22.5253 22.5504 23.0753Z" fill="#1B1B1C"/>
<path d="M0 9.77765C0 4.37761 4.3776 0 9.77765 0H182.222C187.622 0 192 4.3776 192 9.77765V105.222C192 110.622 187.622 115 182.222 115H9.77765C4.3776 115 0 110.622 0 105.222V9.77765Z" fill="#0A0E23" fill-opacity="0.4"/>
</svg>
