<svg width="312" height="240" viewBox="0 0 312 240" fill="none" xmlns="http://www.w3.org/2000/svg">
<rect width="312" height="240" rx="20" fill="#EAF7EF" fill-opacity="0.4"/>
<circle cx="34.9965" cy="52.5" r="10.4967" stroke="#30AC63" stroke-width="0.999681"/>
<path fill-rule="evenodd" clip-rule="evenodd" d="M34.1143 54.426L32.2827 52.5944C32.0764 52.3881 31.7419 52.3881 31.5356 52.5944C31.3293 52.8007 31.3293 53.1352 31.5356 53.3415L33.7408 55.5467C33.9471 55.753 34.2815 55.753 34.4878 55.5467L38.4572 51.5773C38.6635 51.371 38.6635 51.0366 38.4572 50.8303C38.2509 50.624 37.9164 50.624 37.7101 50.8303L34.1143 54.426Z" fill="#30AC63"/>
<path d="M62.3079 59.1599C61.5081 59.1599 60.7724 58.9947 60.1006 58.6641C59.4395 58.3335 58.901 57.8644 58.4851 57.2566L59.6847 56.1049C60.0259 56.5208 60.4418 56.862 60.9323 57.1286C61.4335 57.3952 61.9133 57.5285 62.3719 57.5285C62.9157 57.5285 63.3476 57.4005 63.6674 57.1446C63.998 56.8887 64.1633 56.5528 64.1633 56.1369C64.1633 55.8383 64.11 55.5931 64.0033 55.4011C63.8967 55.1985 63.6994 55.0013 63.4115 54.8093C63.1236 54.6067 62.6811 54.3561 62.084 54.0576C61.2949 53.6737 60.6711 53.3111 60.2125 52.9699C59.754 52.6287 59.4181 52.2661 59.2049 51.8823C58.9916 51.4984 58.885 51.0559 58.885 50.5547C58.885 49.9789 59.0343 49.4724 59.3328 49.0352C59.6421 48.5873 60.0686 48.2461 60.6124 48.0115C61.1562 47.7662 61.7854 47.6436 62.4998 47.6436C63.2782 47.6436 63.9714 47.7982 64.5792 48.1075C65.1976 48.4167 65.6508 48.8379 65.9387 49.3711L64.6431 50.3308C64.3872 50.0002 64.078 49.7443 63.7154 49.563C63.3635 49.3711 62.985 49.2751 62.5798 49.2751C62.0573 49.2751 61.6468 49.3871 61.3482 49.611C61.0603 49.8243 60.9163 50.1282 60.9163 50.5227C60.9163 50.768 60.9803 50.9812 61.1083 51.1625C61.2469 51.3331 61.4868 51.525 61.828 51.7383C62.1799 51.9516 62.7131 52.2288 63.4275 52.57C64.4405 53.0499 65.1496 53.5511 65.5548 54.0736C65.9707 54.5854 66.1786 55.2305 66.1786 56.009C66.1786 56.6381 66.0187 57.1926 65.6988 57.6724C65.3789 58.1416 64.9257 58.5095 64.3392 58.7761C63.7528 59.032 63.0756 59.1599 62.3079 59.1599ZM67.5373 47.1318H69.3448V52.0422C69.59 51.669 69.9419 51.3758 70.4004 51.1625C70.8589 50.9492 71.3548 50.8426 71.888 50.8426C72.805 50.8426 73.5301 51.1465 74.0633 51.7543C74.6071 52.3621 74.879 53.1992 74.879 54.2655V59H73.0556V54.3615C73.0556 53.679 72.9116 53.1512 72.6237 52.778C72.3465 52.3941 71.9519 52.2022 71.4401 52.2022C70.811 52.2022 70.3045 52.4261 69.9206 52.874C69.5367 53.3218 69.3448 53.9083 69.3448 54.6334V59H67.5373V47.1318ZM77.8293 49.9149C77.4668 49.9149 77.1735 49.8189 76.9496 49.627C76.7363 49.4244 76.6297 49.1578 76.6297 48.8272C76.6297 48.486 76.7363 48.2194 76.9496 48.0275C77.1735 47.8249 77.4668 47.7236 77.8293 47.7236C78.1919 47.7236 78.4798 47.8249 78.693 48.0275C78.917 48.2194 79.0289 48.486 79.0289 48.8272C79.0289 49.1578 78.917 49.4244 78.693 49.627C78.4798 49.8189 78.1919 49.9149 77.8293 49.9149ZM76.9176 51.0025H78.741V59H76.9176V51.0025ZM80.8471 53.0819C80.8471 52.4421 80.8204 51.749 80.7671 51.0025H82.4786C82.5106 51.3544 82.5266 51.7277 82.5266 52.1222H82.5586C82.8038 51.717 83.145 51.4024 83.5822 51.1785C84.0301 50.9546 84.5153 50.8426 85.0378 50.8426C86.0614 50.8426 86.8665 51.2158 87.453 51.9622C88.0395 52.698 88.3327 53.711 88.3327 55.0013C88.3327 56.2915 88.0341 57.3099 87.437 58.0563C86.8399 58.7921 86.0241 59.1599 84.9898 59.1599C84.4673 59.1599 84.0034 59.0693 83.5982 58.888C83.193 58.6961 82.8944 58.4348 82.7025 58.1043H82.6545V62.8708H80.8471V53.0819ZM84.6219 57.8004C85.219 57.8004 85.6829 57.5498 86.0135 57.0486C86.3547 56.5474 86.5253 55.849 86.5253 54.9533C86.5253 54.0682 86.3653 53.3965 86.0454 52.9379C85.7255 52.4794 85.2564 52.2502 84.6379 52.2502C84.0514 52.2502 83.5716 52.4314 83.1983 52.794C82.8358 53.1565 82.6545 53.6204 82.6545 54.1855V55.769C82.6545 56.3555 82.8411 56.8407 83.2143 57.2246C83.5876 57.6084 84.0567 57.8004 84.6219 57.8004ZM89.7022 53.0819C89.7022 52.1222 89.6755 51.4291 89.6222 51.0025H91.2217C91.275 51.4611 91.3016 51.9303 91.3016 52.4101H91.3336C91.5149 51.9196 91.8295 51.5357 92.2773 51.2585C92.7252 50.9812 93.2477 50.8426 93.8448 50.8426C94.4206 50.8426 94.9112 50.9759 95.3164 51.2425C95.7216 51.4984 95.9935 51.8556 96.1321 52.3141C96.3454 51.8556 96.6706 51.4984 97.1078 51.2425C97.5556 50.9759 98.0568 50.8426 98.6113 50.8426C99.4964 50.8426 100.189 51.1252 100.691 51.6903C101.192 52.2555 101.442 53.0446 101.442 54.0576V59H99.651V54.2495C99.651 53.631 99.5177 53.1512 99.2511 52.81C98.9845 52.4687 98.6113 52.2981 98.1315 52.2981C97.6303 52.2981 97.2251 52.4794 96.9159 52.842C96.6173 53.1938 96.468 53.6684 96.468 54.2655V59H94.6766V54.3135C94.6766 53.663 94.5486 53.1672 94.2927 52.826C94.0474 52.4741 93.6902 52.2981 93.221 52.2981C92.7305 52.2981 92.32 52.4901 91.9894 52.874C91.6589 53.2578 91.4936 53.7377 91.4936 54.3135V59H89.7022V53.0819ZM110.364 55.6731H104.733C104.915 56.974 105.624 57.6244 106.861 57.6244C107.33 57.6244 107.746 57.5391 108.108 57.3685C108.471 57.1979 108.807 56.9313 109.116 56.5688L110.108 57.5125C109.798 58.0136 109.34 58.4135 108.732 58.7121C108.135 59.0107 107.479 59.1599 106.765 59.1599C105.538 59.1599 104.584 58.7974 103.902 58.0723C103.219 57.3365 102.878 56.3182 102.878 55.0173C102.878 53.7164 103.219 52.698 103.902 51.9622C104.595 51.2158 105.538 50.8426 106.733 50.8426C107.874 50.8426 108.764 51.2105 109.404 51.9462C110.044 52.682 110.364 53.7004 110.364 55.0013V55.6731ZM108.62 54.3135C108.62 53.6844 108.45 53.1938 108.108 52.842C107.767 52.4901 107.293 52.3141 106.685 52.3141C106.13 52.3141 105.682 52.5007 105.341 52.874C105.011 53.2365 104.803 53.7483 104.717 54.4095H108.62V54.3135ZM111.726 53.0819C111.726 52.0902 111.705 51.3971 111.662 51.0025H113.357C113.411 51.5037 113.437 51.9729 113.437 52.4101H113.469C113.672 51.9303 114.019 51.5517 114.509 51.2745C115 50.9866 115.543 50.8426 116.141 50.8426C117.068 50.8426 117.767 51.1518 118.236 51.7703C118.705 52.3781 118.94 53.2845 118.94 54.4894V59H117.116V54.4734C117.116 53.727 116.994 53.1779 116.748 52.826C116.514 52.4741 116.135 52.2981 115.613 52.2981C114.994 52.2981 114.493 52.5167 114.109 52.9539C113.725 53.3805 113.533 53.9349 113.533 54.6174V59H111.726V53.0819ZM123.956 59.1599C123.177 59.1599 122.564 58.936 122.116 58.4882C121.679 58.0296 121.46 57.4005 121.46 56.6008V52.3621H120.021V51.0025H121.46V48.9232L123.22 48.3954H123.284V51.0025H125.587V52.3621H123.284V56.3608C123.284 56.8407 123.385 57.1979 123.588 57.4325C123.801 57.6564 124.126 57.7684 124.563 57.7684C125.033 57.7684 125.416 57.7044 125.715 57.5765L125.811 58.856C125.374 59.0586 124.755 59.1599 123.956 59.1599ZM129.638 59.1599C128.977 59.1599 128.39 59.0267 127.878 58.7601C127.367 58.4935 127.004 58.1363 126.791 57.6884L127.942 56.9047C128.124 57.1819 128.364 57.4005 128.662 57.5605C128.971 57.7204 129.297 57.8004 129.638 57.8004C130.022 57.8004 130.342 57.6991 130.597 57.4965C130.853 57.2832 130.981 57.0113 130.981 56.6807C130.981 56.4355 130.885 56.2329 130.693 56.0729C130.512 55.913 130.134 55.721 129.558 55.4971C128.609 55.1346 127.937 54.7667 127.542 54.3935C127.159 54.0203 126.967 53.5564 126.967 53.0019C126.967 52.3515 127.228 51.829 127.75 51.4344C128.273 51.0399 128.966 50.8426 129.83 50.8426C130.416 50.8426 130.939 50.9546 131.397 51.1785C131.866 51.4024 132.234 51.7223 132.501 52.1382L131.429 52.9379C131.259 52.7033 131.04 52.5221 130.773 52.3941C130.507 52.2661 130.214 52.2022 129.894 52.2022C129.552 52.2022 129.281 52.2715 129.078 52.4101C128.875 52.5381 128.774 52.7193 128.774 52.9539C128.774 53.1245 128.817 53.2685 128.902 53.3858C128.987 53.4924 129.142 53.6044 129.366 53.7217C129.6 53.839 129.952 53.9883 130.422 54.1695C131.317 54.5214 131.936 54.8733 132.277 55.2252C132.618 55.5771 132.789 56.0356 132.789 56.6008C132.789 57.3685 132.501 57.987 131.925 58.4562C131.349 58.9254 130.587 59.1599 129.638 59.1599ZM142.049 59.1599C141.569 59.1599 141.105 59.0427 140.657 58.8081C140.22 58.5628 139.879 58.2482 139.633 57.8644H139.601C139.601 58.3869 139.591 58.7654 139.569 59H137.874C137.906 58.6801 137.922 57.9817 137.922 56.9047V47.1318H139.745V51.8983H139.777C140.247 51.1945 141.025 50.8426 142.113 50.8426C143.136 50.8426 143.941 51.1998 144.528 51.9143C145.114 52.6287 145.408 53.6097 145.408 54.8573C145.408 56.1902 145.109 57.2406 144.512 58.0083C143.915 58.7761 143.094 59.1599 142.049 59.1599ZM141.713 57.7524C142.31 57.7524 142.774 57.5018 143.104 57.0006C143.435 56.4995 143.6 55.7957 143.6 54.8893C143.6 54.0362 143.435 53.3751 143.104 52.9059C142.784 52.4368 142.321 52.2022 141.713 52.2022C141.148 52.2022 140.678 52.3941 140.305 52.778C139.932 53.1512 139.745 53.631 139.745 54.2175V55.801C139.745 56.3982 139.921 56.8727 140.273 57.2246C140.636 57.5765 141.116 57.7524 141.713 57.7524ZM150.458 59.1599C149.199 59.1599 148.208 58.7921 147.483 58.0563C146.768 57.3099 146.411 56.2915 146.411 55.0013C146.411 53.711 146.768 52.698 147.483 51.9622C148.208 51.2158 149.199 50.8426 150.458 50.8426C151.716 50.8426 152.702 51.2158 153.417 51.9622C154.142 52.698 154.504 53.711 154.504 55.0013C154.504 56.2915 154.142 57.3099 153.417 58.0563C152.702 58.7921 151.716 59.1599 150.458 59.1599ZM150.458 57.8004C151.151 57.8004 151.695 57.5551 152.089 57.0646C152.484 56.5634 152.681 55.8757 152.681 55.0013C152.681 54.1269 152.484 53.4444 152.089 52.9539C151.695 52.4528 151.151 52.2022 150.458 52.2022C149.765 52.2022 149.221 52.4528 148.826 52.9539C148.432 53.4444 148.234 54.1269 148.234 55.0013C148.234 55.8757 148.432 56.5634 148.826 57.0646C149.221 57.5551 149.765 57.8004 150.458 57.8004ZM159.611 59.1599C158.353 59.1599 157.361 58.7921 156.636 58.0563C155.922 57.3099 155.564 56.2915 155.564 55.0013C155.564 53.711 155.922 52.698 156.636 51.9622C157.361 51.2158 158.353 50.8426 159.611 50.8426C160.869 50.8426 161.856 51.2158 162.57 51.9622C163.295 52.698 163.658 53.711 163.658 55.0013C163.658 56.2915 163.295 57.3099 162.57 58.0563C161.856 58.7921 160.869 59.1599 159.611 59.1599ZM159.611 57.8004C160.304 57.8004 160.848 57.5551 161.242 57.0646C161.637 56.5634 161.834 55.8757 161.834 55.0013C161.834 54.1269 161.637 53.4444 161.242 52.9539C160.848 52.4528 160.304 52.2022 159.611 52.2022C158.918 52.2022 158.374 52.4528 157.98 52.9539C157.585 53.4444 157.388 54.1269 157.388 55.0013C157.388 55.8757 157.585 56.5634 157.98 57.0646C158.374 57.5551 158.918 57.8004 159.611 57.8004ZM170.348 59L167.901 55.1772L166.861 56.1849V59H165.054V47.1318H166.861V54.0096L169.916 51.0025H172.139L169.132 53.9456L172.411 59H170.348ZM180.169 55.6731H174.539C174.721 56.974 175.43 57.6244 176.667 57.6244C177.136 57.6244 177.552 57.5391 177.914 57.3685C178.277 57.1979 178.613 56.9313 178.922 56.5688L179.914 57.5125C179.604 58.0136 179.146 58.4135 178.538 58.7121C177.941 59.0107 177.285 59.1599 176.571 59.1599C175.344 59.1599 174.39 58.7974 173.708 58.0723C173.025 57.3365 172.684 56.3182 172.684 55.0173C172.684 53.7164 173.025 52.698 173.708 51.9622C174.401 51.2158 175.344 50.8426 176.539 50.8426C177.68 50.8426 178.57 51.2105 179.21 51.9462C179.85 52.682 180.169 53.7004 180.169 55.0013V55.6731ZM178.426 54.3135C178.426 53.6844 178.255 53.1938 177.914 52.842C177.573 52.4901 177.098 52.3141 176.491 52.3141C175.936 52.3141 175.488 52.5007 175.147 52.874C174.816 53.2365 174.609 53.7483 174.523 54.4095H178.426V54.3135ZM184.539 59.1599C183.494 59.1599 182.673 58.7761 182.076 58.0083C181.479 57.2406 181.18 56.1902 181.18 54.8573C181.18 54.0469 181.319 53.3431 181.596 52.746C181.873 52.1382 182.268 51.669 182.779 51.3384C183.291 51.0079 183.894 50.8426 184.587 50.8426C185.536 50.8426 186.282 51.1945 186.826 51.8983H186.858V47.1318H188.666V56.9047C188.666 57.9817 188.682 58.6801 188.714 59H187.018C186.997 58.7867 186.986 58.4082 186.986 57.8644H186.954C186.709 58.2482 186.362 58.5628 185.914 58.8081C185.477 59.0427 185.019 59.1599 184.539 59.1599ZM184.875 57.7524C185.472 57.7524 185.946 57.5765 186.298 57.2246C186.661 56.8727 186.842 56.3982 186.842 55.801V54.2175C186.842 53.631 186.656 53.1512 186.282 52.778C185.92 52.3941 185.451 52.2022 184.875 52.2022C184.267 52.2022 183.798 52.4368 183.467 52.9059C183.147 53.3751 182.987 54.0362 182.987 54.8893C182.987 55.7957 183.153 56.4995 183.483 57.0006C183.814 57.5018 184.278 57.7524 184.875 57.7524Z" fill="#343A40" />
<circle cx="34.9965" cy="97.4936" r="10.4967" stroke="#30AC63" stroke-width="0.999681" />
<path fill-rule="evenodd" clip-rule="evenodd" d="M34.1143 99.4197L32.2827 97.588C32.0764 97.3817 31.7419 97.3817 31.5356 97.588C31.3293 97.7943 31.3293 98.1288 31.5356 98.3351L33.7408 100.54C33.9471 100.747 34.2815 100.747 34.4878 100.54L38.4572 96.571C38.6635 96.3647 38.6635 96.0302 38.4572 95.8239C38.2509 95.6176 37.9164 95.6176 37.7101 95.8239L34.1143 99.4197Z" fill="#30AC63"/>
<path d="M59.1409 92.7972H61.1722V97.4837H65.8108V92.7972H67.8421V103.994H65.8108V99.1152H61.1722V103.994H59.1409V92.7972ZM72.2483 104.154C71.7258 104.154 71.2567 104.047 70.8408 103.834C70.4356 103.61 70.1157 103.306 69.8811 102.922C69.6572 102.538 69.5452 102.106 69.5452 101.626C69.5452 100.816 69.8598 100.192 70.4889 99.755C71.1287 99.3178 72.0297 99.0992 73.192 99.0992H74.5836V98.7313C74.5836 98.2515 74.445 97.8836 74.1677 97.6277C73.8905 97.3717 73.5013 97.2438 73.0001 97.2438C72.5203 97.2438 72.0671 97.3344 71.6405 97.5157C71.2247 97.6863 70.8781 97.9369 70.6009 98.2674L69.7691 97.1958C70.1743 96.7586 70.6648 96.4227 71.2407 96.1881C71.8165 95.9535 72.4243 95.8362 73.0641 95.8362C74.1091 95.8362 74.9248 96.0868 75.5113 96.588C76.0978 97.0785 76.391 97.7716 76.391 98.6673V102.346C76.391 102.57 76.4123 102.842 76.455 103.162C76.4977 103.471 76.5456 103.748 76.599 103.994H74.9835C74.8875 103.77 74.8182 103.434 74.7755 102.986H74.7435C74.1251 103.764 73.2933 104.154 72.2483 104.154ZM72.6642 102.778C73.208 102.778 73.6612 102.634 74.0238 102.346C74.397 102.048 74.5836 101.685 74.5836 101.258V100.331H73.1441C72.5576 100.331 72.1044 100.443 71.7845 100.667C71.4753 100.891 71.3206 101.211 71.3206 101.626C71.3206 101.989 71.4379 102.272 71.6725 102.474C71.9071 102.677 72.2377 102.778 72.6642 102.778ZM78.301 98.0755C78.301 97.4357 78.2744 96.7426 78.2211 95.9962H79.9325C79.9645 96.3481 79.9805 96.7213 79.9805 97.1158H80.0125C80.2577 96.7106 80.599 96.396 81.0362 96.1721C81.484 95.9482 81.9692 95.8362 82.4917 95.8362C83.5154 95.8362 84.3204 96.2094 84.9069 96.9559C85.4934 97.6916 85.7866 98.7046 85.7866 99.9949C85.7866 101.285 85.4881 102.303 84.8909 103.05C84.2938 103.786 83.4781 104.154 82.4437 104.154C81.9212 104.154 81.4574 104.063 81.0522 103.882C80.647 103.69 80.3484 103.428 80.1564 103.098H80.1085V107.864H78.301V98.0755ZM82.0758 102.794C82.673 102.794 83.1368 102.543 83.4674 102.042C83.8086 101.541 83.9792 100.843 83.9792 99.9469C83.9792 99.0619 83.8193 98.3901 83.4994 97.9316C83.1795 97.473 82.7103 97.2438 82.0918 97.2438C81.5053 97.2438 81.0255 97.425 80.6523 97.7876C80.2897 98.1502 80.1085 98.614 80.1085 99.1792V100.763C80.1085 101.349 80.2951 101.834 80.6683 102.218C81.0415 102.602 81.5107 102.794 82.0758 102.794ZM87.2201 98.0755C87.2201 97.4357 87.1934 96.7426 87.1401 95.9962H88.8515C88.8835 96.3481 88.8995 96.7213 88.8995 97.1158H88.9315C89.1768 96.7106 89.518 96.396 89.9552 96.1721C90.4031 95.9482 90.8882 95.8362 91.4107 95.8362C92.4344 95.8362 93.2395 96.2094 93.826 96.9559C94.4124 97.6916 94.7057 98.7046 94.7057 99.9949C94.7057 101.285 94.4071 102.303 93.81 103.05C93.2128 103.786 92.3971 104.154 91.3627 104.154C90.8402 104.154 90.3764 104.063 89.9712 103.882C89.566 103.69 89.2674 103.428 89.0755 103.098H89.0275V107.864H87.2201V98.0755ZM90.9949 102.794C91.592 102.794 92.0559 102.543 92.3864 102.042C92.7276 101.541 92.8983 100.843 92.8983 99.9469C92.8983 99.0619 92.7383 98.3901 92.4184 97.9316C92.0985 97.473 91.6293 97.2438 91.0109 97.2438C90.4244 97.2438 89.9445 97.425 89.5713 97.7876C89.2088 98.1502 89.0275 98.614 89.0275 99.1792V100.763C89.0275 101.349 89.2141 101.834 89.5873 102.218C89.9605 102.602 90.4297 102.794 90.9949 102.794ZM102.717 95.9962L99.7257 104.298C99.3845 105.236 98.9206 105.94 98.3342 106.409C97.7583 106.889 97.0759 107.129 96.2868 107.129C95.9136 107.129 95.5244 107.075 95.1192 106.969V105.545C95.3538 105.63 95.6523 105.673 96.0149 105.673C96.5054 105.673 96.9266 105.497 97.2785 105.145C97.6304 104.804 97.9556 104.239 98.2542 103.45L95.2791 95.9962H97.1985L99.0859 101.466L100.781 95.9962H102.717ZM111.106 104.154C109.88 104.154 108.92 103.786 108.227 103.05C107.545 102.314 107.204 101.296 107.204 99.9949C107.204 98.694 107.545 97.6756 108.227 96.9399C108.92 96.2041 109.88 95.8362 111.106 95.8362C111.821 95.8362 112.45 95.9748 112.994 96.2521C113.538 96.5187 113.959 96.9025 114.257 97.4037L113.17 98.3634C112.956 98.0115 112.674 97.7396 112.322 97.5477C111.97 97.3451 111.592 97.2438 111.186 97.2438C110.504 97.2438 109.971 97.489 109.587 97.9795C109.203 98.4594 109.011 99.1312 109.011 99.9949C109.011 100.848 109.203 101.52 109.587 102.01C109.971 102.501 110.504 102.746 111.186 102.746C111.592 102.746 111.97 102.645 112.322 102.442C112.674 102.24 112.956 101.962 113.17 101.61L114.257 102.57C113.959 103.082 113.538 103.476 112.994 103.754C112.461 104.02 111.831 104.154 111.106 104.154ZM118.133 104.154C117.216 104.154 116.523 103.85 116.054 103.242C115.585 102.634 115.35 101.733 115.35 100.539V95.9962H117.158V100.555C117.158 101.28 117.28 101.818 117.526 102.17C117.771 102.511 118.149 102.682 118.661 102.682C119.269 102.682 119.765 102.453 120.149 101.994C120.543 101.536 120.741 100.965 120.741 100.283V95.9962H122.548V102.074C122.548 102.661 122.596 103.301 122.692 103.994H120.98C120.884 103.482 120.836 103.013 120.836 102.586H120.788C120.575 103.066 120.229 103.45 119.749 103.738C119.28 104.015 118.741 104.154 118.133 104.154ZM126.732 104.154C126.071 104.154 125.485 104.02 124.973 103.754C124.461 103.487 124.099 103.13 123.885 102.682L125.037 101.898C125.218 102.176 125.458 102.394 125.757 102.554C126.066 102.714 126.391 102.794 126.732 102.794C127.116 102.794 127.436 102.693 127.692 102.49C127.948 102.277 128.076 102.005 128.076 101.674C128.076 101.429 127.98 101.227 127.788 101.067C127.607 100.907 127.228 100.715 126.653 100.491C125.703 100.128 125.032 99.7603 124.637 99.3871C124.253 99.0139 124.061 98.55 124.061 97.9955C124.061 97.3451 124.323 96.8226 124.845 96.428C125.368 96.0335 126.061 95.8362 126.924 95.8362C127.511 95.8362 128.033 95.9482 128.492 96.1721C128.961 96.396 129.329 96.7159 129.596 97.1318L128.524 97.9316C128.353 97.697 128.135 97.5157 127.868 97.3877C127.602 97.2598 127.308 97.1958 126.988 97.1958C126.647 97.1958 126.375 97.2651 126.173 97.4037C125.97 97.5317 125.869 97.713 125.869 97.9475C125.869 98.1182 125.911 98.2621 125.997 98.3794C126.082 98.486 126.237 98.598 126.461 98.7153C126.695 98.8326 127.047 98.9819 127.516 99.1632C128.412 99.515 129.03 99.8669 129.372 100.219C129.713 100.571 129.883 101.029 129.883 101.594C129.883 102.362 129.596 102.981 129.02 103.45C128.444 103.919 127.682 104.154 126.732 104.154ZM134.468 104.154C133.689 104.154 133.076 103.93 132.628 103.482C132.191 103.023 131.973 102.394 131.973 101.594V97.3557H130.533V95.9962H131.973V93.9168L133.732 93.389H133.796V95.9962H136.099V97.3557H133.796V101.354C133.796 101.834 133.897 102.192 134.1 102.426C134.313 102.65 134.638 102.762 135.076 102.762C135.545 102.762 135.929 102.698 136.227 102.57L136.323 103.85C135.886 104.052 135.268 104.154 134.468 104.154ZM140.929 104.154C139.671 104.154 138.68 103.786 137.954 103.05C137.24 102.303 136.883 101.285 136.883 99.9949C136.883 98.7046 137.24 97.6916 137.954 96.9559C138.68 96.2094 139.671 95.8362 140.929 95.8362C142.188 95.8362 143.174 96.2094 143.889 96.9559C144.614 97.6916 144.976 98.7046 144.976 99.9949C144.976 101.285 144.614 102.303 143.889 103.05C143.174 103.786 142.188 104.154 140.929 104.154ZM140.929 102.794C141.623 102.794 142.166 102.549 142.561 102.058C142.955 101.557 143.153 100.869 143.153 99.9949C143.153 99.1205 142.955 98.4381 142.561 97.9475C142.166 97.4464 141.623 97.1958 140.929 97.1958C140.236 97.1958 139.693 97.4464 139.298 97.9475C138.903 98.4381 138.706 99.1205 138.706 99.9949C138.706 100.869 138.903 101.557 139.298 102.058C139.693 102.549 140.236 102.794 140.929 102.794ZM146.356 98.0755C146.356 97.1158 146.329 96.4227 146.276 95.9962H147.875C147.929 96.4547 147.955 96.9239 147.955 97.4037H147.987C148.169 96.9132 148.483 96.5293 148.931 96.2521C149.379 95.9748 149.902 95.8362 150.499 95.8362C151.074 95.8362 151.565 95.9695 151.97 96.2361C152.375 96.492 152.647 96.8492 152.786 97.3078C152.999 96.8492 153.324 96.492 153.762 96.2361C154.209 95.9695 154.711 95.8362 155.265 95.8362C156.15 95.8362 156.843 96.1188 157.344 96.684C157.846 97.2491 158.096 98.0382 158.096 99.0512V103.994H156.305V99.2431C156.305 98.6247 156.172 98.1448 155.905 97.8036C155.638 97.4624 155.265 97.2918 154.785 97.2918C154.284 97.2918 153.879 97.473 153.57 97.8356C153.271 98.1875 153.122 98.662 153.122 99.2591V103.994H151.33V99.3071C151.33 98.6567 151.202 98.1608 150.947 97.8196C150.701 97.4677 150.344 97.2918 149.875 97.2918C149.384 97.2918 148.974 97.4837 148.643 97.8676C148.313 98.2515 148.147 98.7313 148.147 99.3071V103.994H146.356V98.0755ZM167.017 100.667H161.387C161.568 101.968 162.278 102.618 163.515 102.618C163.984 102.618 164.4 102.533 164.762 102.362C165.125 102.192 165.461 101.925 165.77 101.562L166.761 102.506C166.452 103.007 165.994 103.407 165.386 103.706C164.789 104.004 164.133 104.154 163.419 104.154C162.192 104.154 161.238 103.791 160.555 103.066C159.873 102.33 159.532 101.312 159.532 100.011C159.532 98.71 159.873 97.6916 160.555 96.9559C161.249 96.2094 162.192 95.8362 163.387 95.8362C164.528 95.8362 165.418 96.2041 166.058 96.9399C166.697 97.6756 167.017 98.694 167.017 99.9949V100.667ZM165.274 99.3071C165.274 98.678 165.103 98.1875 164.762 97.8356C164.421 97.4837 163.946 97.3078 163.339 97.3078C162.784 97.3078 162.336 97.4944 161.995 97.8676C161.664 98.2301 161.456 98.742 161.371 99.4031H165.274V99.3071ZM168.492 97.9475C168.492 97.0412 168.476 96.3907 168.444 95.9962H170.155C170.198 96.412 170.219 96.8812 170.219 97.4037V97.5637H170.267C170.47 97.0305 170.816 96.6093 171.307 96.3001C171.797 95.9908 172.363 95.8362 173.002 95.8362C173.194 95.8362 173.354 95.8522 173.482 95.8842V97.3237C173.376 97.3024 173.232 97.2918 173.05 97.2918C172.549 97.2918 172.085 97.4304 171.659 97.7076C171.243 97.9742 170.912 98.3421 170.667 98.8113C170.422 99.2805 170.299 99.787 170.299 100.331V103.994H168.492V97.9475ZM176.966 104.154C176.305 104.154 175.719 104.02 175.207 103.754C174.695 103.487 174.333 103.13 174.119 102.682L175.271 101.898C175.452 102.176 175.692 102.394 175.991 102.554C176.3 102.714 176.625 102.794 176.966 102.794C177.35 102.794 177.67 102.693 177.926 102.49C178.182 102.277 178.31 102.005 178.31 101.674C178.31 101.429 178.214 101.227 178.022 101.067C177.841 100.907 177.462 100.715 176.886 100.491C175.937 100.128 175.266 99.7603 174.871 99.3871C174.487 99.0139 174.295 98.55 174.295 97.9955C174.295 97.3451 174.557 96.8226 175.079 96.428C175.602 96.0335 176.295 95.8362 177.158 95.8362C177.745 95.8362 178.267 95.9482 178.726 96.1721C179.195 96.396 179.563 96.7159 179.83 97.1318L178.758 97.9316C178.587 97.697 178.369 97.5157 178.102 97.3877C177.836 97.2598 177.542 97.1958 177.222 97.1958C176.881 97.1958 176.609 97.2651 176.407 97.4037C176.204 97.5317 176.103 97.713 176.103 97.9475C176.103 98.1182 176.145 98.2621 176.231 98.3794C176.316 98.486 176.471 98.598 176.695 98.7153C176.929 98.8326 177.281 98.9819 177.75 99.1632C178.646 99.515 179.264 99.8669 179.606 100.219C179.947 100.571 180.117 101.029 180.117 101.594C180.117 102.362 179.83 102.981 179.254 103.45C178.678 103.919 177.916 104.154 176.966 104.154Z" fill="#343A40"/>
<circle cx="34.9965" cy="142.487" r="10.4967" stroke="#30AC63" stroke-width="0.999681"/>
<path fill-rule="evenodd" clip-rule="evenodd" d="M34.1143 144.413L32.2827 142.582C32.0764 142.375 31.7419 142.375 31.5356 142.582C31.3293 142.788 31.3293 143.122 31.5356 143.329L33.7408 145.534C33.9471 145.74 34.2815 145.74 34.4878 145.534L38.4572 141.565C38.6635 141.358 38.6635 141.024 38.4572 140.818C38.2509 140.611 37.9164 140.611 37.7101 140.818L34.1143 144.413Z" fill="#30AC63" />
<path d="M61.86 144.525L58.2452 137.791H60.4525L62.8677 142.669L65.2829 137.791H67.4902L63.8914 144.525V148.987H61.86V144.525ZM74.8124 145.66H69.1822C69.3635 146.961 70.0726 147.612 71.3095 147.612C71.7787 147.612 72.1946 147.526 72.5571 147.356C72.9197 147.185 73.2556 146.919 73.5648 146.556L74.5565 147.5C74.2472 148.001 73.7887 148.401 73.1809 148.699C72.5838 148.998 71.928 149.147 71.2135 149.147C69.9873 149.147 69.0329 148.785 68.3505 148.06C67.668 147.324 67.3268 146.305 67.3268 145.005C67.3268 143.704 67.668 142.685 68.3505 141.949C69.0436 141.203 69.9873 140.83 71.1816 140.83C72.3225 140.83 73.2129 141.198 73.8527 141.933C74.4925 142.669 74.8124 143.688 74.8124 144.989V145.66ZM73.069 144.301C73.069 143.672 72.8983 143.181 72.5571 142.829C72.2159 142.477 71.7414 142.301 71.1336 142.301C70.5791 142.301 70.1312 142.488 69.79 142.861C69.4594 143.224 69.2515 143.736 69.1662 144.397H73.069V144.301ZM78.5901 149.147C78.0676 149.147 77.5984 149.041 77.1825 148.827C76.7773 148.603 76.4574 148.299 76.2228 147.916C75.9989 147.532 75.8869 147.1 75.8869 146.62C75.8869 145.81 76.2015 145.186 76.8306 144.749C77.4704 144.311 78.3715 144.093 79.5338 144.093H80.9253V143.725C80.9253 143.245 80.7867 142.877 80.5095 142.621C80.2322 142.365 79.843 142.237 79.3418 142.237C78.862 142.237 78.4088 142.328 77.9823 142.509C77.5664 142.68 77.2198 142.931 76.9426 143.261L76.1109 142.189C76.5161 141.752 77.0066 141.416 77.5824 141.182C78.1582 140.947 78.766 140.83 79.4058 140.83C80.4508 140.83 81.2665 141.08 81.853 141.582C82.4395 142.072 82.7327 142.765 82.7327 143.661V147.34C82.7327 147.564 82.7541 147.836 82.7967 148.156C82.8394 148.465 82.8874 148.742 82.9407 148.987H81.3252C81.2292 148.763 81.1599 148.427 81.1173 147.98H81.0853C80.4668 148.758 79.6351 149.147 78.5901 149.147ZM79.0059 147.772C79.5498 147.772 80.0029 147.628 80.3655 147.34C80.7387 147.041 80.9253 146.679 80.9253 146.252V145.324H79.4858C78.8993 145.324 78.4461 145.436 78.1262 145.66C77.817 145.884 77.6624 146.204 77.6624 146.62C77.6624 146.983 77.7797 147.265 78.0143 147.468C78.2488 147.67 78.5794 147.772 79.0059 147.772ZM84.6748 142.941C84.6748 142.035 84.6588 141.384 84.6268 140.99H86.3382C86.3809 141.406 86.4022 141.875 86.4022 142.397V142.557H86.4502C86.6528 142.024 86.9993 141.603 87.4899 141.294C87.9804 140.984 88.5455 140.83 89.1853 140.83C89.3773 140.83 89.5372 140.846 89.6652 140.878V142.317C89.5585 142.296 89.4146 142.285 89.2333 142.285C88.7321 142.285 88.2683 142.424 87.8417 142.701C87.4259 142.968 87.0953 143.336 86.8501 143.805C86.6048 144.274 86.4822 144.781 86.4822 145.324V148.987H84.6748V142.941ZM93.1494 149.147C92.4883 149.147 91.9018 149.014 91.39 148.747C90.8782 148.481 90.5156 148.124 90.3023 147.676L91.454 146.892C91.6352 147.169 91.8752 147.388 92.1737 147.548C92.483 147.708 92.8082 147.788 93.1494 147.788C93.5333 147.788 93.8532 147.686 94.1091 147.484C94.365 147.27 94.493 146.999 94.493 146.668C94.493 146.423 94.397 146.22 94.2051 146.06C94.0238 145.9 93.6453 145.708 93.0695 145.484C92.1204 145.122 91.4486 144.754 91.0541 144.381C90.6702 144.007 90.4783 143.544 90.4783 142.989C90.4783 142.339 90.7395 141.816 91.262 141.422C91.7845 141.027 92.4776 140.83 93.3414 140.83C93.9278 140.83 94.4503 140.942 94.9089 141.166C95.3781 141.39 95.7459 141.71 96.0125 142.125L94.9409 142.925C94.7702 142.691 94.5516 142.509 94.2851 142.381C94.0185 142.253 93.7252 142.189 93.4053 142.189C93.0641 142.189 92.7922 142.259 92.5896 142.397C92.387 142.525 92.2857 142.707 92.2857 142.941C92.2857 143.112 92.3284 143.256 92.4137 143.373C92.499 143.48 92.6536 143.592 92.8775 143.709C93.1121 143.826 93.464 143.976 93.9332 144.157C94.8289 144.509 95.4474 144.861 95.7886 145.212C96.1298 145.564 96.3004 146.023 96.3004 146.588C96.3004 147.356 96.0125 147.974 95.4367 148.443C94.8609 148.913 94.0985 149.147 93.1494 149.147ZM105.128 149.147C103.87 149.147 102.878 148.779 102.153 148.044C101.439 147.297 101.082 146.279 101.082 144.989C101.082 143.698 101.439 142.685 102.153 141.949C102.878 141.203 103.87 140.83 105.128 140.83C106.387 140.83 107.373 141.203 108.087 141.949C108.813 142.685 109.175 143.698 109.175 144.989C109.175 146.279 108.813 147.297 108.087 148.044C107.373 148.779 106.387 149.147 105.128 149.147ZM105.128 147.788C105.821 147.788 106.365 147.542 106.76 147.052C107.154 146.551 107.352 145.863 107.352 144.989C107.352 144.114 107.154 143.432 106.76 142.941C106.365 142.44 105.821 142.189 105.128 142.189C104.435 142.189 103.891 142.44 103.497 142.941C103.102 143.432 102.905 144.114 102.905 144.989C102.905 145.863 103.102 146.551 103.497 147.052C103.891 147.542 104.435 147.788 105.128 147.788ZM111.179 142.237H109.867V140.99H111.179V140.014C111.179 139.236 111.419 138.628 111.898 138.191C112.378 137.743 113.034 137.519 113.866 137.519C114.228 137.519 114.57 137.578 114.889 137.695C115.209 137.801 115.476 137.956 115.689 138.159L115.049 139.246C114.921 139.14 114.772 139.054 114.602 138.99C114.431 138.926 114.255 138.894 114.074 138.894C113.743 138.894 113.482 139.006 113.29 139.23C113.098 139.444 113.002 139.742 113.002 140.126V140.99H115.257V142.237H113.002V148.987H111.179V142.237ZM122.609 149.147C121.948 149.147 121.361 149.014 120.849 148.747C120.338 148.481 119.975 148.124 119.762 147.676L120.913 146.892C121.095 147.169 121.335 147.388 121.633 147.548C121.942 147.708 122.268 147.788 122.609 147.788C122.993 147.788 123.313 147.686 123.568 147.484C123.824 147.27 123.952 146.999 123.952 146.668C123.952 146.423 123.856 146.22 123.664 146.06C123.483 145.9 123.105 145.708 122.529 145.484C121.58 145.122 120.908 144.754 120.513 144.381C120.13 144.007 119.938 143.544 119.938 142.989C119.938 142.339 120.199 141.816 120.721 141.422C121.244 141.027 121.937 140.83 122.801 140.83C123.387 140.83 123.91 140.942 124.368 141.166C124.837 141.39 125.205 141.71 125.472 142.125L124.4 142.925C124.23 142.691 124.011 142.509 123.744 142.381C123.478 142.253 123.185 142.189 122.865 142.189C122.523 142.189 122.252 142.259 122.049 142.397C121.846 142.525 121.745 142.707 121.745 142.941C121.745 143.112 121.788 143.256 121.873 143.373C121.958 143.48 122.113 143.592 122.337 143.709C122.571 143.826 122.923 143.976 123.393 144.157C124.288 144.509 124.907 144.861 125.248 145.212C125.589 145.564 125.76 146.023 125.76 146.588C125.76 147.356 125.472 147.974 124.896 148.443C124.32 148.913 123.558 149.147 122.609 149.147ZM129.848 149.147C128.931 149.147 128.238 148.843 127.769 148.235C127.3 147.628 127.065 146.727 127.065 145.532V140.99H128.873V145.548C128.873 146.273 128.995 146.812 129.241 147.164C129.486 147.505 129.864 147.676 130.376 147.676C130.984 147.676 131.48 147.446 131.864 146.988C132.258 146.529 132.456 145.959 132.456 145.276V140.99H134.263V147.068C134.263 147.654 134.311 148.294 134.407 148.987H132.695C132.599 148.475 132.551 148.006 132.551 147.58H132.504C132.29 148.06 131.944 148.443 131.464 148.731C130.995 149.009 130.456 149.147 129.848 149.147ZM139.519 149.147C138.293 149.147 137.333 148.779 136.64 148.044C135.958 147.308 135.616 146.289 135.616 144.989C135.616 143.688 135.958 142.669 136.64 141.933C137.333 141.198 138.293 140.83 139.519 140.83C140.234 140.83 140.863 140.968 141.407 141.246C141.95 141.512 142.372 141.896 142.67 142.397L141.582 143.357C141.369 143.005 141.087 142.733 140.735 142.541C140.383 142.339 140.004 142.237 139.599 142.237C138.917 142.237 138.384 142.483 138 142.973C137.616 143.453 137.424 144.125 137.424 144.989C137.424 145.842 137.616 146.513 138 147.004C138.384 147.494 138.917 147.74 139.599 147.74C140.004 147.74 140.383 147.638 140.735 147.436C141.087 147.233 141.369 146.956 141.582 146.604L142.67 147.564C142.372 148.076 141.95 148.47 141.407 148.747C140.873 149.014 140.244 149.147 139.519 149.147ZM147.298 149.147C146.072 149.147 145.112 148.779 144.419 148.044C143.736 147.308 143.395 146.289 143.395 144.989C143.395 143.688 143.736 142.669 144.419 141.933C145.112 141.198 146.072 140.83 147.298 140.83C148.012 140.83 148.641 140.968 149.185 141.246C149.729 141.512 150.15 141.896 150.449 142.397L149.361 143.357C149.148 143.005 148.865 142.733 148.514 142.541C148.162 142.339 147.783 142.237 147.378 142.237C146.695 142.237 146.162 142.483 145.778 142.973C145.395 143.453 145.203 144.125 145.203 144.989C145.203 145.842 145.395 146.513 145.778 147.004C146.162 147.494 146.695 147.74 147.378 147.74C147.783 147.74 148.162 147.638 148.514 147.436C148.865 147.233 149.148 146.956 149.361 146.604L150.449 147.564C150.15 148.076 149.729 148.47 149.185 148.747C148.652 149.014 148.023 149.147 147.298 149.147ZM158.708 145.66H153.077C153.259 146.961 153.968 147.612 155.205 147.612C155.674 147.612 156.09 147.526 156.452 147.356C156.815 147.185 157.151 146.919 157.46 146.556L158.452 147.5C158.142 148.001 157.684 148.401 157.076 148.699C156.479 148.998 155.823 149.147 155.109 149.147C153.882 149.147 152.928 148.785 152.246 148.06C151.563 147.324 151.222 146.305 151.222 145.005C151.222 143.704 151.563 142.685 152.246 141.949C152.939 141.203 153.882 140.83 155.077 140.83C156.218 140.83 157.108 141.198 157.748 141.933C158.388 142.669 158.708 143.688 158.708 144.989V145.66ZM156.964 144.301C156.964 143.672 156.793 143.181 156.452 142.829C156.111 142.477 155.637 142.301 155.029 142.301C154.474 142.301 154.026 142.488 153.685 142.861C153.355 143.224 153.147 143.736 153.061 144.397H156.964V144.301ZM162.862 149.147C162.2 149.147 161.614 149.014 161.102 148.747C160.59 148.481 160.228 148.124 160.014 147.676L161.166 146.892C161.347 147.169 161.587 147.388 161.886 147.548C162.195 147.708 162.52 147.788 162.862 147.788C163.245 147.788 163.565 147.686 163.821 147.484C164.077 147.27 164.205 146.999 164.205 146.668C164.205 146.423 164.109 146.22 163.917 146.06C163.736 145.9 163.357 145.708 162.782 145.484C161.833 145.122 161.161 144.754 160.766 144.381C160.382 144.007 160.19 143.544 160.19 142.989C160.19 142.339 160.452 141.816 160.974 141.422C161.497 141.027 162.19 140.83 163.054 140.83C163.64 140.83 164.163 140.942 164.621 141.166C165.09 141.39 165.458 141.71 165.725 142.125L164.653 142.925C164.482 142.691 164.264 142.509 163.997 142.381C163.731 142.253 163.437 142.189 163.118 142.189C162.776 142.189 162.504 142.259 162.302 142.397C162.099 142.525 161.998 142.707 161.998 142.941C161.998 143.112 162.041 143.256 162.126 143.373C162.211 143.48 162.366 143.592 162.59 143.709C162.824 143.826 163.176 143.976 163.645 144.157C164.541 144.509 165.16 144.861 165.501 145.212C165.842 145.564 166.013 146.023 166.013 146.588C166.013 147.356 165.725 147.974 165.149 148.443C164.573 148.913 163.811 149.147 162.862 149.147ZM169.781 149.147C169.12 149.147 168.534 149.014 168.022 148.747C167.51 148.481 167.147 148.124 166.934 147.676L168.086 146.892C168.267 147.169 168.507 147.388 168.806 147.548C169.115 147.708 169.44 147.788 169.781 147.788C170.165 147.788 170.485 147.686 170.741 147.484C170.997 147.27 171.125 146.999 171.125 146.668C171.125 146.423 171.029 146.22 170.837 146.06C170.656 145.9 170.277 145.708 169.701 145.484C168.752 145.122 168.08 144.754 167.686 144.381C167.302 144.007 167.11 143.544 167.11 142.989C167.11 142.339 167.371 141.816 167.894 141.422C168.416 141.027 169.109 140.83 169.973 140.83C170.56 140.83 171.082 140.942 171.541 141.166C172.01 141.39 172.378 141.71 172.644 142.125L171.573 142.925C171.402 142.691 171.183 142.509 170.917 142.381C170.65 142.253 170.357 142.189 170.037 142.189C169.696 142.189 169.424 142.259 169.221 142.397C169.019 142.525 168.918 142.707 168.918 142.941C168.918 143.112 168.96 143.256 169.045 143.373C169.131 143.48 169.285 143.592 169.509 143.709C169.744 143.826 170.096 143.976 170.565 144.157C171.461 144.509 172.079 144.861 172.42 145.212C172.762 145.564 172.932 146.023 172.932 146.588C172.932 147.356 172.644 147.974 172.069 148.443C171.493 148.913 170.73 149.147 169.781 149.147ZM174.862 142.237H173.55V140.99H174.862V140.014C174.862 139.236 175.101 138.628 175.581 138.191C176.061 137.743 176.717 137.519 177.549 137.519C177.911 137.519 178.252 137.578 178.572 137.695C178.892 137.801 179.159 137.956 179.372 138.159L178.732 139.246C178.604 139.14 178.455 139.054 178.284 138.99C178.114 138.926 177.938 138.894 177.757 138.894C177.426 138.894 177.165 139.006 176.973 139.23C176.781 139.444 176.685 139.742 176.685 140.126V140.99H178.94V142.237H176.685V148.987H174.862V142.237ZM182.816 149.147C181.899 149.147 181.206 148.843 180.737 148.235C180.267 147.628 180.033 146.727 180.033 145.532V140.99H181.84V145.548C181.84 146.273 181.963 146.812 182.208 147.164C182.453 147.505 182.832 147.676 183.344 147.676C183.951 147.676 184.447 147.446 184.831 146.988C185.226 146.529 185.423 145.959 185.423 145.276V140.99H187.23V147.068C187.23 147.654 187.278 148.294 187.374 148.987H185.663C185.567 148.475 185.519 148.006 185.519 147.58H185.471C185.258 148.06 184.911 148.443 184.431 148.731C183.962 149.009 183.424 149.147 182.816 149.147ZM191.063 149.147C190.413 149.147 189.917 148.971 189.576 148.619C189.245 148.257 189.08 147.729 189.08 147.036V137.119H190.903V147.052C190.903 147.34 190.962 147.548 191.079 147.676C191.196 147.793 191.388 147.852 191.655 147.852C191.921 147.852 192.215 147.782 192.535 147.644L192.807 148.651C192.348 148.982 191.767 149.147 191.063 149.147ZM201.238 149.147C199.98 149.147 198.988 148.779 198.263 148.044C197.549 147.297 197.192 146.279 197.192 144.989C197.192 143.698 197.549 142.685 198.263 141.949C198.988 141.203 199.98 140.83 201.238 140.83C202.497 140.83 203.483 141.203 204.197 141.949C204.923 142.685 205.285 143.698 205.285 144.989C205.285 146.279 204.923 147.297 204.197 148.044C203.483 148.779 202.497 149.147 201.238 149.147ZM201.238 147.788C201.931 147.788 202.475 147.542 202.87 147.052C203.264 146.551 203.462 145.863 203.462 144.989C203.462 144.114 203.264 143.432 202.87 142.941C202.475 142.44 201.931 142.189 201.238 142.189C200.545 142.189 200.001 142.44 199.607 142.941C199.212 143.432 199.015 144.114 199.015 144.989C199.015 145.863 199.212 146.551 199.607 147.052C200.001 147.542 200.545 147.788 201.238 147.788ZM206.729 143.069C206.729 142.429 206.702 141.736 206.649 140.99H208.36C208.392 141.342 208.408 141.715 208.408 142.109H208.44C208.686 141.704 209.027 141.39 209.464 141.166C209.912 140.942 210.397 140.83 210.92 140.83C211.943 140.83 212.748 141.203 213.335 141.949C213.921 142.685 214.214 143.698 214.214 144.989C214.214 146.279 213.916 147.297 213.319 148.044C212.722 148.779 211.906 149.147 210.872 149.147C210.349 149.147 209.885 149.057 209.48 148.875C209.075 148.683 208.776 148.422 208.584 148.092H208.536V152.858H206.729V143.069ZM210.504 147.788C211.101 147.788 211.565 147.537 211.895 147.036C212.236 146.535 212.407 145.836 212.407 144.941C212.407 144.055 212.247 143.384 211.927 142.925C211.607 142.467 211.138 142.237 210.52 142.237C209.933 142.237 209.453 142.419 209.08 142.781C208.718 143.144 208.536 143.608 208.536 144.173V145.756C208.536 146.343 208.723 146.828 209.096 147.212C209.469 147.596 209.938 147.788 210.504 147.788ZM222.75 145.66H217.119C217.301 146.961 218.01 147.612 219.247 147.612C219.716 147.612 220.132 147.526 220.494 147.356C220.857 147.185 221.193 146.919 221.502 146.556L222.494 147.5C222.184 148.001 221.726 148.401 221.118 148.699C220.521 148.998 219.865 149.147 219.151 149.147C217.924 149.147 216.97 148.785 216.288 148.06C215.605 147.324 215.264 146.305 215.264 145.005C215.264 143.704 215.605 142.685 216.288 141.949C216.981 141.203 217.924 140.83 219.119 140.83C220.26 140.83 221.15 141.198 221.79 141.933C222.43 142.669 222.75 143.688 222.75 144.989V145.66ZM221.006 144.301C221.006 143.672 220.836 143.181 220.494 142.829C220.153 142.477 219.679 142.301 219.071 142.301C218.516 142.301 218.068 142.488 217.727 142.861C217.397 143.224 217.189 143.736 217.103 144.397H221.006V144.301ZM224.224 142.941C224.224 142.035 224.208 141.384 224.176 140.99H225.888C225.93 141.406 225.951 141.875 225.951 142.397V142.557H225.999C226.202 142.024 226.549 141.603 227.039 141.294C227.53 140.984 228.095 140.83 228.735 140.83C228.927 140.83 229.086 140.846 229.214 140.878V142.317C229.108 142.296 228.964 142.285 228.783 142.285C228.281 142.285 227.818 142.424 227.391 142.701C226.975 142.968 226.645 143.336 226.399 143.805C226.154 144.274 226.031 144.781 226.031 145.324V148.987H224.224V142.941ZM232.635 149.147C232.112 149.147 231.643 149.041 231.227 148.827C230.822 148.603 230.502 148.299 230.267 147.916C230.044 147.532 229.932 147.1 229.932 146.62C229.932 145.81 230.246 145.186 230.875 144.749C231.515 144.311 232.416 144.093 233.578 144.093H234.97V143.725C234.97 143.245 234.831 142.877 234.554 142.621C234.277 142.365 233.888 142.237 233.386 142.237C232.907 142.237 232.453 142.328 232.027 142.509C231.611 142.68 231.264 142.931 230.987 143.261L230.156 142.189C230.561 141.752 231.051 141.416 231.627 141.182C232.203 140.947 232.811 140.83 233.45 140.83C234.495 140.83 235.311 141.08 235.898 141.582C236.484 142.072 236.777 142.765 236.777 143.661V147.34C236.777 147.564 236.799 147.836 236.841 148.156C236.884 148.465 236.932 148.742 236.985 148.987H235.37C235.274 148.763 235.205 148.427 235.162 147.98H235.13C234.511 148.758 233.68 149.147 232.635 149.147ZM233.051 147.772C233.594 147.772 234.048 147.628 234.41 147.34C234.783 147.041 234.97 146.679 234.97 146.252V145.324H233.53C232.944 145.324 232.491 145.436 232.171 145.66C231.862 145.884 231.707 146.204 231.707 146.62C231.707 146.983 231.824 147.265 232.059 147.468C232.293 147.67 232.624 147.772 233.051 147.772ZM241.902 149.147C241.124 149.147 240.511 148.923 240.063 148.475C239.626 148.017 239.407 147.388 239.407 146.588V142.349H237.968V140.99H239.407V138.91L241.167 138.383H241.231V140.99H243.534V142.349H241.231V146.348C241.231 146.828 241.332 147.185 241.535 147.42C241.748 147.644 242.073 147.756 242.51 147.756C242.979 147.756 243.363 147.692 243.662 147.564L243.758 148.843C243.321 149.046 242.702 149.147 241.902 149.147ZM246.385 139.902C246.022 139.902 245.729 139.806 245.505 139.614C245.292 139.412 245.185 139.145 245.185 138.814C245.185 138.473 245.292 138.207 245.505 138.015C245.729 137.812 246.022 137.711 246.385 137.711C246.748 137.711 247.035 137.812 247.249 138.015C247.473 138.207 247.585 138.473 247.585 138.814C247.585 139.145 247.473 139.412 247.249 139.614C247.035 139.806 246.748 139.902 246.385 139.902ZM245.473 140.99H247.297V148.987H245.473V140.99ZM253.066 149.147C251.807 149.147 250.816 148.779 250.091 148.044C249.376 147.297 249.019 146.279 249.019 144.989C249.019 143.698 249.376 142.685 250.091 141.949C250.816 141.203 251.807 140.83 253.066 140.83C254.324 140.83 255.31 141.203 256.025 141.949C256.75 142.685 257.112 143.698 257.112 144.989C257.112 146.279 256.75 147.297 256.025 148.044C255.31 148.779 254.324 149.147 253.066 149.147ZM253.066 147.788C253.759 147.788 254.303 147.542 254.697 147.052C255.092 146.551 255.289 145.863 255.289 144.989C255.289 144.114 255.092 143.432 254.697 142.941C254.303 142.44 253.759 142.189 253.066 142.189C252.372 142.189 251.829 142.44 251.434 142.941C251.04 143.432 250.842 144.114 250.842 144.989C250.842 145.863 251.04 146.551 251.434 147.052C251.829 147.542 252.372 147.788 253.066 147.788ZM258.476 143.069C258.476 142.077 258.455 141.384 258.412 140.99H260.108C260.161 141.491 260.188 141.96 260.188 142.397H260.22C260.422 141.917 260.769 141.539 261.259 141.262C261.75 140.974 262.294 140.83 262.891 140.83C263.818 140.83 264.517 141.139 264.986 141.758C265.455 142.365 265.69 143.272 265.69 144.477V148.987H263.866V144.461C263.866 143.714 263.744 143.165 263.499 142.813C263.264 142.461 262.885 142.285 262.363 142.285C261.744 142.285 261.243 142.504 260.859 142.941C260.475 143.368 260.284 143.922 260.284 144.605V148.987H258.476V143.069Z" fill="#343A40" />
<circle cx="34.9965" cy="187.481" r="10.4967" stroke="#30AC63" stroke-width="0.999681"/>
<path fill-rule="evenodd" clip-rule="evenodd" d="M34.1143 189.407L32.2827 187.575C32.0764 187.369 31.7419 187.369 31.5356 187.575C31.3293 187.782 31.3293 188.116 31.5356 188.322L33.7408 190.528C33.9471 190.734 34.2815 190.734 34.4878 190.528L38.4572 186.558C38.6635 186.352 38.6635 186.017 38.4572 185.811C38.2509 185.605 37.9164 185.605 37.7101 185.811L34.1143 189.407Z" fill="#30AC63" />
<path d="M63.5715 194.141C62.5478 194.141 61.6521 193.906 60.8843 193.437C60.1272 192.968 59.5408 192.301 59.1249 191.438C58.709 190.563 58.5011 189.545 58.5011 188.383C58.5011 187.21 58.709 186.191 59.1249 185.328C59.5408 184.464 60.1326 183.797 60.9003 183.328C61.6681 182.859 62.5691 182.625 63.6035 182.625C64.4672 182.625 65.2243 182.79 65.8747 183.12C66.5252 183.451 67.0051 183.915 67.3143 184.512L66.1627 185.552C65.5868 184.688 64.7391 184.256 63.6195 184.256C62.6278 184.256 61.8654 184.613 61.3322 185.328C60.799 186.031 60.5324 187.05 60.5324 188.383C60.5324 189.705 60.7937 190.723 61.3162 191.438C61.8387 192.152 62.5851 192.509 63.5555 192.509C64.7391 192.509 65.6082 192.072 66.1627 191.198L67.3143 192.237C67.0051 192.845 66.5252 193.314 65.8747 193.645C65.2243 193.976 64.4565 194.141 63.5715 194.141ZM69.8319 184.896C69.4693 184.896 69.1761 184.8 68.9521 184.608C68.7389 184.405 68.6322 184.139 68.6322 183.808C68.6322 183.467 68.7389 183.2 68.9521 183.008C69.1761 182.806 69.4693 182.704 69.8319 182.704C70.1944 182.704 70.4823 182.806 70.6956 183.008C70.9195 183.2 71.0315 183.467 71.0315 183.808C71.0315 184.139 70.9195 184.405 70.6956 184.608C70.4823 184.8 70.1944 184.896 69.8319 184.896ZM68.9201 185.983H70.7436V193.981H68.9201V185.983ZM76.0646 194.141C75.2862 194.141 74.6731 193.917 74.2252 193.469C73.788 193.011 73.5694 192.381 73.5694 191.582V187.343H72.1299V185.983H73.5694V183.904L75.3289 183.376H75.3928V185.983H77.6961V187.343H75.3928V191.342C75.3928 191.822 75.4941 192.179 75.6967 192.413C75.91 192.637 76.2352 192.749 76.6724 192.749C77.1416 192.749 77.5255 192.685 77.8241 192.557L77.92 193.837C77.4828 194.04 76.8644 194.141 76.0646 194.141ZM80.5472 184.896C80.1846 184.896 79.8914 184.8 79.6675 184.608C79.4542 184.405 79.3476 184.139 79.3476 183.808C79.3476 183.467 79.4542 183.2 79.6675 183.008C79.8914 182.806 80.1846 182.704 80.5472 182.704C80.9097 182.704 81.1977 182.806 81.4109 183.008C81.6348 183.2 81.7468 183.467 81.7468 183.808C81.7468 184.139 81.6348 184.405 81.4109 184.608C81.1977 184.8 80.9097 184.896 80.5472 184.896ZM79.6355 185.983H81.4589V193.981H79.6355V185.983ZM90.6667 190.654H85.0365C85.2178 191.955 85.9269 192.605 87.1638 192.605C87.633 192.605 88.0489 192.52 88.4114 192.349C88.774 192.179 89.1099 191.912 89.4191 191.55L90.4108 192.493C90.1016 192.995 89.643 193.394 89.0352 193.693C88.4381 193.992 87.7823 194.141 87.0679 194.141C85.8416 194.141 84.8872 193.778 84.2048 193.053C83.5223 192.317 83.1811 191.299 83.1811 189.998C83.1811 188.697 83.5223 187.679 84.2048 186.943C84.8979 186.197 85.8416 185.823 87.0359 185.823C88.1768 185.823 89.0672 186.191 89.707 186.927C90.3468 187.663 90.6667 188.681 90.6667 189.982V190.654ZM88.9233 189.294C88.9233 188.665 88.7527 188.175 88.4114 187.823C88.0702 187.471 87.5957 187.295 86.9879 187.295C86.4334 187.295 85.9855 187.482 85.6443 187.855C85.3138 188.217 85.1058 188.729 85.0205 189.39H88.9233V189.294ZM94.8208 194.141C94.1596 194.141 93.5732 194.008 93.0613 193.741C92.5495 193.474 92.1869 193.117 91.9737 192.669L93.1253 191.886C93.3066 192.163 93.5465 192.381 93.8451 192.541C94.1543 192.701 94.4795 192.781 94.8208 192.781C95.2046 192.781 95.5245 192.68 95.7805 192.477C96.0364 192.264 96.1643 191.992 96.1643 191.662C96.1643 191.416 96.0684 191.214 95.8764 191.054C95.6952 190.894 95.3166 190.702 94.7408 190.478C93.7918 190.115 93.12 189.748 92.7254 189.374C92.3416 189.001 92.1496 188.537 92.1496 187.983C92.1496 187.332 92.4109 186.81 92.9334 186.415C93.4559 186.021 94.149 185.823 95.0127 185.823C95.5992 185.823 96.1217 185.935 96.5802 186.159C97.0494 186.383 97.4173 186.703 97.6839 187.119L96.6122 187.919C96.4416 187.684 96.223 187.503 95.9564 187.375C95.6898 187.247 95.3966 187.183 95.0767 187.183C94.7355 187.183 94.4635 187.252 94.2609 187.391C94.0583 187.519 93.957 187.7 93.957 187.935C93.957 188.105 93.9997 188.249 94.085 188.367C94.1703 188.473 94.3249 188.585 94.5489 188.703C94.7834 188.82 95.1353 188.969 95.6045 189.15C96.5002 189.502 97.1187 189.854 97.4599 190.206C97.8012 190.558 97.9718 191.017 97.9718 191.582C97.9718 192.349 97.6839 192.968 97.108 193.437C96.5322 193.906 95.7698 194.141 94.8208 194.141ZM105.472 194.141C104.95 194.141 104.48 194.034 104.065 193.821C103.659 193.597 103.339 193.293 103.105 192.909C102.881 192.525 102.769 192.093 102.769 191.614C102.769 190.803 103.084 190.179 103.713 189.742C104.352 189.305 105.254 189.086 106.416 189.086H107.807V188.719C107.807 188.239 107.669 187.871 107.392 187.615C107.114 187.359 106.725 187.231 106.224 187.231C105.744 187.231 105.291 187.322 104.864 187.503C104.448 187.674 104.102 187.924 103.825 188.255L102.993 187.183C103.398 186.746 103.889 186.41 104.464 186.175C105.04 185.941 105.648 185.823 106.288 185.823C107.333 185.823 108.149 186.074 108.735 186.575C109.322 187.066 109.615 187.759 109.615 188.655V192.333C109.615 192.557 109.636 192.829 109.679 193.149C109.721 193.458 109.769 193.736 109.823 193.981H108.207C108.111 193.757 108.042 193.421 107.999 192.973H107.967C107.349 193.752 106.517 194.141 105.472 194.141ZM105.888 192.765C106.432 192.765 106.885 192.621 107.248 192.333C107.621 192.035 107.807 191.672 107.807 191.246V190.318H106.368C105.781 190.318 105.328 190.43 105.008 190.654C104.699 190.878 104.544 191.198 104.544 191.614C104.544 191.976 104.662 192.259 104.896 192.461C105.131 192.664 105.461 192.765 105.888 192.765ZM111.445 188.063C111.445 187.071 111.424 186.378 111.381 185.983H113.076C113.13 186.485 113.156 186.954 113.156 187.391H113.188C113.391 186.911 113.737 186.533 114.228 186.255C114.718 185.967 115.262 185.823 115.859 185.823C116.787 185.823 117.486 186.133 117.955 186.751C118.424 187.359 118.659 188.265 118.659 189.47V193.981H116.835V189.454C116.835 188.708 116.712 188.159 116.467 187.807C116.233 187.455 115.854 187.279 115.332 187.279C114.713 187.279 114.212 187.498 113.828 187.935C113.444 188.361 113.252 188.916 113.252 189.598V193.981H111.445V188.063ZM123.387 194.141C122.342 194.141 121.52 193.757 120.923 192.989C120.326 192.221 120.028 191.171 120.028 189.838C120.028 189.028 120.166 188.324 120.443 187.727C120.721 187.119 121.115 186.65 121.627 186.319C122.139 185.989 122.741 185.823 123.435 185.823C124.384 185.823 125.13 186.175 125.674 186.879H125.706V182.113H127.513V191.886C127.513 192.963 127.529 193.661 127.561 193.981H125.866C125.844 193.768 125.834 193.389 125.834 192.845H125.802C125.557 193.229 125.21 193.544 124.762 193.789C124.325 194.024 123.866 194.141 123.387 194.141ZM123.722 192.733C124.32 192.733 124.794 192.557 125.146 192.205C125.509 191.854 125.69 191.379 125.69 190.782V189.198C125.69 188.612 125.503 188.132 125.13 187.759C124.767 187.375 124.298 187.183 123.722 187.183C123.115 187.183 122.645 187.418 122.315 187.887C121.995 188.356 121.835 189.017 121.835 189.87C121.835 190.777 122 191.48 122.331 191.982C122.661 192.483 123.125 192.733 123.722 192.733ZM136.311 194.141C135.533 194.141 134.919 193.917 134.472 193.469C134.034 193.011 133.816 192.381 133.816 191.582V187.343H132.376V185.983H133.816V183.904L135.575 183.376H135.639V185.983H137.943V187.343H135.639V191.342C135.639 191.822 135.741 192.179 135.943 192.413C136.156 192.637 136.482 192.749 136.919 192.749C137.388 192.749 137.772 192.685 138.07 192.557L138.166 193.837C137.729 194.04 137.111 194.141 136.311 194.141ZM142.773 194.141C141.514 194.141 140.523 193.773 139.798 193.037C139.083 192.291 138.726 191.272 138.726 189.982C138.726 188.692 139.083 187.679 139.798 186.943C140.523 186.197 141.514 185.823 142.773 185.823C144.031 185.823 145.017 186.197 145.732 186.943C146.457 187.679 146.819 188.692 146.819 189.982C146.819 191.272 146.457 192.291 145.732 193.037C145.017 193.773 144.031 194.141 142.773 194.141ZM142.773 192.781C143.466 192.781 144.01 192.536 144.404 192.046C144.799 191.544 144.996 190.857 144.996 189.982C144.996 189.108 144.799 188.425 144.404 187.935C144.01 187.434 143.466 187.183 142.773 187.183C142.079 187.183 141.536 187.434 141.141 187.935C140.747 188.425 140.549 189.108 140.549 189.982C140.549 190.857 140.747 191.544 141.141 192.046C141.536 192.536 142.079 192.781 142.773 192.781ZM158.26 185.983L156.229 193.981H154.613L152.902 187.919L151.19 193.981H149.591L147.559 185.983H149.447L150.55 191.326L152.102 185.983H153.717L155.269 191.358L156.373 185.983H158.26ZM159.289 188.063C159.289 187.071 159.268 186.378 159.225 185.983H160.92C160.974 186.485 161 186.954 161 187.391H161.032C161.235 186.911 161.582 186.533 162.072 186.255C162.563 185.967 163.106 185.823 163.704 185.823C164.631 185.823 165.33 186.133 165.799 186.751C166.268 187.359 166.503 188.265 166.503 189.47V193.981H164.679V189.454C164.679 188.708 164.557 188.159 164.311 187.807C164.077 187.455 163.698 187.279 163.176 187.279C162.557 187.279 162.056 187.498 161.672 187.935C161.288 188.361 161.096 188.916 161.096 189.598V193.981H159.289V188.063ZM170.703 194.141C170.042 194.141 169.455 194.008 168.943 193.741C168.432 193.474 168.069 193.117 167.856 192.669L169.007 191.886C169.189 192.163 169.429 192.381 169.727 192.541C170.036 192.701 170.362 192.781 170.703 192.781C171.087 192.781 171.407 192.68 171.663 192.477C171.918 192.264 172.046 191.992 172.046 191.662C172.046 191.416 171.95 191.214 171.758 191.054C171.577 190.894 171.199 190.702 170.623 190.478C169.674 190.115 169.002 189.748 168.608 189.374C168.224 189.001 168.032 188.537 168.032 187.983C168.032 187.332 168.293 186.81 168.815 186.415C169.338 186.021 170.031 185.823 170.895 185.823C171.481 185.823 172.004 185.935 172.462 186.159C172.931 186.383 173.299 186.703 173.566 187.119L172.494 187.919C172.324 187.684 172.105 187.503 171.838 187.375C171.572 187.247 171.279 187.183 170.959 187.183C170.618 187.183 170.346 187.252 170.143 187.391C169.94 187.519 169.839 187.7 169.839 187.935C169.839 188.105 169.882 188.249 169.967 188.367C170.052 188.473 170.207 188.585 170.431 188.703C170.666 188.82 171.017 188.969 171.487 189.15C172.382 189.502 173.001 189.854 173.342 190.206C173.683 190.558 173.854 191.017 173.854 191.582C173.854 192.349 173.566 192.968 172.99 193.437C172.414 193.906 171.652 194.141 170.703 194.141ZM182.49 194.141C181.264 194.141 180.304 193.773 179.611 193.037C178.928 192.301 178.587 191.283 178.587 189.982C178.587 188.681 178.928 187.663 179.611 186.927C180.304 186.191 181.264 185.823 182.49 185.823C183.204 185.823 183.833 185.962 184.377 186.239C184.921 186.506 185.342 186.89 185.641 187.391L184.553 188.351C184.34 187.999 184.057 187.727 183.705 187.535C183.354 187.332 182.975 187.231 182.57 187.231C181.887 187.231 181.354 187.476 180.97 187.967C180.586 188.447 180.394 189.118 180.394 189.982C180.394 190.835 180.586 191.507 180.97 191.998C181.354 192.488 181.887 192.733 182.57 192.733C182.975 192.733 183.354 192.632 183.705 192.429C184.057 192.227 184.34 191.95 184.553 191.598L185.641 192.557C185.342 193.069 184.921 193.464 184.377 193.741C183.844 194.008 183.215 194.141 182.49 194.141ZM190.461 194.141C189.202 194.141 188.211 193.773 187.485 193.037C186.771 192.291 186.414 191.272 186.414 189.982C186.414 188.692 186.771 187.679 187.485 186.943C188.211 186.197 189.202 185.823 190.461 185.823C191.719 185.823 192.705 186.197 193.42 186.943C194.145 187.679 194.507 188.692 194.507 189.982C194.507 191.272 194.145 192.291 193.42 193.037C192.705 193.773 191.719 194.141 190.461 194.141ZM190.461 192.781C191.154 192.781 191.697 192.536 192.092 192.046C192.487 191.544 192.684 190.857 192.684 189.982C192.684 189.108 192.487 188.425 192.092 187.935C191.697 187.434 191.154 187.183 190.461 187.183C189.767 187.183 189.224 187.434 188.829 187.935C188.435 188.425 188.237 189.108 188.237 189.982C188.237 190.857 188.435 191.544 188.829 192.046C189.224 192.536 189.767 192.781 190.461 192.781ZM202.865 185.983L199.778 193.981H198.178L195.091 185.983H196.962L198.978 191.774L200.993 185.983H202.865ZM210.769 190.654H205.139C205.32 191.955 206.029 192.605 207.266 192.605C207.735 192.605 208.151 192.52 208.514 192.349C208.876 192.179 209.212 191.912 209.521 191.55L210.513 192.493C210.204 192.995 209.745 193.394 209.138 193.693C208.54 193.992 207.885 194.141 207.17 194.141C205.944 194.141 204.99 193.778 204.307 193.053C203.625 192.317 203.283 191.299 203.283 189.998C203.283 188.697 203.625 187.679 204.307 186.943C205 186.197 205.944 185.823 207.138 185.823C208.279 185.823 209.17 186.191 209.809 186.927C210.449 187.663 210.769 188.681 210.769 189.982V190.654ZM209.026 189.294C209.026 188.665 208.855 188.175 208.514 187.823C208.173 187.471 207.698 187.295 207.09 187.295C206.536 187.295 206.088 187.482 205.747 187.855C205.416 188.217 205.208 188.729 205.123 189.39H209.026V189.294ZM212.243 187.935C212.243 187.028 212.227 186.378 212.195 185.983H213.907C213.95 186.399 213.971 186.868 213.971 187.391V187.551H214.019C214.222 187.018 214.568 186.597 215.059 186.287C215.549 185.978 216.114 185.823 216.754 185.823C216.946 185.823 217.106 185.839 217.234 185.871V187.311C217.127 187.29 216.983 187.279 216.802 187.279C216.301 187.279 215.837 187.418 215.41 187.695C214.995 187.961 214.664 188.329 214.419 188.799C214.174 189.268 214.051 189.774 214.051 190.318V193.981H212.243V187.935ZM225.421 190.654H219.79C219.972 191.955 220.681 192.605 221.918 192.605C222.387 192.605 222.803 192.52 223.165 192.349C223.528 192.179 223.864 191.912 224.173 191.55L225.165 192.493C224.855 192.995 224.397 193.394 223.789 193.693C223.192 193.992 222.536 194.141 221.822 194.141C220.596 194.141 219.641 193.778 218.959 193.053C218.276 192.317 217.935 191.299 217.935 189.998C217.935 188.697 218.276 187.679 218.959 186.943C219.652 186.197 220.596 185.823 221.79 185.823C222.931 185.823 223.821 186.191 224.461 186.927C225.101 187.663 225.421 188.681 225.421 189.982V190.654ZM223.677 189.294C223.677 188.665 223.507 188.175 223.165 187.823C222.824 187.471 222.35 187.295 221.742 187.295C221.187 187.295 220.739 187.482 220.398 187.855C220.068 188.217 219.86 188.729 219.774 189.39H223.677V189.294ZM229.79 194.141C228.745 194.141 227.924 193.757 227.327 192.989C226.73 192.221 226.431 191.171 226.431 189.838C226.431 189.028 226.57 188.324 226.847 187.727C227.124 187.119 227.519 186.65 228.031 186.319C228.543 185.989 229.145 185.823 229.838 185.823C230.787 185.823 231.534 186.175 232.077 186.879H232.109V182.113H233.917V191.886C233.917 192.963 233.933 193.661 233.965 193.981H232.269C232.248 193.768 232.237 193.389 232.237 192.845H232.205C231.96 193.229 231.614 193.544 231.166 193.789C230.728 194.024 230.27 194.141 229.79 194.141ZM230.126 192.733C230.723 192.733 231.198 192.557 231.55 192.205C231.912 191.854 232.093 191.379 232.093 190.782V189.198C232.093 188.612 231.907 188.132 231.534 187.759C231.171 187.375 230.702 187.183 230.126 187.183C229.518 187.183 229.049 187.418 228.718 187.887C228.399 188.356 228.239 189.017 228.239 189.87C228.239 190.777 228.404 191.48 228.734 191.982C229.065 192.483 229.529 192.733 230.126 192.733Z" fill="#343A40" />
<rect width="312" height="240" rx="20" fill="#0A0E23" fill-opacity="0.4"/>
</svg>
