<svg width="1440" height="371" viewBox="0 0 1440 371" fill="none" xmlns="http://www.w3.org/2000/svg">
<path d="M989 70C995.167 73 1008 82.6 1010 97C1026.17 86.1667 1065 71 1091 97C1117 123 1108.83 158.833 1101.5 173.5C1108.67 166.833 1127 157.5 1143 173.5C1159 189.5 1147 207.833 1139 215C1152.83 204.833 1189.6 190.6 1226 215C1260.77 238.304 1262.72 275.323 1259.05 293.121C1266.76 261.442 1294.95 202.5 1351.5 202.5C1409.5 202.5 1435 240.833 1440.5 260V363.5H989V70Z" fill="#F9F6FF"/>
<path d="M353.205 16.7713C383.697 -13.6032 431.107 4.11529 451 16.7713V340H-46V243.081C-43.3253 232.757 -30.754 212.108 -1.86677 212.108C27.0204 212.108 41.2632 243.081 44.7737 258.568C42.7677 246.578 43.871 219.501 64.3328 207.112C81.4523 196.746 103.978 200.112 117.636 204.511C107.538 198.595 94.9251 182.096 94.9251 145.663C94.9251 100.101 130.031 96.7042 147.584 100.701C147.082 91.5419 150.793 73.2239 169.65 73.2239C188.507 73.2239 195.896 91.5419 197.234 100.701C203.92 87.5452 226.923 61.234 265.439 61.234C303.956 61.234 329.968 76.8875 338.159 84.7143C330.469 74.7227 322.713 47.1458 353.205 16.7713Z" fill="#F1E8FE"/>
<path d="M415.998 286C430.398 279.2 446.165 284.667 451.498 287.5V370.5H66.9976C53.8309 359.333 33.4976 331 57.4976 307C81.4976 283 109.498 297 120.498 307C122.164 294.333 132.898 269 162.498 269C192.098 269 200.164 294.333 200.498 307C202.498 290.5 216.398 257.5 255.998 257.5C295.598 257.5 310.831 295.833 313.498 315C316.164 312.333 328.298 307 355.498 307C382.698 307 394.831 312.333 397.498 315C397.664 308.167 401.598 292.8 415.998 286Z" fill="#F9F6FF"/>
<path d="M1010 303.5C1000 301.1 990.5 305 988 306.5V355.5L1110.5 359C1116.67 350.333 1125.3 329.3 1110.5 314.5C1095.7 299.7 1073 308.333 1063.5 314.5C1064 308.667 1061.3 297 1046.5 297C1031.7 297 1028.67 308.667 1029 314.5C1026.83 311.833 1020 305.9 1010 303.5Z" fill="#F1E8FE"/>
</svg>
