<svg width="293" height="127" viewBox="0 0 293 127" fill="none" xmlns="http://www.w3.org/2000/svg">
<path d="M196 2.16406L174.203 74.0349C165.872 113.237 149.793 126.164 113.283 126.164C85.609 126.164 59.6729 114.417 68.4819 71.7165H65.6562L52.1243 57.3844H72.8334L76.747 44.6402H40.0915L26.5596 30.3082H81.1515L85.3835 16.5101H13.5319L0 2.17811H113.747L105.151 30.3222L100.786 44.6542L96.8989 57.3985L92.5209 71.7305L92.3617 72.2364C86.4581 99.8184 100.587 106.886 116.64 106.886C135.783 106.886 145.083 99.439 150.681 72.7L172.173 2.17811H196V2.16406Z" fill="#651EEE"/>
<path d="M256.812 96.4811H225.385C224.238 100.539 223.064 104.653 221.864 108.823C220.651 112.993 219.425 117.106 218.145 121.164H189L227.285 0.164062H254.715L293 121.164H263.288L256.812 96.4811ZM235.29 56.6626L231.478 74.0445H250.522L246.908 56.8311L241.58 32.6676H240.631L235.29 56.6626Z" fill="#651EEE"/>
</svg>
