<svg width="540" height="569" viewBox="0 0 540 569" fill="none" xmlns="http://www.w3.org/2000/svg">
<g clip-path="url(#clip0_930_16213)">
<path d="M192.32 411.65C193.03 397.24 192.76 382.24 186.6 369.19C180.44 356.14 166.97 345.55 152.6 346.99C152.424 340.612 150.854 334.35 148 328.644C145.146 322.937 141.077 317.925 136.08 313.959C131.082 309.992 125.277 307.168 119.071 305.684C112.866 304.201 106.411 304.093 100.16 305.37C94.98 298.85 89.59 292.28 82.56 287.82C75.53 283.36 66.4699 281.27 58.7599 284.41C55.16 285.88 51.96 288.41 48.14 289.12C43.25 290.03 38.37 287.79 33.43 287.25C22.6 286.07 11.57 294.36 9.69995 305.1C6.92689 303.672 3.85597 302.919 0.736919 302.901C-2.38213 302.884 -5.46125 303.603 -8.25005 305C-11.0119 306.449 -13.3931 308.529 -15.2002 311.071C-17.0072 313.613 -18.1892 316.545 -18.65 319.63C-32.53 319.13 -45.33 332.31 -44.42 346.18H-31.76L-30 517.25L80.26 563.68L192.32 411.65Z" fill="#F1E8FE"/>
<path d="M72.9399 455.59C75.0617 455.59 77.0965 456.433 78.5968 457.933C80.0971 459.433 80.9399 461.468 80.9399 463.59C80.9399 465.712 80.0971 467.746 78.5968 469.247C77.0965 470.747 75.0617 471.59 72.9399 471.59C70.8182 471.59 68.7834 470.747 67.2831 469.247C65.7828 467.746 64.9399 465.712 64.9399 463.59C64.9399 461.468 65.7828 459.433 67.2831 457.933C68.7834 456.433 70.8182 455.59 72.9399 455.59Z" fill="#F9F6FF"/>
<path d="M210.81 164.53C212.932 164.53 214.967 165.373 216.467 166.873C217.967 168.373 218.81 170.408 218.81 172.53C218.81 174.652 217.967 176.687 216.467 178.187C214.967 179.687 212.932 180.53 210.81 180.53C208.688 180.53 206.654 179.687 205.153 178.187C203.653 176.687 202.81 174.652 202.81 172.53C202.81 170.408 203.653 168.373 205.153 166.873C206.654 165.373 208.688 164.53 210.81 164.53Z" fill="#F1E8FE"/>
<path d="M81.7198 549.38C80.2498 519.69 80.8098 488.79 93.4898 461.91C106.17 435.03 133.95 413.23 163.49 416.18C163.859 403.047 167.097 390.153 172.976 378.403C178.856 366.654 187.235 356.333 197.525 348.164C207.816 339.996 219.769 334.177 232.546 331.117C245.323 328.057 258.615 327.829 271.49 330.45C282.16 317.02 293.27 303.45 307.75 294.29C322.23 285.13 340.9 280.81 356.75 287.29C364.17 290.29 370.75 295.52 378.64 296.98C388.71 298.85 398.75 294.25 408.94 293.14C431.27 290.69 453.99 307.78 457.85 329.91C463.545 326.911 469.878 325.327 476.314 325.291C482.751 325.256 489.101 326.771 494.828 329.707C500.556 332.643 505.493 336.915 509.221 342.162C512.95 347.408 515.36 353.475 516.25 359.85C544.87 358.85 571.25 385.98 569.36 414.55H543.4V549.38H81.7198Z" fill="#F9F6FF"/>
<path d="M439.32 455.33H423.32V471.33H439.32V455.33Z" fill="#E0D2FC"/>
<path d="M102.6 291C104.722 291 106.757 291.843 108.257 293.343C109.757 294.843 110.6 296.878 110.6 299C110.6 301.122 109.757 303.157 108.257 304.657C106.757 306.157 104.722 307 102.6 307C100.478 307 98.4435 306.157 96.9432 304.657C95.443 303.157 94.6001 301.122 94.6001 299C94.6001 296.878 95.443 294.843 96.9432 293.343C98.4435 291.843 100.478 291 102.6 291Z" fill="#E0D2FC"/>
<path d="M127.53 550.66C123.936 537.384 125.272 523.257 131.29 510.89C130.52 510.84 129.74 510.82 128.96 510.84C122.693 511.001 116.701 513.442 112.105 517.706C107.51 521.969 104.628 527.763 104 534C97.3844 531.581 90.2233 531.065 83.3296 532.511C76.4358 533.957 70.0855 537.307 64.9997 542.18C61.5442 540.01 57.474 539.031 53.4097 539.39C51.953 539.511 50.5161 539.807 49.1297 540.27C49.1511 539.439 49.1277 538.608 49.0597 537.78C48.6913 533.384 46.9822 529.208 44.1636 525.815C41.3449 522.422 37.5526 519.976 33.2991 518.808C29.0456 517.64 24.536 517.806 20.3799 519.284C16.2238 520.761 12.6214 523.479 10.0597 527.07C8.08622 524.573 5.52353 522.605 2.60173 521.343C-0.320065 520.081 -3.5095 519.565 -6.68025 519.84C-10.535 520.174 -14.1998 521.661 -17.1966 524.109C-20.1934 526.556 -22.3832 529.85 -23.4803 533.56L-23.7603 533.49V569.69H63.1697C79.9997 552.53 104.23 542.43 127.53 550.66ZM8.99975 552.25C9.22975 552.01 9.45975 551.76 9.66975 551.51C10.0097 552.04 10.3897 552.51 10.7797 553.04C10.2004 552.746 9.60628 552.482 8.99975 552.25Z" fill="#F9F6FF"/>
<path d="M534.66 537.91C533.73 539.188 532.917 540.547 532.23 541.97C531.29 541.055 530.287 540.207 529.23 539.43C524.473 535.953 518.737 534.072 512.845 534.056C506.952 534.04 501.206 535.89 496.43 539.34C493.981 532.826 489.883 527.058 484.537 522.603C479.19 518.148 472.778 515.158 465.929 513.925C459.079 512.692 452.027 513.259 445.463 515.571C438.898 517.882 433.046 521.858 428.48 527.11C425.897 523.02 422.487 519.517 418.469 516.825C414.45 514.133 409.912 512.313 405.148 511.481C400.383 510.649 395.497 510.824 390.804 511.995C386.111 513.166 381.715 515.307 377.9 518.28C375.978 516.779 373.923 515.457 371.76 514.33C364.087 510.354 355.311 509.038 346.81 510.59C346.86 510.45 346.92 510.31 346.98 510.16C349.372 503.575 349.049 496.309 346.085 489.961C343.12 483.613 337.755 478.703 331.17 476.31C324.87 474.02 307.91 474.94 302.17 477.21L286.81 337.29L253.11 340L240.73 478.63C237.737 476.979 234.33 476.229 230.92 476.47C221.22 477.18 213.78 485.8 213.11 496.39C210.701 497.287 208.495 498.655 206.622 500.415C204.748 502.175 203.245 504.292 202.2 506.64C198.2 502.152 193.18 498.692 187.563 496.55C181.946 494.409 175.896 493.649 169.924 494.335C163.952 495.022 158.232 497.134 153.247 500.493C148.262 503.853 144.157 508.362 141.28 513.64H141.19C135.98 511.02 121.82 516.49 119.32 521.76C113.06 534.95 118.42 546.43 127.53 550.76C104.23 542.53 79.9799 552.63 63.1699 569.76H566.55V529.53C561.08 527.055 554.925 526.537 549.118 528.063C543.312 529.589 538.207 533.066 534.66 537.91Z" fill="#F1E8FE"/>
<path d="M226.11 306.06C226.11 306.06 213.62 319.25 204.29 329.29C200.02 333.834 196.648 339.144 194.35 344.94L194.29 345.11C192.9 348.773 191.959 352.591 191.49 356.48C189.254 374.48 188.755 392.654 190 410.75C190.066 411.631 190.391 412.473 190.935 413.169C191.479 413.865 192.217 414.385 193.055 414.662C193.894 414.939 194.797 414.962 195.648 414.726C196.5 414.491 197.262 414.009 197.84 413.34L238.84 365.7L226.11 306.06Z" fill="url(#paint0_linear_930_16213)"/>
<path d="M313.13 306C313.13 306 325.61 319.19 334.94 329.23C339.213 333.771 342.586 339.082 344.88 344.88L344.95 345.05C346.333 348.714 347.269 352.532 347.74 356.42C349.988 374.419 350.493 392.594 349.25 410.69C349.184 411.571 348.859 412.413 348.315 413.109C347.772 413.805 347.034 414.325 346.195 414.602C345.356 414.879 344.454 414.901 343.602 414.666C342.75 414.431 341.988 413.949 341.41 413.28L300.41 365.64L313.13 306Z" fill="url(#paint1_linear_930_16213)"/>
<path d="M246.24 387.63C240.74 387.63 235.89 384.79 234.24 380.63C225.78 359.53 208.04 304.63 208.04 261.81C208.04 204.58 256.53 121.48 269.64 121.48C282.75 121.48 331.24 204.58 331.24 261.81C331.24 304.62 313.49 359.53 305.04 380.63C303.36 384.81 298.51 387.63 293.04 387.63H246.24Z" fill="white"/>
<path d="M269.62 124.61C270.56 124.61 274.67 126.92 282.28 137.27C288.82 146.17 296.01 158.37 302.54 171.63C318.76 204.57 328.07 237.43 328.07 261.79C328.07 303.55 311.07 357.01 302.07 379.44C300.88 382.44 297.14 384.44 292.97 384.44H246.24C242.07 384.44 238.32 382.37 237.14 379.44C228.14 357.01 211.14 303.55 211.14 261.79C211.14 237.43 220.44 204.57 236.66 171.63C242.468 159.629 249.272 148.135 257 137.27C264.61 126.92 268.72 124.62 269.67 124.61M269.67 121.46C256.56 121.46 208.07 204.56 208.07 261.79C208.07 304.6 225.81 359.51 234.27 380.61C235.94 384.79 240.79 387.61 246.27 387.61H293C298.49 387.61 303.34 384.77 305 380.61C313.45 359.51 331.2 304.61 331.2 261.79C331.2 204.56 282.7 121.46 269.6 121.46H269.67Z" fill="url(#paint2_linear_930_16213)"/>
<path d="M231.86 174.4L236.54 173.23C257.45 168.039 279.292 167.871 300.28 172.74L307.37 174.4C293.12 144.4 276.5 121.46 269.62 121.46C262.74 121.46 246.11 144.36 231.86 174.4Z" fill="url(#paint3_linear_930_16213)"/>
<path d="M269.62 285.59C286.122 285.59 299.5 272.212 299.5 255.71C299.5 239.208 286.122 225.83 269.62 225.83C253.118 225.83 239.74 239.208 239.74 255.71C239.74 272.212 253.118 285.59 269.62 285.59Z" fill="url(#paint4_linear_930_16213)"/>
<path d="M286.503 272.583C295.825 263.261 295.825 248.147 286.503 238.825C277.181 229.504 262.068 229.504 252.746 238.825C243.424 248.147 243.424 263.261 252.746 272.583C262.068 281.905 277.181 281.905 286.503 272.583Z" fill="#E0D2FC"/>
<path d="M241.7 381C242.62 383.64 243.43 385.83 244.1 387.5C244.392 388.146 244.869 388.691 245.471 389.067C246.072 389.442 246.771 389.631 247.48 389.61H291.67C292.379 389.631 293.078 389.442 293.68 389.067C294.281 388.691 294.758 388.146 295.05 387.5C295.72 385.83 296.53 383.64 297.45 381H241.7Z" fill="url(#paint5_linear_930_16213)"/>
<path d="M234.72 373.42C235.85 376.67 236.85 379.42 237.72 381.42C238.096 382.259 238.714 382.968 239.494 383.456C240.273 383.944 241.181 384.189 242.1 384.16H297.1C298.019 384.187 298.926 383.942 299.706 383.454C300.485 382.966 301.103 382.259 301.48 381.42C302.3 379.35 303.31 376.64 304.48 373.42H234.72Z" fill="url(#paint6_linear_930_16213)"/>
<path d="M274.07 347.2C274.07 385.93 272.07 417.33 269.57 417.33C267.07 417.33 265.08 385.93 265.08 347.2C265.08 308.47 267.08 303.89 269.57 303.89C272.06 303.89 274.07 308.47 274.07 347.2Z" fill="url(#paint7_linear_930_16213)"/>
<path d="M358.47 273.894L347.157 285.207L358.47 296.521L369.784 285.207L358.47 273.894Z" fill="#E0D2FC"/>
<path d="M120.179 534.485L108.865 545.799L120.179 557.113L131.493 545.799L120.179 534.485Z" fill="#E0D2FC"/>
<path d="M331.62 547.63C333.742 547.63 335.777 548.473 337.277 549.973C338.777 551.473 339.62 553.508 339.62 555.63C339.62 557.752 338.777 559.786 337.277 561.287C335.777 562.787 333.742 563.63 331.62 563.63C329.498 563.63 327.464 562.787 325.963 561.287C324.463 559.786 323.62 557.752 323.62 555.63C323.62 553.508 324.463 551.473 325.963 549.973C327.464 548.473 329.498 547.63 331.62 547.63Z" fill="#F9F6FF"/>
</g>
<defs>
<linearGradient id="paint0_linear_930_16213" x1="231.77" y1="373.23" x2="192.42" y2="350.52" gradientUnits="userSpaceOnUse">
<stop stop-color="#5F1AED"/>
<stop offset="1" stop-color="#CA53FA"/>
</linearGradient>
<linearGradient id="paint1_linear_930_16213" x1="307.46" y1="373.15" x2="346.81" y2="350.44" gradientUnits="userSpaceOnUse">
<stop stop-color="#5F1AED"/>
<stop offset="1" stop-color="#CA53FA"/>
</linearGradient>
<linearGradient id="paint2_linear_930_16213" x1="208.02" y1="254.54" x2="331.22" y2="254.54" gradientUnits="userSpaceOnUse">
<stop stop-color="#5F1AED"/>
<stop offset="1" stop-color="#CA53FA"/>
</linearGradient>
<linearGradient id="paint3_linear_930_16213" x1="273.054" y1="179.368" x2="245.922" y2="132.381" gradientUnits="userSpaceOnUse">
<stop stop-color="#5F1AED"/>
<stop offset="1" stop-color="#CA53FA"/>
</linearGradient>
<linearGradient id="paint4_linear_930_16213" x1="224.794" y1="234.416" x2="311.605" y2="275.662" gradientUnits="userSpaceOnUse">
<stop stop-color="#5F1AED"/>
<stop offset="1" stop-color="#CA53FA"/>
</linearGradient>
<linearGradient id="paint5_linear_930_16213" x1="230.712" y1="379.663" x2="308.713" y2="390.178" gradientUnits="userSpaceOnUse">
<stop stop-color="#5F1AED"/>
<stop offset="1" stop-color="#CA53FA"/>
</linearGradient>
<linearGradient id="paint6_linear_930_16213" x1="205.957" y1="368.555" x2="278.909" y2="379.706" gradientUnits="userSpaceOnUse">
<stop stop-color="#5F1AED"/>
<stop offset="1" stop-color="#CA53FA"/>
</linearGradient>
<linearGradient id="paint7_linear_930_16213" x1="241.828" y1="343.855" x2="271.647" y2="361.752" gradientUnits="userSpaceOnUse">
<stop stop-color="#5F1AED"/>
<stop offset="1" stop-color="#CA53FA"/>
</linearGradient>
<clipPath id="clip0_930_16213">
<rect width="539.23" height="568.46" fill="white"/>
</clipPath>
</defs>
</svg>
