<svg width="42" height="13" viewBox="0 0 42 13" fill="none" xmlns="http://www.w3.org/2000/svg">
<path d="M30.5315 0.991536C29.5554 0.659947 28.5237 0.493553 27.4849 0.500191C24.1254 0.500191 21.7527 2.07798 21.7359 4.34287C21.7149 6.00679 23.422 6.94446 24.7133 7.5004C26.0382 8.07201 26.4812 8.4322 26.477 8.94312C26.4686 9.72027 25.4188 10.0726 24.4424 10.0726C23.1007 10.0726 22.3679 9.89841 21.2404 9.46187L20.8226 9.27982L20.3459 11.8873C21.1627 12.2044 22.6346 12.4765 24.1548 12.5C27.7263 12.5 30.0612 10.932 30.0885 8.52225C30.1179 7.19307 29.194 6.18884 27.2497 5.35884C26.0676 4.82051 25.3348 4.46032 25.3348 3.91417C25.3348 3.43065 25.9626 2.91386 27.2749 2.91386C28.1483 2.89415 29.0163 3.04693 29.8218 3.36214L30.1368 3.49329L30.6134 0.973919L30.5315 0.991536ZM39.2494 0.711607H36.6248C35.808 0.711607 35.1928 0.921065 34.8359 1.67668L29.7882 12.3375H33.3598L34.0737 10.5894L38.4326 10.5933C38.5355 11.0025 38.8505 12.3375 38.8505 12.3375H42L39.2494 0.711607ZM16.9046 0.613728H20.3082L18.1791 12.2455H14.7797L16.9046 0.609814V0.613728ZM8.26436 7.02472L8.61711 8.6397L11.943 0.711607H15.5482L10.1919 12.3219H6.59511L3.65555 2.49102C3.60794 2.32892 3.49613 2.1897 3.3427 2.10147C2.2832 1.59121 1.16059 1.20399 0 0.948469L0.046193 0.703775H5.52427C6.26756 0.731181 6.86597 0.94847 7.06544 1.68843L8.26226 7.03059L8.26436 7.02472ZM35.05 8.211L36.4064 4.95754C36.3896 4.99278 36.6857 4.2861 36.8579 3.84957L37.0909 4.85379L37.8783 8.20904H35.0479L35.05 8.211Z" fill="#A1A1A1"/>
</svg>
