<svg width="562" height="599" viewBox="0 0 562 599" fill="none" xmlns="http://www.w3.org/2000/svg">
<path d="M223.186 151.6C227.036 160.51 234.216 167.561 243.194 171.25C252.171 174.938 262.235 174.97 271.236 171.34C292.616 162.83 330.736 149.99 365.836 161.34C438.106 184.6 438.656 255.2 432.016 279.34C426.776 298.34 413.016 321.16 401.016 339.14C387.846 358.95 381.916 382.85 385.536 406.36C388.166 423.42 395.536 441.84 412.346 457.1C457.196 497.8 504.546 452.95 525.346 482.85C538.719 502.451 550.653 522.994 561.056 544.32V0.959961H28.5664C28.5664 0.959961 61.8264 91.5 140.736 89.01C186.036 87.58 210.566 122.01 223.186 151.6Z" fill="#F1E8FE"/>
<path d="M363.64 82.5668C365.891 87.3893 370.088 91.2051 375.335 93.1991C380.582 95.193 386.462 95.2069 391.72 93.238C404.207 88.6374 426.469 81.6867 446.968 87.7935C489.18 100.379 489.503 138.608 485.615 151.611C482.559 161.892 474.509 174.242 467.526 183.979C459.721 194.632 456.496 207.604 458.486 220.348C460.074 230.919 465.621 240.638 474.156 247.806C500.355 269.829 528.023 245.555 540.139 261.734C547.95 272.342 554.922 283.46 561 295V1H250C250 1 269.402 50 315.493 48.6389C341.946 47.922 356.256 66.5511 363.64 82.5668Z" fill="#F9F6FF"/>
<path d="M383.346 201.2C365.796 184.245 342.232 174.952 317.833 175.362C293.434 175.773 270.196 185.854 253.226 203.39C167.046 292.52 101.336 377.97 65.1264 443.1L161.776 339.34C166.526 334.42 174.966 334.82 180.546 340.27C186.126 345.72 186.846 354.07 182.126 358.99C182.126 358.99 52.5964 510.99 0.596439 575.42C0.181376 575.886 -0.0317872 576.497 0.00384475 577.119C0.0394767 577.742 0.320984 578.325 0.786439 578.74C1.25189 579.155 1.86317 579.368 2.48579 579.333C3.10841 579.297 3.69138 579.016 4.10644 578.55L183.336 396.49C184.176 395.585 185.188 394.857 186.312 394.348C187.437 393.839 188.652 393.56 189.886 393.527C191.12 393.494 192.349 393.708 193.499 394.157C194.649 394.605 195.698 395.278 196.585 396.137C197.471 396.997 198.177 398.024 198.661 399.16C199.145 400.295 199.397 401.516 199.403 402.751C199.409 403.985 199.168 405.208 198.694 406.348C198.221 407.489 197.525 408.523 196.646 409.39L25.9764 594.6C25.5827 595.051 25.3748 595.634 25.3949 596.232C25.415 596.83 25.6616 597.399 26.0848 597.822C26.508 598.245 27.0761 598.491 27.6742 598.512C28.2724 598.532 28.8558 598.324 29.3064 597.93C93.1964 539.05 228.646 409.34 228.646 409.34C233.466 404.34 241.946 404.79 247.646 410.29C253.346 415.79 253.996 424.23 249.186 429.16L173.386 512.44C236.126 471.22 312.456 406.94 385.566 331.34C393.97 322.652 400.579 312.392 405.016 301.148C409.453 289.904 411.631 277.896 411.424 265.81C411.218 253.724 408.632 241.797 403.815 230.711C398.997 219.625 392.042 209.597 383.346 201.2Z" fill="#F1E8FE"/>
<path d="M259.087 205.78C225.567 240.48 186.847 336.74 221.567 370.34C256.287 403.94 351.187 361.96 384.687 327.28C400.799 310.625 409.634 288.251 409.25 265.081C408.865 241.91 399.292 219.842 382.637 203.73C374.39 195.752 364.652 189.477 353.98 185.262C343.308 181.048 331.91 178.977 320.437 179.167C297.267 179.552 275.199 189.125 259.087 205.78Z" fill="url(#paint0_linear_930_15987)"/>
<path d="M271.866 204.72C264.866 210.33 260.476 218.84 257.656 227.45C252.976 241.74 245.136 255.54 247.656 270.36C250.706 288.66 254.926 309.6 270.906 322.42C278.426 328.42 293.606 333.84 303.026 331.83C311.026 330.11 315.556 327.58 323.726 326.68C329.806 326.02 335.926 327.53 342.046 327.38C353.446 327.11 356.326 327.63 366.156 321.86C371.156 318.91 376.286 315.91 380.396 311.77C384.506 307.63 387.566 302.15 387.566 296.34C387.447 284.735 386.736 273.143 385.436 261.61C384.766 255.5 386.976 249.4 386.766 243.25C386.386 232.25 378.506 223.15 370.446 215.71C361.376 207.34 351.186 199.71 339.306 196.31C327.026 192.83 313.966 194.22 301.306 195.64C291.676 196.72 281.606 197.96 273.616 203.44C273.026 203.83 272.436 204.26 271.866 204.72Z" fill="white"/>
<path d="M328.706 316.51C330.981 316.51 332.826 314.665 332.826 312.39C332.826 310.115 330.981 308.27 328.706 308.27C326.431 308.27 324.586 310.115 324.586 312.39C324.586 314.665 326.431 316.51 328.706 316.51Z" fill="white"/>
<path d="M328.696 311.27C328.782 311.26 328.87 311.26 328.956 311.27C329.234 311.322 329.482 311.478 329.65 311.705C329.819 311.933 329.895 312.215 329.863 312.496C329.831 312.777 329.694 313.036 329.48 313.221C329.265 313.405 328.989 313.501 328.706 313.49C328.62 313.5 328.532 313.5 328.446 313.49C328.168 313.438 327.92 313.283 327.752 313.055C327.584 312.828 327.508 312.545 327.539 312.264C327.571 311.983 327.708 311.724 327.922 311.54C328.137 311.355 328.413 311.259 328.696 311.27ZM328.696 308.27C327.68 308.263 326.696 308.632 325.935 309.306C325.175 309.981 324.69 310.912 324.574 311.922C324.459 312.932 324.721 313.949 325.31 314.778C325.899 315.606 326.774 316.188 327.766 316.41C328.075 316.481 328.39 316.518 328.706 316.52C329.723 316.527 330.706 316.158 331.467 315.484C332.228 314.81 332.712 313.878 332.828 312.868C332.943 311.858 332.681 310.841 332.092 310.012C331.503 309.184 330.628 308.603 329.636 308.38C329.328 308.309 329.012 308.272 328.696 308.27Z" fill="url(#paint1_linear_930_15987)"/>
<path d="M278.416 253.79C281.376 253.79 283.776 251.39 283.776 248.43C283.776 245.47 281.376 243.07 278.416 243.07C275.456 243.07 273.056 245.47 273.056 248.43C273.056 251.39 275.456 253.79 278.416 253.79Z" fill="white"/>
<path d="M278.416 246.07C278.598 246.07 278.779 246.09 278.956 246.13C279.515 246.268 280.004 246.605 280.332 247.078C280.66 247.55 280.806 248.126 280.741 248.698C280.676 249.269 280.405 249.798 279.979 250.185C279.554 250.571 279.002 250.79 278.426 250.8C278.245 250.8 278.064 250.78 277.886 250.74C277.328 250.601 276.839 250.265 276.511 249.792C276.182 249.32 276.037 248.744 276.102 248.172C276.167 247.601 276.437 247.072 276.863 246.685C277.289 246.298 277.841 246.08 278.416 246.07ZM278.416 243.07C277.094 243.061 275.814 243.541 274.824 244.418C273.835 245.295 273.204 246.507 273.054 247.821C272.904 249.135 273.245 250.459 274.011 251.536C274.778 252.614 275.916 253.371 277.206 253.66C277.607 253.75 278.016 253.797 278.426 253.8C279.749 253.809 281.028 253.329 282.018 252.452C283.008 251.575 283.639 250.363 283.789 249.049C283.939 247.734 283.598 246.411 282.831 245.333C282.065 244.256 280.927 243.499 279.636 243.21C279.237 243.115 278.827 243.068 278.416 243.07Z" fill="url(#paint2_linear_930_15987)"/>
<path d="M299.646 266.36C302.606 266.36 305.006 263.96 305.006 261C305.006 258.04 302.606 255.64 299.646 255.64C296.686 255.64 294.286 258.04 294.286 261C294.286 263.96 296.686 266.36 299.646 266.36Z" fill="url(#paint3_linear_930_15987)"/>
<path d="M312.346 216.16C313.827 216.16 315.026 214.96 315.026 213.48C315.026 212 313.827 210.8 312.346 210.8C310.866 210.8 309.667 212 309.667 213.48C309.667 214.96 310.866 216.16 312.346 216.16Z" fill="url(#paint4_linear_930_15987)"/>
<path d="M333.106 243.14C337.778 243.14 341.566 239.353 341.566 234.68C341.566 230.008 337.778 226.22 333.106 226.22C328.434 226.22 324.646 230.008 324.646 234.68C324.646 239.353 328.434 243.14 333.106 243.14Z" fill="white"/>
<path d="M333.096 229.21C333.514 229.211 333.93 229.261 334.336 229.36C335.643 229.662 336.793 230.434 337.567 231.529C338.341 232.625 338.685 233.967 338.533 235.299C338.38 236.632 337.743 237.862 336.743 238.754C335.742 239.647 334.447 240.14 333.106 240.14C332.688 240.14 332.272 240.089 331.866 239.99C330.559 239.688 329.409 238.916 328.636 237.821C327.862 236.725 327.518 235.384 327.67 234.051C327.822 232.719 328.459 231.489 329.46 230.596C330.461 229.703 331.755 229.21 333.096 229.21ZM333.096 226.21C330.926 226.199 328.833 227.018 327.247 228.5C325.662 229.982 324.703 232.015 324.568 234.181C324.433 236.348 325.132 238.484 326.522 240.151C327.911 241.819 329.886 242.891 332.041 243.15C334.196 243.408 336.368 242.832 338.112 241.54C339.856 240.247 341.04 238.337 341.42 236.2C341.801 234.063 341.349 231.862 340.159 230.047C338.968 228.232 337.128 226.942 335.016 226.44C334.387 226.29 333.743 226.213 333.096 226.21Z" fill="url(#paint5_linear_930_15987)"/>
<path d="M357.246 284.14C361.918 284.14 365.706 280.352 365.706 275.68C365.706 271.008 361.918 267.22 357.246 267.22C352.574 267.22 348.786 271.008 348.786 275.68C348.786 280.352 352.574 284.14 357.246 284.14Z" fill="url(#paint6_linear_930_15987)"/>
<path d="M283.046 298.01C287.719 298.01 291.506 294.222 291.506 289.55C291.506 284.878 287.719 281.09 283.046 281.09C278.374 281.09 274.586 284.878 274.586 289.55C274.586 294.222 278.374 298.01 283.046 298.01Z" fill="white"/>
<path d="M283.037 284.09C283.457 284.092 283.876 284.139 284.287 284.23C285.593 284.532 286.743 285.304 287.517 286.399C288.291 287.495 288.635 288.837 288.483 290.169C288.331 291.502 287.694 292.732 286.693 293.624C285.692 294.517 284.398 295.01 283.057 295.01C282.636 295.009 282.217 294.962 281.807 294.87C280.5 294.568 279.35 293.796 278.576 292.701C277.802 291.606 277.458 290.264 277.61 288.931C277.762 287.599 278.4 286.369 279.4 285.476C280.401 284.583 281.696 284.09 283.037 284.09ZM283.037 281.09C280.877 281.093 278.801 281.923 277.233 283.407C275.665 284.892 274.724 286.921 274.603 289.077C274.482 291.233 275.191 293.354 276.583 295.004C277.975 296.655 279.946 297.711 282.092 297.956C284.237 298.2 286.395 297.615 288.123 296.32C289.851 295.025 291.019 293.118 291.386 290.99C291.754 288.862 291.294 286.674 290.1 284.874C288.907 283.075 287.07 281.799 284.967 281.31C284.334 281.163 283.686 281.089 283.037 281.09Z" fill="url(#paint7_linear_930_15987)"/>
<path d="M263.636 478.54C263.634 480.474 262.863 482.329 261.495 483.695C260.126 485.062 258.271 485.83 256.336 485.83C254.404 485.827 252.551 485.058 251.184 483.692C249.818 482.325 249.049 480.473 249.046 478.54C249.046 476.606 249.814 474.75 251.181 473.382C252.548 472.013 254.402 471.243 256.336 471.24C258.272 471.24 260.129 472.009 261.498 473.378C262.867 474.747 263.636 476.604 263.636 478.54Z" fill="#F9F6FF"/>
<path d="M475.246 291.55C475.246 293.486 474.477 295.343 473.108 296.712C471.739 298.081 469.882 298.85 467.946 298.85C466.988 298.85 466.039 298.661 465.154 298.294C464.269 297.927 463.465 297.389 462.788 296.711C462.111 296.033 461.574 295.228 461.208 294.343C460.843 293.457 460.655 292.508 460.656 291.55C460.656 289.617 461.424 287.762 462.791 286.395C464.159 285.028 466.013 284.26 467.946 284.26C468.904 284.259 469.853 284.446 470.739 284.812C471.625 285.178 472.43 285.715 473.108 286.392C473.786 287.069 474.323 287.873 474.69 288.758C475.057 289.643 475.246 290.592 475.246 291.55Z" fill="#F1E8FE"/>
<path d="M146.376 368.43H131.786V383.02H146.376V368.43Z" fill="#E0D2FC"/>
<path d="M69.2663 466.72H54.6763V481.31H69.2663V466.72Z" fill="#F9F6FF"/>
<path d="M126.816 460.14C126.816 461.097 126.628 462.045 126.261 462.93C125.895 463.814 125.358 464.618 124.681 465.295C124.004 465.972 123.2 466.509 122.316 466.875C121.431 467.242 120.483 467.43 119.526 467.43C118.568 467.431 117.619 467.244 116.733 466.878C115.848 466.512 115.043 465.976 114.365 465.298C113.687 464.621 113.149 463.817 112.782 462.932C112.415 462.047 112.226 461.098 112.226 460.14C112.226 459.182 112.415 458.233 112.782 457.348C113.149 456.463 113.687 455.659 114.365 454.982C115.043 454.305 115.848 453.768 116.733 453.402C117.619 453.036 118.568 452.849 119.526 452.85C121.459 452.85 123.314 453.618 124.681 454.985C126.048 456.352 126.816 458.207 126.816 460.14Z" fill="#E0D2FC"/>
<path d="M11.3377 500.127L1.021 510.444L11.3377 520.761L21.6544 510.444L11.3377 500.127Z" fill="#F9F6FF"/>
<path opacity="0.5" d="M208.959 536.896L198.643 547.213L208.959 557.53L219.276 547.213L208.959 536.896Z" fill="#844BF1"/>
<path d="M105.391 536.394L95.0742 546.71L105.391 557.027L115.708 546.71L105.391 536.394Z" fill="#E0D2FC"/>
<path d="M200.496 373.34C200.496 375.276 199.727 377.133 198.358 378.502C196.989 379.871 195.132 380.64 193.196 380.64C192.238 380.64 191.289 380.451 190.404 380.084C189.519 379.717 188.715 379.179 188.038 378.501C187.361 377.823 186.824 377.019 186.458 376.133C186.093 375.247 185.905 374.298 185.906 373.34C185.906 371.407 186.674 369.552 188.041 368.185C189.409 366.818 191.263 366.05 193.196 366.05C194.154 366.049 195.103 366.236 195.989 366.602C196.875 366.968 197.68 367.505 198.358 368.182C199.036 368.859 199.573 369.663 199.94 370.548C200.307 371.433 200.496 372.382 200.496 373.34Z" fill="#F9F6FF"/>
<path d="M57.5559 358.425L47.2393 368.741L57.556 379.058L67.8727 368.741L57.5559 358.425Z" fill="#F1E8FE"/>
<defs>
<linearGradient id="paint0_linear_930_15987" x1="286.512" y1="391.199" x2="335.659" y2="180.002" gradientUnits="userSpaceOnUse">
<stop stop-color="#5F1AED"/>
<stop offset="1" stop-color="#CA53FA"/>
</linearGradient>
<linearGradient id="paint1_linear_930_15987" x1="327.766" y1="316.41" x2="329.636" y2="308.38" gradientUnits="userSpaceOnUse">
<stop stop-color="#5F1AED"/>
<stop offset="1" stop-color="#CA53FA"/>
</linearGradient>
<linearGradient id="paint2_linear_930_15987" x1="277.206" y1="253.66" x2="279.636" y2="243.21" gradientUnits="userSpaceOnUse">
<stop stop-color="#5F1AED"/>
<stop offset="1" stop-color="#CA53FA"/>
</linearGradient>
<linearGradient id="paint3_linear_930_15987" x1="298.429" y1="266.217" x2="300.861" y2="255.766" gradientUnits="userSpaceOnUse">
<stop stop-color="#5F1AED"/>
<stop offset="1" stop-color="#CA53FA"/>
</linearGradient>
<linearGradient id="paint4_linear_930_15987" x1="311.73" y1="216.077" x2="312.944" y2="210.856" gradientUnits="userSpaceOnUse">
<stop stop-color="#5F1AED"/>
<stop offset="1" stop-color="#CA53FA"/>
</linearGradient>
<linearGradient id="paint5_linear_930_15987" x1="331.186" y1="242.92" x2="335.016" y2="226.44" gradientUnits="userSpaceOnUse">
<stop stop-color="#5F1AED"/>
<stop offset="1" stop-color="#CA53FA"/>
</linearGradient>
<linearGradient id="paint6_linear_930_15987" x1="355.321" y1="283.902" x2="359.156" y2="267.422" gradientUnits="userSpaceOnUse">
<stop stop-color="#5F1AED"/>
<stop offset="1" stop-color="#CA53FA"/>
</linearGradient>
<linearGradient id="paint7_linear_930_15987" x1="281.127" y1="297.79" x2="284.967" y2="281.31" gradientUnits="userSpaceOnUse">
<stop stop-color="#5F1AED"/>
<stop offset="1" stop-color="#CA53FA"/>
</linearGradient>
</defs>
</svg>
