<svg width="540" height="569" viewBox="0 0 540 569" fill="none" xmlns="http://www.w3.org/2000/svg">
<path d="M250.43 361C230.51 376.56 208.29 393.77 204.17 418.71C200.94 438.22 210.29 458.28 224.57 471.95C238.85 485.62 257.52 493.8 276.32 499.95C304.88 509.27 335.41 514.53 365.06 509.67C407.92 502.67 446.27 473.73 466.23 435.15C486.19 396.57 487.84 349.34 472.1 308.85C461.36 281.22 443.03 256.53 436.22 227.68C429.97 201.15 433.99 173.46 434.52 146.21C435.05 118.96 431.07 89.5301 412.44 69.6401C392.03 47.8601 357.44 43.1601 329.49 53.5701C301.54 63.9801 279.79 87.2201 265.39 113.37C252.65 136.5 244.83 163.3 248.92 189.37C254.1 222.49 275.78 250.37 284.01 282.62C287.88 297.83 292.89 307.79 285.44 322.95C277.81 338.54 263.84 350.55 250.43 361Z" fill="#F1E8FE"/>
<path d="M320.61 118C313.51 103.23 302.61 88.17 286.54 85.17C273.15 82.69 259.98 89.17 247.17 93.83C218.85 104.02 188.17 105.24 158.81 111.73C129.45 118.22 99.1598 131.88 84.6698 158.25C73.5298 178.53 73.5698 203.42 79.5198 225.78C85.4698 248.14 96.8398 268.6 107.69 289.03C127.42 326.2 146 364.35 172.3 397.16C198.6 429.97 233.88 457.57 275.16 465.55C289.22 468.27 303.97 468.63 317.69 464.55C331.41 460.47 344.05 451.63 350.9 439.06C360.1 422.19 357.9 401.67 355.45 382.61C349.29 334.7 338.93 285.38 338.7 237C338.62 219.91 339.49 203 338.24 185.88C337.415 173.764 335.456 161.751 332.39 150C330 140.94 320.61 126.83 320.61 118Z" fill="#F9F6FF"/>
<path d="M345.23 243.63L218.38 242.8C215.659 242.779 213.057 241.68 211.145 239.743C209.233 237.807 208.167 235.191 208.18 232.47C208.201 229.749 209.301 227.147 211.237 225.235C213.174 223.323 215.789 222.257 218.51 222.27L345.36 223.09C348.082 223.117 350.682 224.219 352.593 226.156C354.504 228.094 355.571 230.709 355.56 233.43C355.531 236.149 354.43 238.746 352.495 240.656C350.56 242.567 347.949 243.636 345.23 243.63Z" fill="url(#paint0_linear_930_16022)"/>
<path d="M333.37 130.39L233.07 129.73C221.573 129.69 210.526 134.201 202.344 142.279C194.162 150.356 189.508 161.343 189.4 172.84L189.14 212.57C189.132 216.899 190.836 221.055 193.88 224.133C196.924 227.211 201.061 228.96 205.39 229L359.76 230C364.094 230.016 368.258 228.316 371.343 225.271C374.427 222.226 376.181 218.084 376.22 213.75L376.48 174.03C376.512 162.538 371.998 151.499 363.921 143.323C355.845 135.148 344.862 130.498 333.37 130.39Z" fill="white"/>
<path d="M232.79 133H233.05L333.35 133.65C343.978 133.755 354.135 138.054 361.609 145.611C369.084 153.168 373.271 163.371 373.26 174L373 213.76C372.971 217.227 371.576 220.542 369.118 222.987C366.66 225.432 363.337 226.81 359.87 226.82H359.78L205.41 225.82C201.935 225.78 198.616 224.366 196.18 221.887C193.744 219.408 192.389 216.066 192.41 212.59L192.66 172.86C192.77 162.276 197.042 152.161 204.552 144.701C212.062 137.242 222.206 133.039 232.79 133ZM232.79 129.78C221.341 129.814 210.367 134.358 202.245 142.427C194.123 150.496 189.508 161.441 189.4 172.89L189.14 212.62C189.145 216.94 190.855 221.084 193.897 224.151C196.94 227.218 201.07 228.96 205.39 229L359.76 230H359.87C364.184 229.984 368.319 228.27 371.379 225.229C374.439 222.188 376.178 218.064 376.22 213.75L376.48 174.03C376.52 162.532 372.009 151.486 363.932 143.304C355.854 135.122 344.867 130.468 333.37 130.36L233.07 129.7L232.79 129.78Z" fill="url(#paint1_linear_930_16022)"/>
<path d="M350.48 187.41C350.461 190.762 349.193 193.986 346.924 196.452C344.655 198.919 341.548 200.451 338.21 200.75C299.533 204.095 260.63 203.844 222 200C218.655 199.668 215.554 198.099 213.307 195.6C211.059 193.1 209.826 189.851 209.85 186.49V179.19C209.873 175.849 211.135 172.635 213.393 170.172C215.651 167.709 218.743 166.172 222.07 165.86C260.92 162.25 299.76 161.86 338.6 166.43C341.886 166.826 344.91 168.418 347.096 170.903C349.282 173.388 350.476 176.591 350.45 179.9L350.48 187.41Z" fill="url(#paint2_linear_930_16022)"/>
<path d="M248.753 188.635C251.825 185.056 251.414 179.664 247.835 176.593C244.256 173.521 238.864 173.932 235.793 177.511C232.721 181.09 233.132 186.481 236.711 189.553C240.29 192.625 245.681 192.214 248.753 188.635Z" fill="white"/>
<path d="M242.26 174.51V177.51C243.359 177.514 244.431 177.844 245.342 178.458C246.253 179.072 246.961 179.942 247.377 180.959C247.793 181.976 247.898 183.093 247.678 184.17C247.458 185.246 246.924 186.233 246.143 187.006C245.362 187.778 244.37 188.302 243.291 188.51C242.212 188.718 241.096 188.601 240.084 188.174C239.072 187.747 238.209 187.03 237.605 186.112C237.001 185.195 236.682 184.119 236.69 183.02C236.701 181.552 237.293 180.147 238.337 179.114C239.381 178.082 240.792 177.505 242.26 177.51V174.51ZM242.26 174.51C239.995 174.51 237.823 175.41 236.222 177.011C234.62 178.613 233.72 180.785 233.72 183.05C233.72 185.315 234.62 187.487 236.222 189.089C237.823 190.69 239.995 191.59 242.26 191.59H242.32C244.585 191.59 246.757 190.69 248.359 189.089C249.96 187.487 250.86 185.315 250.86 183.05C250.86 180.785 249.96 178.613 248.359 177.011C246.757 175.41 244.585 174.51 242.32 174.51H242.26Z" fill="url(#paint3_linear_930_16022)"/>
<path d="M321.629 191.327C325.936 189.406 327.872 184.357 325.951 180.049C324.03 175.741 318.981 173.806 314.673 175.727C310.366 177.648 308.431 182.697 310.351 187.004C312.272 191.312 317.321 193.247 321.629 191.327Z" fill="white"/>
<path d="M318.14 175V178C319.239 178.004 320.311 178.334 321.222 178.948C322.133 179.562 322.841 180.432 323.257 181.449C323.673 182.466 323.778 183.583 323.558 184.66C323.338 185.736 322.804 186.723 322.023 187.496C321.242 188.268 320.25 188.792 319.171 189C318.092 189.208 316.976 189.091 315.964 188.664C314.952 188.237 314.089 187.52 313.485 186.602C312.88 185.685 312.562 184.608 312.57 183.51C312.581 182.042 313.173 180.637 314.217 179.604C315.261 178.572 316.672 177.995 318.14 178V175ZM318.14 175C315.924 175.069 313.821 175.996 312.276 177.586C310.73 179.176 309.863 181.304 309.856 183.521C309.85 185.738 310.705 187.871 312.241 189.47C313.777 191.068 315.875 192.008 318.09 192.09H318.15C320.416 192.097 322.593 191.203 324.2 189.605C325.807 188.007 326.714 185.836 326.72 183.57C326.727 181.304 325.833 179.128 324.235 177.52C322.637 175.913 320.466 175.007 318.2 175H318.14Z" fill="url(#paint4_linear_930_16022)"/>
<path d="M368.39 149.87C368.39 149.87 357.06 151.25 350.97 136.43L353.97 130.25C354.217 129.751 354.56 129.306 354.98 128.94C355.399 128.574 355.888 128.295 356.416 128.12C356.944 127.944 357.502 127.875 358.057 127.916C358.612 127.957 359.154 128.108 359.65 128.36L366.13 131.65C366.827 132.005 367.411 132.546 367.817 133.214C368.223 133.881 368.435 134.649 368.43 135.43L368.39 149.87Z" fill="url(#paint5_linear_930_16022)"/>
<path d="M368.19 113.05L364.19 133.74C364.144 133.981 364.038 134.207 363.883 134.398C363.728 134.588 363.527 134.737 363.3 134.83C363.072 134.925 362.824 134.961 362.578 134.937C362.332 134.913 362.095 134.828 361.89 134.69L360.76 133.93C360.278 133.601 359.926 133.115 359.763 132.555C359.601 131.995 359.639 131.396 359.87 130.86L367.71 112.86C367.74 112.804 367.79 112.761 367.85 112.74C367.91 112.718 367.975 112.719 368.034 112.742C368.093 112.766 368.142 112.81 368.171 112.867C368.199 112.923 368.206 112.989 368.19 113.05Z" fill="url(#paint6_linear_930_16022)"/>
<path opacity="0.39" d="M280.79 205.8C260.51 205.67 240.07 204.53 219.61 202.39C212.11 201.6 206.49 194.93 206.54 186.87L206.59 178.74C206.65 170.74 212.3 164.15 219.74 163.41C263.64 159.03 303.35 159.22 341.14 163.99C348.45 164.91 353.92 171.56 353.87 179.46L353.82 187.88C353.76 195.88 348.09 202.51 340.61 203.21C320.726 205.076 300.761 205.94 280.79 205.8ZM283.63 161.21C262.326 161.129 241.033 162.177 219.84 164.35C212.84 165.04 207.59 171.23 207.54 178.75V186.88C207.49 194.45 212.74 200.72 219.76 201.45C259.904 205.708 300.371 205.983 340.57 202.27C347.57 201.62 352.87 195.42 352.92 187.87L352.98 179.46C352.98 172.04 347.9 165.79 341.07 164.92C322.014 162.543 302.833 161.304 283.63 161.21Z" fill="white"/>
<path d="M363.9 110.68C363.894 111.618 364.166 112.536 364.682 113.318C365.198 114.101 365.935 114.713 366.798 115.078C367.662 115.442 368.615 115.542 369.535 115.365C370.456 115.188 371.303 114.741 371.97 114.083C372.637 113.424 373.094 112.582 373.283 111.664C373.472 110.746 373.384 109.792 373.031 108.924C372.677 108.055 372.074 107.311 371.298 106.786C370.522 106.26 369.607 105.976 368.67 105.97C368.048 105.966 367.43 106.085 366.854 106.319C366.277 106.554 365.752 106.9 365.31 107.337C364.867 107.775 364.514 108.295 364.272 108.868C364.03 109.442 363.904 110.058 363.9 110.68Z" fill="url(#paint7_linear_930_16022)"/>
<path d="M353.06 235.46L212.06 234.55C205.96 234.529 200.1 236.922 195.759 241.207C191.417 245.492 188.948 251.32 188.89 257.42L188.77 275.92C188.44 327.37 229.95 416.28 281.4 416.61C332.85 416.94 375.52 328.61 375.85 277.14L375.97 258.63C375.989 252.524 373.589 246.659 369.296 242.317C365.003 237.976 359.166 235.51 353.06 235.46Z" fill="white"/>
<path d="M211.87 237.55H212L353 238.46C358.304 238.513 363.372 240.661 367.098 244.436C370.824 248.211 372.906 253.306 372.89 258.61L372.77 277.12C372.6 302.68 361.77 337.01 345.24 364.59C336.45 379.22 326.36 391.37 316.04 399.71C304.63 408.93 293.04 413.61 281.61 413.61H281.34C269.88 413.54 258.34 408.76 247.01 399.41C236.77 390.96 226.81 378.69 218.18 363.92C201.92 336.1 191.52 301.56 191.69 275.92L191.81 257.42C191.857 252.141 193.983 247.092 197.727 243.369C201.47 239.646 206.53 237.548 211.81 237.53M211.81 234.53C205.739 234.551 199.92 236.963 195.615 241.244C191.31 245.524 188.865 251.329 188.81 257.4L188.69 275.9C188.36 327.35 229.87 416.26 281.32 416.59H281.61C332.93 416.59 375.44 328.47 375.77 277.12L375.89 258.61C375.909 252.511 373.515 246.652 369.23 242.311C364.946 237.971 359.119 235.501 353.02 235.44L212.02 234.53H211.81Z" fill="url(#paint8_linear_930_16022)"/>
<path d="M234.39 222C199.61 224.95 171.16 197.72 170.96 197.31V191.17C171.15 191.56 201.13 221.83 234.19 219.03L234.39 222Z" fill="url(#paint9_linear_930_16022)"/>
<path d="M248.57 220.46C248.622 221.508 248.26 222.535 247.563 223.319C246.865 224.103 245.887 224.581 244.84 224.65H234.84C233.791 224.583 232.811 224.106 232.111 223.322C231.411 222.538 231.048 221.51 231.1 220.46C231.048 219.411 231.411 218.383 232.111 217.598C232.811 216.814 233.791 216.337 234.84 216.27H244.84C245.887 216.34 246.865 216.818 247.563 217.602C248.26 218.386 248.622 219.412 248.57 220.46Z" fill="url(#paint10_linear_930_16022)"/>
<path d="M188.73 160.26C188.73 160.26 192.08 130.35 281.85 130.35C281.85 130.35 243.94 122.95 231.75 124.35C219.56 125.75 186.62 126.98 176.94 159.75C184.41 162.39 188.73 160.26 188.73 160.26Z" fill="white"/>
<path d="M235.3 127.13C241.027 127.274 246.74 127.758 252.41 128.58C229.41 130.67 211.89 135.41 200.05 142.76C190.47 148.69 187.29 154.76 186.24 157.87C185.544 157.999 184.838 158.063 184.13 158.06C182.996 158.052 181.867 157.924 180.76 157.68C190.24 131.47 216.76 128.82 229.67 127.53L232.08 127.28C233.15 127.171 234.225 127.121 235.3 127.13ZM235.3 124.13C234.114 124.124 232.929 124.181 231.75 124.3C219.52 125.65 186.62 126.93 176.94 159.7C179.24 160.566 181.673 161.026 184.13 161.06C185.702 161.119 187.27 160.846 188.73 160.26C188.73 160.26 192.08 130.35 281.85 130.35C281.85 130.35 249.99 124.13 235.3 124.13Z" fill="url(#paint11_linear_930_16022)"/>
<path d="M179.75 155.09C160.63 159 163 183.15 163 183.15C161.62 200.69 166.74 209.39 173.31 213.54C175.516 214.929 178.044 215.724 180.648 215.847C183.251 215.97 185.843 215.417 188.17 214.243C190.497 213.068 192.481 211.311 193.928 209.143C195.376 206.975 196.238 204.47 196.43 201.87C196.78 197.09 197.18 192.55 197.54 190.94C198.38 187 198.87 151.21 179.75 155.09Z" fill="url(#paint12_linear_930_16022)"/>
<path d="M196.05 150.06C196.05 150.06 207.38 151.44 213.47 136.62L210.42 130.44C210.174 129.941 209.83 129.496 209.411 129.13C208.991 128.764 208.503 128.485 207.975 128.31C207.446 128.134 206.888 128.065 206.333 128.106C205.778 128.147 205.237 128.298 204.74 128.55L198.26 131.84C197.564 132.195 196.98 132.736 196.573 133.403C196.167 134.071 195.955 134.839 195.96 135.62L196.05 150.06Z" fill="url(#paint13_linear_930_16022)"/>
<path d="M196.25 113.24L200.25 133.93C200.296 134.171 200.402 134.397 200.557 134.588C200.713 134.778 200.913 134.926 201.14 135.02C201.369 135.115 201.617 135.151 201.863 135.127C202.109 135.103 202.345 135.018 202.55 134.88L203.68 134.12C204.162 133.791 204.515 133.305 204.677 132.745C204.839 132.185 204.802 131.585 204.57 131.05L196.73 113.05C196.7 112.994 196.65 112.951 196.59 112.93C196.531 112.908 196.465 112.909 196.406 112.932C196.347 112.956 196.298 113 196.27 113.057C196.241 113.113 196.234 113.179 196.25 113.24Z" fill="url(#paint14_linear_930_16022)"/>
<path d="M200.53 110.87C200.536 111.807 200.264 112.726 199.748 113.508C199.232 114.291 198.496 114.903 197.632 115.268C196.768 115.632 195.816 115.732 194.895 115.555C193.974 115.378 193.127 114.931 192.46 114.273C191.793 113.614 191.336 112.772 191.147 111.854C190.959 110.936 191.046 109.982 191.4 109.114C191.753 108.245 192.356 107.501 193.132 106.976C193.908 106.45 194.823 106.166 195.76 106.16C196.383 106.156 197 106.275 197.576 106.509C198.153 106.744 198.678 107.09 199.121 107.527C199.564 107.964 199.916 108.485 200.158 109.058C200.4 109.632 200.526 110.248 200.53 110.87Z" fill="url(#paint15_linear_930_16022)"/>
<path d="M230.09 295.68C228.764 295.73 227.472 295.252 226.499 294.35C225.526 293.448 224.95 292.196 224.9 290.87C224.85 289.544 225.328 288.252 226.23 287.279C227.132 286.306 228.384 285.73 229.71 285.68C266.22 282.68 299.56 282.79 331.65 286.02C332.976 286.153 334.195 286.807 335.039 287.838C335.883 288.87 336.283 290.194 336.15 291.52C336.017 292.846 335.364 294.065 334.332 294.909C333.301 295.753 331.976 296.153 330.65 296.02C299.18 292.85 266.44 292.75 230.55 295.7L230.09 295.68Z" fill="white"/>
<path d="M280.5 286.48C297.481 286.454 314.453 287.288 331.35 288.98C331.881 289.005 332.379 289.24 332.736 289.633C333.094 290.026 333.28 290.545 333.255 291.075C333.23 291.606 332.995 292.104 332.602 292.461C332.209 292.819 331.691 293.005 331.16 292.98H330.94C314.18 291.299 297.345 290.471 280.5 290.5C264.5 290.5 247.61 291.23 230.29 292.65H230.11C229.58 292.67 229.063 292.478 228.674 292.117C228.285 291.756 228.055 291.256 228.035 290.725C228.015 290.195 228.207 289.678 228.568 289.289C228.929 288.9 229.43 288.67 229.96 288.65C247.39 287.22 264.4 286.49 280.5 286.49M280.5 283.49C264.17 283.49 247.3 284.22 229.71 285.66C229.054 285.685 228.408 285.839 227.811 286.113C227.214 286.388 226.677 286.777 226.23 287.259C225.328 288.232 224.85 289.524 224.9 290.85C224.95 292.176 225.526 293.428 226.499 294.33C227.472 295.232 228.764 295.71 230.09 295.66H230.51C247.83 294.24 264.41 293.52 280.51 293.52C297.251 293.505 313.982 294.333 330.64 296H331.16C332.486 296.065 333.784 295.601 334.767 294.709C335.751 293.817 336.34 292.571 336.405 291.245C336.47 289.919 336.006 288.621 335.114 287.638C334.222 286.654 332.976 286.065 331.65 286C314.653 284.308 297.581 283.47 280.5 283.49Z" fill="url(#paint16_linear_930_16022)"/>
<path d="M458.29 223C457.886 223.869 457.316 224.65 456.61 225.299C455.905 225.947 455.079 226.45 454.179 226.779C453.279 227.108 452.323 227.256 451.365 227.215C450.408 227.174 449.468 226.945 448.6 226.54C447.731 226.138 446.95 225.568 446.302 224.864C445.654 224.159 445.151 223.334 444.822 222.435C444.493 221.535 444.345 220.58 444.386 219.624C444.426 218.667 444.655 217.728 445.06 216.86C445.462 215.99 446.032 215.208 446.737 214.559C447.442 213.909 448.268 213.405 449.168 213.076C450.069 212.746 451.025 212.597 451.982 212.637C452.94 212.677 453.881 212.906 454.75 213.31C455.619 213.714 456.4 214.284 457.048 214.99C457.697 215.695 458.2 216.521 458.528 217.421C458.857 218.321 459.005 219.277 458.964 220.235C458.923 221.192 458.694 222.132 458.29 223Z" fill="#F1E8FE"/>
<path d="M166.252 67.3024L160.125 80.5793L173.401 86.7071L179.529 73.4302L166.252 67.3024Z" fill="#E0D2FC"/>
<path d="M376.859 67.9164L370.716 81.1501L383.95 87.2931L390.093 74.0593L376.859 67.9164Z" fill="#F9F6FF"/>
<path d="M139.7 200.58C139.297 201.449 138.726 202.23 138.02 202.879C137.315 203.527 136.489 204.03 135.589 204.359C134.689 204.688 133.733 204.836 132.776 204.795C131.818 204.754 130.879 204.525 130.01 204.12C129.141 203.717 128.36 203.146 127.711 202.441C127.063 201.735 126.56 200.909 126.231 200.009C125.902 199.109 125.754 198.153 125.795 197.196C125.836 196.238 126.065 195.299 126.47 194.43C126.873 193.561 127.444 192.78 128.149 192.131C128.855 191.483 129.681 190.98 130.581 190.651C131.481 190.323 132.437 190.174 133.394 190.215C134.352 190.256 135.291 190.486 136.16 190.89C137.029 191.293 137.81 191.864 138.459 192.57C139.107 193.275 139.61 194.101 139.939 195.001C140.267 195.901 140.416 196.857 140.375 197.814C140.334 198.772 140.104 199.712 139.7 200.58Z" fill="#E0D2FC"/>
<path d="M183.569 15.6232L169.868 20.6372L174.882 34.3386L188.583 29.3246L183.569 15.6232Z" fill="#F9F6FF"/>
<path opacity="0.5" d="M181.891 304.78L168.189 309.794L173.203 323.495L186.905 318.481L181.891 304.78Z" fill="#844BF1"/>
<path d="M60.5876 249.483L46.8862 254.497L51.9002 268.198L65.6016 263.184L60.5876 249.483Z" fill="#E0D2FC"/>
<path opacity="0.5" d="M283.91 52.8001C283.095 54.5528 281.619 55.9108 279.804 56.5763C277.989 57.2418 275.985 57.1604 274.23 56.3501C272.475 55.5353 271.115 54.057 270.449 52.24C269.784 50.423 269.867 48.416 270.68 46.6601C271.495 44.9049 272.973 43.545 274.79 42.8794C276.607 42.2137 278.614 42.2967 280.37 43.1101C282.124 43.9268 283.481 45.4059 284.145 47.2227C284.809 49.0396 284.724 51.0455 283.91 52.8001Z" fill="#844BF1"/>
<path d="M119.702 79.1535L106 84.1675L111.014 97.8689L124.716 92.8549L119.702 79.1535Z" fill="#F1E8FE"/>
<path opacity="0.5" d="M32.7674 51.4043L22.4507 61.7209L32.7674 72.0376L43.0841 61.7209L32.7674 51.4043Z" fill="#844BF1"/>
<defs>
<linearGradient id="paint0_linear_930_16022" x1="182.249" y1="39.9569" x2="287.317" y2="243.47" gradientUnits="userSpaceOnUse">
<stop offset="0.73" stop-color="#5F1AED"/>
<stop offset="1" stop-color="#CA53FA"/>
</linearGradient>
<linearGradient id="paint1_linear_930_16022" x1="189.14" y1="179.88" x2="376.48" y2="179.88" gradientUnits="userSpaceOnUse">
<stop stop-color="#5F1AED"/>
<stop offset="1" stop-color="#CA53FA"/>
</linearGradient>
<linearGradient id="paint2_linear_930_16022" x1="14.57" y1="183.04" x2="324.66" y2="183.04" gradientUnits="userSpaceOnUse">
<stop offset="0.73" stop-color="#5F1AED"/>
<stop offset="1" stop-color="#CA53FA"/>
</linearGradient>
<linearGradient id="paint3_linear_930_16022" x1="233.73" y1="183.05" x2="250.81" y2="183.05" gradientUnits="userSpaceOnUse">
<stop stop-color="#5F1AED"/>
<stop offset="1" stop-color="#CA53FA"/>
</linearGradient>
<linearGradient id="paint4_linear_930_16022" x1="309.61" y1="183.55" x2="326.69" y2="183.55" gradientUnits="userSpaceOnUse">
<stop stop-color="#5F1AED"/>
<stop offset="1" stop-color="#CA53FA"/>
</linearGradient>
<linearGradient id="paint5_linear_930_16022" x1="350.97" y1="138.9" x2="368.48" y2="138.9" gradientUnits="userSpaceOnUse">
<stop stop-color="#5F1AED"/>
<stop offset="1" stop-color="#CA53FA"/>
</linearGradient>
<linearGradient id="paint6_linear_930_16022" x1="359.64" y1="123.84" x2="368.19" y2="123.84" gradientUnits="userSpaceOnUse">
<stop stop-color="#5F1AED"/>
<stop offset="1" stop-color="#CA53FA"/>
</linearGradient>
<linearGradient id="paint7_linear_930_16022" x1="363.9" y1="110.71" x2="373.38" y2="110.71" gradientUnits="userSpaceOnUse">
<stop stop-color="#5F1AED"/>
<stop offset="1" stop-color="#CA53FA"/>
</linearGradient>
<linearGradient id="paint8_linear_930_16022" x1="188.73" y1="325.58" x2="375.93" y2="325.58" gradientUnits="userSpaceOnUse">
<stop stop-color="#5F1AED"/>
<stop offset="1" stop-color="#CA53FA"/>
</linearGradient>
<linearGradient id="paint9_linear_930_16022" x1="158.298" y1="249.254" x2="227.245" y2="182.954" gradientUnits="userSpaceOnUse">
<stop stop-color="#5F1AED"/>
<stop offset="1" stop-color="#CA53FA"/>
</linearGradient>
<linearGradient id="paint10_linear_930_16022" x1="231.15" y1="220.46" x2="248.57" y2="220.46" gradientUnits="userSpaceOnUse">
<stop stop-color="#5F1AED"/>
<stop offset="1" stop-color="#CA53FA"/>
</linearGradient>
<linearGradient id="paint11_linear_930_16022" x1="176.94" y1="142.6" x2="281.85" y2="142.6" gradientUnits="userSpaceOnUse">
<stop stop-color="#5F1AED"/>
<stop offset="1" stop-color="#CA53FA"/>
</linearGradient>
<linearGradient id="paint12_linear_930_16022" x1="239.6" y1="118.8" x2="160.76" y2="208.91" gradientUnits="userSpaceOnUse">
<stop offset="0.36" stop-color="#5F1AED"/>
<stop offset="1" stop-color="#CA53FA"/>
</linearGradient>
<linearGradient id="paint13_linear_930_16022" x1="195.96" y1="139.09" x2="213.47" y2="139.09" gradientUnits="userSpaceOnUse">
<stop stop-color="#5F1AED"/>
<stop offset="1" stop-color="#CA53FA"/>
</linearGradient>
<linearGradient id="paint14_linear_930_16022" x1="196.24" y1="124.03" x2="204.79" y2="124.03" gradientUnits="userSpaceOnUse">
<stop stop-color="#5F1AED"/>
<stop offset="1" stop-color="#CA53FA"/>
</linearGradient>
<linearGradient id="paint15_linear_930_16022" x1="191.06" y1="110.9" x2="200.53" y2="110.9" gradientUnits="userSpaceOnUse">
<stop stop-color="#5F1AED"/>
<stop offset="1" stop-color="#CA53FA"/>
</linearGradient>
<linearGradient id="paint16_linear_930_16022" x1="225.11" y1="289.75" x2="336.17" y2="289.75" gradientUnits="userSpaceOnUse">
<stop stop-color="#5F1AED"/>
<stop offset="1" stop-color="#CA53FA"/>
</linearGradient>
</defs>
</svg>
