<svg width="540" height="569" viewBox="0 0 540 569" fill="none" xmlns="http://www.w3.org/2000/svg">
<g clip-path="url(#clip0_930_16138)">
<path d="M466.36 450.34C485.25 427.9 481.41 406.02 468.11 386.51C464.73 383.89 461.24 381.42 457.66 379.13C428.52 360.49 361.2 387.37 359.38 353.13C354.87 268.26 149.38 1.31998 -1.84992 201.46C-22.6299 229 -5.13992 579.53 3.87008 613C12.2001 644 197.28 649.18 221.78 612C246.28 574.82 278.23 545 318.29 526.47C329.888 521.123 341.934 516.81 354.29 513.58C376.972 507.776 398.817 499.088 419.29 487.73C436.6 478 452.65 466.2 466.36 450.34Z" fill="#F9F6FF"/>
<path d="M-28.0898 614.28C-8.65984 595.37 19.7602 586.93 47.4202 584.28C75.0802 581.63 102.9 583.87 130.65 582.71C158.4 581.55 187.14 576.5 209.78 561.07C232.42 545.64 247.23 517.74 239.39 492.9C232.64 471.49 211.59 457.25 190.79 446.5C169.99 435.75 147.33 426.26 132.7 408.74C112.91 385.04 112.2 352.34 105.83 322.67C99.4602 293 80.8302 260.43 48.6502 257.72C25.4202 255.72 3.25016 271.29 -7.82984 290.72C-18.9098 310.15 -20.9598 332.86 -21.3098 354.72C-22.6398 438 -24.6898 521.15 -4.76984 602" fill="#F1E8FE"/>
<path d="M139.13 325.27C138.127 323.624 137.817 321.649 138.266 319.775C138.716 317.901 139.889 316.281 141.53 315.27C143.176 314.265 145.154 313.955 147.029 314.407C148.903 314.858 150.522 316.036 151.53 317.68C152.533 319.326 152.844 321.301 152.394 323.175C151.944 325.049 150.771 326.669 149.13 327.68C147.483 328.679 145.507 328.987 143.633 328.535C141.76 328.084 140.141 326.91 139.13 325.27Z" fill="#F1E8FE"/>
<path d="M215.72 470.8C214.721 469.152 214.413 467.177 214.865 465.303C215.316 463.43 216.49 461.811 218.13 460.8C219.778 459.8 221.754 459.493 223.627 459.944C225.5 460.396 227.119 461.57 228.13 463.21C229.13 464.857 229.437 466.833 228.986 468.706C228.534 470.58 227.36 472.199 225.72 473.21C224.073 474.209 222.097 474.517 220.224 474.065C218.35 473.614 216.732 472.44 215.72 470.8Z" fill="#F1E8FE"/>
<path d="M436.245 230.149L423.807 237.774L431.432 250.213L443.871 242.587L436.245 230.149Z" fill="#E0D2FC"/>
<path d="M156.68 258.507L144.241 266.132L151.867 278.571L164.305 270.945L156.68 258.507Z" fill="#E0D2FC"/>
<path d="M34.9074 424.722L22.4688 432.347L30.0942 444.786L42.5329 437.161L34.9074 424.722Z" fill="#E0D2FC"/>
<path d="M310.437 18.752L297.998 26.3774L305.623 38.8161L318.062 31.1907L310.437 18.752Z" fill="#F9F6FF"/>
<path d="M453.79 156.48C452.791 154.832 452.483 152.857 452.935 150.983C453.386 149.11 454.56 147.491 456.2 146.48C457.846 145.477 459.821 145.166 461.695 145.616C463.569 146.066 465.189 147.239 466.2 148.88C467.205 150.526 467.515 152.504 467.064 154.378C466.612 156.253 465.434 157.872 463.79 158.88C462.145 159.883 460.169 160.193 458.295 159.744C456.421 159.294 454.801 158.12 453.79 156.48Z" fill="#E0D2FC"/>
<path d="M149.71 427.63C148.705 425.984 148.395 424.006 148.847 422.132C149.299 420.257 150.476 418.638 152.12 417.63C153.766 416.627 155.742 416.317 157.615 416.766C159.489 417.216 161.109 418.389 162.12 420.03C163.12 421.678 163.427 423.653 162.976 425.527C162.524 427.4 161.35 429.019 159.71 430.03C158.065 431.033 156.089 431.344 154.215 430.894C152.341 430.444 150.721 429.271 149.71 427.63Z" fill="#E0D2FC"/>
<path d="M350.39 137.33C349.386 135.684 349.075 133.706 349.527 131.831C349.979 129.957 351.156 128.338 352.8 127.33C354.447 126.328 356.424 126.019 358.298 126.471C360.172 126.922 361.791 128.098 362.8 129.74C363.8 131.387 364.107 133.363 363.656 135.237C363.204 137.11 362.031 138.729 360.39 139.74C358.743 140.739 356.767 141.047 354.894 140.595C353.02 140.144 351.402 138.97 350.39 137.33Z" fill="#E0D2FC"/>
<path d="M466.923 49.7922L463.52 63.9797L477.707 67.3832L481.111 53.1957L466.923 49.7922Z" fill="#F9F6FF"/>
<path opacity="0.5" d="M72.4396 310.899L69.0361 325.086L83.2236 328.49L86.6271 314.302L72.4396 310.899Z" fill="#844BF1"/>
<path opacity="0.5" d="M389.226 75.6885L385.822 89.876L400.01 93.2795L403.413 79.092L389.226 75.6885Z" fill="#844BF1"/>
<path d="M382.71 274.33C381.708 272.683 381.399 270.707 381.851 268.832C382.303 266.958 383.478 265.339 385.12 264.33C386.766 263.327 388.742 263.016 390.616 263.466C392.49 263.916 394.109 265.089 395.12 266.73C396.122 268.377 396.431 270.353 395.98 272.228C395.528 274.102 394.353 275.72 392.71 276.73C391.065 277.733 389.089 278.044 387.215 277.594C385.341 277.144 383.721 275.971 382.71 274.33Z" fill="#F9F6FF"/>
<path d="M505.398 291.243L501.994 305.43L516.182 308.834L519.585 294.646L505.398 291.243Z" fill="#F1E8FE"/>
<path d="M292.85 161.59H246.39C208.862 161.59 178.44 192.012 178.44 229.54V352.96C178.44 390.488 208.862 420.91 246.39 420.91H292.85C330.378 420.91 360.8 390.488 360.8 352.96V229.54C360.8 192.012 330.378 161.59 292.85 161.59Z" fill="white"/>
<path d="M292.84 164.59C310.059 164.627 326.563 171.48 338.743 183.651C350.924 195.822 357.79 212.321 357.84 229.54V353C357.803 370.228 350.943 386.739 338.761 398.921C326.579 411.103 310.068 417.963 292.84 418H246.39C229.171 417.95 212.672 411.084 200.501 398.903C188.33 386.723 181.477 370.219 181.44 353V229.54C181.49 212.329 188.349 195.838 200.519 183.669C212.688 171.499 229.18 164.64 246.39 164.59H292.84ZM292.84 161.59H246.39C228.385 161.643 211.132 168.819 198.4 181.55C185.669 194.282 178.493 211.535 178.44 229.54V353C178.48 371.014 185.65 388.279 198.383 401.022C211.116 413.764 228.376 420.947 246.39 421H292.84C310.862 420.96 328.136 413.783 340.879 401.039C353.623 388.295 360.8 371.022 360.84 353V229.54C360.787 211.526 353.604 194.266 340.862 181.533C328.119 168.8 310.854 161.629 292.84 161.59Z" fill="url(#paint0_linear_930_16138)"/>
<path d="M318.57 152.44H220.66C217.142 152.44 214.29 155.292 214.29 158.81V163.95C214.29 167.468 217.142 170.32 220.66 170.32H318.57C322.088 170.32 324.94 167.468 324.94 163.95V158.81C324.94 155.292 322.088 152.44 318.57 152.44Z" fill="white"/>
<path d="M318.57 155.44C319.464 155.44 320.321 155.795 320.953 156.427C321.585 157.059 321.94 157.916 321.94 158.81V163.94C321.94 164.835 321.585 165.693 320.954 166.326C320.322 166.96 319.465 167.317 318.57 167.32H220.66C219.765 167.317 218.908 166.96 218.276 166.326C217.645 165.693 217.29 164.835 217.29 163.94V158.81C217.29 157.916 217.645 157.059 218.277 156.427C218.909 155.795 219.766 155.44 220.66 155.44H318.57ZM318.57 152.44H220.66C218.972 152.445 217.355 153.118 216.162 154.311C214.968 155.505 214.295 157.122 214.29 158.81V163.94C214.295 165.629 214.968 167.247 216.161 168.442C217.354 169.637 218.971 170.312 220.66 170.32H318.57C320.26 170.315 321.878 169.64 323.072 168.445C324.266 167.249 324.937 165.629 324.94 163.94V158.81C324.935 157.122 324.262 155.505 323.068 154.311C321.875 153.118 320.258 152.445 318.57 152.44Z" fill="url(#paint1_linear_930_16138)"/>
<path d="M320.4 146.89H218.83C216.323 146.89 214.29 148.923 214.29 151.43V151.44C214.29 153.947 216.323 155.98 218.83 155.98H320.4C322.907 155.98 324.94 153.947 324.94 151.44V151.43C324.94 148.923 322.907 146.89 320.4 146.89Z" fill="white"/>
<path d="M320.4 149.89C320.788 149.921 321.151 150.097 321.415 150.384C321.679 150.67 321.826 151.045 321.826 151.435C321.826 151.824 321.679 152.2 321.415 152.486C321.151 152.772 320.788 152.949 320.4 152.98H218.83C218.442 152.949 218.079 152.772 217.815 152.486C217.551 152.2 217.404 151.824 217.404 151.435C217.404 151.045 217.551 150.67 217.815 150.384C218.079 150.097 218.442 149.921 218.83 149.89H320.4ZM320.4 146.89H218.83C217.661 146.945 216.559 147.448 215.751 148.294C214.944 149.14 214.493 150.265 214.493 151.435C214.493 152.605 214.944 153.73 215.751 154.576C216.559 155.422 217.661 155.925 218.83 155.98H320.4C321.568 155.925 322.671 155.422 323.479 154.576C324.286 153.73 324.737 152.605 324.737 151.435C324.737 150.265 324.286 149.14 323.479 148.294C322.671 147.448 321.568 146.945 320.4 146.89Z" fill="url(#paint2_linear_930_16138)"/>
<path d="M279.91 338.63C294.828 338.63 306.92 326.537 306.92 311.62C306.92 296.703 294.828 284.61 279.91 284.61C264.993 284.61 252.9 296.703 252.9 311.62C252.9 326.537 264.993 338.63 279.91 338.63Z" fill="url(#paint3_linear_930_16138)"/>
<path opacity="0.13" d="M252.9 311.62V311.72C252.94 312.683 253.257 313.614 253.814 314.401C254.371 315.189 255.143 315.798 256.038 316.156C256.933 316.514 257.913 316.606 258.859 316.421C259.805 316.235 260.677 315.78 261.37 315.11L267.71 308.77C268.645 307.833 269.169 306.563 269.169 305.24C269.169 303.916 268.645 302.647 267.71 301.71L263.95 297.91C263.402 297.344 262.729 296.916 261.984 296.66C261.24 296.404 260.445 296.328 259.666 296.437C258.886 296.546 258.143 296.838 257.497 297.288C256.852 297.739 256.322 298.336 255.95 299.03C253.925 302.916 252.878 307.238 252.9 311.62Z" fill="white"/>
<path opacity="0.13" d="M258.18 327.65V327.7C258.47 328.074 258.837 328.382 259.255 328.604C259.673 328.826 260.133 328.957 260.606 328.989C261.078 329.02 261.552 328.95 261.996 328.785C262.439 328.62 262.843 328.362 263.18 328.03L276.18 315.03C276.806 314.402 277.157 313.551 277.157 312.665C277.157 311.778 276.806 310.928 276.18 310.3V310.25C275.869 309.937 275.499 309.689 275.091 309.519C274.683 309.35 274.246 309.262 273.805 309.262C273.364 309.262 272.927 309.35 272.519 309.519C272.111 309.689 271.741 309.937 271.43 310.25L258.43 323.25C257.869 323.832 257.535 324.596 257.489 325.404C257.443 326.211 257.689 327.008 258.18 327.65Z" fill="white"/>
<path d="M279.75 323.57C279.54 323.468 279.368 323.301 279.26 323.094C279.152 322.887 279.114 322.651 279.15 322.42C279.15 322.03 279.15 321.64 279.15 321.26C279.15 321.09 279.15 321.02 278.95 321.01C278.154 320.952 277.374 320.763 276.64 320.45C275.723 320.052 274.888 319.485 274.18 318.78C273.97 318.545 273.847 318.244 273.832 317.929C273.817 317.614 273.912 317.303 274.1 317.05C274.176 316.928 274.276 316.825 274.395 316.745C274.514 316.666 274.649 316.613 274.79 316.59C274.932 316.568 275.076 316.576 275.214 316.613C275.352 316.651 275.48 316.718 275.59 316.81C276.06 317.229 276.573 317.598 277.12 317.91C277.691 318.205 278.3 318.421 278.93 318.55C279.08 318.55 279.12 318.55 279.12 318.37C279.12 316.51 279.12 314.64 279.12 312.77C279.12 312.6 279.03 312.57 278.92 312.53C278.139 312.308 277.379 312.017 276.65 311.66C275.976 311.329 275.384 310.851 274.92 310.26C274.468 309.649 274.192 308.926 274.12 308.17C273.935 306.981 274.185 305.765 274.825 304.746C275.464 303.726 276.449 302.971 277.6 302.62C278.025 302.467 278.469 302.373 278.92 302.34C279.07 302.34 279.12 302.25 279.12 302.08C279.12 301.62 279.12 301.15 279.12 300.68C279.12 299.94 279.7 299.49 280.3 299.73C280.485 299.819 280.637 299.963 280.738 300.142C280.838 300.321 280.88 300.526 280.86 300.73C280.86 301.2 280.86 301.67 280.86 302.13C280.86 302.29 280.86 302.36 281.06 302.38C282.536 302.535 283.918 303.183 284.98 304.22C285.117 304.374 285.216 304.558 285.27 304.757C285.324 304.955 285.332 305.164 285.292 305.366C285.252 305.569 285.166 305.759 285.041 305.922C284.916 306.086 284.755 306.219 284.57 306.31C284.387 306.389 284.184 306.411 283.988 306.373C283.792 306.336 283.612 306.241 283.47 306.1C282.788 305.523 281.979 305.115 281.11 304.91C280.87 304.86 280.87 304.86 280.87 305.14C280.87 306.71 280.87 308.27 280.87 309.83C280.856 309.913 280.875 309.999 280.924 310.069C280.972 310.138 281.047 310.185 281.13 310.2C281.843 310.404 282.535 310.672 283.2 311C283.998 311.387 284.685 311.968 285.2 312.69C285.664 313.397 285.93 314.215 285.97 315.06C286.055 316.088 285.876 317.121 285.45 318.06C284.987 319.082 284.17 319.902 283.15 320.37C282.5 320.667 281.803 320.85 281.09 320.91C280.91 320.91 280.87 321.01 280.88 321.19C280.88 321.61 280.88 322.03 280.88 322.45C280.911 322.673 280.866 322.9 280.751 323.095C280.637 323.289 280.46 323.439 280.25 323.52L279.75 323.57ZM280.88 315.89V318.39C280.88 318.49 280.88 318.61 281.02 318.58C281.416 318.532 281.798 318.404 282.142 318.203C282.486 318.001 282.785 317.732 283.02 317.41C283.401 316.892 283.567 316.247 283.483 315.609C283.399 314.972 283.072 314.392 282.57 313.99C282.1 313.68 281.593 313.431 281.06 313.25C280.9 313.2 280.87 313.25 280.87 313.42L280.88 315.89ZM279.16 307.22C279.16 306.48 279.16 305.75 279.16 305.01C279.16 304.84 279.11 304.76 278.95 304.79C278.279 304.864 277.656 305.172 277.19 305.66C276.798 306.083 276.588 306.644 276.607 307.22C276.625 307.797 276.871 308.343 277.29 308.74C277.821 309.111 278.409 309.395 279.03 309.58C279.2 309.63 279.15 309.48 279.15 309.39C279.16 308.67 279.16 308 279.16 307.22Z" fill="white"/>
<path d="M279.91 336.56C293.684 336.56 304.85 325.394 304.85 311.62C304.85 297.846 293.684 286.68 279.91 286.68C266.136 286.68 254.97 297.846 254.97 311.62C254.97 325.394 266.136 336.56 279.91 336.56Z" stroke="white" stroke-width="2.21" stroke-miterlimit="10"/>
<path opacity="0.13" d="M269 295.47L278.24 304.71C278.634 305.104 279.102 305.417 279.616 305.63C280.131 305.844 280.683 305.954 281.24 305.954C281.797 305.954 282.349 305.844 282.864 305.63C283.379 305.417 283.846 305.104 284.24 304.71L292.71 296.24C293.167 295.785 293.514 295.231 293.725 294.622C293.936 294.012 294.005 293.362 293.927 292.722C293.849 292.082 293.626 291.468 293.275 290.927C292.923 290.386 292.453 289.932 291.9 289.6C288.654 287.612 284.957 286.477 281.154 286.302C277.351 286.128 273.565 286.918 270.15 288.6C269.531 288.892 268.992 289.33 268.579 289.876C268.166 290.421 267.891 291.059 267.778 291.734C267.665 292.409 267.718 293.102 267.93 293.752C268.143 294.403 268.51 294.992 269 295.47Z" fill="white"/>
<path d="M270.22 226.95C285.137 226.95 297.23 214.857 297.23 199.94C297.23 185.023 285.137 172.93 270.22 172.93C255.303 172.93 243.21 185.023 243.21 199.94C243.21 214.857 255.303 226.95 270.22 226.95Z" fill="url(#paint4_linear_930_16138)"/>
<path opacity="0.13" d="M243.21 199.94V200.05C243.227 201.023 243.531 201.969 244.083 202.77C244.636 203.571 245.413 204.191 246.317 204.552C247.22 204.913 248.21 204.999 249.163 204.8C250.115 204.6 250.987 204.123 251.67 203.43L258.01 197.09C258.944 196.153 259.469 194.883 259.469 193.56C259.469 192.237 258.944 190.967 258.01 190.03L254.25 186.24C253.702 185.674 253.029 185.246 252.284 184.99C251.54 184.734 250.745 184.658 249.966 184.767C249.186 184.876 248.443 185.168 247.797 185.619C247.152 186.069 246.622 186.666 246.25 187.36C244.224 191.242 243.18 195.561 243.21 199.94Z" fill="white"/>
<path opacity="0.13" d="M248.49 216V216.05C248.778 216.427 249.144 216.738 249.562 216.962C249.98 217.186 250.442 217.318 250.915 217.349C251.389 217.38 251.863 217.31 252.307 217.143C252.751 216.976 253.155 216.716 253.49 216.38L266.49 203.38C267.113 202.751 267.463 201.901 267.463 201.015C267.463 200.129 267.113 199.279 266.49 198.65H266.44C266.129 198.337 265.759 198.089 265.351 197.919C264.943 197.75 264.506 197.663 264.065 197.663C263.624 197.663 263.186 197.75 262.779 197.919C262.371 198.089 262.001 198.337 261.69 198.65L248.69 211.65C248.149 212.235 247.833 212.993 247.796 213.788C247.759 214.584 248.005 215.368 248.49 216Z" fill="white"/>
<path d="M270.05 211.9C269.841 211.797 269.67 211.63 269.562 211.423C269.455 211.216 269.415 210.981 269.45 210.75C269.45 210.36 269.45 209.97 269.45 209.58C269.45 209.42 269.45 209.34 269.26 209.33C268.462 209.272 267.679 209.086 266.94 208.78C266.02 208.383 265.185 207.813 264.48 207.1C264.269 206.865 264.146 206.564 264.132 206.249C264.117 205.934 264.212 205.623 264.4 205.37C264.476 205.249 264.578 205.146 264.697 205.068C264.817 204.99 264.951 204.938 265.093 204.916C265.234 204.894 265.378 204.903 265.516 204.942C265.653 204.98 265.781 205.048 265.89 205.14C266.36 205.559 266.873 205.928 267.42 206.24C267.99 206.535 268.6 206.748 269.23 206.87C269.38 206.87 269.42 206.87 269.42 206.7V201.1C269.42 200.93 269.33 200.89 269.22 200.86C268.456 200.639 267.713 200.351 267 200C266.325 199.669 265.734 199.191 265.27 198.6C264.823 197.99 264.546 197.272 264.47 196.52C264.282 195.329 264.531 194.111 265.171 193.09C265.81 192.068 266.797 191.312 267.95 190.96C268.377 190.812 268.82 190.718 269.27 190.68C269.42 190.68 269.47 190.59 269.47 190.43C269.47 189.96 269.47 189.49 269.47 189.03C269.47 188.29 270.05 187.83 270.65 188.03C270.834 188.119 270.987 188.263 271.087 188.442C271.188 188.621 271.23 188.826 271.21 189.03C271.21 189.49 271.21 189.96 271.21 190.43C271.21 190.59 271.21 190.66 271.41 190.67C272.885 190.83 274.265 191.477 275.33 192.51C275.468 192.663 275.569 192.847 275.625 193.046C275.68 193.245 275.688 193.455 275.648 193.658C275.608 193.861 275.522 194.051 275.395 194.215C275.269 194.378 275.106 194.51 274.92 194.6C274.737 194.679 274.534 194.701 274.338 194.663C274.142 194.626 273.961 194.531 273.82 194.39C273.137 193.816 272.329 193.412 271.46 193.21C271.22 193.15 271.22 193.15 271.22 193.44C271.22 195 271.22 196.56 271.22 198.13C271.211 198.17 271.211 198.212 271.219 198.252C271.227 198.292 271.243 198.331 271.267 198.364C271.29 198.398 271.32 198.427 271.355 198.448C271.39 198.47 271.429 198.484 271.47 198.49C272.183 198.696 272.876 198.967 273.54 199.3C274.337 199.684 275.024 200.261 275.54 200.98C276.007 201.685 276.273 202.505 276.31 203.35C276.401 204.394 276.222 205.445 275.79 206.4C275.329 207.421 274.511 208.239 273.49 208.7C272.842 209.005 272.144 209.191 271.43 209.25C271.25 209.25 271.22 209.34 271.22 209.52C271.22 209.94 271.22 210.36 271.22 210.78C271.253 211.005 271.209 211.234 271.094 211.431C270.98 211.627 270.802 211.778 270.59 211.86L270.05 211.9ZM271.18 204.21V206.71C271.18 206.81 271.18 206.94 271.32 206.91C271.714 206.857 272.094 206.727 272.437 206.526C272.781 206.325 273.081 206.058 273.32 205.74C273.701 205.222 273.867 204.577 273.783 203.939C273.699 203.302 273.372 202.722 272.87 202.32C272.407 201.998 271.898 201.749 271.36 201.58C271.2 201.52 271.17 201.58 271.17 201.74L271.18 204.21ZM269.46 195.55V193.33C269.46 193.16 269.46 193.09 269.26 193.11C268.585 193.188 267.959 193.499 267.49 193.99C267.097 194.413 266.888 194.974 266.906 195.551C266.925 196.127 267.171 196.673 267.59 197.07C268.124 197.44 268.715 197.72 269.34 197.9C269.5 197.96 269.46 197.8 269.46 197.72V195.55Z" fill="white"/>
<path d="M270.22 224.88C283.994 224.88 295.16 213.714 295.16 199.94C295.16 186.166 283.994 175 270.22 175C256.446 175 245.28 186.166 245.28 199.94C245.28 213.714 256.446 224.88 270.22 224.88Z" stroke="white" stroke-width="2.21" stroke-miterlimit="10"/>
<path opacity="0.13" d="M259.34 183.8L268.58 193.04C269.378 193.831 270.456 194.275 271.58 194.275C272.704 194.275 273.782 193.831 274.58 193.04L283.05 184.56C283.509 184.107 283.858 183.554 284.07 182.945C284.282 182.336 284.351 181.686 284.273 181.046C284.195 180.406 283.971 179.792 283.619 179.252C283.266 178.712 282.795 178.259 282.24 177.93C278.995 175.937 275.298 174.8 271.494 174.625C267.69 174.45 263.904 175.243 260.49 176.93C259.871 177.222 259.332 177.66 258.919 178.206C258.506 178.751 258.231 179.389 258.118 180.064C258.005 180.739 258.057 181.432 258.27 182.082C258.483 182.733 258.85 183.322 259.34 183.8Z" fill="white"/>
<path d="M320.84 373.72C335.757 373.72 347.85 361.627 347.85 346.71C347.85 331.793 335.757 319.7 320.84 319.7C305.923 319.7 293.83 331.793 293.83 346.71C293.83 361.627 305.923 373.72 320.84 373.72Z" fill="url(#paint5_linear_930_16138)"/>
<path opacity="0.13" d="M293.83 346.71V346.82C293.872 347.781 294.189 348.71 294.746 349.495C295.302 350.28 296.073 350.888 296.966 351.246C297.859 351.604 298.836 351.697 299.781 351.513C300.725 351.329 301.596 350.877 302.29 350.21L308.64 343.86C309.574 342.923 310.099 341.653 310.099 340.33C310.099 339.007 309.574 337.737 308.64 336.8L304.89 333C304.342 332.445 303.672 332.025 302.933 331.775C302.193 331.525 301.406 331.452 300.633 331.561C299.861 331.669 299.124 331.958 298.483 332.402C297.842 332.846 297.313 333.435 296.94 334.12C294.888 337.998 293.82 342.322 293.83 346.71Z" fill="white"/>
<path opacity="0.13" d="M299.11 362.74V362.79C299.398 363.167 299.764 363.478 300.182 363.702C300.6 363.926 301.062 364.058 301.535 364.089C302.009 364.12 302.483 364.05 302.927 363.883C303.371 363.716 303.775 363.456 304.11 363.12L317.11 350.12C317.733 349.491 318.083 348.641 318.083 347.755C318.083 346.869 317.733 346.019 317.11 345.39L317.06 345.34C316.749 345.027 316.379 344.779 315.971 344.609C315.563 344.44 315.126 344.353 314.685 344.353C314.244 344.353 313.806 344.44 313.399 344.609C312.991 344.779 312.621 345.027 312.31 345.34L299.31 358.34C298.758 358.929 298.435 359.696 298.398 360.503C298.361 361.31 298.614 362.103 299.11 362.74Z" fill="white"/>
<path d="M320.68 358.67C320.467 358.572 320.292 358.406 320.184 358.198C320.075 357.989 320.039 357.751 320.08 357.52C320.08 357.13 320.08 356.74 320.08 356.35C320.08 356.19 320.08 356.12 319.89 356.1C319.096 356.042 318.316 355.856 317.58 355.55C316.656 355.156 315.817 354.585 315.11 353.87C314.901 353.634 314.78 353.333 314.767 353.017C314.754 352.702 314.851 352.392 315.04 352.14C315.117 352.019 315.218 351.916 315.337 351.838C315.457 351.76 315.592 351.708 315.733 351.686C315.874 351.664 316.018 351.673 316.156 351.712C316.293 351.75 316.421 351.818 316.53 351.91C316.996 352.334 317.51 352.703 318.06 353.01C318.63 353.307 319.239 353.519 319.87 353.64C320.01 353.64 320.05 353.64 320.05 353.47V347.87C320.05 347.7 319.96 347.66 319.85 347.63C319.072 347.405 318.316 347.11 317.59 346.75C316.913 346.424 316.321 345.944 315.86 345.35C315.41 344.741 315.13 344.023 315.05 343.27C314.873 342.03 315.154 340.768 315.84 339.72C316.488 338.768 317.44 338.063 318.54 337.72C318.963 337.572 319.404 337.478 319.85 337.44C320 337.44 320.05 337.35 320.05 337.19C320.05 336.72 320.05 336.25 320.05 335.79C320.05 335.05 320.64 334.59 321.23 334.79C321.417 334.878 321.571 335.021 321.673 335.2C321.776 335.379 321.82 335.585 321.8 335.79V337.19C321.8 337.35 321.8 337.42 321.99 337.43C323.466 337.586 324.847 338.234 325.91 339.27C326.049 339.424 326.151 339.607 326.207 339.807C326.262 340.006 326.271 340.216 326.233 340.42C326.194 340.623 326.108 340.815 325.983 340.98C325.858 341.145 325.696 341.278 325.51 341.37C325.325 341.45 325.119 341.471 324.921 341.432C324.723 341.393 324.541 341.295 324.4 341.15C323.704 340.579 322.881 340.185 322 340C321.77 339.94 321.76 339.94 321.76 340.23C321.76 341.79 321.76 343.35 321.76 344.92C321.76 345.14 321.83 345.23 322.01 345.28C322.723 345.486 323.416 345.757 324.08 346.09C324.877 346.474 325.565 347.051 326.08 347.77C326.547 348.475 326.813 349.295 326.85 350.14C326.938 351.168 326.759 352.201 326.33 353.14C325.87 354.158 325.057 354.976 324.04 355.44C323.388 355.745 322.687 355.931 321.97 355.99C321.8 355.99 321.76 356.08 321.76 356.26C321.76 356.68 321.76 357.1 321.76 357.52C321.793 357.746 321.747 357.976 321.631 358.173C321.514 358.369 321.334 358.52 321.12 358.6L320.68 358.67ZM321.8 351C321.8 351.84 321.8 352.67 321.8 353.5C321.8 353.6 321.8 353.73 321.93 353.7C322.326 353.654 322.708 353.526 323.053 353.324C323.397 353.123 323.696 352.852 323.93 352.53C324.314 352.013 324.481 351.367 324.397 350.729C324.313 350.091 323.984 349.51 323.48 349.11C323.017 348.788 322.508 348.539 321.97 348.37C321.82 348.31 321.78 348.37 321.78 348.53C321.81 349.34 321.8 350.16 321.8 351ZM320.08 342.34V340.1C320.08 339.93 320.08 339.86 319.88 339.88C319.209 339.958 318.586 340.27 318.12 340.76C317.725 341.182 317.514 341.743 317.533 342.321C317.551 342.898 317.799 343.445 318.22 343.84C318.75 344.212 319.338 344.492 319.96 344.67C320.12 344.73 320.08 344.57 320.08 344.49V342.34Z" fill="white"/>
<path d="M320.84 371.65C334.614 371.65 345.78 360.484 345.78 346.71C345.78 332.936 334.614 321.77 320.84 321.77C307.066 321.77 295.9 332.936 295.9 346.71C295.9 360.484 307.066 371.65 320.84 371.65Z" stroke="white" stroke-width="2.21" stroke-miterlimit="10"/>
<path opacity="0.13" d="M310 330.57L319.24 339.81C319.634 340.204 320.102 340.517 320.617 340.73C321.131 340.944 321.683 341.054 322.24 341.054C322.798 341.054 323.349 340.944 323.864 340.73C324.379 340.517 324.847 340.204 325.24 339.81L333.72 331.33C334.179 330.877 334.528 330.324 334.74 329.715C334.952 329.106 335.022 328.456 334.943 327.816C334.865 327.176 334.641 326.562 334.289 326.022C333.936 325.482 333.465 325.029 332.91 324.7C329.666 322.707 325.968 321.57 322.164 321.395C318.36 321.22 314.574 322.013 311.16 323.7C310.541 323.991 310.001 324.428 309.587 324.973C309.173 325.519 308.897 326.156 308.783 326.831C308.669 327.507 308.72 328.199 308.932 328.85C309.144 329.501 309.511 330.091 310 330.57Z" fill="white"/>
<path d="M296.08 396.28C310.997 396.28 323.09 384.187 323.09 369.27C323.09 354.353 310.997 342.26 296.08 342.26C281.163 342.26 269.07 354.353 269.07 369.27C269.07 384.187 281.163 396.28 296.08 396.28Z" fill="url(#paint6_linear_930_16138)"/>
<path opacity="0.13" d="M269.07 369.27V369.37C269.11 370.333 269.427 371.265 269.984 372.052C270.54 372.839 271.313 373.448 272.208 373.806C273.103 374.164 274.082 374.256 275.028 374.071C275.974 373.885 276.847 373.43 277.54 372.76L283.88 366.42C284.814 365.483 285.339 364.213 285.339 362.89C285.339 361.567 284.814 360.297 283.88 359.36L280.12 355.56C279.572 355.005 278.901 354.585 278.162 354.335C277.423 354.085 276.636 354.012 275.863 354.121C275.091 354.23 274.354 354.518 273.713 354.962C273.071 355.407 272.543 355.995 272.17 356.68C270.127 360.562 269.063 364.884 269.07 369.27Z" fill="white"/>
<path opacity="0.13" d="M274.35 385.29V385.35C274.64 385.724 275.006 386.032 275.424 386.255C275.843 386.477 276.303 386.608 276.776 386.639C277.248 386.67 277.722 386.601 278.165 386.435C278.609 386.27 279.013 386.013 279.35 385.68L292.35 372.68C292.975 372.054 293.326 371.205 293.326 370.32C293.326 369.435 292.975 368.586 292.35 367.96L292.3 367.91C291.989 367.596 291.619 367.347 291.212 367.176C290.804 367.006 290.367 366.918 289.925 366.918C289.483 366.918 289.046 367.006 288.638 367.176C288.23 367.347 287.86 367.596 287.55 367.91L274.55 380.91C274.001 381.497 273.68 382.261 273.643 383.063C273.607 383.866 273.857 384.655 274.35 385.29Z" fill="white"/>
<path d="M295.92 381.22C295.709 381.119 295.536 380.952 295.428 380.745C295.32 380.538 295.282 380.301 295.32 380.07C295.32 379.68 295.32 379.29 295.32 378.9C295.32 378.74 295.32 378.67 295.12 378.66C294.324 378.603 293.544 378.414 292.81 378.1C291.888 377.705 291.053 377.135 290.35 376.42C290.136 376.187 290.011 375.886 289.996 375.569C289.981 375.253 290.078 374.942 290.27 374.69C290.346 374.569 290.448 374.466 290.567 374.388C290.687 374.31 290.822 374.258 290.963 374.236C291.104 374.214 291.248 374.223 291.386 374.262C291.523 374.3 291.651 374.368 291.76 374.46C292.228 374.882 292.741 375.251 293.29 375.56C293.861 375.855 294.47 376.071 295.1 376.2C295.24 376.2 295.28 376.2 295.28 376.02V370.42C295.28 370.25 295.2 370.22 295.08 370.18C294.302 369.958 293.546 369.667 292.82 369.31C292.146 368.979 291.554 368.501 291.09 367.91C290.64 367.297 290.36 366.576 290.28 365.82C290.109 364.58 290.39 363.32 291.07 362.27C291.539 361.629 292.138 361.095 292.827 360.7C293.516 360.306 294.28 360.06 295.07 359.98C295.23 359.98 295.28 359.89 295.27 359.73C295.27 359.27 295.27 358.8 295.27 358.33C295.27 357.59 295.85 357.14 296.45 357.33C296.635 357.419 296.787 357.563 296.888 357.742C296.988 357.921 297.03 358.126 297.01 358.33V359.73C297.01 359.89 297.01 359.96 297.2 359.98C298.68 360.133 300.065 360.781 301.13 361.82C301.267 361.974 301.366 362.158 301.42 362.357C301.474 362.555 301.482 362.764 301.442 362.966C301.402 363.168 301.316 363.359 301.191 363.522C301.066 363.686 300.905 363.819 300.72 363.91C300.535 363.991 300.331 364.014 300.133 363.977C299.934 363.939 299.752 363.843 299.61 363.7C298.929 363.121 298.12 362.713 297.25 362.51C297.02 362.45 297.02 362.46 297.02 362.74C297.02 364.3 297.02 365.87 297.02 367.43C297.006 367.513 297.025 367.599 297.073 367.669C297.122 367.738 297.197 367.785 297.28 367.8C297.99 368.003 298.679 368.27 299.34 368.6C300.141 368.981 300.83 369.563 301.34 370.29C301.807 370.992 302.077 371.808 302.12 372.65C302.207 373.694 302.028 374.744 301.6 375.7C301.134 376.72 300.318 377.539 299.3 378.01C298.65 378.307 297.953 378.49 297.24 378.55C297.06 378.55 297.02 378.65 297.02 378.83C297.02 379.25 297.02 379.67 297.02 380.09C297.051 380.313 297.006 380.54 296.891 380.735C296.777 380.929 296.6 381.079 296.39 381.16L295.92 381.22ZM297.05 373.54V376C297.05 376.11 297.05 376.23 297.19 376.2C297.586 376.153 297.968 376.025 298.312 375.824C298.657 375.623 298.955 375.352 299.19 375.03C299.574 374.513 299.741 373.867 299.657 373.229C299.573 372.591 299.244 372.01 298.74 371.61C298.273 371.296 297.765 371.047 297.23 370.87C297.08 370.87 297.04 370.87 297.04 371.03C297.05 371.89 297.05 372.71 297.05 373.54ZM295.32 364.87C295.32 364.13 295.32 363.39 295.32 362.65C295.32 362.48 295.27 362.41 295.11 362.43C294.438 362.508 293.816 362.82 293.35 363.31C292.955 363.732 292.744 364.293 292.763 364.871C292.781 365.448 293.029 365.995 293.45 366.39C293.981 366.762 294.568 367.046 295.19 367.23C295.35 367.23 295.31 367.12 295.31 367.04L295.32 364.87Z" fill="white"/>
<path d="M296.08 394.21C309.854 394.21 321.02 383.044 321.02 369.27C321.02 355.496 309.854 344.33 296.08 344.33C282.306 344.33 271.14 355.496 271.14 369.27C271.14 383.044 282.306 394.21 296.08 394.21Z" stroke="white" stroke-width="2.21" stroke-miterlimit="10"/>
<path opacity="0.13" d="M285.2 353.12L294.44 362.36C294.833 362.754 295.301 363.067 295.816 363.28C296.331 363.494 296.882 363.604 297.44 363.604C297.997 363.604 298.549 363.494 299.063 363.28C299.578 363.067 300.046 362.754 300.44 362.36L308.92 353.89C309.377 353.435 309.724 352.881 309.935 352.272C310.146 351.662 310.215 351.012 310.137 350.372C310.059 349.732 309.835 349.118 309.484 348.577C309.133 348.036 308.663 347.582 308.11 347.25C304.864 345.26 301.167 344.124 297.363 343.95C293.56 343.775 289.774 344.566 286.36 346.25C285.742 346.543 285.204 346.981 284.791 347.526C284.378 348.071 284.103 348.708 283.989 349.383C283.876 350.057 283.926 350.749 284.137 351.4C284.348 352.05 284.712 352.64 285.2 353.12Z" fill="white"/>
<path d="M238.55 389.68C253.467 389.68 265.56 377.587 265.56 362.67C265.56 347.753 253.467 335.66 238.55 335.66C223.633 335.66 211.54 347.753 211.54 362.67C211.54 377.587 223.633 389.68 238.55 389.68Z" fill="url(#paint7_linear_930_16138)"/>
<path opacity="0.13" d="M211.54 362.67V362.77C211.581 363.731 211.899 364.66 212.455 365.445C213.012 366.23 213.783 366.838 214.676 367.196C215.569 367.554 216.546 367.647 217.491 367.463C218.435 367.279 219.306 366.827 220 366.16L226.34 359.82C227.274 358.883 227.799 357.613 227.799 356.29C227.799 354.967 227.274 353.697 226.34 352.76L222.6 349C222.052 348.445 221.382 348.025 220.643 347.775C219.903 347.525 219.116 347.452 218.343 347.561C217.571 347.669 216.834 347.958 216.193 348.402C215.552 348.846 215.023 349.435 214.65 350.12C212.605 353.987 211.538 358.296 211.54 362.67Z" fill="white"/>
<path opacity="0.13" d="M216.82 378.69V378.75C217.109 379.125 217.475 379.435 217.893 379.658C218.311 379.881 218.772 380.013 219.245 380.044C219.718 380.075 220.192 380.005 220.636 379.839C221.08 379.673 221.484 379.414 221.82 379.08L234.82 366.08C235.441 365.449 235.789 364.6 235.789 363.715C235.789 362.83 235.441 361.98 234.82 361.35V361.3C234.509 360.986 234.139 360.736 233.732 360.566C233.324 360.396 232.887 360.308 232.445 360.308C232.003 360.308 231.566 360.396 231.158 360.566C230.75 360.736 230.38 360.986 230.07 361.3L217.07 374.3C216.508 374.88 216.173 375.642 216.127 376.448C216.081 377.255 216.327 378.05 216.82 378.69Z" fill="white"/>
<path d="M238.39 374.62C238.177 374.521 238.002 374.355 237.892 374.147C237.782 373.94 237.743 373.702 237.78 373.47C237.78 373.08 237.78 372.69 237.78 372.31C237.78 372.14 237.78 372.07 237.59 372.06C236.791 372.003 236.007 371.814 235.27 371.5C234.35 371.103 233.514 370.533 232.81 369.82C232.602 369.586 232.48 369.287 232.466 368.974C232.451 368.661 232.544 368.353 232.73 368.1C232.805 367.979 232.906 367.875 233.025 367.795C233.144 367.716 233.279 367.663 233.42 367.641C233.561 367.618 233.706 367.626 233.844 367.664C233.982 367.701 234.11 367.768 234.22 367.86C234.691 368.282 235.208 368.651 235.76 368.96C236.327 369.256 236.933 369.471 237.56 369.6C237.71 369.6 237.75 369.6 237.75 369.42V363.82C237.75 363.65 237.66 363.62 237.55 363.58C236.771 363.36 236.015 363.069 235.29 362.71C234.612 362.381 234.017 361.902 233.55 361.31C233.103 360.697 232.826 359.975 232.75 359.22C232.675 358.52 232.741 357.813 232.943 357.139C233.145 356.465 233.479 355.837 233.926 355.294C234.372 354.75 234.923 354.301 235.545 353.972C236.167 353.644 236.849 353.442 237.55 353.38C237.7 353.38 237.75 353.29 237.75 353.13C237.75 352.67 237.75 352.2 237.75 351.73C237.75 350.99 238.34 350.54 238.93 350.73C239.114 350.819 239.267 350.963 239.367 351.142C239.467 351.321 239.51 351.526 239.49 351.73C239.49 352.2 239.49 352.66 239.49 353.13C239.49 353.29 239.49 353.36 239.69 353.38C241.166 353.535 242.547 354.183 243.61 355.22C243.749 355.373 243.85 355.556 243.906 355.754C243.962 355.953 243.971 356.162 243.932 356.365C243.893 356.568 243.808 356.759 243.683 356.923C243.557 357.087 243.395 357.219 243.21 357.31C243.025 357.391 242.82 357.414 242.622 357.377C242.424 357.339 242.242 357.243 242.1 357.1C241.418 356.523 240.609 356.116 239.74 355.91C239.51 355.86 239.5 355.86 239.5 356.14C239.5 357.71 239.5 359.27 239.5 360.83C239.5 361.06 239.57 361.14 239.75 361.2C240.463 361.403 241.156 361.671 241.82 362C242.617 362.387 243.305 362.968 243.82 363.69C244.29 364.394 244.556 365.214 244.59 366.06C244.675 367.088 244.496 368.121 244.07 369.06C243.609 370.084 242.792 370.905 241.77 371.37C241.12 371.668 240.423 371.851 239.71 371.91C239.53 371.91 239.5 372.01 239.5 372.19C239.5 372.61 239.5 373.03 239.5 373.45C239.531 373.673 239.485 373.9 239.371 374.095C239.257 374.289 239.08 374.439 238.87 374.52L238.39 374.62ZM239.51 366.94V369.43C239.51 369.54 239.51 369.66 239.65 369.63C240.046 369.584 240.428 369.456 240.772 369.254C241.116 369.053 241.415 368.782 241.65 368.46C242.031 367.942 242.197 367.297 242.113 366.659C242.029 366.022 241.702 365.442 241.2 365.04C240.732 364.726 240.224 364.477 239.69 364.3C239.53 364.25 239.5 364.3 239.5 364.47C239.52 365.29 239.51 366.11 239.51 366.94ZM237.79 358.27V356.06C237.79 355.88 237.79 355.81 237.59 355.84C236.916 355.914 236.29 356.222 235.82 356.71C235.426 357.133 235.217 357.695 235.237 358.273C235.258 358.85 235.507 359.396 235.93 359.79C236.459 360.165 237.047 360.449 237.67 360.63C237.83 360.68 237.79 360.53 237.79 360.44V358.27Z" fill="white"/>
<path d="M238.55 387.61C252.324 387.61 263.49 376.444 263.49 362.67C263.49 348.896 252.324 337.73 238.55 337.73C224.776 337.73 213.61 348.896 213.61 362.67C213.61 376.444 224.776 387.61 238.55 387.61Z" stroke="white" stroke-width="2.21" stroke-miterlimit="10"/>
<path opacity="0.13" d="M227.67 346.52L236.91 355.76C237.304 356.154 237.772 356.467 238.286 356.681C238.801 356.894 239.353 357.004 239.91 357.004C240.468 357.004 241.019 356.894 241.534 356.681C242.049 356.467 242.516 356.154 242.91 355.76L251.38 347.29C251.839 346.836 252.188 346.283 252.4 345.673C252.612 345.063 252.682 344.412 252.604 343.771C252.525 343.13 252.301 342.516 251.949 341.975C251.597 341.434 251.125 340.981 250.57 340.65C247.326 338.662 243.63 337.527 239.829 337.352C236.028 337.178 232.244 337.968 228.83 339.65C228.211 339.941 227.671 340.378 227.257 340.924C226.843 341.469 226.567 342.106 226.453 342.782C226.339 343.457 226.39 344.149 226.602 344.8C226.814 345.452 227.181 346.041 227.67 346.52Z" fill="white"/>
<path opacity="0.66" d="M304.79 208.78C312.85 207.86 321.51 206.78 328.63 210.64C338.63 216.08 341.46 228.81 343.3 240.02C345.04 250.68 346.79 261.41 346.6 272.21C346.41 283.01 344.16 294 338.43 303.21C337.61 304.52 336.43 305.94 334.91 305.87C333.2 305.8 332.17 303.99 331.59 302.39C328.59 294.29 328.59 285.47 327.14 276.96C325.69 268.45 322.53 259.53 315.36 254.75C308.7 250.31 300.12 250.37 292.12 250.4C273.8 250.49 255.12 249.6 237.91 243.4C228.77 240.1 195.21 223.35 203.24 209.3C207.19 202.39 222.91 208.3 229.24 208.96C240.964 210.236 252.747 210.903 264.54 210.96C277.988 211.039 291.429 210.311 304.79 208.78Z" fill="#F1E8FE"/>
<path opacity="0.66" d="M322.16 380.54C267.74 390.36 206.31 363.1 181.44 313.54L181.33 353.41C181.33 389.57 211.08 417.95 247.24 417.95H292.18C328.33 417.95 357.75 389.57 357.75 353.41V352.41C349.51 366 338.68 377.34 322.16 380.54Z" fill="#F1E8FE"/>
<path d="M223.06 161.38H316.68" stroke="url(#paint8_linear_930_16138)" stroke-width="2.48" stroke-miterlimit="10"/>
</g>
<defs>
<linearGradient id="paint0_linear_930_16138" x1="178.44" y1="291.25" x2="360.79" y2="291.25" gradientUnits="userSpaceOnUse">
<stop stop-color="#5F1AED"/>
<stop offset="1" stop-color="#CA53FA"/>
</linearGradient>
<linearGradient id="paint1_linear_930_16138" x1="214.29" y1="161.38" x2="324.94" y2="161.38" gradientUnits="userSpaceOnUse">
<stop stop-color="#5F1AED"/>
<stop offset="1" stop-color="#CA53FA"/>
</linearGradient>
<linearGradient id="paint2_linear_930_16138" x1="214.29" y1="151.43" x2="324.94" y2="151.43" gradientUnits="userSpaceOnUse">
<stop stop-color="#5F1AED"/>
<stop offset="1" stop-color="#CA53FA"/>
</linearGradient>
<linearGradient id="paint3_linear_930_16138" x1="252.9" y1="311.62" x2="306.93" y2="311.62" gradientUnits="userSpaceOnUse">
<stop stop-color="#5F1AED"/>
<stop offset="1" stop-color="#CA53FA"/>
</linearGradient>
<linearGradient id="paint4_linear_930_16138" x1="243.21" y1="199.94" x2="297.23" y2="199.94" gradientUnits="userSpaceOnUse">
<stop stop-color="#5F1AED"/>
<stop offset="1" stop-color="#CA53FA"/>
</linearGradient>
<linearGradient id="paint5_linear_930_16138" x1="293.83" y1="346.71" x2="347.85" y2="346.71" gradientUnits="userSpaceOnUse">
<stop stop-color="#5F1AED"/>
<stop offset="1" stop-color="#CA53FA"/>
</linearGradient>
<linearGradient id="paint6_linear_930_16138" x1="269.07" y1="369.27" x2="323.09" y2="369.27" gradientUnits="userSpaceOnUse">
<stop stop-color="#5F1AED"/>
<stop offset="1" stop-color="#CA53FA"/>
</linearGradient>
<linearGradient id="paint7_linear_930_16138" x1="211.54" y1="362.67" x2="265.56" y2="362.67" gradientUnits="userSpaceOnUse">
<stop stop-color="#5F1AED"/>
<stop offset="1" stop-color="#CA53FA"/>
</linearGradient>
<linearGradient id="paint8_linear_930_16138" x1="-nan" y1="-nan" x2="-nan" y2="-nan" gradientUnits="userSpaceOnUse">
<stop stop-color="#5F1AED"/>
<stop offset="1" stop-color="#CA53FA"/>
</linearGradient>
<clipPath id="clip0_930_16138">
<rect width="539.23" height="568.46" fill="white"/>
</clipPath>
</defs>
</svg>
