<svg width="24" height="24" viewBox="0 0 24 24" fill="none" xmlns="http://www.w3.org/2000/svg">
<path fill-rule="evenodd" clip-rule="evenodd" d="M3 3H21C21.3978 3 21.7794 3.15804 22.0607 3.43934C22.342 3.72064 22.5 4.10218 22.5 4.5V7.5C22.5 7.89782 22.342 8.27936 22.0607 8.56066C21.7794 8.84196 21.3978 9 21 9V21C21 21.3978 20.842 21.7794 20.5607 22.0607C20.2794 22.342 19.8978 22.5 19.5 22.5H4.5C4.10218 22.5 3.72064 22.342 3.43934 22.0607C3.15804 21.7794 3 21.3978 3 21V9C2.60218 9 2.22064 8.84196 1.93934 8.56066C1.65804 8.27936 1.5 7.89782 1.5 7.5V4.5C1.5 4.10218 1.65804 3.72064 1.93934 3.43934C2.22064 3.15804 2.60218 3 3 3ZM4.5 21H19.5V9H4.5V21ZM3 7.5H21V4.5H3V7.5ZM9 15.75H15C15.3978 15.75 15.7794 15.592 16.0607 15.3107C16.342 15.0294 16.5 14.6478 16.5 14.25V12.75C16.5 12.3522 16.342 11.9706 16.0607 11.6893C15.7794 11.408 15.3978 11.25 15 11.25H9C8.60218 11.25 8.22064 11.408 7.93934 11.6893C7.65804 11.9706 7.5 12.3522 7.5 12.75V14.25C7.5 14.6478 7.65804 15.0294 7.93934 15.3107C8.22064 15.592 8.60218 15.75 9 15.75ZM9 14.25V12.75H15V14.25H9Z" fill="black"/>
</svg>
