<svg width="20" height="20" viewBox="0 0 20 20" fill="none" xmlns="http://www.w3.org/2000/svg">
<path d="M10 1.25C8.26942 1.25 6.57769 1.76318 5.13876 2.72464C3.69983 3.6861 2.57832 5.05267 1.91606 6.65152C1.25379 8.25037 1.08051 10.0097 1.41813 11.707C1.75575 13.4044 2.58911 14.9635 3.81282 16.1872C5.03653 17.4109 6.59563 18.2443 8.29296 18.5819C9.9903 18.9195 11.7496 18.7462 13.3485 18.0839C14.9473 17.4217 16.3139 16.3002 17.2754 14.8612C18.2368 13.4223 18.75 11.7306 18.75 10C18.7474 7.68016 17.8247 5.45608 16.1843 3.8157C14.5439 2.17533 12.3198 1.25261 10 1.25V1.25ZM13.125 3.19094C13.7869 3.4961 14.4008 3.89601 14.9474 4.37806L14.6896 5H13.125V3.19094ZM8.3615 17.3141C7.00907 17.0136 5.76658 16.3437 4.77235 15.3788C3.77813 14.414 3.07118 13.1922 2.73023 11.8494C2.38927 10.5066 2.42769 9.09547 2.84119 7.7732C3.2547 6.45093 4.02707 5.26937 5.07232 4.36006L5.9155 5.625H8.00444L7.06694 8.125H4.54957L3.68544 10.7172L5.2905 13.125H8.4155L9.31044 14.4672L8.3615 17.3141ZM10 17.5C9.87288 17.5 9.749 17.4875 9.62344 17.4812L10.4964 14.8625C10.5571 14.6821 10.5755 14.4901 10.5502 14.3014C10.5249 14.1127 10.4566 13.9323 10.3505 13.7742L9.45557 12.4321C9.34162 12.2606 9.18702 12.12 9.00555 12.0228C8.82407 11.9256 8.62137 11.8748 8.4155 11.875H5.95925L5.06457 10.5328L5.45044 9.375H6.875V10.625H8.125V8.86325L9.96019 3.9695L8.78982 3.53063L8.47319 4.375H6.5845L6.08 3.61819C6.93504 3.08447 7.89046 2.73178 8.8872 2.58191C9.88394 2.43205 10.9008 2.48819 11.875 2.74687V5C11.8754 5.33139 12.0072 5.6491 12.2416 5.88343C12.4759 6.11776 12.7936 6.24959 13.125 6.25H14.7411C14.9053 6.25046 15.068 6.21833 15.2197 6.15547C15.3715 6.09262 15.5092 6.00028 15.625 5.88381L15.7129 5.79588L15.889 5.37088C16.3935 6.01192 16.7899 6.73111 17.0625 7.5H14.1241C13.8286 7.49906 13.5425 7.60321 13.3167 7.79384C13.0909 7.98447 12.9403 8.24916 12.8917 8.54062L12.5188 10.6915C12.4736 10.9462 12.509 11.2087 12.62 11.4424C12.731 11.6761 12.9121 11.8693 13.1381 11.9952L14.4911 12.9101L15.4026 15.1889C14.705 15.9192 13.8666 16.5005 12.938 16.8977C12.0094 17.2949 11.01 17.4998 10 17.5V17.5ZM15.5091 12.0898L13.8125 10.943L13.75 10.9055L14.1241 8.75H17.3871C17.7145 10.5941 17.3245 12.4935 16.297 14.0594L15.5091 12.0898Z" fill="black"/>
</svg>
