<svg width="15" height="15" viewBox="0 0 15 15" fill="none" xmlns="http://www.w3.org/2000/svg">
<g clip-path="url(#clip0_109_2236)">
<path fill-rule="evenodd" clip-rule="evenodd" d="M7.49995 0.877014C5.74342 0.877014 4.05884 1.57479 2.81678 2.81685C1.57473 4.0589 0.876953 5.74349 0.876953 7.50001C0.876953 9.25654 1.57473 10.9411 2.81678 12.1832C4.05884 13.4252 5.74342 14.123 7.49995 14.123C9.25648 14.123 10.9411 13.4252 12.1831 12.1832C13.4252 10.9411 14.123 9.25654 14.123 7.50001C14.123 5.74349 13.4252 4.0589 12.1831 2.81685C10.9411 1.57479 9.25648 0.877014 7.49995 0.877014ZM1.82695 7.50001C1.82695 5.99544 2.42464 4.55249 3.48854 3.4886C4.55243 2.4247 5.99538 1.82701 7.49995 1.82701C9.00453 1.82701 10.4475 2.4247 11.5114 3.4886C12.5753 4.55249 13.173 5.99544 13.173 7.50001C13.173 9.00459 12.5753 10.4475 11.5114 11.5114C10.4475 12.5753 9.00453 13.173 7.49995 13.173C5.99538 13.173 4.55243 12.5753 3.48854 11.5114C2.42464 10.4475 1.82695 9.00459 1.82695 7.50001ZM7.49995 9.50001C8.03039 9.50001 8.53909 9.2893 8.91417 8.91423C9.28924 8.53915 9.49995 8.03045 9.49995 7.50001C9.49995 6.96958 9.28924 6.46087 8.91417 6.0858C8.53909 5.71073 8.03039 5.50001 7.49995 5.50001C6.96952 5.50001 6.46081 5.71073 6.08574 6.0858C5.71067 6.46087 5.49995 6.96958 5.49995 7.50001C5.49995 8.03045 5.71067 8.53915 6.08574 8.91423C6.46081 9.2893 6.96952 9.50001 7.49995 9.50001Z" fill="black"/>
</g>
<defs>
<clipPath id="clip0_109_2236">
<rect width="15" height="15" fill="white"/>
</clipPath>
</defs>
</svg>
