<svg width="20" height="20" viewBox="0 0 20 20" fill="none" xmlns="http://www.w3.org/2000/svg">
<path fill-rule="evenodd" clip-rule="evenodd" d="M4.375 12.5031H5C5.3314 12.5034 5.64913 12.6353 5.88346 12.8696C6.1178 13.1039 6.24962 13.4216 6.25 13.7531V15.0031C6.24962 15.3345 6.1178 15.6522 5.88346 15.8865C5.64913 16.1209 5.3314 16.2527 5 16.2531H4.375V18.7531H3.125V16.2531H2.5C2.1686 16.2527 1.85087 16.1209 1.61654 15.8865C1.3822 15.6522 1.25038 15.3345 1.25 15.0031V13.7531C1.25038 13.4216 1.3822 13.1039 1.61654 12.8696C1.85087 12.6353 2.1686 12.5034 2.5 12.5031H3.125V1.25305H4.375V12.5031ZM2.5 15.0031H5V13.7531H2.5V15.0031ZM11.25 3.75305H10.625V1.25305H9.375V3.75305H8.75C8.41858 3.75337 8.10082 3.88516 7.86646 4.11952C7.63211 4.35387 7.50031 4.67163 7.5 5.00305V6.25305C7.50031 6.58448 7.63211 6.90224 7.86646 7.13659C8.10082 7.37094 8.41858 7.50274 8.75 7.50305H9.375V18.7531H10.625V7.50305H11.25C11.5814 7.50272 11.8992 7.37092 12.1335 7.13657C12.3679 6.90222 12.4997 6.58447 12.5 6.25305V5.00305C12.4997 4.67163 12.3679 4.35388 12.1335 4.11953C11.8992 3.88519 11.5814 3.75338 11.25 3.75305ZM11.25 6.25305H8.75V5.00305H11.25V6.25305ZM17.5 8.75305H16.875V1.25305H15.625V8.75305H15C14.6686 8.75337 14.3508 8.88516 14.1165 9.11952C13.8821 9.35387 13.7503 9.67163 13.75 10.0031V11.2531C13.7504 11.5845 13.8822 11.9022 14.1165 12.1365C14.3509 12.3709 14.6686 12.5027 15 12.5031H15.625V18.7531H16.875V12.5031H17.5C17.8314 12.5026 18.1491 12.3708 18.3834 12.1364C18.6177 11.9021 18.7496 11.5844 18.75 11.2531V10.0031C18.7496 9.67165 18.6178 9.35393 18.3835 9.11959C18.1491 8.88525 17.8314 8.75343 17.5 8.75305ZM17.5 11.2531H15V10.0031H17.5V11.2531Z" fill="black"/>
</svg>
