<svg width="16" height="16" viewBox="0 0 16 16" fill="none" xmlns="http://www.w3.org/2000/svg">
<path fill-rule="evenodd" clip-rule="evenodd" d="M13.5001 7.99996V8.37996L14.4451 9.24496C14.6196 9.3979 14.7354 9.60672 14.7728 9.83568C14.8102 10.0646 14.7668 10.2995 14.6501 10.5L13.5101 12.5C13.4224 12.6518 13.2964 12.778 13.1445 12.8657C12.9927 12.9535 12.8205 12.9998 12.6451 13C12.5365 13.0008 12.4284 12.9839 12.3251 12.95L11.1151 12.54C10.9036 12.6794 10.6832 12.8047 10.4551 12.915L10.2001 14.175C10.1544 14.4052 10.0292 14.6119 9.84635 14.7591C9.66354 14.9063 9.43478 14.9845 9.20013 14.98H6.84013C6.60548 14.9845 6.37672 14.9063 6.1939 14.7591C6.01108 14.6119 5.88585 14.4052 5.84013 14.175L5.58513 12.915C5.35871 12.8046 5.1399 12.6794 4.93013 12.54L3.71513 12.95C3.61189 12.9839 3.5038 13.0008 3.39513 13C3.21976 12.9998 3.04753 12.9535 2.89571 12.8657C2.74388 12.778 2.61781 12.6518 2.53013 12.5L1.35013 10.5C1.22807 10.2975 1.1817 10.0583 1.21923 9.82493C1.25675 9.59152 1.37576 9.37896 1.55513 9.22496L2.50013 8.38496V7.99996V7.61996L1.55513 6.75496C1.38069 6.60202 1.26485 6.39319 1.22745 6.16424C1.19005 5.93529 1.23342 5.70045 1.35013 5.49996L2.53013 3.49996C2.61781 3.34809 2.74388 3.22195 2.89571 3.13419C3.04753 3.04643 3.21976 3.00014 3.39513 2.99996C3.50271 2.99264 3.61077 3.00277 3.71513 3.02996L4.90513 3.45996C5.11661 3.32053 5.33709 3.19526 5.56513 3.08496L5.82013 1.82496C5.86585 1.59476 5.99108 1.38798 6.1739 1.24081C6.35672 1.09364 6.58548 1.01546 6.82013 1.01996H9.16013C9.39478 1.01546 9.62354 1.09364 9.80635 1.24081C9.98917 1.38798 10.1144 1.59476 10.1601 1.82496L10.4151 3.08496C10.6415 3.19529 10.8604 3.32056 11.0701 3.45996L12.2851 3.04996C12.3884 3.01601 12.4965 2.99913 12.6051 2.99996C12.7805 3.00014 12.9527 3.04643 13.1045 3.13419C13.2564 3.22195 13.3824 3.34809 13.4701 3.49996L14.6501 5.49996C14.7739 5.70075 14.8228 5.93885 14.788 6.17216C14.7532 6.40547 14.6371 6.61898 14.4601 6.77496L13.5001 7.61496V7.99996ZM10.8901 11.42L12.6051 12L13.7851 9.99996L12.4251 8.76496C12.5176 8.24739 12.5176 7.71753 12.4251 7.19996L13.7851 5.99996L12.6051 3.99996L10.8851 4.55996C10.4823 4.22453 10.0259 3.95917 9.53513 3.77496L9.18013 1.99996H6.82013L6.46513 3.79496C5.97043 3.97409 5.51159 4.23991 5.11013 4.57996L3.39513 3.99996L2.21513 5.99996L3.57513 7.23496C3.48267 7.75253 3.48267 8.28239 3.57513 8.79996L2.21513 9.99996L3.39513 12L5.11513 11.44C5.51799 11.7754 5.97434 12.0407 6.46513 12.225L6.82013 14H9.18013L9.53513 12.205C10.0298 12.0258 10.4887 11.76 10.8901 11.42ZM6.33341 10.4944C6.82676 10.8241 7.40678 11 8.00012 11C8.3952 11.004 8.78711 10.9292 9.1529 10.7798C9.51869 10.6305 9.851 10.4096 10.1304 10.1303C10.4098 9.85088 10.6306 9.51857 10.7799 9.15278C10.9293 8.78699 11.0041 8.39508 11.0001 8C11.0001 7.40666 10.8242 6.82664 10.4945 6.33329C10.1649 5.83994 9.69635 5.45543 9.14817 5.22836C8.59999 5.0013 7.9968 4.94189 7.41485 5.05765C6.83291 5.1734 6.29836 5.45912 5.8788 5.87868C5.45925 6.29824 5.17352 6.83279 5.05777 7.41473C4.94201 7.99667 5.00142 8.59987 5.22848 9.14805C5.45555 9.69623 5.84006 10.1648 6.33341 10.4944ZM7.22753 6.1397C7.47297 6.04137 7.7358 5.99384 8.00012 6C8.26445 5.99384 8.52728 6.04137 8.77271 6.1397C9.01815 6.23803 9.24109 6.38512 9.42805 6.57208C9.61501 6.75904 9.7621 6.98197 9.86043 7.22741C9.95876 7.47284 10.0063 7.73567 10.0001 8C10.0063 8.26433 9.95876 8.52716 9.86043 8.77259C9.7621 9.01803 9.61501 9.24097 9.42805 9.42793C9.24109 9.61488 9.01815 9.76198 8.77271 9.86031C8.52728 9.95864 8.26445 10.0062 8.00012 10C7.7358 10.0062 7.47297 9.95864 7.22753 9.86031C6.9821 9.76198 6.75916 9.61488 6.5722 9.42793C6.38524 9.24097 6.23815 9.01803 6.13982 8.77259C6.04149 8.52716 5.99397 8.26433 6.00012 8C5.99397 7.73567 6.04149 7.47284 6.13982 7.22741C6.23815 6.98197 6.38524 6.75904 6.5722 6.57208C6.75916 6.38512 6.9821 6.23803 7.22753 6.1397Z" fill="black"/>
</svg>
