<svg width="20" height="20" viewBox="0 0 20 20" fill="none" xmlns="http://www.w3.org/2000/svg">
<path fill-rule="evenodd" clip-rule="evenodd" d="M10 18.125L11.0849 18.75L13.2279 15H16.25C16.5783 15.0001 16.9034 14.9354 17.2068 14.8098C17.5101 14.6842 17.7857 14.5001 18.0179 14.2679C18.2501 14.0357 18.4342 13.7601 18.5598 13.4568C18.6854 13.1534 18.7501 12.8283 18.75 12.5V3.75C18.7501 3.42167 18.6855 3.09653 18.5599 2.79318C18.4343 2.48982 18.2502 2.21418 18.018 1.98201C17.7858 1.74985 17.5102 1.5657 17.2068 1.4401C16.9035 1.3145 16.5783 1.2499 16.25 1.25H3.75C3.42167 1.2499 3.09653 1.3145 2.79318 1.4401C2.48982 1.5657 2.21418 1.74985 1.98201 1.98201C1.74985 2.21418 1.5657 2.48982 1.4401 2.79318C1.3145 3.09653 1.2499 3.42167 1.25 3.75V12.5C1.24994 12.8283 1.31457 13.1534 1.44018 13.4568C1.5658 13.7601 1.74995 14.0357 1.98211 14.2679C2.21426 14.5001 2.48988 14.6842 2.79322 14.8098C3.09656 14.9354 3.42168 15.0001 3.75 15H9.375V13.75H3.75C3.58577 13.7503 3.4231 13.7181 3.27131 13.6554C3.11953 13.5927 2.98162 13.5006 2.86549 13.3845C2.74936 13.2684 2.6573 13.1305 2.59458 12.9787C2.53186 12.8269 2.49972 12.6642 2.5 12.5V3.75C2.49972 3.58577 2.53186 3.4231 2.59458 3.27131C2.6573 3.11953 2.74936 2.98162 2.86549 2.86549C2.98162 2.74936 3.11953 2.6573 3.27131 2.59458C3.4231 2.53186 3.58577 2.49972 3.75 2.5H16.25C16.4142 2.49972 16.5769 2.53186 16.7287 2.59458C16.8805 2.6573 17.0184 2.74936 17.1345 2.86549C17.2506 2.98162 17.3427 3.11953 17.4054 3.27131C17.4681 3.4231 17.5003 3.58577 17.5 3.75V12.5C17.5003 12.6642 17.4681 12.8269 17.4054 12.9787C17.3427 13.1305 17.2506 13.2684 17.1345 13.3845C17.0184 13.5006 16.8805 13.5927 16.7287 13.6554C16.5769 13.7181 16.4142 13.7503 16.25 13.75H12.5L10 18.125ZM7.5 4.99998C7.25277 4.99998 7.0111 5.0733 6.80554 5.21065C6.59998 5.348 6.43976 5.54322 6.34515 5.77163C6.25054 6.00004 6.22579 6.25137 6.27402 6.49385C6.32225 6.73632 6.4413 6.95905 6.61612 7.13387C6.79093 7.30868 7.01366 7.42773 7.25614 7.47596C7.49861 7.5242 7.74995 7.49944 7.97835 7.40483C8.20676 7.31022 8.40199 7.15001 8.53934 6.94445C8.67669 6.73888 8.75 6.49721 8.75 6.24998C8.75162 6.08538 8.7204 5.92211 8.65815 5.76972C8.59591 5.61733 8.50389 5.47889 8.3875 5.36249C8.2711 5.24609 8.13265 5.15408 7.98027 5.09183C7.82788 5.02959 7.6646 4.99836 7.5 4.99998ZM11.8055 5.21065C12.0111 5.0733 12.2528 4.99998 12.5 4.99998C12.6646 4.99836 12.8279 5.02959 12.9803 5.09183C13.1327 5.15408 13.2711 5.24609 13.3875 5.36249C13.5039 5.47889 13.5959 5.61733 13.6582 5.76972C13.7204 5.92211 13.7516 6.08538 13.75 6.24998C13.75 6.49721 13.6767 6.73888 13.5393 6.94445C13.402 7.15001 13.2068 7.31022 12.9784 7.40483C12.7499 7.49944 12.4986 7.5242 12.2561 7.47596C12.0137 7.42773 11.7909 7.30868 11.6161 7.13387C11.4413 6.95905 11.3223 6.73632 11.274 6.49385C11.2258 6.25137 11.2505 6.00004 11.3452 5.77163C11.4398 5.54322 11.6 5.348 11.8055 5.21065ZM7.93109 11.3561C8.56726 11.6973 9.27808 11.8756 10 11.875C10.7219 11.8756 11.4327 11.6973 12.0689 11.3561C12.7051 11.0149 13.2468 10.5213 13.6456 9.91957L12.6044 9.22745C12.3193 9.65718 11.9322 10.0097 11.4778 10.2535C11.0234 10.4974 10.5157 10.625 10 10.625C9.48428 10.625 8.97658 10.4974 8.52217 10.2535C8.06775 10.0097 7.68073 9.65718 7.39562 9.22745L6.35437 9.91957C6.7532 10.5213 7.29491 11.0149 7.93109 11.3561Z" fill="black"/>
</svg>
