<svg width="20" height="20" viewBox="0 0 20 20" fill="none" xmlns="http://www.w3.org/2000/svg">
<path d="M11.9025 2.91747L5.425 9.56247C5.31123 9.67919 5.24756 9.83573 5.24756 9.99872C5.24756 10.1617 5.31123 10.3183 5.425 10.435L11.9025 17.0825C11.9555 17.1369 12.0189 17.1802 12.0888 17.2097C12.1588 17.2392 12.234 17.2545 12.31 17.2545C12.386 17.2545 12.4612 17.2392 12.5312 17.2097C12.6011 17.1802 12.6645 17.1369 12.7175 17.0825C12.8265 16.9708 12.8876 16.821 12.8876 16.665C12.8876 16.5089 12.8265 16.3591 12.7175 16.2475L6.62625 9.99872L12.7175 3.75122C12.8262 3.63966 12.887 3.49008 12.887 3.33435C12.887 3.17861 12.8262 3.02904 12.7175 2.91747C12.6645 2.86304 12.6011 2.81978 12.5312 2.79024C12.4612 2.7607 12.386 2.74548 12.31 2.74548C12.234 2.74548 12.1588 2.7607 12.0888 2.79024C12.0189 2.81978 11.9555 2.86304 11.9025 2.91747V2.91747Z" fill="#651EEE"/>
</svg>
