<svg width="20" height="20" viewBox="0 0 20 20" fill="none" xmlns="http://www.w3.org/2000/svg">
<path d="M8.0975 17.0825L14.575 10.4375C14.6888 10.3208 14.7524 10.1643 14.7524 10.0013C14.7524 9.83829 14.6888 9.68175 14.575 9.56503L8.0975 2.91753C8.04451 2.8631 7.98114 2.81984 7.91116 2.7903C7.84117 2.76076 7.76597 2.74554 7.69 2.74554C7.61403 2.74554 7.53884 2.76076 7.46885 2.7903C7.39886 2.81984 7.3355 2.8631 7.2825 2.91753C7.17347 3.02915 7.11244 3.179 7.11244 3.33503C7.11244 3.49106 7.17347 3.64091 7.2825 3.75253L13.3738 10.0013L7.2825 16.2488C7.17385 16.3603 7.11305 16.5099 7.11305 16.6657C7.11305 16.8214 7.17385 16.971 7.2825 17.0825C7.3355 17.137 7.39886 17.1802 7.46885 17.2098C7.53884 17.2393 7.61404 17.2545 7.69 17.2545C7.76597 17.2545 7.84117 17.2393 7.91116 17.2098C7.98115 17.1802 8.04451 17.137 8.0975 17.0825V17.0825Z" fill="#651EEE"/>
</svg>
