<svg width="20" height="20" viewBox="0 0 20 20" fill="none" xmlns="http://www.w3.org/2000/svg">
<path d="M2.91759 8.0975L9.56259 14.575C9.67931 14.6888 9.83585 14.7524 9.99884 14.7524C10.1618 14.7524 10.3184 14.6888 10.4351 14.575L17.0826 8.0975C17.137 8.04451 17.1803 7.98115 17.2098 7.91116C17.2394 7.84117 17.2546 7.76597 17.2546 7.69C17.2546 7.61404 17.2394 7.53884 17.2098 7.46885C17.1803 7.39886 17.137 7.3355 17.0826 7.2825C16.971 7.17347 16.8211 7.11244 16.6651 7.11244C16.5091 7.11244 16.3592 7.17347 16.2476 7.2825L9.99884 13.3738L3.75134 7.2825C3.63978 7.17385 3.4902 7.11305 3.33447 7.11305C3.17874 7.11305 3.02916 7.17385 2.91759 7.2825C2.86316 7.3355 2.8199 7.39886 2.79036 7.46885C2.76082 7.53884 2.74561 7.61404 2.74561 7.69C2.74561 7.76597 2.76082 7.84117 2.79036 7.91116C2.8199 7.98115 2.86316 8.04451 2.91759 8.0975V8.0975Z" fill="#651EEE"/>
</svg>
