<svg width="26" height="26" viewBox="0 0 26 26" fill="none" xmlns="http://www.w3.org/2000/svg">
<path fill-rule="evenodd" clip-rule="evenodd" d="M0 13C0 5.82272 5.82272 0 13 0C20.1773 0 26 5.82272 26 13C26 20.1773 20.1773 26 13 26C5.82272 26 0 20.1773 0 13ZM13 2C6.92728 2 2 6.92728 2 13C2 19.0727 6.92728 24 13 24C19.0727 24 24 19.0727 24 13C24 6.92728 19.0727 2 13 2Z" fill="#CB6583"/>
<path fill-rule="evenodd" clip-rule="evenodd" d="M12.9866 6.00324C13.1712 6.00148 13.3542 6.03736 13.5245 6.10871C13.6949 6.18009 13.849 6.28547 13.9772 6.4184C14.1055 6.55134 14.2053 6.70904 14.2706 6.88185C14.3359 7.05466 14.3652 7.23898 14.3568 7.42353L14.3568 7.42513L13.9986 15.047C13.9736 15.5804 13.5338 16 12.9998 16.0001C12.4658 16.0001 12.026 15.5805 12.0009 15.0471L11.6421 7.42521L12.3561 7.3916L11.642 7.42353C11.6337 7.24117 11.6623 7.05902 11.726 6.88794C11.7897 6.71687 11.8871 6.56038 12.0126 6.42781C12.1381 6.29525 12.2891 6.18933 12.4564 6.11639C12.6236 6.04348 12.8042 6.005 12.9866 6.00324ZM12.3589 7.39147C12.3589 7.39163 12.3589 7.39131 12.3589 7.39147ZM12.9995 7.36132L13.0057 8.00314Z" fill="#CB6583"/>
<path d="M13 19.9944C12.7528 19.9944 12.5111 19.9211 12.3055 19.7837C12.1 19.6464 11.9398 19.4511 11.8452 19.2227C11.7505 18.9943 11.7258 18.743 11.774 18.5005C11.8223 18.258 11.9413 18.0353 12.1161 17.8605C12.2909 17.6857 12.5137 17.5666 12.7561 17.5184C12.9986 17.4702 13.2499 17.4949 13.4784 17.5895C13.7068 17.6841 13.902 17.8444 14.0393 18.0499C14.1767 18.2555 14.25 18.4972 14.25 18.7444C14.25 19.0759 14.1183 19.3938 13.8839 19.6283C13.6495 19.8627 13.3315 19.9944 13 19.9944Z" fill="#CB6583"/>
</svg>
