<svg width="20" height="20" viewBox="0 0 20 20" fill="none" xmlns="http://www.w3.org/2000/svg">
<path fill-rule="evenodd" clip-rule="evenodd" d="M14.3752 13.75H14.6877C15.6899 13.7436 16.6544 13.367 17.3958 12.6925C18.1372 12.0181 18.603 11.0933 18.7038 10.0961C18.8046 9.09896 18.5333 8.09971 17.9419 7.29051C17.3505 6.48131 16.4809 5.91928 15.5002 5.71248C15.2303 4.45405 14.5371 3.32621 13.5362 2.51714C12.5353 1.70808 11.2872 1.26672 10.0002 1.26672C8.71313 1.26672 7.46503 1.70808 6.4641 2.51714C5.46318 3.32621 4.76997 4.45405 4.50016 5.71248C3.51946 5.91928 2.64982 6.48131 2.05844 7.29051C1.46706 8.09971 1.19568 9.09896 1.29649 10.0961C1.39729 11.0933 1.86316 12.0181 2.60452 12.6925C3.34588 13.367 4.31041 13.7436 5.31266 13.75H5.62516V12.5H5.31266C4.56673 12.5298 3.83951 12.2621 3.29097 11.7558C2.74242 11.2494 2.41749 10.5459 2.38766 9.79998C2.35782 9.05406 2.62552 8.32683 3.13187 7.77829C3.63822 7.22974 4.34173 6.90481 5.08766 6.87498H5.62516L5.63766 6.36248C5.77632 5.31026 6.29274 4.34432 7.09072 3.64459C7.88871 2.94487 8.91384 2.55907 9.97515 2.55907C11.0365 2.55907 12.0616 2.94487 12.8596 3.64459C13.6576 4.34432 14.174 5.31026 14.3127 6.36248L14.3752 6.87498H14.9127C15.6586 6.90481 16.3621 7.22974 16.8684 7.77829C17.3748 8.32683 17.6425 9.05406 17.6127 9.79998C17.5828 10.5459 17.2579 11.2494 16.7093 11.7558C16.1608 12.2621 15.4336 12.5298 14.6877 12.5H14.3752V13.75ZM10.6251 8.74998V16.3562L12.2439 14.7437L13.1251 15.625L10.0001 18.75L6.87515 15.625L7.7564 14.7437L9.37515 16.3562V8.74998H10.6251Z" fill="black"/>
</svg>
