<svg width="20" height="20" viewBox="0 0 20 20" fill="none" xmlns="http://www.w3.org/2000/svg">
<path d="M12.5 8.75H17.5C17.8314 8.74962 18.1491 8.6178 18.3835 8.38346C18.6178 8.14912 18.7496 7.8314 18.75 7.5V2.5C18.7496 2.1686 18.6178 1.85087 18.3835 1.61654C18.1491 1.3822 17.8314 1.25038 17.5 1.25H12.5C12.1686 1.25038 11.8509 1.3822 11.6165 1.61654C11.3822 1.85087 11.2504 2.1686 11.25 2.5H5.625C5.2936 2.50038 4.97587 2.6322 4.74154 2.86654C4.5072 3.10087 4.37538 3.4186 4.375 3.75V6.25H2.5C2.1686 6.25038 1.85087 6.3822 1.61654 6.61654C1.3822 6.85088 1.25038 7.1686 1.25 7.5V12.5C1.25038 12.8314 1.3822 13.1491 1.61654 13.3835C1.85087 13.6178 2.1686 13.7496 2.5 13.75H3.75V16.25C3.75038 16.5814 3.8822 16.8991 4.11654 17.1335C4.35087 17.3678 4.6686 17.4996 5 17.5H11.25C11.2504 17.8314 11.3822 18.1491 11.6165 18.3835C11.8509 18.6178 12.1686 18.7496 12.5 18.75H17.5C17.8314 18.7496 18.1491 18.6178 18.3835 18.3835C18.6178 18.1491 18.7496 17.8314 18.75 17.5V12.5C18.7496 12.1686 18.6178 11.8509 18.3835 11.6165C18.1491 11.3822 17.8314 11.2504 17.5 11.25H12.5C12.1686 11.2504 11.8509 11.3822 11.6165 11.6165C11.3822 11.8509 11.2504 12.1686 11.25 12.5V16.25H5V13.75H7.5C7.8314 13.7496 8.14912 13.6178 8.38346 13.3835C8.6178 13.1491 8.74962 12.8314 8.75 12.5V7.5C8.74962 7.1686 8.6178 6.85088 8.38346 6.61654C8.14912 6.3822 7.8314 6.25038 7.5 6.25H5.625V3.75H11.25V7.5C11.2504 7.8314 11.3822 8.14912 11.6165 8.38346C11.8509 8.6178 12.1686 8.74962 12.5 8.75V8.75ZM12.5 17.5V15H17.5V17.5H12.5ZM17.5 12.5V13.75H12.5V12.5H17.5ZM2.5 12.5V10H7.5V12.5H2.5ZM7.50031 8.75H2.5V7.5H7.5L7.50031 8.75ZM12.5 7.5V5H17.5V7.5H12.5ZM17.5 2.5V3.75H12.5V2.5H17.5Z" fill="black"/>
</svg>
