<svg width="16" height="16" viewBox="0 0 16 16" fill="none" xmlns="http://www.w3.org/2000/svg">
<g clip-path="url(#clip0_109_2253)">
<path fill-rule="evenodd" clip-rule="evenodd" d="M7.99996 0.935455C6.12633 0.935455 4.32944 1.67975 3.00458 3.00461C1.67972 4.32947 0.935425 6.12636 0.935425 7.99999C0.935425 9.87362 1.67972 11.6705 3.00458 12.9954C4.32944 14.3202 6.12633 15.0645 7.99996 15.0645C9.87359 15.0645 11.6705 14.3202 12.9953 12.9954C14.3202 11.6705 15.0645 9.87362 15.0645 7.99999C15.0645 6.12636 14.3202 4.32947 12.9953 3.00461C11.6705 1.67975 9.87359 0.935455 7.99996 0.935455ZM1.94876 7.99999C1.94876 6.39511 2.58629 4.85596 3.72111 3.72114C4.85593 2.58632 6.39508 1.94879 7.99996 1.94879C9.60484 1.94879 11.144 2.58632 12.2788 3.72114C13.4136 4.85596 14.0512 6.39511 14.0512 7.99999C14.0512 9.60487 13.4136 11.144 12.2788 12.2788C11.144 13.4137 9.60484 14.0512 7.99996 14.0512C6.39508 14.0512 4.85593 13.4137 3.72111 12.2788C2.58629 11.144 1.94876 9.60487 1.94876 7.99999Z" fill="black"/>
</g>
<defs>
<clipPath id="clip0_109_2253">
<rect width="16" height="16" fill="white"/>
</clipPath>
</defs>
</svg>
