<svg width="24" height="24" viewBox="0 0 24 24" fill="none" xmlns="http://www.w3.org/2000/svg">
<path fill-rule="evenodd" clip-rule="evenodd" d="M6.16652 3.26957C7.89323 2.11581 9.9233 1.5 12 1.5C14.7848 1.5 17.4555 2.60625 19.4246 4.57538C21.3938 6.54451 22.5 9.21523 22.5 12C22.5 14.0767 21.8842 16.1068 20.7304 17.8335C19.5767 19.5602 17.9368 20.906 16.0182 21.7007C14.0996 22.4955 11.9884 22.7034 9.95156 22.2982C7.91476 21.8931 6.04383 20.8931 4.57538 19.4246C3.10693 17.9562 2.1069 16.0852 1.70176 14.0484C1.29661 12.0116 1.50455 9.90045 2.29927 7.98182C3.09399 6.0632 4.4398 4.42332 6.16652 3.26957ZM6.99987 19.4832C8.47992 20.4722 10.22 21 12 21C14.387 21 16.6761 20.0518 18.364 18.364C20.0518 16.6761 21 14.3869 21 12C21 10.22 20.4722 8.47991 19.4832 6.99987C18.4943 5.51983 17.0887 4.36627 15.4442 3.68508C13.7996 3.0039 11.99 2.82567 10.2442 3.17293C8.49836 3.5202 6.89472 4.37737 5.63604 5.63604C4.37737 6.89471 3.5202 8.49836 3.17294 10.2442C2.82567 11.99 3.0039 13.7996 3.68509 15.4442C4.36628 17.0887 5.51983 18.4943 6.99987 19.4832ZM7.58331 8.56596C7.89165 8.35994 8.25416 8.24997 8.625 8.24997C8.87179 8.24797 9.1165 8.2951 9.34489 8.38862C9.57328 8.48214 9.78077 8.62018 9.95528 8.79469C10.1298 8.9692 10.2678 9.17669 10.3613 9.40508C10.4549 9.63347 10.502 9.87818 10.5 10.125C10.5 10.4958 10.39 10.8583 10.184 11.1667C9.97798 11.475 9.68514 11.7153 9.34253 11.8572C8.99992 11.9992 8.62292 12.0363 8.25921 11.9639C7.89549 11.8916 7.5614 11.713 7.29918 11.4508C7.03695 11.1886 6.85838 10.8545 6.78603 10.4908C6.71368 10.127 6.75081 9.75005 6.89273 9.40744C7.03464 9.06483 7.27496 8.77199 7.58331 8.56596ZM15.375 8.24997C15.0042 8.24997 14.6416 8.35994 14.3333 8.56596C14.025 8.77199 13.7846 9.06483 13.6427 9.40744C13.5008 9.75005 13.4637 10.127 13.536 10.4908C13.6084 10.8545 13.787 11.1886 14.0492 11.4508C14.3114 11.713 14.6455 11.8916 15.0092 11.9639C15.3729 12.0363 15.7499 11.9992 16.0925 11.8572C16.4351 11.7153 16.728 11.475 16.934 11.1667C17.14 10.8583 17.25 10.4958 17.25 10.125C17.252 9.87818 17.2049 9.63347 17.1113 9.40508C17.0178 9.17669 16.8798 8.9692 16.7053 8.79469C16.5308 8.62018 16.3233 8.48214 16.0949 8.38862C15.8665 8.2951 15.6218 8.24797 15.375 8.24997ZM14.9527 17.2174C14.0525 17.7286 13.0353 17.9982 12 18C10.9647 17.9982 9.94751 17.7286 9.04726 17.2174C8.14702 16.7062 7.39437 15.9707 6.8625 15.0825L8.145 14.3325C8.54524 14.9971 9.11053 15.547 9.78599 15.9287C10.4615 16.3105 11.2241 16.5111 12 16.5111C12.7759 16.5111 13.5385 16.3105 14.214 15.9287C14.8895 15.547 15.4548 14.9971 15.855 14.3325L17.1375 15.0825C16.6056 15.9707 15.853 16.7062 14.9527 17.2174Z" fill="black"/>
</svg>
