<svg width="20" height="20" viewBox="0 0 20 20" fill="none" xmlns="http://www.w3.org/2000/svg">
<path d="M17.3189 2.68129C17.2345 2.59733 17.128 2.53921 17.0117 2.51374C16.8955 2.48828 16.7743 2.49653 16.6626 2.53754L2.91262 7.53754C2.79404 7.58252 2.69195 7.66251 2.6199 7.76689C2.54786 7.87126 2.50928 7.99509 2.50928 8.12191C2.50928 8.24874 2.54786 8.37256 2.6199 8.47694C2.69195 8.58132 2.79404 8.66131 2.91262 8.70629L8.91262 11.1063L11.3126 17.1063C11.3577 17.2197 11.435 17.3174 11.535 17.3873C11.6349 17.4573 11.7532 17.4965 11.8751 17.5C12.0014 17.4974 12.124 17.4566 12.2266 17.383C12.3293 17.3094 12.4072 17.2064 12.4501 17.0875L17.4501 3.33754C17.4927 3.22696 17.503 3.10656 17.4797 2.99037C17.4565 2.87417 17.4007 2.76698 17.3189 2.68129ZM11.8751 15.125L10.1314 10.75L13.1251 7.75629L12.2439 6.87504L9.22512 9.89379L4.87512 8.12504L15.8314 4.16879L11.8751 15.125Z" fill="black"/>
</svg>
