<svg width="20" height="20" viewBox="0 0 20 20" fill="none" xmlns="http://www.w3.org/2000/svg">
<path d="M17.2584 3.04538C17.2584 3.04538 18.8771 2.41413 18.7417 3.94705C18.6971 4.5783 18.2926 6.78788 17.9776 9.17747L16.8984 16.2566C16.8984 16.2566 16.8084 17.2937 15.9988 17.4741C15.1896 17.6541 13.9755 16.8429 13.7505 16.6625C13.5705 16.5271 10.378 14.4979 9.2538 13.5062C8.9388 13.2354 8.5788 12.6946 9.2988 12.0633L14.0201 7.55413C14.5596 7.0133 15.0992 5.7508 12.8509 7.28372L6.55505 11.5671C6.55505 11.5671 5.83547 12.0183 4.48672 11.6125L1.56338 10.7104C1.56338 10.7104 0.484217 10.0341 2.32797 9.35788C6.82505 7.23872 12.3563 5.07455 17.2576 3.04538H17.2584Z" fill="white"/>
</svg>
