<svg width="540" height="569" viewBox="0 0 540 569" fill="none" xmlns="http://www.w3.org/2000/svg">
<g clip-path="url(#clip0_930_16243)">
<path opacity="0.6" d="M237.351 227.176C257.479 152.059 235.557 80.9181 188.388 68.2792C141.219 55.6403 86.6642 106.289 66.5366 181.406C46.409 256.524 68.3304 327.664 115.499 340.303C162.669 352.942 217.223 302.293 237.351 227.176Z" fill="#F1E8FE"/>
<path d="M352.68 323.49L332.56 278.49C331.379 275.812 331.007 272.847 331.49 269.96C330.96 270.73 330.42 271.49 329.84 272.25C313.32 293.55 292.4 310 268.94 320.12L295.35 356.59C295.586 356.919 295.936 357.148 296.331 357.233C296.727 357.318 297.14 357.253 297.49 357.05L352 325.58C352.35 325.376 352.613 325.05 352.739 324.665C352.864 324.279 352.843 323.861 352.68 323.49Z" fill="#E0D2FC"/>
<path d="M313.41 352.65C301.95 329.09 270.11 282.29 239.1 271.26C236.63 270.38 232.65 271.26 231.3 276.31C229.95 281.36 236.01 283.23 239.21 283.52C258.08 286.2 290.59 278.61 263.21 230.52C259.52 224.44 252.54 212.04 246.33 212.41C239.94 213.41 238.01 219.35 245.76 227.2C249.16 230.65 263.9 244.4 280.81 253.57C297.07 261.33 310.75 253.11 313.92 219.99C314.11 215.06 312.29 206.04 303.51 209.39C292.51 213.58 293.28 264.05 338.51 334.92" stroke="url(#paint0_linear_930_16243)" stroke-width="3" stroke-miterlimit="10"/>
<path d="M230.84 207.402C235.597 189.648 228.301 172.267 214.543 168.581C200.784 164.894 185.775 176.298 181.018 194.052C176.261 211.806 183.557 229.186 197.316 232.873C211.074 236.559 226.083 225.156 230.84 207.402Z" fill="white"/>
<path d="M254.07 130.09C269.549 130.083 284.761 134.124 298.197 141.81C311.633 149.497 322.826 160.563 330.666 173.91C338.506 187.257 342.721 202.422 342.891 217.9C343.062 233.379 339.183 248.633 331.64 262.15C330.226 264.67 329.417 267.483 329.274 270.368C329.132 273.254 329.661 276.133 330.82 278.78L351.06 324.05L297 355.27L267.92 315.12C266.205 312.794 263.974 310.898 261.403 309.579C258.831 308.26 255.989 307.555 253.1 307.52C237.736 307.295 222.694 303.085 209.446 295.302C196.197 287.519 185.196 276.43 177.52 263.12C169.735 249.659 165.629 234.386 165.614 218.836C165.599 203.286 169.675 188.005 177.434 174.529C185.192 161.053 196.36 149.855 209.815 142.06C223.27 134.265 238.54 130.147 254.09 130.12M254.09 127.12C229.767 126.987 206.387 136.522 189.095 153.628C171.802 170.733 162.012 194.007 161.88 218.33C161.747 242.653 171.282 266.032 188.387 283.325C205.493 300.618 228.767 310.407 253.09 310.54C255.514 310.566 257.898 311.155 260.055 312.26C262.213 313.366 264.083 314.957 265.52 316.91L295.24 358C295.393 358.218 295.597 358.395 295.834 358.517C296.071 358.639 296.333 358.702 296.6 358.7C296.894 358.702 297.184 358.626 297.44 358.48L353.58 326.06C353.941 325.853 354.212 325.52 354.341 325.124C354.471 324.729 354.449 324.3 354.28 323.92L333.56 277.57C332.584 275.35 332.14 272.934 332.261 270.512C332.383 268.091 333.067 265.731 334.26 263.62C342.052 249.645 346.056 233.876 345.876 217.876C345.696 201.877 341.338 186.202 333.233 172.406C325.128 158.61 313.559 147.171 299.671 139.224C285.784 131.277 270.06 127.098 254.06 127.1L254.09 127.12Z" fill="url(#paint1_linear_930_16243)"/>
<path d="M383.78 354.2C383.005 352.856 381.859 351.764 380.479 351.054C379.099 350.345 377.544 350.048 376 350.2C376.992 348.819 377.521 347.159 377.513 345.459C377.505 343.759 376.959 342.104 375.954 340.733C374.949 339.361 373.535 338.343 371.916 337.823C370.297 337.304 368.555 337.31 366.94 337.84C368.14 336.774 368.995 335.375 369.395 333.82C369.795 332.266 369.721 330.628 369.184 329.115C368.647 327.603 367.671 326.285 366.38 325.331C365.089 324.377 363.543 323.83 361.94 323.76C362.363 323.516 362.735 323.192 363.033 322.805C363.331 322.417 363.55 321.975 363.677 321.504C363.804 321.032 363.837 320.54 363.774 320.055C363.711 319.571 363.553 319.103 363.31 318.68L362.41 317.12L363.22 316.65C364.188 316.112 365.04 315.386 365.726 314.515C366.411 313.644 366.916 312.646 367.212 311.578C367.507 310.51 367.587 309.394 367.447 308.295C367.307 307.195 366.949 306.135 366.395 305.175C365.841 304.216 365.101 303.376 364.219 302.705C363.337 302.034 362.331 301.546 361.258 301.268C360.185 300.99 359.068 300.928 357.971 301.087C356.874 301.245 355.82 301.62 354.87 302.19L279.36 345.8C278.391 346.338 277.539 347.064 276.854 347.935C276.169 348.805 275.663 349.804 275.368 350.872C275.072 351.94 274.992 353.056 275.133 354.155C275.273 355.254 275.63 356.315 276.184 357.274C276.739 358.234 277.478 359.074 278.36 359.745C279.242 360.415 280.249 360.904 281.322 361.182C282.394 361.46 283.512 361.521 284.608 361.363C285.705 361.205 286.759 360.83 287.71 360.26L288.93 359.56L289.77 361.03C290.264 361.886 291.077 362.511 292.031 362.768C292.986 363.025 294.003 362.892 294.86 362.4C294.22 363.597 293.895 364.938 293.916 366.295C293.937 367.653 294.303 368.983 294.98 370.16C295.906 371.764 297.355 373.001 299.084 373.666C300.813 374.33 302.718 374.381 304.48 373.81C303.18 374.93 302.274 376.439 301.898 378.114C301.521 379.788 301.693 381.54 302.388 383.109C303.083 384.679 304.264 385.983 305.757 386.829C307.25 387.676 308.976 388.02 310.68 387.81C309.642 389.178 309.073 390.844 309.055 392.561C309.038 394.278 309.573 395.955 310.582 397.344C311.591 398.734 313.021 399.761 314.659 400.276C316.297 400.79 318.058 400.763 319.68 400.2C329.88 415.86 357.41 407.89 372.94 393.3C382.03 384.77 386.99 373.97 382.1 364.3C383.502 363.068 384.435 361.39 384.741 359.549C385.047 357.709 384.707 355.819 383.78 354.2Z" fill="url(#paint2_linear_930_16243)"/>
<path d="M302.26 332.57C318.84 359.43 355.8 338.09 353.26 329.93C349.7 318.6 297.16 352.46 308.61 368.57C320.06 384.68 366.76 350.57 360.45 342.39C354.14 334.21 317.45 363.55 320.96 376.97C324.47 390.39 350.13 371.2 362.55 359.97" stroke="white" stroke-width="3"/>
<path d="M242.83 476.3C242.428 477.169 241.858 477.95 241.153 478.598C240.449 479.246 239.623 479.749 238.724 480.078C237.825 480.407 236.87 480.555 235.913 480.514C234.957 480.473 234.018 480.244 233.15 479.84C232.28 479.439 231.498 478.87 230.849 478.165C230.2 477.461 229.696 476.636 229.366 475.737C229.036 474.838 228.887 473.882 228.927 472.925C228.967 471.968 229.196 471.028 229.6 470.16C230.002 469.29 230.572 468.508 231.277 467.858C231.982 467.209 232.809 466.705 233.709 466.375C234.609 466.046 235.565 465.897 236.523 465.937C237.48 465.977 238.421 466.206 239.29 466.61C240.159 467.013 240.94 467.584 241.589 468.289C242.237 468.995 242.74 469.821 243.069 470.721C243.397 471.621 243.546 472.577 243.505 473.534C243.464 474.492 243.234 475.431 242.83 476.3Z" fill="#F1E8FE"/>
<path d="M173.656 113.421L167.513 126.654L180.747 132.797L186.89 119.563L173.656 113.421Z" fill="#E0D2FC"/>
<path d="M360.547 84.325L354.404 97.5588L367.638 103.702L373.781 90.468L360.547 84.325Z" fill="#F9F6FF"/>
<path d="M123.39 217C122.575 218.755 121.097 220.115 119.28 220.781C117.463 221.446 115.456 221.363 113.7 220.55C111.947 219.733 110.589 218.254 109.925 216.437C109.261 214.621 109.346 212.615 110.16 210.86C110.975 209.107 112.451 207.749 114.266 207.084C116.081 206.418 118.085 206.5 119.84 207.31C120.71 207.712 121.492 208.282 122.142 208.987C122.791 209.692 123.295 210.519 123.625 211.419C123.954 212.319 124.103 213.275 124.063 214.233C124.023 215.19 123.794 216.131 123.39 217Z" fill="#E0D2FC"/>
<path d="M44.2771 265.889L30.5757 270.903L35.5897 284.605L49.2911 279.591L44.2771 265.889Z" fill="#E0D2FC"/>
<path d="M267.6 69.2C267.199 70.0696 266.63 70.8515 265.925 71.5008C265.221 72.1501 264.396 72.6541 263.497 72.9839C262.598 73.3137 261.642 73.4628 260.685 73.4226C259.728 73.3825 258.788 73.1539 257.92 72.75C257.05 72.3476 256.268 71.7775 255.619 71.0725C254.969 70.3675 254.465 69.5413 254.135 68.6412C253.806 67.7412 253.657 66.7849 253.697 65.8272C253.737 64.8695 253.966 63.9292 254.37 63.06C254.773 62.1909 255.344 61.4098 256.049 60.7614C256.755 60.113 257.581 59.61 258.481 59.2813C259.381 58.9525 260.337 58.8043 261.294 58.8453C262.252 58.8863 263.191 59.1155 264.06 59.52C264.929 59.9223 265.71 60.492 266.358 61.1965C267.006 61.901 267.509 62.7265 267.838 63.6257C268.167 64.5248 268.315 65.48 268.274 66.4365C268.233 67.393 268.004 68.3321 267.6 69.2Z" fill="#E0D2FC"/>
<path d="M103.391 95.5595L89.6899 100.573L94.7039 114.275L108.405 109.261L103.391 95.5595Z" fill="#F1E8FE"/>
<path d="M29.19 122.33C28.2364 122.453 27.2679 122.388 26.3398 122.136C25.4118 121.884 24.5425 121.452 23.7817 120.864C23.0209 120.276 22.3836 119.544 21.9063 118.709C21.4289 117.875 21.121 116.954 21 116C20.7504 114.081 21.2726 112.142 22.452 110.608C23.6315 109.074 25.3716 108.072 27.29 107.82C29.2087 107.57 31.148 108.093 32.6818 109.272C34.2156 110.452 35.2185 112.192 35.47 114.11C35.5994 115.062 35.5394 116.031 35.2935 116.96C35.0477 117.889 34.6207 118.761 34.0373 119.524C33.4538 120.288 32.7252 120.929 31.8934 121.411C31.0616 121.892 30.1429 122.205 29.19 122.33Z" fill="#E0D2FC"/>
<path d="M197.338 51.5272L188.446 63.0945L200.014 71.9864L208.905 60.4191L197.338 51.5272Z" fill="#F9F6FF"/>
<path opacity="0.5" d="M176.577 338.183L174.852 352.671L189.34 354.396L191.065 339.908L176.577 338.183Z" fill="#844BF1"/>
<path d="M90.3563 257.5L88.6313 271.987L103.119 273.712L104.844 259.225L90.3563 257.5Z" fill="#E0D2FC"/>
<path d="M372.799 33.1048L358.332 34.9966L360.224 49.4634L374.691 47.5717L372.799 33.1048Z" fill="#E0D2FC"/>
<path d="M434.06 245.884L419.593 247.776L421.485 262.243L435.951 260.351L434.06 245.884Z" fill="#F9F6FF"/>
<path d="M142.989 407.221L128.522 409.113L130.414 423.58L144.881 421.688L142.989 407.221Z" fill="#F9F6FF"/>
<path opacity="0.5" d="M349.11 154.14C348.16 154.266 347.195 154.204 346.27 153.957C345.344 153.709 344.476 153.282 343.716 152.698C342.956 152.115 342.319 151.387 341.841 150.557C341.363 149.727 341.053 148.81 340.93 147.86C340.805 146.911 340.868 145.946 341.116 145.021C341.364 144.096 341.792 143.229 342.375 142.469C342.958 141.709 343.686 141.072 344.515 140.593C345.345 140.115 346.261 139.805 347.21 139.68C348.16 139.555 349.124 139.618 350.049 139.866C350.975 140.114 351.842 140.542 352.601 141.125C353.361 141.708 353.998 142.436 354.477 143.265C354.955 144.095 355.266 145.011 355.39 145.96C355.517 146.91 355.454 147.875 355.207 148.801C354.959 149.726 354.532 150.594 353.948 151.354C353.365 152.114 352.637 152.751 351.807 153.229C350.977 153.707 350.06 154.017 349.11 154.14Z" fill="#844BF1"/>
<path d="M109.499 31.5641L100.607 43.1313L112.175 52.0233L121.067 40.456L109.499 31.5641Z" fill="#F1E8FE"/>
</g>
<defs>
<linearGradient id="paint0_linear_930_16243" x1="229.6" y1="280.24" x2="339.8" y2="280.24" gradientUnits="userSpaceOnUse">
<stop stop-color="#5F1AED"/>
<stop offset="1" stop-color="#CA53FA"/>
</linearGradient>
<linearGradient id="paint1_linear_930_16243" x1="187.27" y1="286.34" x2="346.46" y2="195.58" gradientUnits="userSpaceOnUse">
<stop stop-color="#5F1AED"/>
<stop offset="1" stop-color="#CA53FA"/>
</linearGradient>
<linearGradient id="paint2_linear_930_16243" x1="275.18" y1="354.9" x2="384.85" y2="354.9" gradientUnits="userSpaceOnUse">
<stop stop-color="#5F1AED"/>
<stop offset="1" stop-color="#CA53FA"/>
</linearGradient>
<clipPath id="clip0_930_16243">
<rect width="539.23" height="568.46" fill="white"/>
</clipPath>
</defs>
</svg>
